<svg width="149" height="35" viewBox="0 0 149 35" fill="none" xmlns="http://www.w3.org/2000/svg">
<path d="M1.08008 28V17.9785H4.86035C5.52572 17.9785 6.03385 18.0104 6.38477 18.0742C6.87695 18.1562 7.28939 18.3135 7.62207 18.5459C7.95475 18.7738 8.22135 19.0951 8.42188 19.5098C8.62695 19.9245 8.72949 20.3802 8.72949 20.877C8.72949 21.7292 8.45833 22.4515 7.91602 23.0439C7.3737 23.6318 6.39388 23.9258 4.97656 23.9258H2.40625V28H1.08008ZM2.40625 22.7432H4.99707C5.85384 22.7432 6.46224 22.5837 6.82227 22.2646C7.18229 21.9456 7.3623 21.4967 7.3623 20.918C7.3623 20.4987 7.25521 20.141 7.04102 19.8447C6.83138 19.5439 6.55339 19.3457 6.20703 19.25C5.98372 19.1908 5.57129 19.1611 4.96973 19.1611H2.40625V22.7432ZM14.6152 25.6621L15.8867 25.8193C15.6862 26.5622 15.3148 27.1387 14.7725 27.5488C14.2301 27.959 13.5374 28.1641 12.6943 28.1641C11.6325 28.1641 10.7894 27.8382 10.165 27.1865C9.54525 26.5303 9.23535 25.612 9.23535 24.4316C9.23535 23.2103 9.5498 22.2624 10.1787 21.5879C10.8076 20.9134 11.6234 20.5762 12.626 20.5762C13.5967 20.5762 14.3896 20.9066 15.0049 21.5674C15.6201 22.2282 15.9277 23.1579 15.9277 24.3564C15.9277 24.4294 15.9255 24.5387 15.9209 24.6846H10.5068C10.5524 25.4821 10.778 26.0928 11.1836 26.5166C11.5892 26.9404 12.0951 27.1523 12.7012 27.1523C13.1523 27.1523 13.5374 27.0339 13.8564 26.7969C14.1755 26.5599 14.4284 26.1816 14.6152 25.6621ZM10.5752 23.6729H14.6289C14.5742 23.0622 14.4193 22.6042 14.1641 22.2988C13.7721 21.8249 13.264 21.5879 12.6396 21.5879C12.0745 21.5879 11.5983 21.777 11.2109 22.1553C10.8281 22.5335 10.6162 23.0394 10.5752 23.6729ZM17.4385 20.7402H18.6689V26.2773L22.0801 20.7402H23.4062V28H22.1758V22.4971L18.7646 28H17.4385V20.7402ZM21.7109 17.9922H22.5518C22.4834 18.5618 22.2738 18.9993 21.9229 19.3047C21.5765 19.61 21.1139 19.7627 20.5352 19.7627C19.9518 19.7627 19.4847 19.6123 19.1338 19.3115C18.7874 19.0062 18.5801 18.5664 18.5117 17.9922H19.3525C19.4163 18.3021 19.5417 18.5345 19.7285 18.6895C19.9199 18.8398 20.1751 18.915 20.4941 18.915C20.8633 18.915 21.1413 18.8421 21.3281 18.6963C21.5195 18.5459 21.6471 18.3112 21.7109 17.9922ZM24.5957 20.7402H30.4951V21.7588H28.1572V28H26.9336V21.7588H24.5957V20.7402ZM31.6709 20.7402H32.9014V26.2773L36.3125 20.7402H37.6387V28H36.4082V22.4971L32.9971 28H31.6709V20.7402ZM39.498 20.7402H40.7285V23.7617H44.1396V20.7402H45.3701V28H44.1396V24.7803H40.7285V28H39.498V20.7402ZM47.2363 20.7402H51.4131V21.7588H48.4668V28H47.2363V20.7402ZM57.6406 24.3906L59.4111 27.5078H58.4131L56.2324 24.3906L58.4131 21.2734H59.4248L57.6406 24.3906ZM60.2861 24.3906L62.0908 27.5078H61.0518L58.9121 24.3906L61.0518 21.2734H62.0908L60.2861 24.3906ZM67.3135 22.2373V23.4199H71.0391C70.9889 24.5456 70.6768 25.4342 70.1025 26.0859C69.5283 26.7331 68.7923 27.0566 67.8945 27.0566C66.2995 27.0566 65.2992 26.209 64.8936 24.5137L63.6152 24.8486C64.194 27.0635 65.5885 28.1709 67.7988 28.1709C69.3802 28.1709 70.556 27.6628 71.3262 26.6465C72.1009 25.6257 72.4632 24.3701 72.4131 22.8799C72.4131 21.9684 72.2399 21.1367 71.8936 20.3848C71.5518 19.6328 71.0254 19.0153 70.3145 18.5322C69.6035 18.0492 68.7559 17.8076 67.7715 17.8076C66.7324 17.8076 65.862 18.0651 65.1602 18.5801C64.4629 19.0951 63.9912 19.8105 63.7451 20.7266L65.0439 21.0684C65.4222 19.6693 66.3337 18.9697 67.7783 18.9697C68.7536 18.9697 69.5169 19.2637 70.0684 19.8516C70.6243 20.4395 70.9297 21.2347 70.9844 22.2373H67.3135ZM74.0879 20.7402H75.3184V23.8779C75.7103 23.8779 75.9837 23.8027 76.1387 23.6523C76.2982 23.502 76.5306 23.0645 76.8359 22.3398C77.0775 21.7656 77.2734 21.3874 77.4238 21.2051C77.5742 21.0228 77.7474 20.8997 77.9434 20.8359C78.1393 20.7721 78.4538 20.7402 78.8867 20.7402H79.1328V21.7588L78.791 21.752C78.4674 21.752 78.2601 21.7998 78.1689 21.8955C78.0732 21.9958 77.9274 22.2943 77.7314 22.791C77.5446 23.265 77.3737 23.5931 77.2188 23.7754C77.0638 23.9577 76.8245 24.124 76.501 24.2744C77.0296 24.4157 77.5492 24.9079 78.0596 25.751L79.4062 28H78.0527L76.7402 25.751C76.4714 25.2998 76.2367 25.0036 76.0361 24.8623C75.8356 24.7165 75.5964 24.6436 75.3184 24.6436V28H74.0879V20.7402ZM85.1211 25.3408L86.3311 25.498C86.1989 26.332 85.8594 26.986 85.3125 27.46C84.7702 27.9294 84.1025 28.1641 83.3096 28.1641C82.3161 28.1641 81.5163 27.8405 80.9102 27.1934C80.3086 26.5417 80.0078 25.6097 80.0078 24.3975C80.0078 23.6136 80.1377 22.9277 80.3975 22.3398C80.6572 21.752 81.0514 21.3122 81.5801 21.0205C82.1133 20.7243 82.6921 20.5762 83.3164 20.5762C84.1048 20.5762 84.7497 20.7767 85.251 21.1777C85.7523 21.5742 86.0736 22.1393 86.2148 22.873L85.0186 23.0576C84.9046 22.57 84.7018 22.2031 84.4102 21.957C84.123 21.7109 83.7744 21.5879 83.3643 21.5879C82.7445 21.5879 82.2409 21.8112 81.8535 22.2578C81.4661 22.6999 81.2725 23.4017 81.2725 24.3633C81.2725 25.3385 81.4593 26.0472 81.833 26.4893C82.2067 26.9313 82.6943 27.1523 83.2959 27.1523C83.779 27.1523 84.1823 27.0042 84.5059 26.708C84.8294 26.4118 85.0345 25.9561 85.1211 25.3408ZM87.3906 20.7402H93.1191V28H91.8887V21.7588H88.6211V28H87.3906V20.7402ZM99.9414 25.6621L101.213 25.8193C101.012 26.5622 100.641 27.1387 100.099 27.5488C99.5563 27.959 98.8636 28.1641 98.0205 28.1641C96.9587 28.1641 96.1156 27.8382 95.4912 27.1865C94.8714 26.5303 94.5615 25.612 94.5615 24.4316C94.5615 23.2103 94.876 22.2624 95.5049 21.5879C96.1338 20.9134 96.9495 20.5762 97.9521 20.5762C98.9229 20.5762 99.7158 20.9066 100.331 21.5674C100.946 22.2282 101.254 23.1579 101.254 24.3564C101.254 24.4294 101.252 24.5387 101.247 24.6846H95.833C95.8786 25.4821 96.1042 26.0928 96.5098 26.5166C96.9154 26.9404 97.4212 27.1523 98.0273 27.1523C98.4785 27.1523 98.8636 27.0339 99.1826 26.7969C99.5016 26.5599 99.7546 26.1816 99.9414 25.6621ZM95.9014 23.6729H99.9551C99.9004 23.0622 99.7454 22.6042 99.4902 22.2988C99.0983 21.8249 98.5902 21.5879 97.9658 21.5879C97.4007 21.5879 96.9245 21.777 96.5371 22.1553C96.1543 22.5335 95.9424 23.0394 95.9014 23.6729ZM102.765 30.7822V20.7402H103.886V21.6836C104.15 21.3145 104.449 21.0387 104.781 20.8564C105.114 20.6696 105.517 20.5762 105.991 20.5762C106.611 20.5762 107.158 20.7357 107.632 21.0547C108.106 21.3737 108.464 21.8249 108.705 22.4082C108.947 22.987 109.067 23.6227 109.067 24.3154C109.067 25.0583 108.933 25.7282 108.664 26.3252C108.4 26.9176 108.012 27.3734 107.502 27.6924C106.996 28.0068 106.463 28.1641 105.902 28.1641C105.492 28.1641 105.123 28.0775 104.795 27.9043C104.471 27.7311 104.205 27.5124 103.995 27.248V30.7822H102.765ZM103.879 24.4111C103.879 25.3454 104.068 26.0358 104.446 26.4824C104.825 26.929 105.283 27.1523 105.82 27.1523C106.367 27.1523 106.834 26.9222 107.222 26.4619C107.614 25.9971 107.81 25.2793 107.81 24.3086C107.81 23.3835 107.618 22.6908 107.235 22.2305C106.857 21.7702 106.404 21.54 105.875 21.54C105.351 21.54 104.886 21.7861 104.48 22.2783C104.079 22.766 103.879 23.4769 103.879 24.4111ZM109.58 20.7402H115.479V21.7588H113.142V28H111.918V21.7588H109.58V20.7402ZM120.709 28V17.9785H124.489C125.155 17.9785 125.663 18.0104 126.014 18.0742C126.506 18.1562 126.918 18.3135 127.251 18.5459C127.584 18.7738 127.85 19.0951 128.051 19.5098C128.256 19.9245 128.358 20.3802 128.358 20.877C128.358 21.7292 128.087 22.4515 127.545 23.0439C127.003 23.6318 126.023 23.9258 124.605 23.9258H122.035V28H120.709ZM122.035 22.7432H124.626C125.483 22.7432 126.091 22.5837 126.451 22.2646C126.811 21.9456 126.991 21.4967 126.991 20.918C126.991 20.4987 126.884 20.141 126.67 19.8447C126.46 19.5439 126.182 19.3457 125.836 19.25C125.613 19.1908 125.2 19.1611 124.599 19.1611H122.035V22.7432ZM128.003 28L131.852 17.9785H133.28L137.382 28H135.871L134.702 24.9648H130.512L129.411 28H128.003ZM130.895 23.8848H134.292L133.246 21.1094C132.927 20.2663 132.69 19.5736 132.535 19.0312C132.408 19.6738 132.228 20.3118 131.995 20.9453L130.895 23.8848ZM142.769 24.3906L140.984 21.2734H141.996L144.177 24.3906L141.996 27.5078H140.991L142.769 24.3906ZM140.123 24.3906L138.318 21.2734H139.351L141.497 24.3906L139.351 27.5078H138.318L140.123 24.3906Z" fill="#000078"/>
<path d="M10.0557 13H7.85449L6.97949 10.7236H2.97363L2.14648 13H0L3.90332 2.97852H6.04297L10.0557 13ZM6.33008 9.03516L4.94922 5.31641L3.5957 9.03516H6.33008ZM13.3232 11.5576V8.95312H10.6982V7.15527H13.3232V4.55078H15.0732V7.15527H17.7051V8.95312H15.0732V11.5576H13.3232ZM21.499 11.5576V8.95312H18.874V7.15527H21.499V4.55078H23.249V7.15527H25.8809V8.95312H23.249V11.5576H21.499Z" fill="#000078"/>
</svg>
