<svg width="24" height="24" viewBox="0 0 24 24" fill="none" xmlns="http://www.w3.org/2000/svg">
<path d="M9.38614 3.89053C10.5335 1.85361 13.4665 1.85361 14.6139 3.89054L22.4713 17.8402C23.5977 19.84 22.1527 22.3125 19.8574 22.3125H4.1426C1.84734 22.3125 0.402288 19.84 1.52873 17.8402L9.38614 3.89053Z" fill="#CCCCE4"/>
<path fill-rule="evenodd" clip-rule="evenodd" d="M11.25 9.77394C11.25 9.34672 11.586 9 12 9C12.414 9 12.75 9.34672 12.75 9.77394C12.75 10.2011 12.414 10.5479 12 10.5479C11.586 10.5479 11.25 10.2011 11.25 9.77394ZM11.25 12.2143C11.25 11.682 11.586 11.25 12 11.25C12.414 11.25 12.75 11.682 12.75 12.2143V17.0357C12.75 17.568 12.414 18 12 18C11.586 18 11.25 17.568 11.25 17.0357V12.2143Z" fill="#000078"/>
</svg>
