<svg width="183" height="54" viewBox="0 0 183 54" fill="none" xmlns="http://www.w3.org/2000/svg">
<path d="M175.855 0H6.76364C3.02818 0 0 3.02208 0 6.75V47.25C0 50.9779 3.02818 54 6.76364 54H175.855C179.59 54 182.618 50.9779 182.618 47.25V6.75C182.618 3.02208 179.59 0 175.855 0Z" fill="black"/>
<path opacity="0.3" d="M175.855 1.08C177.361 1.08 178.806 1.67737 179.872 2.7407C180.937 3.80404 181.536 5.24622 181.536 6.75V47.25C181.536 48.7538 180.937 50.196 179.872 51.2593C178.806 52.3226 177.361 52.92 175.855 52.92H6.76364C5.25682 52.92 3.81172 52.3226 2.74624 51.2593C1.68076 50.196 1.08218 48.7538 1.08218 47.25V6.75C1.08218 5.24622 1.68076 3.80404 2.74624 2.7407C3.81172 1.67737 5.25682 1.08 6.76364 1.08H175.855ZM175.855 0H6.76364C4.96981 0 3.24945 0.711159 1.98102 1.97703C0.712595 3.2429 0 4.95979 0 6.75V47.25C0 49.0402 0.712595 50.7571 1.98102 52.023C3.24945 53.2888 4.96981 54 6.76364 54H175.855C177.648 54 179.369 53.2888 180.637 52.023C181.906 50.7571 182.618 49.0402 182.618 47.25V6.75C182.618 4.95979 181.906 3.2429 180.637 1.97703C179.369 0.711159 177.648 0 175.855 0Z" fill="#A6A6A6"/>
<path d="M43.44 26.0725C43.4026 21.9268 46.8413 19.9099 46.9986 19.816C45.0511 16.9823 42.0325 16.5951 40.9718 16.5643C38.4365 16.298 35.9773 18.0782 34.6859 18.0782C33.3686 18.0782 31.3799 16.59 29.2364 16.6337C26.4782 16.6762 23.8979 18.2699 22.4827 20.7447C19.5621 25.7908 21.7403 33.2063 24.5384 37.2851C25.9382 39.2827 27.5738 41.5131 29.7146 41.4346C31.8091 41.3485 32.5914 40.1021 35.1189 40.1021C37.6232 40.1021 38.3579 41.4346 40.5413 41.3845C42.7891 41.3485 44.2043 39.3779 45.555 37.3623C47.1726 35.0727 47.8222 32.8178 47.848 32.702C47.7951 32.684 43.4825 31.0414 43.44 26.0725Z" fill="white"/>
<path d="M39.3155 13.8811C40.442 12.4752 41.2127 10.5625 40.9988 8.62146C39.3683 8.69349 37.3293 9.74696 36.1551 11.122C35.1163 12.3337 34.1883 14.3197 34.428 16.1874C36.2595 16.3238 38.14 15.2651 39.3155 13.8811Z" fill="white"/>
<path d="M73.7504 41.1477H70.8234L69.22 36.1195H63.6468L62.1195 41.1477H59.2698L64.7914 24.0297H68.2018L73.7504 41.1477ZM68.7367 34.01L67.2867 29.5402C67.1333 29.0836 66.8459 28.0082 66.4218 26.3155H66.3703C66.2014 27.0435 65.9295 28.1188 65.5557 29.5402L64.1315 34.01H68.7367Z" fill="white"/>
<path d="M87.9497 34.8243C87.9497 36.9235 87.3813 38.5829 86.2445 39.801C85.2262 40.8853 83.9618 41.4268 82.4526 41.4268C80.8234 41.4268 79.6531 40.8429 78.9403 39.6749H78.8888V46.1771H76.1409V32.8679C76.1409 31.5481 76.1061 30.1937 76.0391 28.8045H78.4557L78.6091 30.7609H78.6607C79.5771 29.2868 80.9678 28.5511 82.8341 28.5511C84.2931 28.5511 85.5111 29.1261 86.4855 30.2773C87.4625 31.4298 87.9497 32.945 87.9497 34.8243ZM85.1502 34.9246C85.1502 33.7233 84.8795 32.7328 84.3356 31.9533C83.7415 31.1404 82.9436 30.7339 81.9435 30.7339C81.2655 30.7339 80.6494 30.9603 80.0991 31.4066C79.5474 31.8568 79.1865 32.4447 79.0177 33.1727C78.9326 33.5123 78.8901 33.7901 78.8901 34.0088V36.0669C78.8901 36.9647 79.1659 37.7223 79.7175 38.341C80.2692 38.9597 80.9858 39.2684 81.8674 39.2684C82.9024 39.2684 83.7079 38.8697 84.2841 38.0748C84.8615 37.2786 85.1502 36.2289 85.1502 34.9246Z" fill="white"/>
<path d="M102.175 34.8243C102.175 36.9235 101.607 38.5829 100.469 39.801C99.452 40.8853 98.1876 41.4268 96.6783 41.4268C95.0492 41.4268 93.8789 40.8429 93.1674 39.6749H93.1158V46.1771H90.3679V32.8679C90.3679 31.5481 90.3331 30.1937 90.2661 28.8045H92.6828L92.8362 30.7609H92.8877C93.8028 29.2868 95.1935 28.5511 97.0611 28.5511C98.5189 28.5511 99.7369 29.1261 100.714 30.2773C101.687 31.4298 102.175 32.945 102.175 34.8243ZM99.376 34.9246C99.376 33.7233 99.104 32.7328 98.5601 31.9533C97.9659 31.1404 97.1707 30.7339 96.1692 30.7339C95.49 30.7339 94.8752 30.9603 94.3235 31.4066C93.7719 31.8568 93.4123 32.4447 93.2434 33.1727C93.1597 33.5123 93.1158 33.7901 93.1158 34.0088V36.0669C93.1158 36.9647 93.3917 37.7223 93.9407 38.341C94.4924 38.9584 95.209 39.2684 96.0932 39.2684C97.1281 39.2684 97.9337 38.8697 98.5098 38.0748C99.0873 37.2786 99.376 36.2289 99.376 34.9246Z" fill="white"/>
<path d="M118.08 36.3473C118.08 37.8034 117.574 38.9881 116.557 39.9026C115.44 40.9021 113.884 41.4011 111.885 41.4011C110.039 41.4011 108.559 41.0461 107.439 40.3348L108.076 38.0491C109.283 38.7771 110.606 39.1424 112.049 39.1424C113.083 39.1424 113.889 38.9083 114.468 38.4427C115.044 37.977 115.331 37.3519 115.331 36.5724C115.331 35.8778 115.094 35.2926 114.619 34.8179C114.146 34.3433 113.355 33.9021 112.252 33.4943C109.249 32.3765 107.749 30.7391 107.749 28.5859C107.749 27.1787 108.275 26.0249 109.328 25.127C110.377 24.2279 111.777 23.779 113.527 23.779C115.088 23.779 116.384 24.0504 117.419 24.5919L116.732 26.8275C115.766 26.3027 114.673 26.0403 113.45 26.0403C112.483 26.0403 111.728 26.2783 111.186 26.7516C110.729 27.1748 110.499 27.6906 110.499 28.3016C110.499 28.9782 110.761 29.5377 111.287 29.9776C111.744 30.3841 112.576 30.824 113.782 31.2986C115.258 31.8916 116.342 32.5849 117.039 33.3798C117.734 34.1722 118.08 35.1639 118.08 36.3473Z" fill="white"/>
<path d="M127.166 30.8626H124.137V36.8554C124.137 38.3796 124.67 39.1411 125.74 39.1411C126.231 39.1411 126.638 39.0987 126.961 39.0138L127.037 41.0963C126.495 41.2982 125.783 41.3999 124.9 41.3999C123.814 41.3999 122.966 41.0693 122.354 40.4094C121.745 39.7483 121.438 38.6395 121.438 37.0818V30.86H119.633V28.8019H121.438V26.5419L124.137 25.729V28.8019H127.166V30.8626Z" fill="white"/>
<path d="M140.832 34.8746C140.832 36.7719 140.288 38.3296 139.203 39.5477C138.065 40.8018 136.554 41.427 134.671 41.427C132.856 41.427 131.411 40.8263 130.334 39.6249C129.256 38.4235 128.718 36.9069 128.718 35.0791C128.718 33.1664 129.272 31.5997 130.384 30.3816C131.494 29.1622 132.991 28.5525 134.875 28.5525C136.689 28.5525 138.15 29.1532 139.252 30.3559C140.306 31.5225 140.832 33.0288 140.832 34.8746ZM137.981 34.9634C137.981 33.825 137.737 32.8487 137.244 32.0345C136.667 31.0492 135.844 30.5578 134.777 30.5578C133.672 30.5578 132.833 31.0505 132.257 32.0345C131.763 32.85 131.52 33.8417 131.52 35.0148C131.52 36.1532 131.763 37.1295 132.257 37.9424C132.851 38.9277 133.681 39.4191 134.752 39.4191C135.801 39.4191 136.625 38.9174 137.219 37.9167C137.726 37.087 137.981 36.1004 137.981 34.9634Z" fill="white"/>
<path d="M149.764 31.2163C149.492 31.1661 149.202 31.1404 148.897 31.1404C147.931 31.1404 147.183 31.5044 146.657 32.2337C146.2 32.8769 145.97 33.6898 145.97 34.6712V41.1477H143.224L143.25 32.6916C143.25 31.269 143.215 29.9737 143.146 28.8058H145.54L145.64 31.1674H145.717C146.007 30.3558 146.464 29.7023 147.09 29.2122C147.703 28.771 148.364 28.5511 149.077 28.5511C149.331 28.5511 149.56 28.5691 149.764 28.6013V31.2163Z" fill="white"/>
<path d="M162.053 34.3922C162.053 34.8836 162.021 35.2978 161.953 35.636H153.709C153.741 36.8554 154.139 37.788 154.905 38.4311C155.6 39.0061 156.498 39.2942 157.601 39.2942C158.822 39.2942 159.936 39.1 160.937 38.7103L161.367 40.614C160.197 41.1234 158.815 41.3767 157.221 41.3767C155.303 41.3767 153.798 40.8134 152.702 39.6879C151.609 38.5624 151.062 37.051 151.062 35.155C151.062 33.2937 151.571 31.7437 152.59 30.5076C153.657 29.1879 155.1 28.528 156.914 28.528C158.697 28.528 160.046 29.1879 160.963 30.5076C161.688 31.5559 162.053 32.8525 162.053 34.3922ZM159.433 33.6809C159.451 32.868 159.272 32.1656 158.899 31.5727C158.424 30.8099 157.693 30.4291 156.709 30.4291C155.811 30.4291 155.08 30.8009 154.522 31.5469C154.065 32.1399 153.793 32.8512 153.709 33.6796H159.433V33.6809Z" fill="white"/>
<path d="M69.1211 19.8466H67.6918V17.7188H61.9803V19.8466H60.5271L60.4795 16.5181H61.1763C61.5217 16.1853 61.7977 15.7019 62.0041 15.0679C62.2106 14.4299 62.3436 13.7088 62.4032 12.9044L62.6295 9.06482H68.0968V16.5181H69.1986L69.1211 19.8466ZM62.8796 16.5181H66.5959V10.2773H64.0648L63.9219 12.7142C63.8147 14.3428 63.4672 15.6107 62.8796 16.5181Z" fill="white"/>
<path d="M70.5291 14.4438C70.5291 13.8138 70.6541 13.2472 70.9043 12.7439C71.1544 12.2367 71.5058 11.8484 71.9584 11.579C72.411 11.3056 72.9312 11.1689 73.5188 11.1689C74.3883 11.1689 75.0931 11.4482 75.633 12.0069C76.177 12.5656 76.4708 13.3066 76.5145 14.2298L76.5204 14.5686C76.5204 15.2026 76.3974 15.7692 76.1512 16.2685C75.909 16.7678 75.5596 17.1541 75.103 17.4275C74.6504 17.7009 74.1263 17.8376 73.5307 17.8376C72.6215 17.8376 71.8929 17.5365 71.345 16.9342C70.801 16.3279 70.5291 15.5216 70.5291 14.5151V14.4438ZM71.9763 14.5686C71.9763 15.2304 72.1133 15.7494 72.3872 16.1259C72.6612 16.4983 73.0423 16.6846 73.5307 16.6846C74.0191 16.6846 74.3982 16.4944 74.6682 16.114C74.9422 15.7336 75.0792 15.1769 75.0792 14.4438C75.0792 13.794 74.9382 13.2789 74.6563 12.8985C74.3784 12.5181 73.9992 12.3279 73.5188 12.3279C73.0463 12.3279 72.6711 12.5161 72.3932 12.8925C72.1152 13.265 71.9763 13.8237 71.9763 14.5686Z" fill="white"/>
<path d="M81.0015 16.6846C81.3628 16.6846 81.6625 16.5796 81.9008 16.3696C82.139 16.1595 82.2661 15.9 82.2819 15.5909H83.6458C83.6299 15.9911 83.5048 16.3656 83.2706 16.7143C83.0363 17.059 82.7187 17.3324 82.3177 17.5345C81.9167 17.7366 81.4839 17.8376 81.0193 17.8376C80.118 17.8376 79.4034 17.5464 78.8753 16.9639C78.3472 16.3814 78.0832 15.5771 78.0832 14.5508V14.4022C78.0832 13.4235 78.3452 12.6409 78.8693 12.0545C79.3934 11.4641 80.1081 11.1689 81.0134 11.1689C81.7797 11.1689 82.403 11.3927 82.8835 11.8405C83.3678 12.2843 83.622 12.8687 83.6458 13.5939H82.2819C82.2661 13.2254 82.139 12.9222 81.9008 12.6845C81.6665 12.4468 81.3667 12.3279 81.0015 12.3279C80.533 12.3279 80.1716 12.4983 79.9175 12.839C79.6634 13.1758 79.5344 13.689 79.5304 14.3784V14.6102C79.5304 15.3076 79.6555 15.8287 79.9056 16.1734C80.1597 16.5142 80.525 16.6846 81.0015 16.6846Z" fill="white"/>
<path d="M90.4197 12.4349H88.3293V17.7188H86.8821V12.4349H84.8155V11.2877H90.4197V12.4349Z" fill="white"/>
<path d="M94.3231 15.6504L95.6333 11.2877H97.1758L94.6149 18.6935C94.2218 19.7753 93.5548 20.3161 92.6138 20.3161C92.4034 20.3161 92.1711 20.2805 91.917 20.2091V19.0917L92.1909 19.1096C92.5562 19.1096 92.8302 19.0422 93.0128 18.9075C93.1994 18.7767 93.3463 18.5548 93.4535 18.2418L93.662 17.689L91.3988 11.2877H92.9592L94.3231 15.6504Z" fill="white"/>
<path d="M104.087 17.7188H102.64V12.4527H100.126V17.7188H98.679V11.2877H104.087V17.7188Z" fill="white"/>
<path d="M111.694 17.7188H110.247V15.1214H107.74V17.7188H106.293V11.2877H107.74V13.9683H110.247V11.2877H111.694V17.7188Z" fill="white"/>
<path d="M113.579 14.4438C113.579 13.8138 113.704 13.2472 113.954 12.7439C114.204 12.2367 114.556 11.8484 115.008 11.579C115.461 11.3056 115.981 11.1689 116.569 11.1689C117.438 11.1689 118.143 11.4482 118.683 12.0069C119.227 12.5656 119.521 13.3066 119.564 14.2298L119.57 14.5686C119.57 15.2026 119.447 15.7692 119.201 16.2685C118.959 16.7678 118.609 17.1541 118.153 17.4275C117.7 17.7009 117.176 17.8376 116.581 17.8376C115.671 17.8376 114.943 17.5365 114.395 16.9342C113.851 16.3279 113.579 15.5216 113.579 14.5151V14.4438ZM115.026 14.5686C115.026 15.2304 115.163 15.7494 115.437 16.1259C115.711 16.4983 116.092 16.6846 116.581 16.6846C117.069 16.6846 117.448 16.4944 117.718 16.114C117.992 15.7336 118.129 15.1769 118.129 14.4438C118.129 13.794 117.988 13.2789 117.706 12.8985C117.428 12.5181 117.049 12.3279 116.569 12.3279C116.096 12.3279 115.721 12.5161 115.443 12.8925C115.165 13.265 115.026 13.8237 115.026 14.5686Z" fill="white"/>
<path d="M125.161 17.7188V11.2877H127.776C128.657 11.2877 129.328 11.4423 129.789 11.7513C130.25 12.0565 130.48 12.4963 130.48 13.0708C130.48 13.368 130.387 13.6355 130.2 13.8732C130.017 14.107 129.745 14.2873 129.384 14.4141C129.805 14.5013 130.138 14.6776 130.385 14.9431C130.631 15.2086 130.754 15.5216 130.754 15.8822C130.754 16.4805 130.531 16.9362 130.087 17.2492C129.646 17.5622 129.011 17.7188 128.181 17.7188H125.161ZM126.609 14.9787V16.5776H128.193C128.935 16.5776 129.307 16.3121 129.307 15.7811C129.307 15.2462 128.929 14.9787 128.175 14.9787H126.609ZM126.609 13.9445H127.8C128.622 13.9445 129.033 13.7028 129.033 13.2194C129.033 12.7122 128.643 12.4507 127.865 12.4349H126.609V13.9445Z" fill="white"/>
</svg>
