<svg width="183" height="54" viewBox="0 0 183 54" fill="none" xmlns="http://www.w3.org/2000/svg">
<rect x="0.5" y="0.5" width="182" height="53" rx="6.5" stroke="white"/>
<path d="M43.6024 26.0725C43.5651 21.9268 46.997 19.9099 47.1539 19.816C45.2103 16.9823 42.1978 16.5951 41.1392 16.5643C38.6091 16.298 36.1548 18.0782 34.866 18.0782C33.5514 18.0782 31.5666 16.59 29.4275 16.6337C26.6749 16.6762 24.0997 18.2699 22.6874 20.7447C19.7727 25.7908 21.9465 33.2063 24.739 37.2851C26.1359 39.2827 27.7682 41.5131 29.9048 41.4346C31.995 41.3485 32.7758 40.102 35.2982 40.102C37.7974 40.102 38.5306 41.4346 40.7096 41.3845C42.9529 41.3485 44.3652 39.3779 45.7132 37.3623C47.3275 35.0727 47.9758 32.8178 48.0015 32.702C47.9488 32.684 43.6449 31.0414 43.6024 26.0725Z" fill="white"/>
<path d="M39.4865 13.8811C40.6107 12.4752 41.3799 10.5625 41.1664 8.62146C39.5392 8.69349 37.5043 9.74696 36.3325 11.122C35.2957 12.3337 34.3696 14.3197 34.6089 16.1874C36.4367 16.3238 38.3134 15.2651 39.4865 13.8811Z" fill="white"/>
<path d="M73.8518 41.1477H70.9307L69.3305 36.1196H63.7686L62.2444 41.1477H59.4004L64.9109 24.0298H68.3144L73.8518 41.1477ZM68.8482 34.0101L67.4011 29.5402C67.248 29.0836 66.9612 28.0083 66.538 26.3155H66.4866C66.318 27.0436 66.0466 28.1189 65.6736 29.5402L64.2523 34.0101H68.8482Z" fill="white"/>
<path d="M88.0223 34.8244C88.0223 36.9236 87.4551 38.5829 86.3206 39.801C85.3044 40.8854 84.0426 41.4269 82.5363 41.4269C80.9104 41.4269 79.7425 40.8429 79.0312 39.675H78.9797V46.1772H76.2374V32.8679C76.2374 31.5482 76.2026 30.1937 76.1357 28.8045H78.5475L78.7006 30.761H78.7521C79.6666 29.2869 81.0545 28.5511 82.9171 28.5511C84.3731 28.5511 85.5887 29.1261 86.5611 30.2773C87.5361 31.4299 88.0223 32.9451 88.0223 34.8244ZM85.2285 34.9247C85.2285 33.7233 84.9584 32.7329 84.4156 31.9534C83.8226 31.1404 83.0264 30.734 82.0282 30.734C81.3516 30.734 80.7368 30.9604 80.1875 31.4067C79.637 31.8569 79.2769 32.4447 79.1084 33.1728C79.0235 33.5124 78.981 33.7902 78.981 34.0089V36.0669C78.981 36.9648 79.2563 37.7224 79.8068 38.3411C80.3573 38.9598 81.0725 39.2685 81.9523 39.2685C82.9852 39.2685 83.7892 38.8698 84.3641 38.0748C84.9404 37.2786 85.2285 36.229 85.2285 34.9247Z" fill="white"/>
<path d="M102.22 34.8244C102.22 36.9236 101.653 38.5829 100.517 39.801C99.5018 40.8854 98.24 41.4269 96.7337 41.4269C95.1079 41.4269 93.9399 40.8429 93.2299 39.675H93.1785V46.1772H90.4361V32.8679C90.4361 31.5482 90.4014 30.1937 90.3345 28.8045H92.7463L92.8993 30.761H92.9508C93.864 29.2869 95.252 28.5511 97.1158 28.5511C98.5706 28.5511 99.7861 29.1261 100.761 30.2773C101.732 31.4299 102.22 32.9451 102.22 34.8244ZM99.426 34.9247C99.426 33.7233 99.1545 32.7329 98.6117 31.9534C98.0187 31.1404 97.2251 30.734 96.2257 30.734C95.5478 30.734 94.9342 30.9604 94.3837 31.4067C93.8332 31.8569 93.4743 32.4447 93.3058 33.1728C93.2222 33.5124 93.1785 33.7902 93.1785 34.0089V36.0669C93.1785 36.9648 93.4537 37.7224 94.0017 38.3411C94.5522 38.9585 95.2674 39.2685 96.1498 39.2685C97.1827 39.2685 97.9866 38.8698 98.5616 38.0748C99.1378 37.2786 99.426 36.229 99.426 34.9247Z" fill="white"/>
<path d="M118.093 36.3474C118.093 37.8035 117.587 38.9881 116.572 39.9027C115.457 40.9021 113.905 41.4012 111.91 41.4012C110.068 41.4012 108.591 41.0462 107.473 40.3349L108.109 38.0491C109.313 38.7772 110.634 39.1425 112.073 39.1425C113.106 39.1425 113.91 38.9084 114.487 38.4427C115.062 37.9771 115.349 37.352 115.349 36.5725C115.349 35.8779 115.112 35.2926 114.638 34.818C114.166 34.3433 113.377 33.9021 112.276 33.4944C109.279 32.3766 107.782 30.7392 107.782 28.5859C107.782 27.1787 108.307 26.0249 109.358 25.1271C110.405 24.228 111.802 23.7791 113.548 23.7791C115.106 23.7791 116.4 24.0505 117.433 24.592L116.747 26.8276C115.783 26.3028 114.692 26.0403 113.471 26.0403C112.506 26.0403 111.753 26.2783 111.212 26.7517C110.756 27.1749 110.527 27.6907 110.527 28.3016C110.527 28.9782 110.788 29.5378 111.313 29.9777C111.769 30.3841 112.599 30.8241 113.803 31.2987C115.276 31.8917 116.358 32.585 117.053 33.3799C117.747 34.1723 118.093 35.164 118.093 36.3474Z" fill="white"/>
<path d="M127.159 30.8627H124.136V36.8555C124.136 38.3798 124.669 39.1413 125.737 39.1413C126.227 39.1413 126.633 39.0988 126.955 39.0139L127.031 41.0964C126.49 41.2984 125.779 41.4 124.898 41.4C123.815 41.4 122.968 41.0694 122.357 40.4095C121.749 39.7484 121.443 38.6396 121.443 37.0819V30.8601H119.642V28.8021H121.443V26.5421L124.136 25.7291V28.8021H127.159V30.8627Z" fill="white"/>
<path d="M140.798 34.8746C140.798 36.7719 140.255 38.3296 139.172 39.5477C138.036 40.8018 136.529 41.427 134.649 41.427C132.838 41.427 131.396 40.8263 130.321 39.6249C129.246 38.4235 128.708 36.9069 128.708 35.0791C128.708 33.1664 129.261 31.5997 130.371 30.3816C131.479 29.1622 132.973 28.5525 134.853 28.5525C136.664 28.5525 138.121 29.1532 139.221 30.3559C140.273 31.5225 140.798 33.0288 140.798 34.8746ZM137.953 34.9634C137.953 33.825 137.709 32.8487 137.217 32.0345C136.642 31.0492 135.82 30.5578 134.755 30.5578C133.653 30.5578 132.815 31.0505 132.24 32.0345C131.748 32.85 131.504 33.8417 131.504 35.0148C131.504 36.1532 131.748 37.1295 132.24 37.9424C132.833 38.9277 133.662 39.4191 134.73 39.4191C135.777 39.4191 136.599 38.9174 137.192 37.9167C137.698 37.087 137.953 36.1004 137.953 34.9634Z" fill="white"/>
<path d="M149.712 31.2163C149.44 31.1662 149.151 31.1404 148.847 31.1404C147.883 31.1404 147.137 31.5045 146.612 32.2338C146.155 32.8769 145.926 33.6899 145.926 34.6713V41.1478H143.185L143.211 32.6917C143.211 31.2691 143.176 29.9738 143.108 28.8058H145.497L145.597 31.1675H145.673C145.962 30.3558 146.419 29.7024 147.044 29.2123C147.655 28.7711 148.315 28.5511 149.026 28.5511C149.28 28.5511 149.508 28.5692 149.712 28.6013V31.2163Z" fill="white"/>
<path d="M161.976 34.3923C161.976 34.8836 161.944 35.2978 161.876 35.6361H153.649C153.681 36.8555 154.078 37.7881 154.843 38.4312C155.536 39.0062 156.432 39.2943 157.533 39.2943C158.752 39.2943 159.863 39.1001 160.862 38.7103L161.292 40.614C160.124 41.1234 158.745 41.3768 157.154 41.3768C155.24 41.3768 153.738 40.8134 152.644 39.6879C151.554 38.5624 151.007 37.051 151.007 35.155C151.007 33.2938 151.515 31.7438 152.532 30.5077C153.597 29.1879 155.037 28.5281 156.848 28.5281C158.627 28.5281 159.974 29.1879 160.888 30.5077C161.612 31.556 161.976 32.8526 161.976 34.3923ZM159.361 33.6809C159.379 32.868 159.2 32.1657 158.829 31.5727C158.354 30.81 157.625 30.4292 156.643 30.4292C155.747 30.4292 155.017 30.8009 154.461 31.547C154.004 32.14 153.732 32.8513 153.649 33.6797H159.361V33.6809Z" fill="white"/>
<path d="M69.2316 19.8466H67.8052V17.7188H62.1052V19.8466H60.655L60.6074 16.5181H61.3028C61.6476 16.1853 61.9229 15.7019 62.129 15.0679C62.335 14.4299 62.4678 13.7088 62.5272 12.9044L62.7531 9.06482H68.2093V16.5181H69.3089L69.2316 19.8466ZM63.0027 16.5181H66.7115V10.2773H64.1855L64.0428 12.7142C63.9359 14.3428 63.5891 15.6107 63.0027 16.5181Z" fill="white"/>
<path d="M70.6367 14.4438C70.6367 13.8138 70.7615 13.2472 71.0112 12.7439C71.2608 12.2367 71.6115 11.8484 72.0632 11.579C72.5149 11.3056 73.034 11.1689 73.6204 11.1689C74.4882 11.1689 75.1915 11.4482 75.7304 12.0069C76.2733 12.5656 76.5665 13.3066 76.6101 14.2298L76.616 14.5686C76.616 15.2026 76.4932 15.7692 76.2475 16.2685C76.0058 16.7678 75.6571 17.1541 75.2014 17.4275C74.7497 17.7009 74.2267 17.8376 73.6323 17.8376C72.7249 17.8376 71.9978 17.5365 71.451 16.9342C70.9081 16.3279 70.6367 15.5216 70.6367 14.5151V14.4438ZM72.081 14.5686C72.081 15.2304 72.2177 15.7494 72.4911 16.1259C72.7645 16.4983 73.1449 16.6846 73.6323 16.6846C74.1197 16.6846 74.4981 16.4944 74.7676 16.114C75.041 15.7336 75.1777 15.1769 75.1777 14.4438C75.1777 13.794 75.037 13.2789 74.7557 12.8985C74.4783 12.5181 74.0999 12.3279 73.6204 12.3279C73.1489 12.3279 72.7745 12.5161 72.4971 12.8925C72.2197 13.265 72.081 13.8237 72.081 14.5686Z" fill="white"/>
<path d="M81.088 16.6846C81.4486 16.6846 81.7478 16.5796 81.9855 16.3696C82.2233 16.1595 82.3501 15.9 82.3659 15.5909H83.727C83.7111 15.9911 83.5863 16.3656 83.3525 16.7143C83.1188 17.059 82.8018 17.3324 82.4016 17.5345C82.0014 17.7366 81.5695 17.8376 81.1059 17.8376C80.2064 17.8376 79.4931 17.5464 78.9661 16.9639C78.4391 16.3814 78.1756 15.5771 78.1756 14.5508V14.4022C78.1756 13.4235 78.4372 12.6409 78.9602 12.0545C79.4832 11.4641 80.1965 11.1689 81.0999 11.1689C81.8647 11.1689 82.4868 11.3927 82.9662 11.8405C83.4496 12.2843 83.7032 12.8687 83.727 13.5939H82.3659C82.3501 13.2254 82.2233 12.9222 81.9855 12.6845C81.7517 12.4468 81.4526 12.3279 81.088 12.3279C80.6205 12.3279 80.2599 12.4983 80.0063 12.839C79.7527 13.1758 79.6239 13.689 79.6199 14.3784V14.6102C79.6199 15.3076 79.7448 15.8287 79.9944 16.1734C80.248 16.5142 80.6125 16.6846 81.088 16.6846Z" fill="white"/>
<path d="M90.4873 12.4349H88.4011V17.7188H86.9568V12.4349H84.8943V11.2877H90.4873V12.4349Z" fill="white"/>
<path d="M94.3828 15.6504L95.6904 11.2877H97.2298L94.674 18.6935C94.2817 19.7753 93.616 20.3161 92.6769 20.3161C92.4669 20.3161 92.2351 20.2805 91.9815 20.2091V19.0917L92.2549 19.1096C92.6195 19.1096 92.8929 19.0422 93.0752 18.9075C93.2614 18.7767 93.408 18.5548 93.515 18.2418L93.723 17.689L91.4644 11.2877H93.0217L94.3828 15.6504Z" fill="white"/>
<path d="M104.127 17.7188H102.682V12.4527H100.174V17.7188H98.7299V11.2877H104.127V17.7188Z" fill="white"/>
<path d="M111.719 17.7188H110.275V15.1214H107.773V17.7188H106.328V11.2877H107.773V13.9683H110.275V11.2877H111.719V17.7188Z" fill="white"/>
<path d="M113.6 14.4438C113.6 13.8138 113.725 13.2472 113.974 12.7439C114.224 12.2367 114.574 11.8484 115.026 11.579C115.478 11.3056 115.997 11.1689 116.583 11.1689C117.451 11.1689 118.155 11.4482 118.693 12.0069C119.236 12.5656 119.53 13.3066 119.573 14.2298L119.579 14.5686C119.579 15.2026 119.456 15.7692 119.211 16.2685C118.969 16.7678 118.62 17.1541 118.164 17.4275C117.713 17.7009 117.19 17.8376 116.595 17.8376C115.688 17.8376 114.961 17.5365 114.414 16.9342C113.871 16.3279 113.6 15.5216 113.6 14.5151V14.4438ZM115.044 14.5686C115.044 15.2304 115.181 15.7494 115.454 16.1259C115.728 16.4983 116.108 16.6846 116.595 16.6846C117.083 16.6846 117.461 16.4944 117.731 16.114C118.004 15.7336 118.141 15.1769 118.141 14.4438C118.141 13.794 118 13.2789 117.719 12.8985C117.441 12.5181 117.063 12.3279 116.583 12.3279C116.112 12.3279 115.737 12.5161 115.46 12.8925C115.183 13.265 115.044 13.8237 115.044 14.5686Z" fill="white"/>
<path d="M125.159 17.7188V11.2877H127.768C128.648 11.2877 129.317 11.4423 129.777 11.7513C130.237 12.0565 130.467 12.4963 130.467 13.0708C130.467 13.368 130.373 13.6355 130.187 13.8732C130.005 14.107 129.734 14.2873 129.373 14.4141C129.793 14.5013 130.126 14.6776 130.372 14.9431C130.617 15.2086 130.74 15.5216 130.74 15.8822C130.74 16.4805 130.518 16.9362 130.074 17.2492C129.634 17.5622 129.001 17.7188 128.172 17.7188H125.159ZM126.603 14.9787V16.5776H128.184C128.925 16.5776 129.296 16.3121 129.296 15.7811C129.296 15.2462 128.919 14.9787 128.166 14.9787H126.603ZM126.603 13.9445H127.792C128.612 13.9445 129.022 13.7028 129.022 13.2194C129.022 12.7122 128.634 12.4507 127.857 12.4349H126.603V13.9445Z" fill="white"/>
</svg>
