<svg width="24" height="24" viewBox="0 0 24 24" fill="none" xmlns="http://www.w3.org/2000/svg">
<path d="M20.1574 4.49466H16.6129V3H15.3317V4.49466L8.66981 4.49466V3H7.38867V4.49466H3.84418C3.48119 4.49466 3.20361 4.77224 3.20361 5.13523L3.20361 20.3594C3.20361 20.7224 3.48119 21 3.84418 21H20.1574C20.5203 21 20.7979 20.7224 20.7979 20.3594V5.13523C20.7979 4.79359 20.5203 4.49466 20.1574 4.49466ZM7.58084 17.7117C6.87621 17.7117 6.32105 17.1566 6.32105 16.452C6.32105 15.7473 6.87621 15.1922 7.58084 15.1922C8.28546 15.1922 8.84062 15.7473 8.84062 16.452C8.84062 17.1566 8.28546 17.7117 7.58084 17.7117ZM7.58084 13.9537C6.87621 13.9537 6.32105 13.3986 6.32105 12.694C6.32105 11.9893 6.87621 11.4342 7.58084 11.4342C8.28546 11.4342 8.84062 11.9893 8.84062 12.694C8.84062 13.3986 8.28546 13.9537 7.58084 13.9537ZM12.0008 17.7117C11.2961 17.7117 10.741 17.1566 10.741 16.452C10.741 15.7473 11.2961 15.1922 12.0008 15.1922C12.7054 15.1922 13.2606 15.7473 13.2606 16.452C13.2606 17.1352 12.7054 17.7117 12.0008 17.7117ZM12.0008 13.9537C11.2961 13.9537 10.741 13.3986 10.741 12.694C10.741 11.9893 11.2961 11.4342 12.0008 11.4342C12.7054 11.4342 13.2606 11.9893 13.2606 12.694C13.2606 13.3772 12.7054 13.9537 12.0008 13.9537ZM16.4207 17.7117C15.7161 17.7117 15.1609 17.1566 15.1609 16.452C15.1609 15.7473 15.7161 15.1922 16.4207 15.1922C17.1253 15.1922 17.6805 15.7473 17.6805 16.452C17.6805 17.1566 17.1253 17.7117 16.4207 17.7117ZM16.4207 13.9537C15.7161 13.9537 15.1609 13.3986 15.1609 12.694C15.1609 11.9893 15.7161 11.4342 16.4207 11.4342C17.1253 11.4342 17.6805 11.9893 17.6805 12.694C17.6805 13.3986 17.1253 13.9537 16.4207 13.9537ZM19.5168 8.03915V8.29537H4.48475V5.7758H7.38867V7.31317H8.66981V5.7758L15.3317 5.7758V7.31317H16.6129V5.7758H19.5168V8.03915Z" fill="#CCCCE4"/>
</svg>
