<svg width="134" height="124" viewBox="0 0 134 124" fill="none" xmlns="http://www.w3.org/2000/svg">
<g clip-path="url(#clip0)">
<path d="M20.3433 46.8252C20.5803 46.8286 20.6168 46.9746 20.8873 46.9671C21.3342 46.952 21.4223 46.5439 21.8968 46.2981C22.6272 45.9187 23.2475 46.4538 23.6107 46.0575C23.8104 45.8382 23.6462 45.6562 23.9119 45.2058C24.0888 44.8985 24.4152 44.5532 24.6009 44.6227C24.8228 44.7058 24.6423 45.3057 24.8752 45.4223C25.1303 45.5501 25.4442 44.8766 26.2975 44.4756C27.1011 44.0971 27.4952 44.3799 27.9006 43.9259C28.1641 43.6306 28.1269 43.3608 28.4879 43.1195C28.8005 42.9131 28.9747 43.0136 29.1545 42.8162C29.4158 42.5347 29.195 42.1815 29.3179 41.7277C29.4633 41.1822 30.0382 40.7152 30.5753 40.6163C31.5019 40.4515 32.6645 41.3219 32.9259 42.2343C33.0173 42.5479 33.0625 43.0794 33.4011 43.212C33.5627 43.2754 33.6994 43.209 33.8729 43.3268C34.1197 43.4927 34.0641 43.7748 34.1847 43.8141C34.4949 43.9125 35.1616 42.1243 35.6046 42.2137C35.8539 42.2629 35.7682 42.8454 36.1836 43.0244C36.4771 43.1519 36.6959 42.9368 37.1168 43.1091C37.3419 43.1992 37.3232 43.2804 37.5232 43.3435C37.8247 43.4417 38.2593 43.3809 38.4787 43.1484C38.8271 42.776 38.3589 42.2743 38.6384 41.732C38.9872 41.0598 40.221 40.8365 40.5427 41.1951C40.6969 41.3646 40.5823 41.5922 40.7439 41.7027C40.9465 41.8373 41.2661 41.5806 41.7919 41.3157C42.8236 40.7992 43.1672 40.9896 43.4378 40.5968C43.7103 40.199 43.3477 40.0045 43.513 39.2488C43.7184 38.2995 44.4089 38.0581 44.9303 37.0506C44.9828 36.9497 45.0733 36.763 45.2754 36.624C45.5561 36.4321 45.7351 36.5432 45.9149 36.3929C46.1595 36.1875 45.9894 35.8327 46.1258 35.3427C46.2567 34.8595 46.589 34.5927 46.7288 34.4393C47.032 34.1087 47.2702 33.4098 47.0789 31.8151C47.0496 31.807 47.0183 31.8041 46.9873 31.7925C46.2088 31.5305 46.243 30.5906 45.5597 30.4907C45.1019 30.4252 44.6945 30.7902 44.4842 30.5821C44.368 30.468 44.4621 30.3268 44.3208 30.1387C44.1345 29.8896 43.8622 29.9964 43.7331 29.8069C43.5294 29.5102 44.0337 28.9726 43.8695 28.7906C43.712 28.614 43.1603 29.0191 42.9751 28.8381C42.7696 28.6406 43.3338 28.0372 43.0994 27.6261C42.8912 27.2629 42.2958 27.4782 41.9866 27.0155C41.803 26.7438 41.9073 26.5123 41.7009 26.388C41.5064 26.2711 41.1917 26.3415 40.9974 26.507C40.6893 26.7798 40.768 27.2533 40.6313 27.2727C40.5017 27.2888 40.4643 26.8779 40.2096 26.7884C39.9222 26.6838 39.6729 27.1139 39.0496 27.4745C38.793 27.6255 38.0252 28.0732 37.3145 27.866C36.7866 27.7125 36.8189 27.3511 36.3281 27.2792C35.7264 27.1892 35.3317 27.6854 35.0221 27.4754C34.8059 27.3298 34.947 27.0474 34.7044 26.8625C34.4212 26.6448 34.0938 26.9221 33.7677 26.7324C33.5048 26.5781 33.6197 26.3418 33.3757 25.9564C32.9897 25.3532 32.4317 25.5001 32.0676 24.9169C31.8401 24.5583 32.0383 24.4766 31.8388 24.0667C31.443 23.254 30.6093 23.4536 30.1703 22.6776C29.8575 22.1224 30.1043 21.7149 29.7433 21.4769C29.3688 21.2279 28.9173 21.5617 28.6621 21.2927C28.4556 21.0742 28.6856 20.7898 28.5006 20.4118C28.3075 20.0161 27.8981 20.0099 27.5671 19.7625C27.3532 19.603 27.1389 19.3111 27.0367 18.767C26.9815 18.7023 26.9193 18.6408 26.8341 18.5854C26.5496 18.4024 26.4259 18.5443 26.064 18.3794C25.5734 18.1576 25.53 17.7708 25.2269 17.7632C24.9673 17.7572 24.8476 18.0299 24.6271 18.1944C24.455 18.3241 24.1872 18.4032 23.7689 18.3496C23.7906 18.4253 23.8067 18.5078 23.8049 18.6071C23.8105 19.3149 23.2195 19.8876 22.9411 20.1598C22.4042 20.6822 22.212 20.5514 21.7183 20.99C21.1434 21.5041 20.9258 22.1166 20.5734 23.0815C20.0944 24.4077 20.2324 24.8328 19.8047 25.0873C19.1987 25.4486 18.6002 24.7923 17.992 25.1674C17.4464 25.5013 17.3424 26.3916 17.3873 26.9318C17.4932 28.1888 18.494 28.6663 18.2423 29.3543C18.0469 29.884 17.3804 29.8021 17.2166 30.373C17.0648 30.9042 17.6066 31.1071 17.657 31.8287C17.7254 32.8247 16.7366 33.1162 16.7245 34.2643C16.7233 34.4403 16.8538 34.8302 17.1116 35.6031C17.7867 37.6024 17.8582 37.5057 17.852 37.7739C17.8261 39.2492 15.6887 39.7723 15.8771 40.8249C15.9521 41.253 16.3077 41.1596 17.2735 42.3121C18.1005 43.301 18.1592 43.7493 18.1705 43.9153C18.2135 44.5077 17.8966 44.592 17.7738 45.2812C17.5422 46.5677 18.467 47.2167 18.1905 48.0101C18.5382 48.0873 18.7906 48.0494 18.9788 47.9552C19.5539 47.6765 19.7613 46.8161 20.3433 46.8252Z" fill="url(#paint0_linear)" stroke="white" stroke-width="1.31941" stroke-miterlimit="10"/>
<path d="M17.5202 69.6862C17.6667 69.35 17.2464 68.9721 17.4605 68.5965C17.6541 68.2602 18.2576 68.1097 18.6076 68.3143C18.9336 68.5039 18.8207 68.8763 19.1503 69.0643C19.5003 69.2689 20.1057 69.1132 20.2974 68.7821C20.4703 68.4852 20.2006 68.2313 20.3954 67.8602C20.5246 67.6175 20.8075 67.4117 20.9778 67.4754C21.2565 67.5797 21.0654 68.3257 21.3318 68.4313C21.5347 68.5102 21.703 68.0998 22.3445 67.7694C22.7993 67.5368 23.0437 67.5754 23.1206 67.3778C23.242 67.0615 22.7004 66.7559 22.7973 66.4893C22.9547 66.0454 24.6154 66.4024 24.7802 65.9465C24.8597 65.7264 24.5011 65.5686 24.534 65.1428C24.5615 64.7708 24.8756 64.3797 25.1793 64.3699C25.4744 64.3598 25.62 64.7172 25.7863 64.65C25.981 64.57 25.7934 64.0734 26.1136 63.7052C26.2792 63.5143 26.434 63.5252 26.451 63.3933C26.4667 63.2492 26.2922 63.1575 25.7932 62.7384C25.4515 62.4488 25.3864 62.3714 25.3396 62.2686C25.2085 61.9902 25.2302 61.6337 25.3469 61.5892C25.4706 61.5414 25.5808 61.8679 25.84 61.8826C26.1863 61.9005 26.3801 61.3202 26.6065 61.3756C26.7948 61.4225 26.6993 61.8425 27.0193 62.1035C27.1835 62.2384 27.4676 62.336 27.6804 62.2392C28.0401 62.0798 27.9694 61.4829 28.2293 61.4331C28.4295 61.3934 28.5287 61.7334 28.8524 61.7487C29.0404 61.7573 29.2934 61.655 29.3662 61.4764C29.4566 61.2427 29.1866 61.0446 28.9072 60.2902C28.8055 60.0198 28.7764 59.8619 28.8431 59.8016C28.9475 59.7113 29.1727 59.9426 29.3451 59.8513C29.514 59.7617 29.3949 59.4906 29.5865 59.0654C29.7156 58.7756 29.8233 58.7865 29.848 58.587C29.8829 58.2972 29.6572 58.2245 29.6615 57.9144C29.6632 57.5798 29.9282 57.4849 29.8807 57.2584C29.8347 57.0353 29.5639 57.0516 29.2333 56.7955C28.7194 56.4002 28.9165 56.0153 28.3861 55.5463C28.0196 55.2209 27.7449 55.2474 27.7097 55.0196C27.6598 54.7128 28.1301 54.5801 28.146 54.1449C28.1587 53.7968 27.8667 53.5788 27.9769 53.4259C28.0484 53.3292 28.1787 53.3897 28.3692 53.3287C28.7064 53.2138 28.9921 52.7885 28.9867 52.4101C28.981 51.9934 28.6292 51.8882 28.6501 51.4079C28.6616 51.1887 28.7358 51.2106 28.7624 50.9589C28.8179 50.4886 28.5682 50.354 28.5118 49.7977C28.4631 49.3149 28.632 49.2252 28.5093 49.0028C28.3095 48.6487 27.8576 48.85 27.5363 48.5298C27.1475 48.1461 27.556 47.6051 27.2699 46.46C27.2014 46.1874 27.1083 45.8232 26.8514 45.4565C26.593 45.0863 26.26 44.844 25.9485 44.6863C25.3626 45.0727 25.1017 45.5337 24.8859 45.4265C24.6531 45.3099 24.8319 44.7064 24.6117 44.6269C24.4259 44.5574 24.0995 44.9027 23.9227 45.21C23.6605 45.6588 23.8228 45.846 23.6214 46.0617C23.2583 46.458 22.638 45.9229 21.9076 46.3023C21.4331 46.5481 21.345 46.9562 20.8982 46.9713C20.6312 46.9772 20.5927 46.8363 20.3541 46.8294C19.7705 46.8167 19.5631 47.6771 18.9861 47.961C18.7963 48.0517 18.5455 48.093 18.1978 48.0159C18.194 48.0262 18.1917 48.04 18.1859 48.0555C17.9439 48.6706 17.1618 48.8895 16.6441 49.0309C14.7946 49.5472 12.6238 48.6905 11.4443 47.4256C10.6086 46.5306 10.1997 45.8394 10.1997 45.8394C9.72809 45.0483 9.65236 44.5907 9.29248 44.5148C8.67818 44.3878 7.97664 45.5072 7.91706 45.6113C7.25902 46.6852 7.56865 47.3745 7.32281 48.6675C6.95196 50.6164 5.9611 50.5366 5.11666 53.0904C4.67192 54.4353 4.61743 55.4529 4.60934 55.9144C4.59289 56.9404 4.55833 58.8946 5.7324 59.5928C6.22558 59.8862 7.01077 60.0125 7.44873 59.6678C7.99626 59.2347 7.72449 58.2714 8.23573 58.0687C8.52584 57.9538 8.86001 58.1613 8.97258 58.2299C9.59994 58.6205 9.42529 59.2991 9.93669 59.8581C10.1864 60.1339 10.3095 60.0565 11.6901 60.4938C13.5464 61.0828 13.918 61.4101 14.1413 61.6937C14.3946 62.0149 14.2766 62.0472 14.6139 62.5527C15.1432 63.339 15.6037 63.5231 15.9796 63.9726C16.5059 64.6018 16.536 65.3541 16.5679 66.2981C16.6394 68.2597 15.8068 69.0537 15.8061 70.0767C17.0033 70.1396 17.4137 69.9315 17.5202 69.6862Z" fill="url(#paint1_linear)" stroke="white" stroke-width="1.31941" stroke-miterlimit="10"/>
<path d="M31.5341 58.6095C32.9715 58.4947 33.1357 58.1975 33.6695 58.3826C34.2481 58.5815 34.2864 59.0134 34.8 59.0322C35.1779 59.0442 35.242 58.8183 35.7623 58.6543C36.6723 58.3686 37.2733 58.8141 37.4965 58.5242C37.7018 58.2511 37.1647 57.8707 37.2536 57.2012C37.3572 56.4137 38.2696 55.6819 38.909 55.7889C39.1828 55.8355 39.2445 56.0086 39.4757 55.9805C39.8487 55.9348 39.8955 55.4642 40.3652 54.9167C40.5109 54.7477 41.1881 53.9603 41.9568 54.0128C42.2838 54.0352 42.3671 54.1899 42.8969 54.2441C43.2896 54.2794 43.4628 54.2177 43.6878 54.2138C44.7102 54.1936 45.0099 55.4438 45.8824 55.4234C46.5054 55.4096 47.1272 54.7543 47.0789 54.3099C47.0358 53.9144 46.4708 53.7264 46.5496 53.4766C46.6027 53.3112 46.8533 53.3726 47.1823 53.0988C47.4681 52.8618 47.4432 52.6848 47.6266 52.6271C47.9422 52.5305 48.1647 53.0284 48.5349 53.1082C49.3876 53.298 50.5373 51.123 50.7263 50.7674C51.3405 49.6064 51.4995 48.7338 51.8125 46.9866C51.8494 46.7858 52.0589 45.5821 51.7838 45.4762C51.598 45.4067 51.3055 45.8736 51.1172 45.7795C50.9304 45.689 51.1465 45.2141 50.8813 44.9326C50.6464 44.68 50.2712 44.8336 50.1724 44.626C50.0639 44.3972 50.4987 44.1395 50.4202 43.8543C50.3352 43.5549 49.7095 43.356 49.1702 43.4687C48.4867 43.6128 48.3091 44.1814 47.9553 44.0813C47.6309 43.9893 47.7634 43.5096 47.2137 43.0451C46.943 42.8173 46.7553 42.8 46.6236 42.539C46.4838 42.2602 46.624 42.1451 46.4878 41.9118C46.2941 41.5806 45.9224 41.6855 45.7284 41.3629C45.5725 41.0958 45.7652 40.9268 45.6287 40.7493C45.3757 40.4193 44.6283 40.8835 43.9433 40.5918C43.7785 40.5213 43.6446 40.4153 43.5355 40.298C43.5304 40.3902 43.5028 40.4798 43.4345 40.5836C43.1674 40.9747 42.8204 40.786 41.7886 41.3025C41.2628 41.5674 40.9396 41.8257 40.7406 41.6895C40.5806 41.5826 40.6936 41.3514 40.5394 41.1819C40.2141 40.8249 38.9839 41.0466 38.6351 41.7188C38.352 42.2627 38.8202 42.7644 38.4754 43.1352C38.2541 43.3729 37.8214 43.4285 37.5198 43.3303C37.3234 43.2656 37.3386 43.186 37.1134 43.0959C36.689 42.9252 36.4754 43.1423 36.1802 43.0112C35.7648 42.8322 35.8489 42.2462 35.6013 42.2005C35.1598 42.1146 34.4916 43.8994 34.1813 43.8009C34.0607 43.7616 34.1163 43.4795 33.8696 43.3137C33.6976 43.1993 33.5629 43.2606 33.3978 43.1988C33.0591 43.0662 33.014 42.5347 32.9225 42.2211C32.6611 41.3087 31.4985 40.4383 30.5719 40.6031C30.0332 40.6985 29.4583 41.1655 29.3145 41.7145C29.1932 42.1719 29.4124 42.5215 29.151 42.803C28.9712 43.0004 28.7971 42.8999 28.4844 43.1063C28.1199 43.3492 28.1607 43.6174 27.8971 43.9127C27.4954 44.3651 27.0976 44.0839 26.294 44.4624C26.1609 44.5273 26.0468 44.5963 25.9379 44.6672C26.2459 44.8267 26.5823 45.0673 26.8408 45.4375C27.0977 45.8042 27.1924 46.1719 27.2594 46.441C27.5454 47.5861 27.1353 48.1236 27.5257 48.5109C27.847 48.8311 28.299 48.6298 28.4988 48.984C28.6215 49.2063 28.4526 49.296 28.5012 49.7788C28.5577 50.3351 28.8073 50.4697 28.7518 50.94C28.7217 51.1934 28.6475 51.1715 28.6396 51.3891C28.6186 51.8694 28.9705 51.9746 28.9762 52.3914C28.9816 52.7698 28.6959 53.1951 28.3587 53.31C28.1662 53.3761 28.0343 53.3121 27.9663 53.4072C27.8562 53.56 28.1481 53.7781 28.1354 54.1262C28.1212 54.5649 27.6508 54.6976 27.6991 55.0009C27.736 55.2323 28.0091 55.2022 28.3756 55.5276C28.9043 55.9931 28.7088 56.3816 29.2227 56.7768C29.5534 57.0329 29.8242 57.0167 29.8702 57.2397C29.9177 57.4663 29.6527 57.5612 29.651 57.8958C29.6502 58.2042 29.8724 58.2786 29.8375 58.5684C29.833 58.5961 29.8272 58.6116 29.8194 58.6322C30.0651 58.636 30.3215 58.6349 30.6023 58.6312C30.9734 58.6378 31.2143 58.6309 31.5341 58.6095Z" fill="url(#paint2_linear)" stroke="white" stroke-width="1.31941" stroke-miterlimit="10"/>
<path d="M51.8178 51.8429C51.9767 52.314 51.7374 52.6626 52.0276 53.2623C52.2642 53.7537 52.7782 54.243 53.146 54.1484C53.5438 54.0444 53.4669 53.3306 53.8773 53.2166C54.2312 53.1197 54.7767 53.5092 54.9024 53.9826C55.0821 54.6497 54.2959 54.9817 54.4076 55.6027C54.5713 56.5167 56.4168 56.5372 56.5151 57.4296C56.5546 57.7796 56.3166 58.1874 56.0259 58.3668C55.6459 58.6039 55.3217 58.3619 55.1239 58.5761C54.8423 58.8882 55.4372 59.499 55.1497 60.1177C54.9871 60.4655 54.733 60.4057 54.5939 60.73C54.3087 61.3818 54.9426 62.5013 55.4878 62.5142C55.9112 62.5227 56.0561 61.8448 56.584 61.8572C56.9115 61.8622 56.9646 62.129 57.3673 62.1768C57.77 62.2247 58.2758 62.0288 58.3565 61.7268C58.4591 61.3506 57.7919 61.1449 57.7484 60.5699C57.709 60.023 58.2454 59.3681 58.8025 59.2944C59.4595 59.2051 59.6016 59.9963 60.3632 60.0991C60.8282 60.1614 61.0676 59.907 63.3619 58.3753C63.9926 57.9557 64.4248 57.6735 64.8572 57.8148C65.3174 57.9605 65.3419 58.4372 65.7588 58.4786C66.226 58.5271 66.8086 57.9924 66.9962 57.4363C67.0995 57.1369 67.0356 56.9777 67.1771 56.8748C67.4349 56.689 67.7985 57.0927 68.4173 57.145C68.9335 57.1882 69.6362 56.9926 69.9655 56.5219C70.3646 55.9509 69.9689 55.3264 70.4603 54.9017C70.6691 54.7211 70.9074 54.6897 70.9446 54.4802C70.9855 54.2691 70.7604 54.1789 70.6896 53.9201C70.5587 53.4448 71.1637 53.2038 71.2575 52.5449C71.3374 51.9779 70.9221 51.893 70.9019 51.1533C70.8814 50.3753 71.3291 50.1459 71.1638 49.8018C70.8833 49.2233 69.6008 49.8283 68.8387 49.0667C68.3593 48.5873 68.655 48.1275 68.0033 47.4955C67.6581 47.1604 67.3308 47.0526 67.2842 46.7058C67.2375 46.359 67.5383 46.2393 67.49 45.936C67.4279 45.5364 66.8668 45.5263 66.3216 45.0341C66.2423 44.9632 65.5306 44.3028 65.5327 43.4803C65.5358 42.7728 66.067 42.6424 66.1332 41.735C66.177 41.1545 65.9639 41.1659 66.0258 40.7098C66.1642 39.6883 67.2445 39.5135 67.2504 38.6806C67.2555 38.1562 66.8327 37.895 67.0159 37.5549C67.158 37.2934 67.435 37.3942 67.715 37.0785C68.0114 36.7425 67.8635 36.4461 68.1061 36.1046C68.1869 35.9908 68.3207 35.8615 68.5511 35.7566C68.5207 35.6335 68.4955 35.4653 68.4427 35.0956C68.4346 35.0308 68.4246 34.9712 68.4161 34.9151C67.6022 34.6693 67.2512 34.3026 67.0975 33.9746C66.7085 33.1674 67.3647 32.381 66.8122 31.5155C66.7793 31.462 66.3417 30.7925 65.7197 30.7802C64.9968 30.7625 64.8078 31.6444 64.1308 31.6615C63.2896 31.6847 62.8815 30.347 62.3235 30.4939C62.0911 30.5569 62.0819 30.8093 61.5264 31.8922C60.997 32.929 60.8404 33.0173 60.7236 33.0148C60.4415 33.0062 60.4441 32.4574 59.9831 31.9996C59.4127 31.4332 58.545 31.4172 57.8795 31.4033C56.6408 31.3807 55.7941 31.7959 55.4798 31.3783C55.34 31.1937 55.3805 30.9442 55.2219 30.8966C55.02 30.8386 54.8925 31.2261 54.5757 31.3104C54.0019 31.4602 52.9953 30.5659 52.948 29.6632C52.9281 29.2529 53.117 29.1413 53.0303 28.7913C52.9007 28.2811 52.3007 27.7625 51.8474 27.8574C51.0412 28.0232 50.9651 30.0647 50.2738 30.0882C50.0714 30.0948 50.02 29.9256 49.7266 29.9393C49.2533 29.962 48.9189 30.4308 48.8452 30.5414C48.5585 30.9457 48.6937 31.111 48.4727 31.387C48.184 31.7494 47.5705 31.9344 47.073 31.8099C47.2642 33.4046 47.0261 34.1035 46.7229 34.434C46.5795 34.5891 46.2492 34.8506 46.1199 35.3374C45.9886 35.8293 46.1572 36.1805 45.909 36.3876C45.7292 36.5379 45.5467 36.4284 45.2695 36.6186C45.0674 36.7577 44.9789 36.9392 44.9245 37.0452C44.4031 38.0527 43.7126 38.2941 43.5072 39.2434C43.3876 39.7985 43.5509 40.0537 43.5366 40.3041C43.6492 40.4198 43.7779 40.5238 43.9443 40.5979C44.6293 40.8896 45.3783 40.429 45.6297 40.7553C45.7662 40.9329 45.5719 41.0983 45.7294 41.369C45.9214 41.6967 46.2915 41.5882 46.4887 41.9178C46.6233 42.1476 46.4847 42.2663 46.6245 42.545C46.7578 42.8096 46.9439 42.8233 47.2145 43.0511C47.7642 43.5156 47.6317 43.9953 47.9561 44.0873C48.3099 44.1874 48.4875 43.6187 49.1709 43.4747C49.7102 43.3619 50.3359 43.5608 50.4208 43.8602C50.5013 44.1403 50.063 44.3996 50.1731 44.6319C50.2703 44.8359 50.6471 44.6859 50.8819 44.9385C51.1488 45.2236 50.9327 45.6984 51.1178 45.7854C51.3097 45.8778 51.5986 45.4126 51.7844 45.4821C51.9082 45.5284 51.9319 45.7873 51.9231 46.078C52.1871 46.0092 52.4443 45.8879 52.5609 45.6551C52.7428 45.3028 52.4525 44.9941 52.4253 44.3047C52.3935 43.5489 52.6896 42.7423 52.9605 42.7261C53.3361 42.705 53.5305 44.2127 53.9944 44.207C54.3223 44.2033 54.2925 43.4423 54.8872 43.1033C55.6243 42.6823 56.4089 43.4465 56.9084 43.0395C57.345 42.6825 56.9093 41.9607 57.4641 41.3745C57.8269 40.9869 58.337 40.9603 58.4295 40.9567C59.2832 40.9234 59.828 41.7154 59.8974 41.8207C60.4989 42.7281 60.3028 44.1396 59.6193 44.5747C58.9482 44.9998 58.1214 44.2934 57.4911 44.8455C57.1795 45.1199 57.24 45.4219 56.8111 45.7112C56.4195 45.9792 56.2282 45.8223 55.8324 46.0153C55.0034 46.4224 55.0885 47.4834 54.5579 47.5494C54.1288 47.6034 53.9197 46.9283 53.45 46.9965C53.0222 47.0628 52.9623 47.6549 52.5306 47.7315C52.2585 47.7825 51.9795 47.5928 51.7421 47.3628C51.468 48.8568 51.2912 49.6904 50.7238 50.7659C50.7125 50.7882 50.6938 50.8223 50.6732 50.8617C51.4224 51.1627 51.7089 51.5287 51.8178 51.8429Z" fill="url(#paint3_linear)" stroke="white" stroke-width="1.31941" stroke-miterlimit="10"/>
<path d="M17.9049 84.5787C18.1723 84.8935 17.9002 85.3297 18.195 85.6106C18.517 85.9134 19.0398 85.5857 19.3501 85.9195C19.5699 86.1576 19.4521 86.4722 19.631 86.5362C19.841 86.6119 20.0206 86.1793 20.4217 86.1765C20.7322 86.1722 20.8484 86.4274 21.0131 86.3567C21.2365 86.2551 21.0282 85.7508 21.3288 85.3487C21.5375 85.074 21.9376 84.9091 22.1059 85.0251C22.3508 85.1961 21.9572 85.8545 22.2585 86.1496C22.4808 86.3651 22.7956 86.0977 23.115 86.329C23.4498 86.5661 23.2798 86.9729 23.6533 87.248C23.8859 87.4203 24.0174 87.3049 24.2425 87.4891C24.5506 87.7426 24.4141 88.0444 24.6274 88.2683C25.0019 88.6584 25.7121 88.0186 26.5857 88.3015C27.3249 88.5429 27.3353 89.1672 27.8789 89.1767C28.4992 89.1854 28.6248 88.3709 29.3598 88.2932C29.7483 88.2533 29.7945 88.4677 30.7859 88.8682C31.8769 89.3089 31.9645 89.1064 32.4196 89.4385C33.0922 89.9285 33.1416 90.535 33.6543 90.5799C33.9532 90.6065 33.9972 90.4025 34.3773 90.4007C34.8326 90.3947 35.3438 90.6713 35.5552 91.0886C35.7312 91.4279 35.542 91.5482 35.6717 92.1996C35.7412 92.5402 35.8645 93.1773 36.253 93.2787C36.4568 93.3315 36.7063 93.2308 36.8465 93.0686C37.0868 92.7881 36.8806 92.4668 37.0121 91.9192C37.1073 91.5078 37.2801 91.4549 37.4414 91.0948C37.9128 90.0716 37.1178 89.2094 37.4983 88.8608C37.8554 88.5358 38.9795 88.8801 39.2517 89.4966C39.3676 89.7605 39.291 89.9965 39.4717 90.1112C39.6981 90.2606 40.1807 90.1266 40.3075 89.8507C40.4495 89.5421 40.0567 89.2716 40.1437 88.7014C40.1719 88.5002 40.2418 88.4 40.3194 88.232C40.5258 87.7829 40.7603 86.8974 40.5059 86.4141C40.1637 85.7567 39.1507 86.2861 38.0211 85.4222C37.8227 85.2685 37.1153 84.7303 37.1822 84.0408C37.2091 83.7804 37.4896 83.6913 37.4865 83.3932C37.4834 83.1421 37.3095 82.8447 37.1063 82.8216C36.7384 82.775 36.4423 83.6286 36.2527 83.5694C36.0373 83.5005 36.3835 82.4187 36.012 82.1855C35.6694 81.9691 35.0776 82.7091 34.6616 82.5004C34.3003 82.3181 34.5953 81.6876 34.2717 80.8549C33.8425 79.7621 32.9727 79.9482 32.5935 78.8712C32.3406 78.1561 32.5912 77.6912 32.1314 77.1986C31.8562 76.9044 31.7212 77.0215 31.3947 76.6993C30.7369 76.0444 30.7911 75.0826 30.7994 74.9975C30.8314 74.5978 31.0171 74.5732 31.0246 74.1761C31.0265 74.1239 31.0334 73.3591 30.6238 73.1646C30.2468 72.9852 29.8444 73.455 29.526 73.2447C29.2944 73.0933 29.4019 72.7748 29.1707 72.6618C28.9223 72.5395 28.712 72.8577 28.3393 72.8005C27.9994 72.7497 27.9786 72.4596 27.6048 72.2403C27.0006 71.8819 26.4628 72.2892 26.2624 72.0466C25.8952 71.5975 27.4172 69.8737 27.0962 69.5447C26.9533 69.4001 26.5914 69.6675 26.2737 69.4397C26.0204 69.2597 26.0425 68.9415 25.8897 68.9255C25.6707 68.9053 25.519 69.5777 25.3452 69.5626C25.2062 69.5488 25.3796 68.9051 25.0867 68.6661C24.7734 68.4106 24.265 68.8731 23.7587 68.7012C23.4865 68.6111 23.18 68.314 22.9725 67.5013C22.8429 67.5645 22.6359 67.5988 22.3339 67.7533C21.6874 68.0817 21.5242 68.494 21.3213 68.4151C21.0549 68.3096 21.2424 67.5652 20.9673 67.4593C20.7971 67.3956 20.5141 67.6014 20.385 67.8441C20.1885 68.2116 20.4582 68.4655 20.2869 68.766C20.0953 69.0971 19.4934 69.2511 19.1399 69.0482C18.8103 68.8601 18.9284 68.4897 18.5971 68.2981C18.2472 68.0936 17.6437 68.2441 17.4501 68.5803C17.2344 68.9524 17.6512 69.3319 17.5098 69.6701C17.4033 69.9154 16.993 70.1235 15.7871 70.0602C15.7875 70.2868 15.8261 70.5217 15.9246 70.785C16.0819 71.2056 16.4111 71.7405 16.1941 72.2885C16.1674 72.352 16.0064 72.7504 15.6341 72.8728C15.1328 73.0409 14.8201 72.5328 14.3865 72.6145C13.8933 72.7063 13.7783 73.4689 13.3238 74.6984C12.5604 76.7532 11.9297 77.1728 12.2247 77.7361C12.554 78.3651 13.4481 78.0353 14.0693 78.8823C14.4946 79.4591 14.1956 79.7706 14.6229 80.3421C15.2515 81.1773 16.196 80.9016 16.4311 81.5306C16.6682 82.1545 15.8137 82.6374 16.0373 83.3915C16.205 83.9571 16.7722 83.99 17.0574 84.3438C17.5517 84.32 17.7861 84.4401 17.9049 84.5787Z" fill="url(#paint4_linear)" stroke="white" stroke-width="1.31941" stroke-miterlimit="10"/>
<path d="M37.7165 81.8338C37.9575 81.63 38.4172 82.0755 38.9204 81.8552C39.1047 81.7713 39.1115 81.6826 39.2565 81.6722C39.606 81.6502 39.8069 82.1664 40.0203 82.0993C40.1702 82.0525 40.1084 81.7853 40.3427 81.6231C40.518 81.5005 40.6364 81.6007 40.7737 81.5168C41.1266 81.3049 41.1588 80.1349 40.623 79.2875C40.4714 79.0484 40.2752 78.8338 40.3557 78.6346C40.4461 78.4009 40.7992 78.4713 40.9061 78.2643C41.1238 77.8401 39.9567 76.9033 40.1236 76.6777C40.197 76.5758 40.4399 76.752 40.7848 76.6164C41.0237 76.5206 41.0197 76.3897 41.263 76.2191C41.7336 75.8895 42.1506 76.1191 42.2975 75.8683C42.4388 75.6242 42.0843 75.3533 42.2308 75.0642C42.3738 74.7766 42.8117 74.8641 42.8905 74.6142C42.9713 74.3593 42.5646 74.1335 42.6502 73.8892C42.7165 73.6964 42.9974 73.7398 43.2558 73.5836C43.9298 73.1743 43.9788 71.6843 43.5279 71.4273C43.2973 71.2968 42.974 71.5081 42.8237 71.3283C42.7369 71.2223 42.7742 71.0599 42.8009 70.9493C43.0514 69.911 43.3555 69.5544 43.2154 69.2373C43.1188 69.0159 42.9487 69.1404 42.5622 68.7899C42.1083 68.376 42.1216 68.0105 41.8253 67.9613C41.5325 67.9105 41.367 68.2426 41.1383 68.154C40.9252 68.0713 41.0094 67.7676 40.7874 67.4493C40.5009 67.0362 40.0802 67.1463 39.6321 66.811C39.1331 66.439 39.007 65.8331 38.9785 65.7048C38.7806 64.8192 39.3423 64.3326 39.0409 63.9434C38.7779 63.6009 38.3042 63.9234 37.8045 63.5217C37.3997 63.1967 37.221 62.5976 37.2839 62.1154C37.3487 61.6281 37.6224 61.5805 37.5851 61.2637C37.5155 60.6878 36.584 60.6537 36.2692 60.0096C36.1394 59.7434 36.084 59.3022 36.4459 58.5556C36.2438 58.5534 36.0197 58.5783 35.7712 58.6529C35.2509 58.8169 35.1885 59.0464 34.809 59.0308C34.2954 59.012 34.2535 58.5817 33.6785 58.3812C33.1448 58.1961 32.9754 58.4914 31.5433 58.6081C31.2216 58.6347 30.9843 58.64 30.6057 58.6453C30.3265 58.6525 30.0686 58.6501 29.8229 58.6463C29.785 58.7791 29.6931 58.8124 29.5794 59.0609C29.3879 59.4861 29.5106 59.7555 29.3381 59.8468C29.1657 59.9381 28.9405 59.7068 28.8361 59.7971C28.7658 59.859 28.7985 60.0153 28.9002 60.2857C29.178 61.0365 29.4531 61.2366 29.3591 61.4719C29.288 61.654 29.0333 61.7528 28.8454 61.7442C28.5217 61.7288 28.4241 61.3924 28.2223 61.4286C27.9624 61.4783 28.0331 62.0752 27.6734 62.2346C27.459 62.3279 27.1749 62.2303 27.0123 62.0989C26.6923 61.838 26.7914 61.4164 26.5995 61.371C26.3731 61.3157 26.1846 61.8978 25.8331 61.878C25.5739 61.8633 25.4637 61.5369 25.34 61.5846C25.2197 61.6308 25.2016 61.9856 25.3326 62.2641C25.3795 62.3669 25.4446 62.4442 25.7863 62.7338C26.2853 63.1529 26.4614 63.2482 26.4441 63.3887C26.4306 63.5189 26.2723 63.5097 26.1067 63.7006C25.7865 64.0688 25.9741 64.5654 25.7794 64.6454C25.6131 64.7125 25.4674 64.3551 25.1724 64.3653C24.8687 64.3751 24.5546 64.7662 24.5271 65.1381C24.4942 65.5639 24.8528 65.7217 24.7733 65.9419C24.6085 66.3977 22.9479 66.0407 22.7905 66.4846C22.6936 66.7512 23.2351 67.0568 23.1138 67.3731C23.0887 67.4401 23.0419 67.4785 22.9762 67.5127C23.1837 68.3254 23.4886 68.6189 23.7624 68.7126C24.2671 68.8809 24.7755 68.4185 25.0904 68.6775C25.3849 68.9201 25.2099 69.5602 25.3489 69.574C25.5243 69.5926 25.6744 68.9167 25.8934 68.9369C26.0446 68.9494 26.0225 69.2675 26.2774 69.4511C26.5986 69.6772 26.9605 69.4099 27.0999 69.5561C27.4229 69.8799 25.8973 71.6053 26.2661 72.058C26.4681 72.3041 27.0059 71.8968 27.6084 72.2517C27.9823 72.471 28.0031 72.7611 28.3429 72.8119C28.7192 72.8674 28.9296 72.5492 29.1744 72.6732C29.4072 72.7898 29.2981 73.1047 29.5297 73.2561C29.8481 73.4664 30.2489 72.9931 30.6275 73.176C31.0371 73.3705 31.0302 74.1353 31.0283 74.1875C31.0208 74.5846 30.8335 74.6056 30.8031 75.0089C30.7983 75.0923 30.7389 76.0522 31.3984 76.7107C31.7265 77.0364 31.8615 76.9193 32.1351 77.2099C32.5932 77.699 32.3443 78.1674 32.5972 78.8825C32.9764 79.9595 33.8497 79.7718 34.2753 80.8662C34.6025 81.6973 34.304 82.3295 34.6652 82.5117C35.0813 82.7204 35.6731 81.9804 36.0156 82.1969C36.3872 82.43 36.0445 83.5103 36.2564 83.5807C36.4476 83.6435 36.7437 82.7899 37.11 82.8329C37.1777 82.8406 37.2406 82.8847 37.2977 82.9443C37.423 82.806 37.5319 82.6409 37.5882 82.4356C37.6854 82.1132 37.5869 81.9441 37.7165 81.8338Z" fill="url(#paint5_linear)" stroke="white" stroke-width="1.31941" stroke-miterlimit="10"/>
<path d="M44.1085 73.7589C44.3158 73.6689 44.3678 73.2943 44.5032 73.3098C44.5935 73.32 44.5907 73.4925 44.6862 73.6458C44.9519 74.0599 45.6368 73.7782 45.934 74.0923C46.3202 74.4986 45.6569 75.4765 45.9505 75.6981C46.2576 75.9307 47.2304 75.0216 47.4768 75.2432C47.632 75.3866 47.296 75.8048 47.4599 75.9955C47.7193 76.2926 49.02 75.8121 49.0696 75.2631C49.0927 75.013 48.8537 74.8265 48.9625 74.5673C49.0275 74.4093 49.1497 74.4051 49.2534 74.2851C49.6446 73.8376 48.9964 72.6775 49.1208 72.6124C49.1937 72.575 49.3574 73.0097 49.7131 73.0575C49.9611 73.0945 50.069 72.9085 50.3021 72.9693C50.5872 73.0407 50.6206 73.3678 50.7515 73.3639C51.09 73.3554 51.1489 71.1162 51.6396 71.047C51.8849 71.0124 52.0152 71.5522 52.3402 71.5327C52.6774 71.512 52.6674 70.926 53.2433 70.4329C53.7344 70.0169 54.1519 70.0879 54.2278 69.7752C54.2996 69.4816 53.9455 69.3431 53.8836 68.8877C53.8249 68.4394 54.1075 68.1483 54.2759 67.7849C54.6449 66.988 53.9702 66.6531 54.1614 65.5691C54.2057 65.3092 54.3133 64.6997 54.6711 64.5925C54.9568 64.5054 55.1581 64.816 55.505 64.7224C55.8061 64.641 56.0748 64.3005 56.0269 64.0356C55.9706 63.7146 55.4802 63.728 55.2968 63.3536C55.1703 63.0945 55.2533 62.7786 55.3856 62.4958C54.869 62.3672 54.3254 61.3521 54.5936 60.738C54.7362 60.4121 54.9868 60.4735 55.1494 60.1257C55.4369 59.507 54.842 58.8962 55.1236 58.584C55.3179 58.3715 55.644 58.6083 56.0256 58.3748C56.3163 58.1954 56.5527 57.784 56.5147 57.4376C56.4165 56.5451 54.5693 56.5212 54.4072 55.6107C54.2956 54.9896 55.0853 54.656 54.9021 53.9905C54.7728 53.5187 54.2257 53.1257 53.8769 53.2245C53.4666 53.3385 53.5418 54.0488 53.1456 54.1563C52.7794 54.2545 52.2655 53.7651 52.0272 53.2702C51.7386 52.674 51.9779 52.3255 51.8174 51.8508C51.7105 51.5314 51.4204 51.167 50.6799 50.8663C50.3901 51.4047 49.3382 53.2869 48.5391 53.1113C48.1725 53.0299 47.9465 52.5336 47.6309 52.6302C47.451 52.6863 47.4724 52.8649 47.1866 53.1019C46.854 53.3773 46.6034 53.3159 46.5539 53.4796C46.475 53.7295 47.0417 53.921 47.0832 54.3129C47.1299 54.7538 46.5096 55.4126 45.8867 55.4264C45.0142 55.4468 44.7146 54.1967 43.6922 54.2168C43.4636 54.2224 43.2921 54.2876 42.9013 54.2471C42.3731 54.1965 42.2882 54.0382 41.9613 54.0158C41.1926 53.9633 40.5154 54.7507 40.3697 54.9197C39.9 55.4672 39.8516 55.9343 39.4802 55.9834C39.249 56.0116 39.1909 55.8369 38.9136 55.7919C38.2741 55.6849 37.3602 56.4131 37.2582 57.2041C37.1693 57.8736 37.7064 58.254 37.5012 58.5271C37.3401 58.7373 36.9785 58.5638 36.4417 58.5598C36.0762 59.3081 36.1352 59.7477 36.2649 60.0139C36.5833 60.6564 37.5096 60.6885 37.5809 61.268C37.6182 61.5849 37.3461 61.6359 37.2797 62.1197C37.2168 62.6019 37.3954 63.201 37.8003 63.5261C38.3035 63.9262 38.7754 63.6088 39.0367 63.9477C39.3346 64.3386 38.7729 64.8252 38.9743 65.7092C39.0028 65.8375 39.1289 66.4434 39.6279 66.8154C40.0811 67.1527 40.4967 67.0406 40.7832 67.4537C41.0053 67.7721 40.9226 68.0793 41.1342 68.1585C41.3628 68.247 41.5283 67.9149 41.8211 67.9657C42.1191 68.0184 42.1022 68.3856 42.5581 68.7944C42.9446 69.1449 43.1112 69.022 43.2113 69.2418C43.3514 69.5589 43.0472 69.9155 42.7967 70.9538C42.77 71.0643 42.7327 71.2268 42.8195 71.3328C42.9664 71.5142 43.2932 71.3013 43.5238 71.4318C43.9337 71.6646 43.9261 72.9261 43.4099 73.4563C43.7667 73.7604 43.9793 73.8135 44.1085 73.7589Z" fill="url(#paint6_linear)" stroke="white" stroke-width="1.31941" stroke-miterlimit="10"/>
<path d="M34.0675 111.586C34.3139 111.281 34.5668 111.423 34.8948 111.128C35.3743 110.696 35.3412 109.928 35.3315 109.813C35.2979 109.25 35.0319 109.23 35.0623 108.78C35.0824 108.467 35.2943 108.152 35.7234 107.525C36.1083 106.96 36.1779 106.963 36.2404 106.733C36.397 106.166 36.0441 105.898 36.2335 105.581C36.4953 105.141 37.3415 105.364 37.4531 105.026C37.5529 104.728 36.9894 104.309 37.077 104.2C37.1537 104.105 37.5627 104.459 37.8019 104.307C37.9624 104.208 38.026 103.897 37.9217 103.696C37.7639 103.387 37.2955 103.468 37.2244 103.217C37.172 103.027 37.427 102.92 37.3895 102.706C37.3387 102.425 36.8764 102.481 36.6469 102.128C36.4671 101.846 36.6805 101.685 36.5872 101.038C36.5127 100.499 36.3324 100.423 36.3951 100.09C36.4651 99.6989 36.7925 99.3274 37.0211 99.3689C37.281 99.4132 37.2604 99.9789 37.5651 100.037C37.7399 100.073 37.9735 99.9283 38.0308 99.7439C38.1334 99.4148 37.61 99.1395 37.7075 98.8555C37.8031 98.5766 38.3815 98.6344 38.421 98.411C38.4564 98.2066 37.9917 98.0886 37.9589 97.744C37.9329 97.452 38.2388 97.2872 38.1752 97.1663C38.0771 96.9885 37.4303 97.4197 36.7934 97.196C36.1461 96.9684 35.9297 96.2111 35.9083 96.1267C35.8744 96.0052 35.7642 95.5846 35.9511 95.4311C36.1219 95.2892 36.3629 95.5176 36.6626 95.424C37.0311 95.312 37.2358 94.8123 37.2656 94.4736C37.3046 94.0236 37.0619 93.5564 36.6296 93.2182C36.5091 93.273 36.3792 93.2979 36.2583 93.2673C35.8697 93.166 35.7465 92.5288 35.6769 92.1882C35.5472 91.5369 35.7328 91.4182 35.5605 91.0773C35.3455 90.6616 34.8378 90.3833 34.3826 90.3893C34.0005 90.3963 33.9584 90.5952 33.6595 90.5686C33.1433 90.5253 33.0939 89.9187 32.4249 89.4272C31.9698 89.0951 31.8822 89.2976 30.7912 88.8568C29.7999 88.4563 29.752 88.2385 29.3652 88.2818C28.6301 88.3595 28.5046 89.1741 27.8843 89.1653C27.3407 89.1559 27.3303 88.5316 26.5912 88.2902C25.7176 88.0073 25.0109 88.6455 24.6328 88.2569C24.4196 88.033 24.5545 87.7278 24.248 87.4778C24.0229 87.2935 23.8965 87.4109 23.6588 87.2367C23.2853 86.9616 23.4553 86.5548 23.1205 86.3177C22.7976 86.088 22.4879 86.3573 22.264 86.1382C21.9591 85.8447 22.3563 85.1848 22.1115 85.0138C21.9431 84.8978 21.5395 85.0643 21.3343 85.3374C21.0302 85.7411 21.2437 86.2473 21.0187 86.3454C20.8591 86.418 20.7377 86.1609 20.4273 86.1652C20.0262 86.168 19.8465 86.6006 19.6366 86.5249C19.4576 86.4609 19.5738 86.1427 19.3557 85.9082C19.0437 85.5709 18.5226 85.9021 18.2007 85.5993C17.9058 85.3184 18.178 84.8822 17.9105 84.5674C17.7917 84.4288 17.5573 84.3087 17.0643 84.3447C17.116 84.4111 17.1656 84.4826 17.1934 84.5813C17.4002 85.2702 16.4842 85.7213 15.7227 87.2916C15.2043 88.3619 15.0856 89.276 15.0279 89.7601C14.8983 90.8289 14.7408 92.1373 15.4573 92.7612C16.0589 93.2834 16.6657 92.8019 17.3354 93.3702C17.8664 93.8218 17.6664 94.2851 18.1795 95.468C18.3965 95.9726 18.8004 96.8972 19.5784 97.506C20.1836 97.9795 20.595 97.9335 22.3375 98.2917C24.5247 98.7429 25.6149 98.9658 25.8561 99.4765C26.3158 100.448 24.8699 101.615 25.4801 102.955C25.5979 103.214 25.7647 103.421 25.8295 103.845C25.9321 104.521 25.6215 104.817 25.5841 105.364C25.5167 106.306 26.2925 107.455 27.0883 107.577C28.0176 107.719 28.7012 106.419 29.1544 106.662C29.5749 106.89 28.9514 107.974 29.5449 108.911C30.0377 109.692 30.8159 109.484 31.1375 110.228C31.4688 110.993 30.7866 111.534 31.1355 112.103C31.557 112.784 32.6957 112.249 33.261 112.954C33.2694 112.963 33.2759 112.977 33.2843 112.986C33.5879 112.835 33.7374 112.656 33.8166 112.492C33.9643 112.168 33.821 111.891 34.0675 111.586Z" fill="url(#paint7_linear)" stroke="white" stroke-width="1.31941" stroke-miterlimit="10"/>
<path d="M41.3709 86.0524C41.9781 86.2297 42.2292 87.0912 42.6122 87.0111C42.8969 86.95 42.8611 86.4485 43.1815 86.3626C43.5194 86.2774 44.0336 86.711 44.1983 87.2137C44.3269 87.6088 44.1426 87.7398 44.2312 88.2728C44.2397 88.3289 44.4037 89.2342 44.79 89.3024C45.2576 89.3892 45.4754 88.1475 46.1986 88.0624C46.8972 87.9799 47.8084 89.0032 47.7389 89.8093C47.7063 90.1793 47.49 90.2307 47.4873 90.6384C47.4863 91.0497 47.7296 91.3584 48.2178 91.9792C48.7493 92.6575 48.9776 92.7077 49.0924 92.7153C49.3584 92.7355 49.4324 92.5692 49.6858 92.5052C50.2983 92.3464 50.8737 93.0646 52.4224 94.2471C53.2892 94.9097 53.4433 94.938 53.589 94.9102C54.4214 94.7454 54.5695 92.7866 55.2727 92.7705C55.5571 92.7652 55.7059 93.0826 55.8867 93.0003C56.1314 92.889 56.1509 92.1612 55.9168 91.5531C55.5647 90.6392 54.8744 90.5895 54.7972 89.8843C54.7424 89.3787 55.0825 89.2796 55.0338 88.7026C54.9873 88.1589 54.6726 88.0881 54.3146 87.3866C53.7939 86.3654 53.8987 85.402 53.9538 84.8933C53.9622 84.8082 54.0693 83.878 54.344 83.8514C54.5313 83.8304 54.6328 84.2506 55.0085 84.3236C55.1884 84.3616 55.4047 84.3102 55.5501 84.197C56.0831 83.7791 55.5187 82.568 55.9464 82.3135C56.2085 82.1558 56.5891 82.5218 56.796 82.3463C56.9688 82.1993 56.8193 81.8522 56.7904 81.5444C56.6612 80.2552 58.609 79.6728 58.5608 78.411C58.5343 77.7983 58.0716 77.7691 58.0424 76.9437C58.0187 76.2997 58.2959 76.1565 58.2382 75.5409C58.2255 75.4097 58.133 74.4077 57.4128 74.1234C56.88 73.9122 56.1821 74.1655 55.8864 74.5782C55.6989 74.8433 55.6988 75.1343 55.5234 75.1628C55.3342 75.189 55.254 74.8532 54.9386 74.7998C54.6474 74.7525 54.5022 75.0069 54.3361 74.9242C54.1084 74.8095 54.307 74.287 54.0618 74.1246C53.8509 73.981 53.5851 74.2902 53.2958 74.1437C53.0577 74.0252 52.9259 73.67 53.0284 73.4908C53.116 73.3354 53.3427 73.382 53.3916 73.2357C53.4366 73.0996 53.2534 73.0075 53.213 72.7777C53.1696 72.5321 53.3388 72.3867 53.3797 72.2226C53.4305 72.024 53.3074 71.7163 52.6581 71.2115C52.5589 71.3979 52.4774 71.5291 52.322 71.5356C51.997 71.5551 51.8667 71.0153 51.6214 71.0499C51.1326 71.1139 51.0754 73.3566 50.7333 73.3668C50.6024 73.3707 50.5706 73.0471 50.2839 72.9722C50.0507 72.9113 49.9464 73.0958 49.6949 73.0604C49.3376 73.009 49.1754 72.5778 49.1026 72.6153C48.9801 72.6753 49.6299 73.8389 49.2352 74.288C49.1315 74.408 49.0128 74.4106 48.9442 74.5702C48.8354 74.8294 49.0761 75.0194 49.0514 75.266C49.0018 75.815 47.7011 76.2955 47.4416 75.9984C47.2742 75.8093 47.6122 75.386 47.4586 75.2461C47.2157 75.0229 46.2409 75.9371 45.9322 75.701C45.6422 75.4778 46.3054 74.4999 45.9157 74.0952C45.615 73.7827 44.93 74.0644 44.6679 73.6487C44.574 73.4989 44.5752 73.3229 44.4849 73.3126C44.353 73.2956 44.2975 73.6718 44.0902 73.7618C43.9626 73.8199 43.7501 73.7668 43.3936 73.454C43.3446 73.5062 43.2924 73.5514 43.2354 73.5859C42.9769 73.742 42.6925 73.7003 42.6297 73.8914C42.5441 74.1358 42.9524 74.3651 42.87 74.6165C42.7877 74.868 42.3533 74.7789 42.2103 75.0665C42.0638 75.3557 42.4199 75.6301 42.2769 75.8706C42.1301 76.1214 41.713 75.8918 41.2425 76.2215C41.0027 76.3905 41.0067 76.5213 40.7643 76.6188C40.4229 76.7527 40.18 76.5765 40.103 76.68C39.9361 76.9057 41.1033 77.8425 40.8856 78.2667C40.7786 78.4737 40.4291 78.4017 40.3351 78.637C40.2598 78.8382 40.4508 79.0508 40.6025 79.2899C41.1347 80.139 41.1061 81.3074 40.7532 81.5193C40.6194 81.6016 40.501 81.5014 40.3221 81.6255C40.0914 81.7862 40.1496 82.055 39.9997 82.1018C39.7882 82.1637 39.589 81.651 39.2359 81.6747C39.0908 81.6851 39.0841 81.7737 38.8997 81.8576C38.3982 82.0816 37.9333 81.6341 37.6958 81.8363C37.5627 81.9482 37.6647 82.1157 37.5765 82.4297C37.5202 82.6351 37.4114 82.8001 37.286 82.9385C37.3986 83.0541 37.4793 83.2314 37.4801 83.4022C37.4816 83.6968 37.2011 83.7859 37.1758 84.0499C37.1089 84.7393 37.8163 85.2776 38.0147 85.4313C39.0408 86.2182 39.9695 85.8513 40.3883 86.2727C40.8301 86.0117 41.1432 85.9848 41.3709 86.0524Z" fill="url(#paint8_linear)" stroke="white" stroke-width="1.31941" stroke-miterlimit="10"/>
<path d="M38.716 119.084C38.9875 119.192 38.9803 119.439 39.3791 119.976C39.6799 120.383 40.1436 121.006 40.7885 121.107C41.2706 121.178 41.3233 120.88 41.9404 120.882C42.7232 120.881 42.9044 121.363 43.4822 121.297C43.7659 121.262 43.828 121.136 44.76 120.297C45.9136 119.258 46.2014 119.11 46.5387 119.089C46.904 119.064 46.9318 119.21 47.4109 119.172C47.6137 119.157 48.3343 119.094 48.6306 118.617C48.7733 118.385 48.6794 118.282 48.8404 118.025C49.0405 117.703 49.3638 117.586 49.5552 117.499C50.3562 117.143 51.3178 116.256 51.2915 115.493C51.2777 115.059 50.9419 114.801 51.0804 114.635C51.2647 114.41 51.9266 114.811 52.1702 114.537C52.3174 114.372 52.2241 114.063 52.2053 114.003C52.1032 113.695 51.8688 113.669 51.7303 113.402C51.5889 113.12 51.7345 112.904 51.763 112.553C51.8356 111.613 50.9688 110.997 51.1564 110.779C51.302 110.61 51.7546 111.059 52.3623 110.89C52.8291 110.758 52.7976 110.426 53.2805 110.33C53.6406 110.257 53.7023 110.43 54.2939 110.366C54.5303 110.34 54.6399 110.298 54.8727 110.321C55.2132 110.354 55.2577 110.471 55.4341 110.463C55.8271 110.443 55.8709 109.862 56.3801 109.477C56.7907 109.166 57.3742 109.084 57.8093 109.203C58.4791 109.386 58.3137 109.906 59.0822 110.297C59.7995 110.659 60.4672 110.471 61.032 110.903C61.0727 110.936 61.2117 111.044 61.4207 111.146C61.64 111.251 61.88 111.365 62.1185 111.325C62.5028 111.257 62.5087 110.856 62.8192 110.805C63.2347 110.74 63.4957 111.425 63.7971 111.335C64.0315 111.267 63.937 110.844 64.3642 110.222C64.5649 109.929 64.6245 109.966 64.6883 109.796C64.8908 109.263 64.4283 108.605 64.1946 108.27C63.7803 107.68 63.5033 107.626 63.4153 107.17C63.3655 106.91 63.4347 106.827 63.3411 106.528C63.291 106.371 63.1598 105.951 62.8144 105.813C62.5516 105.706 62.3617 105.843 62.2836 105.738C62.1523 105.562 62.6467 105.2 62.5532 104.798C62.4795 104.476 62.045 104.199 61.7033 104.247C61.3809 104.291 61.2154 104.623 61.0438 104.547C60.9425 104.504 60.9747 104.386 60.8618 104.232C60.6856 103.996 60.4648 104.075 60.2386 103.917C59.817 103.621 60.0933 102.977 59.6656 102.705C59.4662 102.578 59.3731 102.693 59.176 102.552C58.8841 102.333 59.028 102.02 58.7676 101.702C58.5156 101.393 58.2807 101.572 57.9068 101.259C57.4755 100.895 57.5219 100.433 57.2582 100.399C57.0134 100.369 56.9363 100.763 56.6039 100.795C56.3047 100.824 56.1549 100.533 55.6979 100.253C55.1131 99.8898 54.7934 100.099 54.6481 99.8745C54.3625 99.4353 55.477 98.6587 55.6224 97.681C55.711 97.0673 55.4483 96.1427 53.814 94.8194C53.7425 94.869 53.6661 94.9081 53.58 94.9258C53.4343 94.9536 53.2802 94.9253 52.4134 94.2627C50.8647 93.0802 50.2929 92.3604 49.6768 92.5209C49.4234 92.5848 49.3494 92.7512 49.0834 92.731C48.9686 92.7233 48.7438 92.6715 48.2088 91.9949C47.7206 91.374 47.4773 91.0654 47.4783 90.6541C47.4774 90.248 47.6973 90.195 47.7299 89.825C47.7994 89.0188 46.8847 87.9972 46.1896 88.0781C45.4664 88.1632 45.247 89.4013 44.781 89.318C44.3931 89.2463 44.2307 88.3446 44.2223 88.2885C44.13 87.757 44.3179 87.6245 44.1894 87.2294C44.0246 86.7266 43.5123 86.2879 43.1725 86.3783C42.8505 86.4606 42.8879 86.9657 42.6032 87.0267C42.2202 87.1068 41.9692 86.2454 41.3619 86.0681C41.1342 86.0005 40.8212 86.0274 40.4006 86.2787C40.4409 86.3203 40.4793 86.367 40.5103 86.4256C40.7647 86.909 40.5266 87.7961 40.3238 88.2436C40.2462 88.4115 40.1798 88.5102 40.148 88.7129C40.0646 89.2816 40.4575 89.5521 40.3119 89.8623C40.1815 90.1398 39.7025 90.2722 39.476 90.1228C39.2938 90.0046 39.372 89.7721 39.2561 89.5082C38.9839 88.8917 37.8597 88.5474 37.5026 88.8724C37.1185 89.2226 37.9135 90.0848 37.4457 91.1064C37.2828 91.463 37.1116 91.5195 37.0164 91.9308C36.8884 92.4769 37.0911 92.7997 36.8508 93.0803C36.7925 93.1496 36.7138 93.2025 36.6287 93.2412C37.061 93.5794 37.3037 94.0467 37.2647 94.4967C37.2349 94.8354 37.0302 95.3351 36.6617 95.4471C36.3568 95.5388 36.1174 95.314 35.9501 95.4542C35.7632 95.6077 35.877 96.0267 35.9073 96.1498C35.9287 96.2343 36.1452 96.9916 36.7924 97.2192C37.4294 97.4429 38.0762 97.0117 38.1743 97.1895C38.2415 97.3088 37.9321 97.4752 37.958 97.7672C37.9908 98.1118 38.4591 98.2282 38.4202 98.4342C38.3806 98.6576 37.8022 98.5998 37.7066 98.8787C37.6091 99.1627 38.1326 99.438 38.0299 99.7672C37.9746 99.9464 37.7409 100.091 37.5642 100.06C37.2595 100.002 37.2801 99.4365 37.0202 99.3921C36.7931 99.3542 36.4658 99.7257 36.3941 100.113C36.335 100.444 36.5118 100.522 36.5863 101.062C36.6779 101.705 36.461 101.867 36.6459 102.151C36.8719 102.506 37.3377 102.449 37.3885 102.729C37.4261 102.943 37.1711 103.051 37.2234 103.241C37.2945 103.491 37.7594 103.412 37.9208 103.719C38.0267 103.924 37.9615 104.232 37.801 104.33C37.5602 104.478 37.1492 104.13 37.0761 104.224C36.9868 104.328 37.552 104.752 37.4522 105.05C37.337 105.389 36.4908 105.166 36.2325 105.605C36.0431 105.922 36.396 106.189 36.2394 106.757C36.177 106.986 36.1073 106.984 35.7224 107.548C35.2949 108.179 35.0813 108.49 35.0612 108.803C35.0344 109.252 35.2969 109.274 35.3305 109.836C35.3386 109.948 35.3733 110.72 34.8938 111.152C34.5657 111.447 34.3148 111.3 34.0664 111.61C33.8199 111.914 33.9632 112.191 33.8064 112.524C33.7308 112.687 33.5777 112.868 33.2741 113.019C33.7875 113.714 33.0868 114.666 33.7179 115.337C34.089 115.729 34.4032 115.479 34.8326 115.848C35.6829 116.578 34.8829 117.914 35.6479 118.785C36.1767 119.392 37.1169 119.379 37.5752 119.483C37.9777 119.155 38.3912 118.954 38.716 119.084Z" fill="url(#paint9_linear)" stroke="white" stroke-width="1.31941" stroke-miterlimit="10"/>
<path d="M71.4714 98.3845C72.1397 97.8408 72.7479 97.945 73.0999 97.3269C73.3514 96.883 73.2821 96.3924 73.1665 95.5464C73.0476 94.6933 72.8891 94.7868 72.7734 93.8938C72.693 93.2756 72.7312 92.9458 72.4852 92.4715C72.3061 92.1251 72.2223 92.1761 72.0857 91.8573C71.8306 91.2502 72.1096 91.0077 71.8427 90.5343C71.6658 90.2211 71.4517 90.1645 71.4125 89.8529C71.3869 89.6463 71.4638 89.4957 71.5102 89.3719C71.76 88.7362 71.6846 87.8847 71.3883 87.3562C71.1149 86.8687 70.8074 86.9358 70.7527 86.5713C70.673 86.0769 71.22 85.8494 71.1736 85.3057C71.1356 84.8651 70.7709 84.8727 70.653 84.4257C70.4894 83.7941 71.0439 83.0754 71.6386 82.3041C72.1363 81.6583 72.5501 81.3074 72.428 81.0676C72.3515 80.9184 72.1636 81.0039 71.8211 80.7875C71.4292 80.5379 71.4783 80.2887 71.1313 80.1471C70.8875 80.044 70.8192 80.1479 70.5202 80.0271C70.2368 79.9122 70.2254 79.7933 70.0125 79.7018C69.6539 79.5441 69.4396 79.7785 68.9724 79.7771C68.296 79.7767 68.199 79.2817 67.7863 79.3625C67.2208 79.4743 67.3224 80.4209 66.3604 81.1281C66.2601 81.1994 66.0223 81.3633 65.6835 81.4746C65.327 81.5941 64.9282 81.7241 64.6434 81.5499C64.2563 81.3109 64.4927 80.7583 64.0207 80.3612C63.762 80.1408 63.6405 80.2688 63.3976 80.0456C62.9572 79.6426 63.2048 79.0678 62.8713 78.89C62.6284 78.7609 62.4645 79.0494 61.8264 79.0487C61.3924 79.0451 61.3607 78.9097 61.116 78.974C60.5793 79.1112 60.4817 79.8274 60.1777 79.7989C59.91 79.7752 59.861 79.2069 59.5843 79.1916C59.3477 79.1795 59.2686 79.5792 59.0007 79.6583C58.8457 79.7031 58.6128 79.6336 58.2718 79.2796C57.7461 80.0237 56.7002 80.5937 56.7962 81.5471C56.8251 81.8549 56.9746 82.202 56.8019 82.349C56.595 82.5244 56.2159 82.162 55.9523 82.3162C55.5246 82.5707 56.0889 83.7817 55.5559 84.1997C55.4141 84.3113 55.1978 84.3626 55.0143 84.3263C54.6386 84.2533 54.5371 83.833 54.3498 83.8541C54.0767 83.8842 53.9696 84.8144 53.9597 84.896C53.9046 85.4046 53.7997 86.3681 54.3205 87.3893C54.6768 88.0872 54.9932 88.1615 55.0396 88.7053C55.0884 89.2822 54.7483 89.3813 54.8031 89.887C54.8803 90.5922 55.5706 90.6418 55.9226 91.5558C56.1568 92.1639 56.1408 92.89 55.8926 93.003C55.7118 93.0852 55.5665 92.7662 55.2786 92.7731C54.6434 92.7882 54.4622 94.3641 53.8289 94.8063C55.4667 96.128 55.7259 97.0542 55.6373 97.668C55.4934 98.6492 54.3825 99.4242 54.663 99.8615C54.8082 100.086 55.1279 99.8767 55.7127 100.24C56.1662 100.521 56.3212 100.814 56.6188 100.782C56.9547 100.749 57.0283 100.356 57.273 100.386C57.5387 100.415 57.4903 100.882 57.9217 101.246C58.2972 101.563 58.5305 101.38 58.7825 101.689C59.0429 102.007 58.8954 102.322 59.1909 102.538C59.3861 102.685 59.4827 102.568 59.6804 102.692C60.1046 102.966 59.8284 103.609 60.2535 103.904C60.4796 104.062 60.6988 103.979 60.8766 104.219C60.9896 104.373 60.9609 104.489 61.0587 104.534C61.2338 104.609 61.3958 104.278 61.7182 104.234C62.0564 104.187 62.4928 104.46 62.5681 104.785C62.6615 105.187 62.1672 105.549 62.2985 105.725C62.3782 105.834 62.5664 105.693 62.8293 105.8C62.9821 105.863 63.0912 105.98 63.1738 106.105C63.6454 105.506 64.1192 105.183 64.4973 104.998C64.9534 104.778 65.2574 104.759 65.5406 104.404C66.0026 103.83 65.7262 103.232 66.1787 102.919C66.5203 102.683 66.811 102.936 67.1861 102.641C67.4391 102.444 67.4096 102.248 67.6245 101.902C67.917 101.435 68.1466 101.498 68.7533 100.969C69.5654 100.262 69.5165 99.8346 70.04 99.7248C70.2666 99.6773 70.3989 99.7326 70.5865 99.75C70.8141 99.0559 71.1568 98.6432 71.4714 98.3845Z" fill="url(#paint10_linear)" stroke="white" stroke-width="1.31941" stroke-miterlimit="10"/>
<path d="M74.5377 80.8153C74.6747 80.7872 74.9777 80.7478 75.1185 80.5211C75.2444 80.3183 75.1911 80.0602 75.1746 79.9864C75.1073 79.6789 74.9425 79.6554 74.8688 79.3809C74.7767 79.0376 74.91 78.6347 75.0557 78.6069C75.1398 78.5943 75.1809 78.7125 75.4328 78.9745C75.7032 79.258 75.8545 79.4117 76.0154 79.3984C76.2656 79.3744 76.2531 78.9522 76.5442 78.8582C76.8988 78.744 77.2183 79.2576 77.4211 79.1482C77.6399 79.0273 77.574 78.2528 77.2414 78.096C77.0563 78.009 76.9365 78.1876 76.6795 78.112C76.3276 78.0068 76.2838 77.5817 76.0533 77.5924C75.8892 77.5986 75.8813 77.8162 75.6517 77.8949C75.4258 77.9721 75.0946 77.8746 74.9655 77.638C74.8347 77.398 74.9461 77.0691 75.1388 76.9002C75.4665 76.6141 75.8279 76.9846 76.6271 76.8221C77.1751 76.7097 77.2952 76.4753 77.6812 76.5522C78.1001 76.6354 78.326 76.9905 78.4053 76.9202C78.5062 76.8315 78.1793 76.471 78.168 75.8728C78.1623 75.5502 78.2497 75.0654 78.5002 74.9856C78.749 74.9024 79.0446 75.26 79.1597 75.1649C79.2531 75.0881 79.0756 74.8394 79.1758 74.721C79.3363 74.5282 80.0023 74.9098 80.0835 74.7873C80.1537 74.6783 79.6064 74.3882 79.5741 73.885C79.5546 73.6072 79.7148 73.5643 79.7117 73.2661C79.707 72.9174 79.487 72.7821 79.194 72.3078C78.8828 71.8032 78.6211 71.3788 78.7605 71.0929C78.9511 70.6937 79.7702 70.8474 79.9479 70.3729C79.9965 70.2352 79.9365 70.2069 80.0015 70.0489C80.1567 69.6659 80.5974 69.6751 80.6408 69.4414C80.6797 69.2354 80.3897 68.9651 80.1133 68.8469C79.6395 68.6431 79.4085 68.9536 78.8884 68.8266C78.3959 68.704 77.8981 68.2501 77.8863 67.8104C77.8754 67.3917 78.304 67.1111 78.1785 66.92C78.0975 66.7986 77.9195 66.8966 77.6586 66.7372C77.6228 66.715 77.3654 66.5539 77.2869 66.2687C77.1915 65.9184 77.4558 65.6998 77.3293 65.5348C77.1863 65.3431 76.7347 65.4886 76.6875 65.3475C76.6607 65.2698 76.8003 65.2192 76.8102 65.0905C76.8313 64.7985 76.1386 64.5274 76.0595 64.4949C75.6848 64.3488 75.5881 64.4184 75.4432 64.2789C75.2545 64.0995 75.3227 63.9016 75.2148 63.4671C75.1476 63.2067 74.9934 62.605 74.6893 62.5294C74.2865 62.4345 73.8602 63.3217 73.627 63.2139C73.4641 63.1382 73.5463 62.6515 73.5531 62.6099C73.6376 62.1093 73.9225 62.0395 73.9111 61.7324C73.8934 61.3082 73.3398 60.854 72.9417 60.9196C72.726 60.9535 72.6307 61.1296 72.4581 61.0797C72.2717 61.0276 72.2938 60.8035 72.1058 60.7008C71.8236 60.5511 71.5497 60.9367 71.2743 60.8395C70.9318 60.7171 70.7882 59.9224 70.9183 59.2683C71.0363 58.6626 71.3434 58.4159 71.2001 58.1858C71.0158 57.8846 70.3498 58.0763 70.2661 57.8362C70.1915 57.6348 70.6328 57.4383 70.6549 57.1202C70.6689 56.9255 70.5192 56.6812 70.0505 56.3853C70.026 56.4349 70.0051 56.4829 69.9719 56.5323C69.6427 57.003 68.9415 57.2022 68.4237 57.1554C67.8049 57.1031 67.4432 56.6943 67.1834 56.8852C67.042 56.9881 67.1007 57.1454 67.0026 57.4468C66.8114 58.0045 66.2324 58.5375 65.7651 58.4891C65.3482 58.4477 65.3237 57.971 64.8635 57.8252C64.4275 57.6855 63.9988 57.9661 63.3681 58.3858C61.0737 59.9175 60.8343 60.172 60.3693 60.1096C59.6077 60.0069 59.4673 59.2192 58.8086 59.3049C58.2515 59.3786 57.7151 60.0335 57.7544 60.5805C57.798 61.1555 58.4617 61.3627 58.3626 61.7373C58.2819 62.0394 57.7761 62.2353 57.3733 62.1874C56.9706 62.1396 56.9176 61.8727 56.59 61.8677C56.0657 61.8538 55.9223 62.5352 55.4938 62.5248C55.459 62.5235 55.4264 62.5084 55.397 62.5003C55.2631 62.7795 55.1817 63.099 55.3083 63.3581C55.4917 63.7325 55.9785 63.7207 56.0384 64.0401C56.0846 64.3015 55.814 64.6471 55.5165 64.7269C55.166 64.8221 54.9682 64.5099 54.6826 64.597C54.3264 64.7078 54.2187 65.3173 54.1728 65.5736C53.9816 66.6576 54.6544 66.9977 54.2874 67.7895C54.119 68.1528 53.8328 68.4456 53.895 68.8923C53.9569 69.3477 54.311 69.4862 54.2393 69.7798C54.1634 70.0925 53.7442 70.0179 53.2547 70.4375C52.9434 70.7032 52.8056 70.9927 52.6861 71.2097C53.3338 71.7109 53.4585 72.0222 53.4077 72.2208C53.3668 72.3849 53.2012 72.5287 53.241 72.7759C53.2814 73.0057 53.4647 73.0978 53.4196 73.2339C53.3707 73.3802 53.144 73.3336 53.0564 73.489C52.9575 73.6666 53.0873 74.0269 53.3238 74.1419C53.6131 74.2884 53.8789 73.9792 54.0898 74.1228C54.335 74.2852 54.1415 74.8097 54.3641 74.9224C54.5266 75.0068 54.6754 74.7508 54.9666 74.798C55.2804 74.8478 55.3586 75.1888 55.5514 75.161C55.7249 75.1377 55.7269 74.8415 55.9144 74.5765C56.2102 74.1638 56.9081 73.9104 57.4408 74.1216C58.161 74.4059 58.2519 75.4044 58.2662 75.5391C58.324 76.1547 58.0468 76.2979 58.0704 76.9419C58.0996 77.7674 58.5658 77.7949 58.5888 78.4092C58.6013 78.7373 58.4796 79.0152 58.294 79.2751C58.637 79.624 58.8679 79.6987 59.0229 79.6538C59.2924 79.5783 59.3699 79.175 59.6066 79.1871C59.8832 79.2025 59.9306 79.7672 60.1999 79.7944C60.504 79.823 60.6015 79.1067 61.1383 78.9695C61.3846 78.9088 61.4146 79.0406 61.8486 79.0443C62.4832 79.0466 62.6523 78.7599 62.8935 78.8855C63.2254 79.0597 62.9778 79.6346 63.4198 80.0411C63.6611 80.2608 63.7807 80.138 64.043 80.3567C64.5149 80.7539 64.2751 81.3081 64.6657 81.5455C64.9505 81.7197 65.3492 81.5896 65.7058 81.4702C66.0446 81.3588 66.2824 81.195 66.3827 81.1237C67.3463 80.42 67.2431 79.4698 67.8086 79.358C68.2213 79.2773 68.3148 79.7739 68.9948 79.7726C69.462 79.774 69.6762 79.5396 70.0349 79.6974C70.2477 79.7888 70.2607 79.9113 70.5426 80.0227C70.8467 80.1453 70.9098 80.0396 71.1537 80.1426C71.5023 80.2878 71.4515 80.5335 71.8434 80.7831C72.1824 81.0011 72.3739 80.914 72.4504 81.0632C72.5056 81.175 72.4431 81.3104 72.3182 81.4871C72.5784 81.5698 72.7844 81.5617 72.9376 81.522C73.2 81.4496 73.3401 81.2874 73.4927 81.3592C73.5201 81.3724 73.542 81.3924 73.5585 81.4192C73.9323 81.018 74.2759 80.8703 74.5377 80.8153Z" fill="url(#paint11_linear)" stroke="white" stroke-width="1.31941" stroke-miterlimit="10"/>
<path d="M88.0077 53.5126C87.9924 53.3098 88.1506 53.225 88.1247 52.98C88.0715 52.525 87.4235 52.0795 86.8203 52.0801C86.17 52.0807 85.8008 52.5953 85.6144 52.4491C85.3905 52.2771 85.9549 51.571 85.6874 51.1621C85.3421 50.6388 84.0389 51.236 83.5888 50.6235C83.3861 50.3477 83.5888 50.1442 83.3281 49.7879C83.0906 49.4637 82.8711 49.5551 82.3308 49.1676C81.8398 48.8133 81.7842 48.569 81.5241 48.5804C81.1888 48.596 81.1142 49.015 80.8282 49.0168C80.4952 49.0185 80.1918 48.4463 80.0619 47.9919C79.7963 47.0515 80.3016 46.7232 80.0543 46.1425C79.682 45.2592 77.9893 44.7755 77.1662 45.3084C76.8449 45.5145 76.6201 45.8949 76.4434 45.817C76.3147 45.76 76.3668 45.5266 76.2008 45.1528C76.0671 44.8499 75.9533 44.8161 75.8319 44.606C75.4846 43.9938 75.995 43.4792 75.7197 43.0439C75.4228 42.5799 74.5692 42.7543 74.5465 42.5635C74.5096 42.2851 76.3359 42.066 76.4119 41.4153C76.4417 41.1706 76.1973 41.132 75.7674 40.3948C75.4033 39.7645 75.4654 39.5908 75.1951 39.4014C74.8026 39.1221 74.4732 39.3576 74.0626 39.1421C73.9565 39.0877 73.843 38.9982 73.7349 38.8548C73.7259 38.8632 73.7185 38.8751 73.7059 38.8851C73.5051 39.0834 73.4277 39.0074 73.3076 39.1476C73.0327 39.4652 73.3232 40.0092 73.1167 40.1288C73.0116 40.1895 72.9241 40.0538 72.751 40.1155C72.5373 40.1913 72.5517 40.4672 72.3802 40.4853C72.1738 40.5022 72.0193 40.2944 71.9512 40.2013C71.7218 39.8948 71.8299 39.6531 71.6429 39.5242C71.4916 39.4176 71.3769 39.5511 71.0993 39.5148C70.721 39.4644 70.3717 39.1484 70.2251 38.8171C70.0394 38.4095 70.1856 38.0349 70.0205 37.9731C69.8811 37.9209 69.7272 38.175 69.5431 38.109C69.4105 38.0623 69.4385 37.9169 69.3033 37.7987C69.053 37.5874 68.6501 37.8306 68.5607 37.7001C68.4581 37.5499 68.9925 37.2384 68.9841 36.7501C68.9788 36.4658 68.794 36.4172 68.616 35.9419C68.5921 35.88 68.5766 35.8272 68.5598 35.7621C68.3278 35.8634 68.1956 35.9962 68.1148 36.11C67.8722 36.4515 68.0201 36.7479 67.7237 37.0839C67.4437 37.3996 67.1667 37.2988 67.0247 37.5603C66.8414 37.9004 67.2643 38.1616 67.2591 38.686C67.2548 39.5224 66.1729 39.6937 66.0346 40.7152C65.9727 41.1713 66.1858 41.1599 66.142 41.7404C66.0758 42.6477 65.5462 42.7817 65.5415 43.4856C65.5359 44.3098 66.2511 44.9686 66.3304 45.0394C66.8756 45.5317 67.4331 45.5433 67.4988 45.9414C67.547 46.2446 67.2479 46.3679 67.2929 46.7111C67.3379 47.0543 67.6669 47.1657 68.0121 47.5008C68.6637 48.1328 68.3681 48.5926 68.8475 49.0719C69.6095 49.8335 70.8904 49.2251 71.1725 49.807C71.3378 50.1512 70.8901 50.3805 70.9106 51.1586C70.9307 51.8983 71.3461 51.9832 71.2661 52.5501C71.1724 53.209 70.5658 53.4465 70.6983 53.9254C70.7707 54.1877 70.9941 54.2743 70.9533 54.4854C70.9161 54.6949 70.6743 54.7279 70.469 54.9069C70.0208 55.2948 70.3023 55.8471 70.0511 56.3765C70.5198 56.6725 70.6731 56.9151 70.6555 57.1114C70.6334 57.4295 70.1922 57.626 70.2668 57.8274C70.3556 58.0694 71.0164 57.8757 71.2007 58.177C71.3405 58.4087 71.0385 58.6573 70.919 59.2595C70.7888 59.9135 70.9325 60.7082 71.2749 60.8305C71.5503 60.9277 71.8277 60.5405 72.1063 60.6919C72.2928 60.7911 72.2707 61.0151 72.4587 61.0708C72.6347 61.119 72.7265 60.9446 72.9422 60.9107C73.3368 60.8467 73.8939 61.2993 73.9115 61.7234C73.923 62.0306 73.6397 62.1039 73.5536 62.6009C73.5468 62.6425 73.4681 63.1276 73.6275 63.2049C73.8606 63.3127 74.2886 62.4291 74.6897 62.5204C74.9922 62.5925 75.1463 63.1942 75.2152 63.4581C75.3267 63.8909 75.2585 64.0888 75.4436 64.2699C75.5885 64.4094 75.6816 64.3413 76.0599 64.4859C76.1373 64.5149 76.8281 64.7911 76.8105 65.0815C76.8006 65.2101 76.6611 65.2608 76.6879 65.3384C76.735 65.4796 77.185 65.3305 77.3296 65.5257C77.3928 65.6082 77.3561 65.7062 77.3169 65.8267C77.5615 65.7625 77.7495 65.677 77.8867 65.5931C78.7959 65.0425 79.1037 63.8669 79.7489 63.9114C79.8637 63.9191 79.9388 63.962 80.1258 63.9496C80.4753 63.9275 80.7625 63.7498 80.9029 63.626C81.3786 63.2042 80.9862 62.6809 81.3762 61.9772C81.5124 61.7312 81.9504 61.4335 82.8298 60.8365C83.2159 60.5752 83.4151 60.4675 83.6837 60.4181C84.1663 60.3311 84.2876 60.5412 84.5829 60.4283C85.1505 60.2085 85.0899 59.2861 85.5281 59.2237C85.7524 59.1901 85.81 59.4292 86.2143 59.4806C86.2559 59.4873 86.6606 59.53 86.9983 59.3036C87.4933 58.9714 87.3395 58.4081 87.7179 58.2616C88.0167 58.147 88.1723 58.4699 88.6714 58.4568C89.1602 58.4398 89.6813 58.1085 89.7056 57.7765C89.7251 57.481 89.3353 57.4615 89.1606 57.0403C88.8851 56.3697 89.6409 55.8675 89.3876 55.1141C89.2432 54.6749 88.8914 54.5696 88.9667 54.3214C88.9686 54.3163 88.9741 54.3095 88.976 54.3043C88.2459 54.0075 88.0239 53.7362 88.0077 53.5126Z" fill="url(#paint12_linear)" stroke="white" stroke-width="1.31941" stroke-miterlimit="10"/>
<path d="M100.504 44.8101C100.355 44.6983 100.306 44.7592 99.9875 44.596C99.6298 44.4121 99.6149 44.2948 99.4275 44.2217C98.9066 44.0179 98.3118 44.648 98.1876 44.5162C98.1037 44.426 98.3786 44.1084 98.6522 43.4404C98.8128 43.0507 98.9905 42.6232 98.8586 42.5121C98.7199 42.3954 98.277 42.6355 97.9686 42.917C97.2059 43.6106 97.4118 44.4199 96.9086 44.5932C96.4953 44.7385 95.9524 44.3265 95.7036 43.9775C95.6207 43.8612 95.3202 43.4459 95.4677 43.1306C95.6477 42.7363 96.4019 42.7569 96.4004 42.5564C96.4023 42.4571 96.2127 42.445 96.1181 42.2655C96.0219 42.0824 96.0998 41.8587 96.2283 41.5863C96.6253 40.7381 96.9371 40.6519 96.9207 40.287C96.9034 39.9012 96.5298 39.532 96.326 39.5734C96.2312 39.5908 96.2348 39.6833 96.1117 39.7607C95.8442 39.9252 95.3385 39.783 95.1507 39.4833C95.0436 39.3138 95.1035 39.201 94.9812 39.1111C94.8267 38.9974 94.5833 39.0739 94.4192 39.1272C94.0824 39.2334 94.0618 39.3668 93.898 39.3643C93.729 39.3599 93.6699 39.2113 93.2537 38.6733C93.132 38.5189 92.9087 38.2354 92.6273 37.8242C92.5347 37.6866 92.4521 37.5616 92.4239 37.3776C92.3889 37.141 92.4904 37.082 92.4778 36.9038C92.4547 36.5805 92.0461 36.5481 91.6212 36.0097C91.3062 35.6095 91.2364 35.4188 91.1191 35.4336C90.7267 35.4838 90.9948 37.7924 90.2205 37.9907C90.0832 38.0275 90.0257 37.9766 89.6991 37.8984C88.3201 37.5587 87.3389 37.9324 87.1232 37.4871C87.0454 37.3256 87.1098 37.138 87.0034 37.0923C86.9089 37.054 86.798 37.1771 86.5544 37.3565C86.1799 37.6338 85.9917 37.7751 85.8608 37.732C85.5521 37.637 85.7444 36.7151 85.3561 36.558C85.1722 36.4833 85.0456 36.6564 84.7828 36.5492C84.5715 36.4613 84.5631 36.3111 84.3538 36.2651C84.1687 36.2253 84.0968 36.3307 83.9385 36.2744C83.7801 36.218 83.7504 36.0775 83.6562 35.9834C83.552 35.8768 83.3401 35.8063 82.8884 35.9048C82.934 35.9954 82.985 36.0792 82.9512 36.193C82.9113 36.3309 82.7662 36.4354 82.6347 36.4568C82.4751 36.4823 82.3883 36.3763 82.1548 36.2771C82.1548 36.2771 81.8681 36.1551 81.5579 36.1507C81.0282 36.1436 80.8633 36.5523 80.5792 36.4548C80.2745 36.3496 80.3476 35.8241 80.059 35.7543C79.7791 35.6848 79.5044 36.1436 79.2696 36.0322C79.1496 35.9755 79.1863 35.8305 79.0747 35.7828C78.8396 35.6801 78.5855 36.2878 78.0906 36.329C77.7076 36.362 77.533 36.035 77.2213 36.1682C77.0566 36.2389 77.0631 36.3472 76.8471 36.4369C76.5851 36.5476 76.4724 36.4319 76.3329 36.5296C76.077 36.7102 76.2421 37.2513 76.0851 37.3014C75.9794 37.3324 75.9028 37.0891 75.7303 37.0862C75.4846 37.0825 75.4443 37.5673 75.0668 37.6877C74.8428 37.7597 74.7485 37.6185 74.6019 37.7195C74.3998 37.8585 74.5122 38.1711 74.2608 38.371C74.1693 38.4426 74.1567 38.4056 74.0207 38.5017C73.856 38.6194 73.821 38.721 73.703 38.8474C73.8111 38.9907 73.9282 39.0787 74.0308 39.1347C74.4465 39.3521 74.7707 39.1147 75.1633 39.394C75.4301 39.585 75.3715 39.7571 75.7356 40.3874C76.162 41.1263 76.41 41.1633 76.3801 41.4079C76.3006 42.0603 74.4777 42.2778 74.5147 42.5562C74.5374 42.747 75.391 42.5726 75.688 43.0366C75.9668 43.4703 75.4564 43.985 75.8002 44.5988C75.9232 44.8125 76.0354 44.8427 76.1691 45.1456C76.335 45.5194 76.2829 45.7528 76.4116 45.8098C76.5884 45.8877 76.8167 45.5057 77.1345 45.3012C77.9628 44.7703 79.652 45.2555 80.0227 46.1353C80.2701 46.716 79.7611 47.046 80.0303 47.9848C80.1602 48.4392 80.4637 49.0115 80.7967 49.0097C81.0827 49.008 81.1608 48.5873 81.4926 48.5733C81.7492 48.5635 81.8064 48.8113 82.2993 49.1605C82.8397 49.548 83.0627 49.4551 83.2967 49.7808C83.5574 50.1372 83.3547 50.3407 83.5574 50.6165C84.0076 51.229 85.3108 50.6318 85.6561 51.1551C85.9237 51.564 85.3628 52.2685 85.5831 52.4421C85.7695 52.5884 86.1387 52.0738 86.7891 52.0732C87.3959 52.0709 88.0439 52.5164 88.0935 52.9731C88.123 53.2165 87.9632 53.2978 87.9765 53.5056C87.9928 53.7293 88.2183 53.999 88.9439 54.2765C89.0367 54.0289 89.4889 53.8659 89.872 53.927C90.5082 54.027 90.7817 54.7027 91.0138 54.6014C91.2069 54.5178 91.0019 54.0677 91.3137 53.6904C91.5419 53.4112 91.8011 53.4729 91.9012 53.2134C91.9917 52.9797 91.8751 52.6861 91.7331 52.5153C91.516 52.2547 91.2351 52.2584 91.2341 52.1433C91.2327 51.9899 91.7351 52.0309 92.0157 51.6978C92.3363 51.3209 92.0397 50.8482 92.2953 50.6762C92.4651 50.5605 92.8599 50.7317 93.6423 51.0776C94.0645 51.262 94.0087 51.2618 94.1706 51.3165C94.7736 51.5128 95.0289 51.3496 95.5491 51.5237C95.9693 51.6663 95.922 51.8162 96.2309 51.9025C97.0281 52.1303 98.2426 51.3852 98.2702 50.6751C98.2908 50.1094 97.5471 49.9428 97.5893 49.3117C97.6209 48.8736 98.0173 48.428 98.4292 48.2705C98.7703 48.1453 98.9432 48.2806 99.299 48.0844C99.63 47.8996 99.6589 47.6811 99.8595 47.6797C100.193 47.6779 100.332 48.2564 100.583 48.215C100.742 48.1895 100.886 47.9229 100.858 47.7005C100.821 47.4133 100.514 47.3777 100.444 47.0544C100.403 46.8717 100.441 46.6064 100.572 46.5467C100.625 46.5225 100.68 46.5402 100.747 46.5827C100.816 46.3116 100.828 46.0837 100.828 45.9252C100.859 45.616 100.849 45.0684 100.504 44.8101Z" fill="url(#paint13_linear)" stroke="white" stroke-width="1.31941" stroke-miterlimit="10"/>
<path d="M75.2614 15.1966C74.8995 15.3698 74.4084 14.7802 74.1176 14.9595C73.8108 15.1505 74.175 15.922 73.8218 16.1897C73.5098 16.4257 72.9289 16.0524 72.7958 16.2585C72.7089 16.3965 72.9544 16.5971 72.8669 16.9408C72.8196 17.1377 72.7197 17.1533 72.7333 17.2583C72.7747 17.5561 73.5576 17.5081 73.67 17.8677C73.7311 18.0582 73.528 18.1292 73.5166 18.5366C73.5058 18.8325 73.6062 18.9965 73.5311 19.0478C73.4203 19.124 73.2047 18.7727 72.9245 18.8061C72.5673 18.8488 72.5325 19.468 72.1908 19.5165C71.8577 19.5653 71.6939 18.9894 71.3315 19.0302C71.0426 19.0632 70.8027 19.4762 70.7358 19.7805C70.6859 20 70.754 20.0461 70.6877 20.2389C70.5648 20.5986 70.2788 20.6004 70.2376 20.8202C70.1791 21.1335 70.7264 21.2825 70.9783 21.8355C71.13 22.1687 71.0027 22.2652 71.0348 22.9652C71.0893 24.1001 71.446 24.263 71.291 24.8813C71.1572 25.3958 70.903 25.2889 70.6259 25.9585C70.5666 26.101 70.2328 26.9376 70.5403 27.829C70.5765 27.9366 70.81 28.6092 71.1583 28.622C71.3498 28.629 71.4212 28.4381 71.7011 28.4135C71.911 28.395 72.1887 28.4784 72.2678 28.6521C72.405 28.9534 71.9788 29.5495 71.5287 29.6046C71.2011 29.6466 71.0575 29.3782 70.8357 29.4833C70.5875 29.5963 70.4834 30.063 70.5181 30.4024C70.5437 30.6561 70.6434 30.8375 70.5645 30.8991C70.473 30.9707 70.2797 30.7719 70.1762 30.8361C70.0067 30.9432 70.4443 31.5658 70.2089 31.9981C70.0649 32.2647 69.6881 32.4148 69.4005 32.3659C69.0973 32.3113 68.9398 32.0406 68.8576 32.0951C68.7613 32.1561 69.0278 32.497 68.9194 32.8416C68.8225 33.1552 68.5352 33.0977 68.341 33.4043C68.2337 33.5729 68.248 33.7076 68.4487 35.0884C68.5326 35.6579 68.5482 35.7578 68.6134 35.9293C68.7914 36.4046 68.9761 36.4532 68.9815 36.7375C68.9882 37.2222 68.4554 37.5374 68.5581 37.6876C68.6475 37.818 69.0468 37.5765 69.3007 37.7862C69.4378 37.8992 69.4115 38.0482 69.5405 38.0964C69.7246 38.1624 69.877 37.9048 70.0179 37.9605C70.183 38.0223 70.0369 38.3969 70.2225 38.8046C70.3727 39.1343 70.7185 39.4519 71.0968 39.5023C71.3744 39.5386 71.4872 39.4103 71.6404 39.5118C71.8275 39.6406 71.7193 39.8824 71.9487 40.1888C72.0152 40.2784 72.1714 40.4898 72.3778 40.4729C72.5473 40.4599 72.5349 40.1789 72.7486 40.103C72.9182 40.043 73.0092 40.1771 73.1143 40.1164C73.3209 39.9967 73.0288 39.4492 73.3052 39.1352C73.427 38.9984 73.5044 39.0745 73.7036 38.8726C73.8482 38.7298 73.873 38.6243 74.0503 38.4966C74.1863 38.4005 74.2005 38.4411 74.2904 38.366C74.5402 38.1625 74.4258 37.855 74.6314 37.7144C74.7781 37.6134 74.8688 37.7562 75.0964 37.6826C75.4739 37.5622 75.5122 37.0825 75.7599 37.0811C75.9359 37.0824 76.0106 37.3308 76.1147 37.2963C76.2681 37.2479 76.1046 36.7103 76.3625 36.5245C76.502 36.4268 76.6146 36.5425 76.8767 36.4318C77.0962 36.3405 77.0897 36.2322 77.2509 36.1631C77.5626 36.0299 77.7388 36.3605 78.1202 36.3239C78.6171 36.2776 78.8676 35.6715 79.1043 35.7777C79.2159 35.8254 79.1757 35.972 79.2992 36.0271C79.5324 36.135 79.8071 35.6762 80.0887 35.7492C80.3737 35.8206 80.3005 36.3461 80.6089 36.4497C80.8878 36.5453 81.0562 36.1349 81.5876 36.1456C81.8978 36.15 82.1845 36.272 82.1845 36.272C82.418 36.3712 82.5048 36.4772 82.6644 36.4517C82.7959 36.4303 82.9409 36.3258 82.9808 36.1879C83.0387 35.9861 82.8301 35.8756 82.8541 35.6464C82.8749 35.4572 83.0313 35.4246 83.1782 35.2208C83.5216 34.7436 83.2278 34.1455 83.4709 34.0306C83.6146 33.9609 83.7466 34.1662 83.9152 34.0852C84.1492 33.9787 84.078 33.4934 84.245 33.4559C84.3662 33.4307 84.4428 33.674 84.6175 33.663C84.7923 33.6519 84.8624 33.4018 85.0062 33.4262C85.1033 33.442 85.1111 33.5625 85.2136 33.5715C85.3352 33.5846 85.4002 33.4267 85.476 33.4521C85.5621 33.4814 85.5178 33.6941 85.6036 33.7321C85.6774 33.7627 85.8137 33.6579 85.893 33.5405C86.1172 33.2246 85.8713 32.9385 85.9862 32.561C86.1188 32.1283 86.5296 32.241 86.8172 31.7635C87.1603 31.2009 86.7927 30.7133 87.1256 30.4292C87.4298 30.1667 87.8144 30.5224 88.1782 30.2498C88.5653 29.9625 88.336 29.4121 88.7631 29.1279C89.0061 28.966 89.1297 29.1151 89.4278 28.9239C89.8007 28.69 89.7157 28.3906 90.0187 28.257C90.3536 28.1089 90.5937 28.4105 90.9018 28.2318C91.1333 28.1008 91.0532 27.9062 91.2756 27.7836C91.5657 27.6217 91.7925 27.9036 92.2309 27.7854C92.3067 27.7638 92.5936 27.6889 92.7399 27.4554C92.9399 27.1333 92.6418 26.8924 92.6946 26.3035C92.7407 25.7561 93.0218 25.6496 93.0099 25.1629C93.0082 25.0653 92.994 24.9776 92.9726 24.8932C92.9427 24.9025 92.9178 24.9138 92.8866 24.9109C92.589 24.8966 92.6637 24.3276 92.1315 23.9108C91.6382 23.5233 91.204 23.7165 90.8429 23.2432C90.7264 23.0908 90.6625 22.9316 90.5132 22.914C90.2752 22.8896 90.1184 23.269 89.9649 23.2233C89.8062 23.1757 89.9314 22.755 89.6749 22.5208C89.5162 22.379 89.3979 22.4671 89.1805 22.3563C88.7354 22.1309 88.5031 21.3764 88.7412 21.0627C88.8933 20.8609 89.1513 20.9574 89.2398 20.7759C89.3474 20.5515 88.9997 20.3332 88.8255 19.8004C88.642 19.2378 88.9147 19.1222 88.7339 18.6782C88.4985 18.1049 87.9371 18.0564 87.9427 17.6645C87.947 17.3544 88.3042 17.2646 88.2718 17.0055C88.2335 16.7148 87.7638 16.736 87.2844 16.3507C86.7882 15.9474 86.9406 15.6427 86.3372 14.9287C86.0129 14.5456 85.5083 14.0862 85.3159 14.1995C85.1841 14.2765 85.3403 14.535 85.1922 14.9147C85.0901 15.1794 84.9534 15.1988 84.5101 15.6445C84.0035 16.1488 83.8986 16.3977 83.7309 16.3585C83.5355 16.3147 83.6194 15.9727 83.3033 15.7485C83.0365 15.5575 82.8038 15.6762 82.6305 15.4555C82.5024 15.287 82.569 15.1326 82.4497 15.0585C82.3013 14.9677 82.118 15.1666 81.8945 15.2212C81.3878 15.3491 80.7744 14.7166 79.9617 13.8625C79.4125 13.2865 79.1805 12.9555 78.9809 13.0249C78.7002 13.1227 78.8822 13.9172 78.5795 14.0421C78.2307 14.1879 77.809 13.2244 77.1984 13.2369C76.3923 13.2527 76.0583 14.9538 75.6791 14.8824C75.6272 14.8718 75.573 14.828 75.5217 14.7529C75.4828 14.9589 75.4052 15.1269 75.2614 15.1966Z" fill="url(#paint14_linear)" stroke="white" stroke-width="1.31941" stroke-miterlimit="10"/>
<path d="M27.5686 19.757C27.9012 20.008 28.3055 20.0123 28.5022 20.4064C28.6871 20.7844 28.4587 21.0723 28.6636 21.2872C28.9188 21.5563 29.3668 21.2241 29.7448 21.4714C30.1042 21.7059 29.8591 22.117 30.1719 22.6722C30.6125 23.4517 31.4461 23.2521 31.8403 24.0613C32.0399 24.4712 31.8416 24.5529 32.0692 24.9115C32.4352 25.4896 32.9913 25.3478 33.3773 25.951C33.6248 26.3348 33.5099 26.5711 33.7692 26.727C34.0969 26.9202 34.4192 26.6409 34.7059 26.8571C34.9485 27.042 34.811 27.3228 35.0236 27.47C35.3297 27.6816 35.7244 27.1854 36.3297 27.2738C36.8204 27.3457 36.7881 27.7071 37.316 27.8606C38.0268 28.0678 38.791 27.6217 39.0511 27.4691C39.6729 27.1049 39.9238 26.6784 40.2111 26.783C40.4623 26.8741 40.4997 27.285 40.6328 27.2672C40.7747 27.2498 40.6944 26.7728 40.999 26.5016C41.1881 26.3342 41.5079 26.2657 41.7024 26.3826C41.9089 26.5069 41.8045 26.7384 41.9882 27.01C42.2957 27.4692 42.8947 27.2523 43.101 27.6207C43.3337 28.0283 42.7711 28.6352 42.9766 28.8326C43.1618 29.0137 43.7136 28.6086 43.871 28.7852C44.0352 28.9672 43.531 29.5048 43.7346 29.8015C43.8621 29.9875 44.1361 29.8842 44.3223 30.1332C44.4636 30.3214 44.3696 30.4626 44.4857 30.5767C44.6961 30.7848 45.0999 30.4214 45.5613 30.4853C46.2481 30.5836 46.2139 31.5235 46.9889 31.7871C47.5004 31.961 48.1751 31.7695 48.4802 31.3868C48.6977 31.1124 48.566 30.9455 48.8527 30.5411C48.9281 30.4341 49.2625 29.9653 49.7342 29.939C50.0241 29.9269 50.079 30.0945 50.2815 30.0879C50.9744 30.068 51.0488 28.0228 51.8551 27.857C52.3084 27.7621 52.9049 28.2824 53.0381 28.7909C53.1299 29.1429 52.9358 29.2525 52.9558 29.6628C53.0031 30.5657 54.0096 31.4599 54.5835 31.3101C54.9004 31.2259 55.0278 30.8384 55.2297 30.8963C55.3884 30.9439 55.3479 31.1934 55.4876 31.378C55.8003 31.7921 56.6471 31.3769 57.8875 31.403C58.553 31.4169 59.4191 31.4294 59.9911 31.9993C60.4521 32.4571 60.4512 33.0096 60.7317 33.0146C60.8484 33.0171 61.0051 32.9288 61.5345 31.8919C62.09 30.809 62.0992 30.5566 62.3316 30.4936C62.8861 30.3483 63.2978 31.6845 64.139 31.6612C64.8161 31.6441 65.0051 30.7622 65.728 30.7799C66.3516 30.7957 66.7876 31.4618 66.8205 31.5152C67.3695 32.3824 66.7168 33.1672 67.1058 33.9745C67.2615 34.2973 67.6125 34.664 68.4245 34.915C68.2471 33.7077 68.238 33.5749 68.3398 33.413C68.534 33.1064 68.8213 33.164 68.9182 32.8503C69.0266 32.5057 68.7636 32.1632 68.8564 32.1038C68.9351 32.0509 69.0926 32.3216 69.3992 32.3747C69.6869 32.4235 70.0637 32.2735 70.2077 32.0068C70.4431 31.5745 70.0071 30.9555 70.175 30.8449C70.2785 30.7807 70.4682 30.9811 70.5633 30.9079C70.6422 30.8463 70.5425 30.6648 70.5169 30.4112C70.4821 30.0718 70.5863 29.605 70.8345 29.4921C71.0579 29.3905 71.1999 29.6553 71.5275 29.6133C71.9811 29.5567 72.4073 28.9605 72.2666 28.6608C72.1858 28.4836 71.9098 28.4038 71.6999 28.4222C71.4184 28.4433 71.3486 28.6377 71.157 28.6307C70.8072 28.6144 70.5753 27.9454 70.5391 27.8377C70.2316 26.9463 70.5654 26.1098 70.6246 25.9673C70.9018 25.2977 71.156 25.4046 71.2898 24.8901C71.45 24.2737 71.0897 24.1124 71.0335 22.974C71.0015 22.2739 71.1288 22.1775 70.977 21.8442C70.7252 21.2913 70.1779 21.1423 70.2364 20.8289C70.2776 20.6091 70.5619 20.6038 70.6865 20.2476C70.7528 20.0548 70.6883 20.0071 70.7346 19.7892C70.8014 19.4849 71.0395 19.0771 71.3303 19.0389C71.691 18.9946 71.8549 19.5705 72.1895 19.5252C72.5277 19.4783 72.5609 18.8556 72.9233 18.8148C73.2034 18.7815 73.419 19.1327 73.5299 19.0566C73.605 19.0053 73.5046 18.8413 73.5154 18.5454C73.5284 18.1415 73.7298 18.0669 73.6688 17.8765C73.5563 17.5168 72.7771 17.5633 72.7321 17.2671C72.7168 17.1585 72.8168 17.1429 72.8657 16.9495C72.9496 16.6075 72.7076 16.4052 72.7946 16.2672C72.9241 16.0628 73.5086 16.4345 73.8206 16.1984C74.1738 15.9307 73.8131 15.1576 74.1164 14.9683C74.4071 14.7889 74.8983 15.3785 75.2602 15.2053C75.404 15.1356 75.4816 14.9676 75.5218 14.7739C75.1406 14.2284 74.8533 12.0654 75.366 10.1461C75.3946 10.0303 75.68 8.99327 75.4503 8.88378C75.2978 8.81198 75.0656 9.20436 74.7611 9.13746C74.448 9.07024 74.3939 8.59418 74.2207 8.60876C73.9934 8.6266 74.0794 9.42625 73.623 9.65532C73.4099 9.76081 73.0952 9.73711 72.93 9.58118C72.7784 9.43621 72.8153 9.23537 72.7357 9.22026C72.5677 9.18971 72.3654 10.052 72.1236 10.038C71.9862 10.0277 71.977 9.75374 71.7938 9.7087C71.5623 9.65143 71.3875 10.0476 71.1093 10.1699C70.8737 10.2729 70.4748 10.2147 69.7631 9.60134C69.7029 9.67582 69.6326 9.73774 69.5459 9.77291C69.1388 9.94103 68.7705 9.42388 67.8362 9.51521C67.4354 9.55633 67.4632 9.65495 67.2481 9.62442C66.3862 9.4988 66.2543 7.9027 65.5272 7.85695C65.2228 7.83711 65.1378 8.11112 64.7087 8.07103C64.323 8.03253 64.1887 7.79408 63.9386 7.86511C63.699 7.93129 63.6844 8.19044 63.482 8.43228C63.0922 8.8921 62.2265 9.01209 61.6844 8.77092C60.8487 8.40225 60.927 7.25828 60.4594 7.21853C59.8668 7.16723 59.5055 8.99626 58.9854 8.9633C58.2409 8.91691 58.2285 5.13961 57.0696 4.93515C56.4372 4.82489 55.764 5.83729 55.3756 5.58606C55.1082 5.41245 55.3645 4.88501 55.0535 4.61569C54.6528 4.27163 53.5864 4.58994 53.4136 5.12217C53.2958 5.48388 53.6819 5.65486 53.619 6.18415C53.5577 6.66992 53.1663 7.07912 52.8001 7.27139C52.4072 7.48012 52.2681 7.32515 51.9287 7.54803C51.4607 7.8551 51.5755 8.24797 51.2341 8.38189C50.737 8.57809 50.2145 7.8444 49.8175 8.07214C49.5628 8.21795 49.6643 8.59116 49.3388 8.76923C49.1305 8.88536 48.9967 8.77938 48.72 8.8111C48.0601 8.88457 47.948 9.56892 47.5233 9.59522C46.9311 9.62934 46.8135 8.30916 45.9699 8.111C45.3304 7.9569 45.1374 8.66095 44.1953 8.67879C43.2618 8.69695 43.006 8.0131 42.1223 8.14985C41.5543 8.23714 41.5696 8.53399 40.9712 8.59229C40.3902 8.65122 39.9035 8.41905 39.333 8.14373C38.4676 7.72865 38.5394 7.52911 38.1557 7.48545C37.2164 7.37791 36.6409 8.5769 36.0791 8.34895C35.6237 8.16673 35.7825 7.30283 35.2319 7.09969C34.8672 6.9661 34.6288 7.28853 34.3695 7.13265C33.9601 6.88239 34.3897 5.95519 33.9409 5.49609C33.8434 5.39492 33.6999 5.31472 33.4868 5.27904C33.4412 5.57367 33.1338 5.87616 32.9295 6.0761C32.0404 6.93421 31.2655 6.81176 31.133 7.29144C30.9802 7.84881 31.9452 8.25707 31.8066 8.85504C31.6558 9.50137 30.4253 9.48776 30.3531 10.0341C30.2787 10.5944 31.5058 11.0331 31.3872 11.5151C31.2932 11.8916 30.4907 11.9058 30.4883 12.1637C30.4875 12.378 31.0433 12.3861 31.5163 12.8513C32.0012 13.324 32.1755 14.0449 32.0031 14.1833C31.8181 14.3316 31.2667 13.7695 31.0566 13.9378C30.8394 14.1094 31.2458 14.8231 31.0182 14.9908C30.8893 15.0837 30.7331 14.8724 30.5016 14.9092C29.9039 14.9972 29.8804 16.5527 29.2678 16.6645C28.9783 16.7149 28.7208 16.4127 28.5748 16.5433C28.465 16.6404 28.5921 16.835 28.5078 17.0916C28.4138 17.374 28.1695 17.4296 27.9532 17.6221C27.3568 18.1545 27.5808 19.1823 27.3603 19.2056C27.2536 19.2157 27.2222 18.9775 27.035 18.7545C27.1405 19.3057 27.3548 19.5976 27.5686 19.757Z" fill="url(#paint15_linear)" stroke="white" stroke-width="1.31941" stroke-miterlimit="10"/>
<path d="M118.539 45.594C119.196 44.9697 119.889 44.9968 120.159 44.3391C120.358 43.8548 120.098 43.5491 120.359 43.2937C120.749 42.9106 121.612 43.3186 121.729 43.0684C121.808 42.9039 121.431 42.7246 121.414 42.3771C121.392 41.9336 121.961 41.3706 122.559 41.3C123.514 41.1903 124.275 42.3893 124.621 42.1545C124.784 42.0419 124.609 41.7793 124.81 41.4311C125.05 41.0181 125.614 40.8557 126.015 40.8442C126.762 40.821 127.082 41.3173 127.35 41.1527C127.769 40.8979 127.171 39.6037 127.562 39.3444C127.973 39.0718 128.889 40.341 129.45 40.0774C129.996 39.8203 130.081 38.1641 129.349 37.4959C129.031 37.2037 128.724 37.2535 128.574 36.9325C128.495 36.7675 128.472 36.5297 128.936 35.4539C129.394 34.39 129.597 34.2074 129.497 33.8848C129.351 33.4123 128.784 33.3707 128.754 32.9478C128.732 32.6368 129.02 32.3946 129.186 32.2333C129.537 31.8854 129.927 31.2844 130.113 30.16C130.067 30.181 130.024 30.2003 129.98 30.2074C129.472 30.276 129.219 29.2872 128.493 29.3008C128.055 29.3074 127.801 29.6711 127.549 29.5207C127.332 29.3925 127.446 29.0882 127.184 28.852C127.003 28.6903 126.698 28.6025 126.446 28.6787C126.183 28.7597 126.073 28.9979 125.53 30.0796C125.194 30.7505 125.139 30.8479 125.004 30.8883C124.586 31.0055 124.257 30.3381 123.684 30.4147C123.514 30.4364 123.445 30.5106 123.101 30.7699C122.163 31.4746 121.695 31.8287 121.413 31.7173C121.09 31.5905 121.183 31.0518 120.715 30.8412C120.547 30.7636 120.489 30.8156 120.265 30.776C119.456 30.6349 119.36 29.8227 118.649 29.7182C118.29 29.6633 118.222 29.8612 117.858 29.7486C117.486 29.6356 117.417 29.3891 117.117 29.3712C116.804 29.351 116.713 29.6108 116.401 29.697C115.987 29.8126 115.708 29.4817 114.799 28.9326C113.622 28.2185 113.202 28.238 113.04 27.7598C112.889 27.3063 113.175 27.0222 112.944 26.7593C112.648 26.4278 112.033 26.7033 111.757 26.315C111.628 26.1343 111.709 26.003 111.554 25.8684C111.295 25.648 110.907 25.8761 110.802 25.7311C110.662 25.5255 111.377 24.973 111.24 24.7275C111.129 24.5212 110.453 24.5419 110.226 24.8595C110.069 25.0803 110.211 25.3156 110.045 25.4507C109.867 25.5958 109.457 25.5216 109.355 25.3156C109.184 24.9695 110.014 24.4421 109.848 24.1067C109.743 23.8937 109.276 23.8278 108.99 23.9881C108.676 24.1649 108.683 24.5556 108.533 24.5553C108.308 24.5593 108.313 23.7141 107.864 23.5461C107.637 23.4611 107.521 23.6294 106.981 23.7683C106.754 23.8245 105.808 24.0705 105.558 23.7267C105.348 23.4454 105.789 22.9839 105.527 22.6066C105.381 22.3991 105.172 22.4298 105.125 22.2503C105.05 21.9635 105.568 21.775 105.541 21.462C105.51 21.1036 104.781 20.7336 104.13 20.79C103.719 20.8272 103.582 21.0139 103.409 20.9083C103.105 20.7298 103.08 19.9028 103.461 19.4513C103.71 19.1537 104.013 19.1613 104.037 18.9495C104.067 18.7048 103.708 18.3588 103.388 18.3803C103.105 18.3978 103.086 18.6847 102.44 19.3809C102.097 19.7466 101.98 19.7998 101.97 19.9842C101.947 20.3755 102.465 20.5548 102.411 20.8875C102.384 21.0451 102.257 21.0858 101.835 21.3893C101.103 21.915 101.032 22.1268 100.812 22.0944C100.476 22.042 100.562 21.5362 100.113 21.2183C99.4097 20.7167 98.1851 21.2611 98.1142 21.2933C97.6142 21.5208 97.3362 21.8313 97.2107 21.7344C97.0394 21.6026 97.4643 20.9942 97.2591 20.788C97.0655 20.5979 96.3727 20.8061 96.2224 21.1998C96.1146 21.4799 96.3575 21.6561 96.219 21.916C96.1607 22.0324 96.0888 22.0437 95.5344 22.3772C95.2795 22.5317 95.1512 22.6072 95.1216 22.6549C94.9177 22.9874 95.3777 23.3301 95.2606 23.8156C95.1532 24.2753 94.5798 24.6517 94.2241 24.5568C93.9945 24.4944 93.987 24.271 93.7838 24.2479C93.4504 24.2113 93.2666 24.8041 92.9823 24.9036C93.0037 24.988 93.0195 25.0792 93.0196 25.1733C93.0315 25.66 92.7488 25.763 92.7043 26.3139C92.6566 26.9047 92.9512 27.1473 92.7495 27.4659C92.6033 27.6993 92.318 27.7778 92.2406 27.7958C91.8022 27.914 91.5753 27.6321 91.2852 27.794C91.0628 27.9166 91.1429 28.1113 90.9115 28.2422C90.6017 28.4174 90.3633 28.1194 90.0283 28.2675C89.7218 28.4027 89.8103 28.7005 89.4374 28.9343C89.1377 29.1221 89.0192 28.9748 88.7727 29.1383C88.3456 29.4225 88.5749 29.9729 88.1878 30.2603C87.824 30.5329 87.441 30.1807 87.1352 30.4397C86.8023 30.7238 87.1699 31.2113 86.8268 31.774C86.534 32.2495 86.1283 32.1388 85.9958 32.5715C85.8809 32.949 86.1287 33.2299 85.9026 33.5511C85.8182 33.6665 85.6834 33.7749 85.6131 33.7427C85.5273 33.7047 85.5717 33.4919 85.4856 33.4626C85.4098 33.4372 85.3412 33.5968 85.2232 33.582C85.1207 33.573 85.1129 33.4525 85.0158 33.4367C84.872 33.4123 84.8018 33.6625 84.6271 33.6735C84.4488 33.6862 84.3741 33.4377 84.2545 33.4664C84.0875 33.5039 84.1572 33.9857 83.9248 34.0958C83.7581 34.1716 83.6277 33.9699 83.4804 34.0412C83.2374 34.156 83.5312 34.7541 83.1877 35.2314C83.0408 35.4351 82.8845 35.4678 82.8636 35.657C82.8547 35.7595 82.8902 35.8375 82.9276 35.9103C83.3777 35.8082 83.5877 35.8839 83.6954 35.9889C83.7896 36.083 83.8194 36.2235 83.9777 36.2799C84.1361 36.3362 84.2044 36.2324 84.393 36.2706C84.6007 36.3131 84.6056 36.4649 84.822 36.5547C85.0849 36.6619 85.208 36.4904 85.3953 36.5635C85.7836 36.7206 85.595 37.6409 85.9 37.7375C86.031 37.7806 86.2192 37.6394 86.5937 37.362C86.8338 37.1843 86.9482 37.0595 87.0427 37.0978C87.1475 37.14 87.0831 37.3276 87.1626 37.4926C87.3766 37.9344 88.3579 37.5607 89.7384 37.904C90.0616 37.9838 90.1174 38.0311 90.2599 37.9962C91.0326 37.7944 90.7645 35.4857 91.1585 35.4391C91.2759 35.4242 91.3456 35.615 91.6606 36.0152C92.0856 36.5536 92.4941 36.586 92.5172 36.9093C92.5299 37.0875 92.4284 37.1465 92.4633 37.3831C92.4915 37.5672 92.5741 37.6922 92.6668 37.8298C92.9482 38.2409 93.1715 38.5245 93.2931 38.6788C93.7094 39.2169 93.7685 39.3655 93.9375 39.3699C94.0977 39.3741 94.1183 39.2406 94.4587 39.1328C94.6193 39.0811 94.8627 39.0046 95.0207 39.1167C95.143 39.2066 95.0831 39.3194 95.1902 39.4889C95.3816 39.787 95.8838 39.9309 96.1513 39.7663C96.2744 39.6889 96.2708 39.5964 96.3656 39.579C96.5709 39.5412 96.9429 39.9068 96.9603 40.2927C96.9766 40.6575 96.6649 40.7437 96.2679 41.592C96.1394 41.8644 96.065 42.0865 96.1577 42.2712C96.2507 42.4471 96.4403 42.4593 96.44 42.5621C96.4414 42.7626 95.6872 42.742 95.5072 43.1363C95.3598 43.4516 95.6602 43.8669 95.7431 43.9833C95.9955 44.3306 96.5349 44.7442 96.9482 44.599C97.4498 44.4221 97.2419 43.618 98.0082 42.9227C98.3202 42.6395 98.7631 42.3995 98.8982 42.5178C99.0302 42.6289 98.8541 43.0599 98.6918 43.4462C98.4146 44.1158 98.1398 44.4334 98.2272 44.522C98.3514 44.6538 98.9463 44.0237 99.4671 44.2275C99.6545 44.3005 99.6694 44.4179 100.027 44.6017C100.345 44.765 100.395 44.7041 100.544 44.8159C100.889 45.0742 100.898 45.6218 100.904 45.9358C100.909 46.0963 100.894 46.3258 100.823 46.5934C101.002 46.7045 101.263 47.0138 101.789 47.352C102.366 47.727 102.62 47.7188 102.698 47.7129C103.018 47.6915 103.065 47.512 103.387 47.4593C103.901 47.3752 104.061 47.7732 104.482 47.7659C105.225 47.753 105.391 46.492 106.185 46.392C106.74 46.3234 106.886 46.9074 107.358 46.8724C108.451 46.7903 108.405 43.6357 109.926 43.1963C110.49 43.0339 111.367 43.2124 111.83 43.7034C112.163 44.0572 112.211 44.493 112.741 44.7825C113.095 44.9767 113.259 44.8851 113.414 45.0755C113.776 45.5227 113.149 46.4027 113.385 46.5821C113.577 46.7303 113.979 46.1367 114.745 46.0235C115.351 45.9359 115.405 46.262 116.554 46.4539C117.3 46.577 117.653 46.5063 117.879 46.6941C118.037 46.1561 118.306 45.8156 118.539 45.594Z" fill="url(#paint16_linear)" stroke="white" stroke-width="1.31941" stroke-miterlimit="10"/>
<path d="M52.5366 47.7337C52.9666 47.6535 53.0266 47.0614 53.456 46.9986C53.9277 46.9253 54.1348 47.6056 54.564 47.5516C55.0931 47.482 55.006 46.4261 55.8386 46.0173C56.2344 45.8244 56.4206 45.9793 56.8173 45.7132C57.2483 45.4187 57.1858 45.1219 57.4975 44.8474C58.1278 44.2953 58.9547 45.0018 59.6257 44.5766C60.3094 44.1415 60.509 42.7282 59.9039 41.8224C59.8345 41.7171 59.2897 40.925 58.4359 40.9583C58.3433 40.9618 57.8349 40.9921 57.4704 41.3761C56.9172 41.966 57.3529 42.6878 56.9146 43.0413C56.4151 43.4483 55.6304 42.6841 54.8933 43.1051C54.3021 43.4425 54.3284 44.2052 54.0005 44.2089C53.54 44.2129 53.3421 42.7067 52.9664 42.7279C52.6956 42.7441 52.3978 43.5472 52.4312 44.3066C52.4584 44.9961 52.7488 45.3048 52.5668 45.6572C52.4487 45.8864 52.193 46.0113 51.929 46.08C51.9154 46.4543 51.8441 46.8804 51.8225 46.9929C51.7984 47.128 51.775 47.2457 51.7547 47.3704C51.9835 47.6002 52.2609 47.7863 52.5366 47.7337Z" fill="url(#paint17_linear)" stroke="white" stroke-width="1.31941" stroke-miterlimit="10"/>
</g>
<defs>
<linearGradient id="paint0_linear" x1="22.9782" y1="18.7093" x2="34.8686" y2="44.8428" gradientUnits="userSpaceOnUse">
<stop stop-color="#000078"/>
<stop offset="1" stop-color="#6060C5"/>
</linearGradient>
<linearGradient id="paint1_linear" x1="11.899" y1="43.2143" x2="23.0407" y2="67.7023" gradientUnits="userSpaceOnUse">
<stop stop-color="#000078"/>
<stop offset="1" stop-color="#6060C5"/>
</linearGradient>
<linearGradient id="paint2_linear" x1="34.5275" y1="38.7552" x2="42.7924" y2="56.9202" gradientUnits="userSpaceOnUse">
<stop stop-color="#000078"/>
<stop offset="1" stop-color="#6060C5"/>
</linearGradient>
<linearGradient id="paint3_linear" x1="51.5833" y1="27.9634" x2="65.573" y2="58.7108" gradientUnits="userSpaceOnUse">
<stop stop-color="#000078"/>
<stop offset="1" stop-color="#6060C5"/>
</linearGradient>
<linearGradient id="paint4_linear" x1="19.6953" y1="67.4293" x2="32.3257" y2="95.1891" gradientUnits="userSpaceOnUse">
<stop stop-color="#000078"/>
<stop offset="1" stop-color="#6060C5"/>
</linearGradient>
<linearGradient id="paint5_linear" x1="28.8373" y1="59.0948" x2="39.4273" y2="82.3702" gradientUnits="userSpaceOnUse">
<stop stop-color="#000078"/>
<stop offset="1" stop-color="#6060C5"/>
</linearGradient>
<linearGradient id="paint6_linear" x1="43.7189" y1="53.0579" x2="53.1405" y2="73.7652" gradientUnits="userSpaceOnUse">
<stop stop-color="#000078"/>
<stop offset="1" stop-color="#6060C5"/>
</linearGradient>
<linearGradient id="paint7_linear" x1="21.2831" y1="82.4252" x2="34.8616" y2="112.269" gradientUnits="userSpaceOnUse">
<stop stop-color="#000078"/>
<stop offset="1" stop-color="#6060C5"/>
</linearGradient>
<linearGradient id="paint8_linear" x1="44.5769" y1="72.9156" x2="54.4199" y2="94.5491" gradientUnits="userSpaceOnUse">
<stop stop-color="#000078"/>
<stop offset="1" stop-color="#6060C5"/>
</linearGradient>
<linearGradient id="paint9_linear" x1="37.8681" y1="87.415" x2="51.6154" y2="117.63" gradientUnits="userSpaceOnUse">
<stop stop-color="#000078"/>
<stop offset="1" stop-color="#6060C5"/>
</linearGradient>
<linearGradient id="paint10_linear" x1="58.4195" y1="79.2124" x2="69.3722" y2="103.285" gradientUnits="userSpaceOnUse">
<stop stop-color="#000078"/>
<stop offset="1" stop-color="#6060C5"/>
</linearGradient>
<linearGradient id="paint11_linear" x1="60.8213" y1="58.3464" x2="71.7032" y2="82.2633" gradientUnits="userSpaceOnUse">
<stop stop-color="#000078"/>
<stop offset="1" stop-color="#6060C5"/>
</linearGradient>
<linearGradient id="paint12_linear" x1="69.8809" y1="35.1608" x2="82.7308" y2="63.4029" gradientUnits="userSpaceOnUse">
<stop stop-color="#000078"/>
<stop offset="1" stop-color="#6060C5"/>
</linearGradient>
<linearGradient id="paint13_linear" x1="82.9278" y1="33.5244" x2="92.2692" y2="54.0556" gradientUnits="userSpaceOnUse">
<stop stop-color="#000078"/>
<stop offset="1" stop-color="#6060C5"/>
</linearGradient>
<linearGradient id="paint14_linear" x1="73.3222" y1="14.9485" x2="83.0356" y2="36.2971" gradientUnits="userSpaceOnUse">
<stop stop-color="#000078"/>
<stop offset="1" stop-color="#6060C5"/>
</linearGradient>
<linearGradient id="paint15_linear" x1="44.9527" y1="0.0621715" x2="62.1162" y2="37.7852" gradientUnits="userSpaceOnUse">
<stop stop-color="#000078"/>
<stop offset="1" stop-color="#6060C5"/>
</linearGradient>
<linearGradient id="paint16_linear" x1="100.211" y1="19.1843" x2="113.611" y2="48.636" gradientUnits="userSpaceOnUse">
<stop stop-color="#000078"/>
<stop offset="1" stop-color="#6060C5"/>
</linearGradient>
<linearGradient id="paint17_linear" x1="54.6402" y1="41.955" x2="56.7436" y2="46.578" gradientUnits="userSpaceOnUse">
<stop stop-color="#000078"/>
<stop offset="1" stop-color="#6060C5"/>
</linearGradient>
<clipPath id="clip0">
<rect width="134" height="124" fill="white"/>
</clipPath>
</defs>
</svg>
