<svg width="40" height="40" viewBox="0 0 40 40" fill="none" xmlns="http://www.w3.org/2000/svg">
<path d="M0 20C0 8.95431 8.95431 0 20 0C31.0457 0 40 8.95431 40 20C40 31.0457 31.0457 40 20 40C8.95431 40 0 31.0457 0 20Z" fill="#2D80FC"/>
<path d="M22.135 23.8232H17.0325V23.313C17.0325 22.4447 17.1309 21.7419 17.3279 21.2048C17.5248 20.6588 17.8158 20.1619 18.2007 19.7144C18.5946 19.2668 19.4718 18.479 20.8325 17.3511C21.5576 16.7603 21.9202 16.2187 21.9202 15.7263C21.9202 15.234 21.7725 14.8535 21.4771 14.585C21.1906 14.3075 20.752 14.1687 20.1611 14.1687C19.5256 14.1687 18.9974 14.3791 18.5767 14.7998C18.1649 15.2205 17.9008 15.9546 17.7844 17.002L12.5745 16.3574C12.7535 14.4417 13.4473 12.902 14.6558 11.7383C15.8732 10.5656 17.7352 9.97925 20.2417 9.97925C22.1932 9.97925 23.7687 10.3866 24.9683 11.2012C26.5975 12.3022 27.4121 13.7703 27.4121 15.6055C27.4121 16.3664 27.2017 17.1004 26.781 17.8076C26.3603 18.5148 25.5009 19.3787 24.2029 20.3992C23.2987 21.1153 22.7258 21.6927 22.4841 22.1313C22.2514 22.561 22.135 23.125 22.135 23.8232ZM16.8579 25.1794H22.323V30H16.8579V25.1794Z" fill="white"/>
<path d="M20 39C9.50659 39 1 30.4934 1 20H-1C-1 31.598 8.40202 41 20 41V39ZM39 20C39 30.4934 30.4934 39 20 39V41C31.598 41 41 31.598 41 20H39ZM20 1C30.4934 1 39 9.50659 39 20H41C41 8.40202 31.598 -1 20 -1V1ZM20 -1C8.40202 -1 -1 8.40202 -1 20H1C1 9.50659 9.50659 1 20 1V-1Z" fill="white"/>
</svg>
