<svg width="32" height="32" viewBox="0 0 32 32" fill="none" xmlns="http://www.w3.org/2000/svg">
<path d="M0 16C0 7.16344 7.16344 0 16 0C24.8366 0 32 7.16344 32 16C32 24.8366 24.8366 32 16 32C7.16344 32 0 24.8366 0 16Z" fill="white"/>
<path d="M15.7656 17.7688C14.7764 17.7688 13.9695 16.9244 13.9695 15.8842C13.9695 14.8468 14.7737 13.9997 15.7656 13.9997C16.7548 13.9997 17.5617 14.8441 17.5617 15.8842C17.5617 16.9217 16.7548 17.7688 15.7656 17.7688Z" fill="#000078"/>
<path d="M15.7658 11.3747C13.3545 11.3747 11.3898 13.3962 11.3898 15.8846C11.3898 18.373 13.3545 20.3946 15.7658 20.3946C18.1771 20.3946 20.1418 18.373 20.1418 15.8846C20.1418 13.3962 18.1771 11.3747 15.7658 11.3747ZM25.764 16.323C23.1741 20.4798 19.6831 22.7693 15.9444 22.7693C12.2057 22.7693 8.7147 20.4798 6.12483 16.323C5.95839 16.0551 5.95839 15.7141 6.12483 15.4462C8.7147 11.2894 12.2057 8.99994 15.9444 8.99994C19.6831 8.99994 23.1701 11.2894 25.764 15.4462C25.9304 15.7141 25.9304 16.0551 25.764 16.323Z" fill="#000078"/>
</svg>
