<svg width="25" height="25" viewBox="0 0 25 25" fill="none" xmlns="http://www.w3.org/2000/svg">
<rect width="24" height="24" transform="translate(0.5 0.5)" fill="#EFEFF4"/>
<rect width="18" height="14.4" transform="translate(3.5 5.2998)" fill="#EFEFF4"/>
<path d="M9.10166 12.4998C10.5622 12.4998 11.8075 11.4965 12.27 10.0998H21.5V7.6998H12.27C11.8075 6.30308 10.5622 5.2998 9.10166 5.2998C7.64112 5.2998 6.39583 6.30308 5.93336 7.6998H3.5V10.0998H5.93336C6.39583 11.4965 7.64112 12.4998 9.10166 12.4998ZM9.10166 7.6998C9.71941 7.6998 10.222 8.23812 10.222 8.8998C10.222 9.56148 9.71941 10.0998 9.10166 10.0998C8.48391 10.0998 7.98133 9.56148 7.98133 8.8998C7.98133 8.23812 8.48391 7.6998 9.10166 7.6998Z" fill="#000078"/>
<path d="M15.8237 19.7C17.2842 19.7 18.5295 18.6967 18.992 17.3H21.5V14.9H18.992C18.5295 13.5033 17.2842 12.5 15.8237 12.5C14.3631 12.5 13.1178 13.5033 12.6554 14.9H3.5V17.3H12.6554C13.1178 18.6967 14.3631 19.7 15.8237 19.7ZM15.8237 14.9C16.4414 14.9 16.944 15.4383 16.944 16.1C16.944 16.7617 16.4414 17.3 15.8237 17.3C15.2059 17.3 14.7033 16.7617 14.7033 16.1C14.7033 15.4383 15.2059 14.9 15.8237 14.9Z" fill="#000078"/>
</svg>
