<svg width="183" height="54" viewBox="0 0 183 54" fill="none" xmlns="http://www.w3.org/2000/svg">
<path d="M175.855 0H6.76364C3.02818 0 0 3.02208 0 6.75V47.25C0 50.9779 3.02818 54 6.76364 54H175.855C179.59 54 182.618 50.9779 182.618 47.25V6.75C182.618 3.02208 179.59 0 175.855 0Z" fill="black"/>
<path opacity="0.3" d="M175.855 1.08C177.361 1.08 178.806 1.67737 179.872 2.7407C180.937 3.80404 181.536 5.24622 181.536 6.75V47.25C181.536 48.7538 180.937 50.196 179.872 51.2593C178.806 52.3226 177.361 52.92 175.855 52.92H6.76364C5.25682 52.92 3.81172 52.3226 2.74624 51.2593C1.68076 50.196 1.08218 48.7538 1.08218 47.25V6.75C1.08218 5.24622 1.68076 3.80404 2.74624 2.7407C3.81172 1.67737 5.25682 1.08 6.76364 1.08H175.855ZM175.855 0H6.76364C4.96981 0 3.24945 0.711159 1.98102 1.97703C0.712595 3.2429 0 4.95979 0 6.75V47.25C0 49.0402 0.712595 50.7571 1.98102 52.023C3.24945 53.2888 4.96981 54 6.76364 54H175.855C177.648 54 179.369 53.2888 180.637 52.023C181.906 50.7571 182.618 49.0402 182.618 47.25V6.75C182.618 4.95979 181.906 3.2429 180.637 1.97703C179.369 0.711159 177.648 0 175.855 0Z" fill="#A6A6A6"/>
<path d="M92.1749 29.3624C91.039 29.3678 89.9302 29.7088 88.9883 30.3425C88.0464 30.9761 87.3138 31.8741 86.8828 32.9229C86.4518 33.9718 86.3418 35.1245 86.5667 36.2357C86.7916 37.3469 87.3412 38.3667 88.1463 39.1664C88.9514 39.9661 89.9758 40.5099 91.0903 40.7291C92.2048 40.9483 93.3593 40.8331 94.4083 40.3981C95.4572 39.963 96.3535 39.2276 96.984 38.2847C97.6146 37.3418 97.9511 36.2335 97.9511 35.0999C97.9621 34.3411 97.82 33.5879 97.5333 32.885C97.2466 32.1822 96.8211 31.5441 96.2822 31.0088C95.7432 30.4734 95.1018 30.0518 94.3962 29.7689C93.6906 29.4861 92.9352 29.3479 92.1749 29.3624ZM92.1749 38.5829C91.4764 38.6317 90.7792 38.4696 90.1742 38.1177C89.5692 37.7658 89.0842 37.2404 88.7823 36.6098C88.4804 35.9792 88.3756 35.2726 88.4815 34.5817C88.5874 33.8909 88.8991 33.2478 89.3761 32.7361C89.8531 32.2244 90.4732 31.8678 91.156 31.7125C91.8388 31.5572 92.5526 31.6105 93.2046 31.8654C93.8566 32.1204 94.4167 32.5652 94.8121 33.142C95.2074 33.7189 95.4198 34.4011 95.4215 35.0999C95.4433 35.5427 95.376 35.9854 95.2236 36.4019C95.0712 36.8184 94.8369 37.2001 94.5343 37.5248C94.2317 37.8494 93.8671 38.1103 93.4618 38.292C93.0566 38.4737 92.6191 38.5727 92.1749 38.5829ZM79.581 29.3624C78.4446 29.3651 77.3344 29.7039 76.3907 30.3359C75.4471 30.968 74.7123 31.865 74.2792 32.9136C73.8462 33.9622 73.7342 35.1154 73.9576 36.2275C74.1809 37.3396 74.7296 38.3606 75.5341 39.1617C76.3387 39.9628 77.3631 40.5079 78.4779 40.7282C79.5928 40.9484 80.748 40.834 81.7978 40.3994C82.8475 39.9647 83.7446 39.2293 84.3757 38.2861C85.0068 37.3429 85.3436 36.2341 85.3436 35.0999C85.3547 34.3411 85.2126 33.5879 84.9259 32.885C84.6392 32.1822 84.2137 31.5441 83.6747 31.0088C83.1358 30.4734 82.4944 30.0518 81.7888 29.7689C81.0832 29.4861 80.3278 29.3479 79.5675 29.3624H79.581ZM79.581 38.5829C78.8821 38.6344 78.1839 38.4748 77.5772 38.1247C76.9704 37.7746 76.4834 37.2503 76.1794 36.6202C75.8754 35.99 75.7686 35.2831 75.8728 34.5914C75.977 33.8998 76.2875 33.2555 76.7637 32.7424C77.24 32.2293 77.86 31.8712 78.543 31.7147C79.2261 31.5582 79.9405 31.6105 80.5934 31.8649C81.2462 32.1193 81.8071 32.5639 82.2032 33.1409C82.5993 33.7179 82.8122 34.4005 82.8141 35.0999C82.8358 35.5427 82.7686 35.9854 82.6162 36.4019C82.4638 36.8184 82.2294 37.2001 81.9269 37.5248C81.6243 37.8494 81.2596 38.1103 80.8544 38.292C80.4492 38.4737 80.0116 38.5727 79.5675 38.5829H79.581ZM64.5793 31.1309V33.5609H70.4231C70.3314 34.7055 69.8547 35.7855 69.0703 36.6254C68.4857 37.2197 67.7829 37.6853 67.007 37.9922C66.2312 38.2992 65.3996 38.4406 64.5658 38.4074C62.8437 38.4074 61.1921 37.7247 59.9745 36.5095C58.7568 35.2942 58.0727 33.646 58.0727 31.9274C58.0727 30.2088 58.7568 28.5606 59.9745 27.3454C61.1921 26.1301 62.8437 25.4474 64.5658 25.4474C66.2131 25.4206 67.8039 26.0469 68.9892 27.1889L70.7071 25.4744C69.907 24.6658 68.9523 24.0257 67.8997 23.5921C66.8471 23.1584 65.718 22.9401 64.5793 22.9499C63.3767 22.9032 62.1771 23.0993 61.0522 23.5263C59.9274 23.9534 58.9005 24.6027 58.0331 25.4353C57.1657 26.2679 56.4757 27.2667 56.0043 28.3718C55.533 29.4769 55.29 30.6656 55.29 31.8667C55.29 33.0677 55.533 34.2564 56.0043 35.3616C56.4757 36.4667 57.1657 37.4655 58.0331 38.2981C58.9005 39.1307 59.9274 39.78 61.0522 40.207C62.1771 40.6341 63.3767 40.8301 64.5793 40.7834C65.7372 40.8356 66.8928 40.6398 67.9685 40.209C69.0441 39.7782 70.0149 39.1225 70.8154 38.2859C72.2326 36.732 72.9893 34.6892 72.9256 32.5889C72.93 32.0773 72.8847 31.5664 72.7903 31.0634L64.5793 31.1309ZM125.871 33.0209C125.519 31.9851 124.859 31.0807 123.98 30.4274C123.1 29.7741 122.043 29.4027 120.947 29.3624C120.207 29.361 119.475 29.511 118.796 29.8032C118.116 30.0955 117.504 30.5237 116.997 31.0614C116.49 31.5992 116.098 32.235 115.847 32.9296C115.596 33.6243 115.49 34.3629 115.537 35.0999C115.52 35.8545 115.656 36.6046 115.937 37.3054C116.217 38.0063 116.636 38.6435 117.169 39.1791C117.702 39.7146 118.338 40.1375 119.038 40.4224C119.738 40.7073 120.489 40.8485 121.245 40.8374C122.191 40.8425 123.124 40.6133 123.96 40.1704C124.795 39.7275 125.508 39.0846 126.034 38.2994L124.072 36.9494C123.779 37.4365 123.365 37.8393 122.869 38.1186C122.374 38.3978 121.814 38.5439 121.245 38.5424C120.659 38.5647 120.08 38.4105 119.583 38.1C119.086 37.7894 118.694 37.3367 118.458 36.8009L126.155 33.6284L125.871 33.0209ZM118.026 34.9379C117.998 34.5204 118.054 34.1015 118.191 33.706C118.328 33.3104 118.543 32.9461 118.822 32.6343C119.102 32.3225 119.441 32.0695 119.82 31.8902C120.199 31.7109 120.61 31.6088 121.029 31.5899C121.465 31.5612 121.9 31.6611 122.28 31.8771C122.66 32.0931 122.968 32.4157 123.166 32.8049L118.026 34.9379ZM111.776 40.4999H114.306V23.6249H111.776V40.4999ZM107.637 30.6449H107.542C107.161 30.2195 106.694 29.8794 106.171 29.6467C105.649 29.4141 105.084 29.2942 104.512 29.2949C103.034 29.3665 101.639 30.0029 100.619 31.0723C99.5977 32.1417 99.0283 33.5621 99.0283 35.0392C99.0283 36.5162 99.5977 37.9366 100.619 39.006C101.639 40.0755 103.034 40.7119 104.512 40.7834C105.085 40.793 105.653 40.6772 106.177 40.4439C106.7 40.2107 107.166 39.8658 107.542 39.4334H107.623V40.2569C107.623 42.4574 106.446 43.6319 104.552 43.6319C103.922 43.6172 103.31 43.4155 102.794 43.0525C102.279 42.6894 101.883 42.1816 101.658 41.5934L99.4526 42.5114C99.8677 43.519 100.575 44.3799 101.484 44.9836C102.392 45.5874 103.461 45.9064 104.552 45.8999C107.515 45.8999 109.963 44.1584 109.963 39.9194V29.6999H107.637V30.6449ZM104.742 38.5829C103.869 38.5062 103.057 38.106 102.465 37.4613C101.874 36.8166 101.546 35.9741 101.546 35.0999C101.546 34.2257 101.874 33.3833 102.465 32.7385C103.057 32.0938 103.869 31.6937 104.742 31.6169C105.174 31.6391 105.598 31.7474 105.988 31.9356C106.378 32.1237 106.727 32.3879 107.013 32.7124C107.299 33.037 107.517 33.4155 107.654 33.8255C107.792 34.2355 107.846 34.6689 107.812 35.0999C107.849 35.5329 107.798 35.9688 107.661 36.3813C107.524 36.7938 107.305 37.1744 107.017 37.4999C106.729 37.8255 106.377 38.0894 105.984 38.2755C105.59 38.4617 105.163 38.5662 104.728 38.5829H104.742ZM137.721 23.6249H131.675V40.4999H134.204V34.1009H137.735C138.456 34.1526 139.18 34.0555 139.861 33.8157C140.543 33.5759 141.168 33.1985 141.697 32.707C142.226 32.2156 142.648 31.6206 142.937 30.9593C143.225 30.2979 143.374 29.5843 143.374 28.8629C143.374 28.1416 143.225 27.428 142.937 26.7666C142.648 26.1052 142.226 25.5103 141.697 25.0188C141.168 24.5274 140.543 24.15 139.861 23.9101C139.18 23.6703 138.456 23.5732 137.735 23.6249H137.721ZM137.721 31.7249H134.191V25.9739H137.775C138.545 25.9739 139.283 26.279 139.827 26.8221C140.371 27.3651 140.677 28.1017 140.677 28.8697C140.677 29.6377 140.371 30.3742 139.827 30.9173C139.283 31.4603 138.545 31.7654 137.775 31.7654L137.721 31.7249ZM153.318 29.2949C152.397 29.24 151.48 29.4548 150.68 29.9129C149.88 30.3709 149.231 31.0524 148.814 31.8734L151.059 32.8049C151.281 32.3977 151.616 32.0635 152.024 31.843C152.432 31.6225 152.896 31.5252 153.359 31.5629C153.68 31.5255 154.005 31.5523 154.316 31.6417C154.627 31.7311 154.916 31.8813 155.168 32.0836C155.42 32.286 155.629 32.5363 155.783 32.8201C155.937 33.1038 156.032 33.4154 156.064 33.7364V33.9119C155.252 33.4826 154.346 33.26 153.426 33.2639C151.005 33.2639 148.557 34.6139 148.557 37.0574C148.58 37.5784 148.709 38.0894 148.934 38.5601C149.159 39.0307 149.477 39.4515 149.868 39.7977C150.259 40.1438 150.715 40.4081 151.21 40.5751C151.705 40.7421 152.229 40.8084 152.75 40.7699C153.387 40.8156 154.025 40.6893 154.596 40.4042C155.167 40.1192 155.651 39.6859 155.997 39.1499H156.078V40.4999H158.513V34.0064C158.513 31.0499 156.267 29.3354 153.386 29.3354L153.318 29.2949ZM153.007 38.5424C152.182 38.5424 151.032 38.1239 151.032 37.1114C151.032 35.7614 152.466 35.3159 153.738 35.3159C154.541 35.2961 155.335 35.492 156.037 35.8829C155.953 36.6138 155.606 37.2896 155.062 37.7857C154.517 38.2819 153.812 38.565 153.075 38.5829L153.007 38.5424ZM167.387 29.6999L164.492 37.0169H164.411L161.408 29.6999H158.702L163.207 39.9329L160.636 45.6164H163.274L170.2 29.6999H167.387ZM144.647 40.4999H147.177V23.6249H144.647V40.4999Z" fill="white"/>
<path d="M56.9634 19.2645H55.9624V16.5645H56.8146C57.2032 16.1535 57.4967 15.6625 57.6743 15.126C57.852 14.5895 57.9094 14.0206 57.8427 13.4595V9.44998H63.2536V16.551H64.1599V19.251H63.1589V17.55H56.9634V19.2645ZM58.8437 13.5C58.9068 14.5889 58.638 15.6714 58.0727 16.605H62.1309V10.449H58.8437V13.5ZM72.2493 16.497C71.4584 17.2818 70.3885 17.7223 69.2733 17.7223C68.158 17.7223 67.0881 17.2818 66.2973 16.497C65.5286 15.685 65.1004 14.6103 65.1004 13.4932C65.1004 12.3762 65.5286 11.3015 66.2973 10.4895C66.687 10.0976 67.1507 9.78663 67.6614 9.57441C68.1722 9.36218 68.72 9.25292 69.2733 9.25292C69.8265 9.25292 70.3743 9.36218 70.8851 9.57441C71.3958 9.78663 71.8595 10.0976 72.2493 10.4895C73.021 11.2999 73.4513 12.3752 73.4513 13.4932C73.4513 14.6112 73.021 15.6865 72.2493 16.497ZM67.0683 15.822C67.6539 16.404 68.4468 16.7308 69.2733 16.7308C70.0997 16.7308 70.8926 16.404 71.4782 15.822C72.0561 15.1862 72.3763 14.3584 72.3763 13.5C72.3763 12.6415 72.0561 11.8138 71.4782 11.178C70.8926 10.596 70.0997 10.2692 69.2733 10.2692C68.4468 10.2692 67.6539 10.596 67.0683 11.178C66.4904 11.8138 66.1702 12.6415 66.1702 13.5C66.1702 14.3584 66.4904 15.1862 67.0683 15.822ZM78.7018 17.7255C78.1433 17.7366 77.5884 17.6347 77.0704 17.4261C76.5525 17.2175 76.0822 16.9065 75.6879 16.5117C75.2935 16.1169 74.9834 15.6465 74.776 15.129C74.5686 14.6114 74.4684 14.0573 74.4813 13.5C74.4684 12.9427 74.5686 12.3886 74.776 11.871C74.9834 11.3534 75.2935 10.8831 75.6879 10.4883C76.0822 10.0935 76.5525 9.78243 77.0704 9.57383C77.5884 9.36522 78.1433 9.2634 78.7018 9.27448C79.2678 9.26049 79.8296 9.37469 80.3451 9.60851C80.8605 9.84233 81.3161 10.1897 81.6778 10.6245L80.9473 11.3265C80.6801 10.988 80.3356 10.7182 79.9426 10.5397C79.5496 10.3612 79.1195 10.2792 78.6882 10.3005C78.273 10.2897 77.8599 10.3631 77.474 10.5163C77.088 10.6694 76.7372 10.8991 76.4427 11.1915C75.8562 11.8311 75.5309 12.6667 75.5309 13.5337C75.5309 14.4007 75.8562 15.2363 76.4427 15.876C76.7372 16.1683 77.088 16.398 77.474 16.5512C77.8599 16.7043 78.273 16.7777 78.6882 16.767C79.1644 16.7627 79.6336 16.6527 80.0618 16.4449C80.49 16.237 80.8664 15.9366 81.1637 15.5655L81.8942 16.2945C81.526 16.7401 81.0642 17.0996 80.5415 17.3475C79.964 17.6085 79.3355 17.7376 78.7018 17.7255ZM86.1418 17.55H85.1002V10.449H82.8276V9.44998H88.4008V10.449H86.1418V17.55ZM95.5703 9.44998L92.4996 16.281C92.3767 16.6851 92.1311 17.0411 91.7966 17.2998C91.4622 17.5586 91.0556 17.7073 90.6328 17.7255C90.3532 17.7219 90.0772 17.6622 89.8212 17.55L90.0917 16.5915C90.2561 16.687 90.4426 16.7382 90.6328 16.74C90.8316 16.7549 91.0302 16.7077 91.201 16.605C91.3639 16.4673 91.4895 16.2909 91.5662 16.092L91.8638 15.444L89.1583 9.46348H90.3893L92.3914 14.1075L94.3393 9.44998H95.5703ZM96.7471 17.55V9.44998H102.618V17.55H101.576V10.449H97.7887V17.55H96.7471ZM104.471 17.55V9.44998H105.513V12.9195H109.571V9.44998H110.613V17.55H109.571V13.8915H105.513V17.55H104.471ZM119.121 16.497C118.33 17.2818 117.261 17.7223 116.145 17.7223C115.03 17.7223 113.96 17.2818 113.169 16.497C112.401 15.685 111.972 14.6103 111.972 13.4932C111.972 12.3762 112.401 11.3015 113.169 10.4895C113.559 10.0976 114.023 9.78663 114.533 9.57441C115.044 9.36218 115.592 9.25292 116.145 9.25292C116.699 9.25292 117.246 9.36218 117.757 9.57441C118.268 9.78663 118.731 10.0976 119.121 10.4895C119.893 11.2999 120.323 12.3752 120.323 13.4932C120.323 14.6112 119.893 15.6865 119.121 16.497ZM113.94 15.822C114.526 16.404 115.319 16.7308 116.145 16.7308C116.972 16.7308 117.765 16.404 118.35 15.822C118.928 15.1862 119.248 14.3584 119.248 13.5C119.248 12.6415 118.928 11.8138 118.35 11.178C117.765 10.596 116.972 10.2692 116.145 10.2692C115.319 10.2692 114.526 10.596 113.94 11.178C113.362 11.8138 113.042 12.6415 113.042 13.5C113.042 14.3584 113.362 15.1862 113.94 15.822ZM124.573 17.55V9.44998H127.508C128.118 9.43849 128.708 9.66075 129.158 10.071C129.385 10.2667 129.565 10.5097 129.686 10.7826C129.808 11.0556 129.868 11.3518 129.862 11.6505C129.868 12.0103 129.764 12.3636 129.564 12.663C129.366 12.9538 129.089 13.183 128.766 13.3245C129.159 13.4541 129.503 13.6987 129.754 14.0265C130.014 14.3572 130.152 14.7671 130.146 15.1875C130.153 15.4987 130.091 15.8076 129.965 16.0923C129.839 16.3769 129.651 16.6303 129.415 16.8345C128.944 17.2681 128.325 17.5048 127.684 17.496L124.573 17.55ZM125.614 12.9195H127.508C127.685 12.9268 127.861 12.8956 128.025 12.828C128.188 12.7604 128.335 12.658 128.455 12.528C128.575 12.4196 128.672 12.2882 128.739 12.1418C128.807 11.9953 128.845 11.8367 128.85 11.6754C128.855 11.5142 128.827 11.3535 128.769 11.2031C128.71 11.0527 128.622 10.9156 128.509 10.8C128.396 10.6724 128.256 10.5711 128.1 10.5035C127.943 10.4358 127.773 10.4034 127.603 10.4085H125.668L125.614 12.9195ZM125.614 16.551H127.711C127.894 16.5571 128.077 16.5228 128.245 16.4504C128.413 16.3781 128.564 16.2695 128.685 16.1325C128.924 15.8856 129.059 15.5574 129.064 15.2145C129.064 14.8564 128.921 14.5131 128.668 14.2599C128.414 14.0067 128.07 13.8645 127.711 13.8645H125.655L125.614 16.551Z" fill="white"/>
<path fill-rule="evenodd" clip-rule="evenodd" d="M69.2733 9.38792C68.7378 9.38792 68.2077 9.49366 67.7134 9.69904C67.2197 9.9042 66.7714 10.2048 66.3944 10.5834C65.6502 11.3702 65.2356 12.4112 65.2356 13.4932C65.2356 14.5751 65.6501 15.616 66.3941 16.4027C67.1595 17.1615 68.1944 17.5873 69.2733 17.5873C70.3521 17.5873 71.3872 17.1614 72.1525 16.4026C72.8995 15.6174 73.316 14.576 73.316 13.4932C73.316 12.4103 72.8994 11.3688 72.1522 10.5835C71.7752 10.2048 71.3269 9.90423 70.8331 9.69904C70.3388 9.49366 69.8087 9.38792 69.2733 9.38792ZM67.6094 9.44978C68.1367 9.2307 68.7021 9.11792 69.2733 9.11792C69.8444 9.11792 70.4098 9.2307 70.9371 9.44978C71.4643 9.66885 71.9429 9.98988 72.3453 10.3944L72.3473 10.3965C73.1429 11.232 73.5865 12.3406 73.5865 13.4932C73.5865 14.6458 73.1429 15.7544 72.3473 16.59L72.3447 16.5927C71.5285 17.4027 70.4243 17.8573 69.2733 17.8573C68.1222 17.8573 67.018 17.4027 66.2019 16.5927L66.1989 16.5897C65.4065 15.7527 64.9651 14.6447 64.9651 13.4932C64.9651 12.3417 65.4065 11.2338 66.1989 10.3968L66.2012 10.3943C66.6036 9.98985 67.0822 9.66885 67.6094 9.44978ZM116.145 9.38792C115.61 9.38792 115.08 9.49366 114.585 9.69904C114.092 9.90419 113.643 10.2047 113.267 10.5833C112.522 11.3701 112.108 12.4112 112.108 13.4932C112.108 14.5751 112.522 15.616 113.266 16.4027C114.031 17.1615 115.066 17.5873 116.145 17.5873C117.224 17.5873 118.259 17.1614 119.025 16.4025C119.772 15.6173 120.188 14.576 120.188 13.4932C120.188 12.4103 119.771 11.3688 119.024 10.5836C118.647 10.2048 118.199 9.90423 117.705 9.69904C117.211 9.49366 116.681 9.38792 116.145 9.38792ZM114.481 9.44978C115.009 9.2307 115.574 9.11792 116.145 9.11792C116.716 9.11792 117.282 9.2307 117.809 9.44978C118.336 9.66885 118.815 9.98988 119.217 10.3944L119.219 10.3965C120.015 11.232 120.459 12.3406 120.459 13.4932C120.459 14.6458 120.015 15.7544 119.219 16.59L119.217 16.5927C118.401 17.4027 117.296 17.8573 116.145 17.8573C114.994 17.8573 113.89 17.4027 113.074 16.5927L113.071 16.5897C112.278 15.7527 111.837 14.6447 111.837 13.4932C111.837 12.3417 112.279 11.2338 113.071 10.3968L113.073 10.3943C113.476 9.98985 113.954 9.66885 114.481 9.44978ZM80.2891 9.73141C79.7922 9.50604 79.2507 9.39595 78.7051 9.40944L78.6991 9.40959C78.1589 9.39887 77.6221 9.49723 77.1211 9.69902C76.62 9.9008 76.1651 10.2017 75.7837 10.5836C75.4022 10.9655 75.1022 11.4205 74.9016 11.9211C74.701 12.4218 74.604 12.9578 74.6165 13.4969L74.6166 13.5031C74.6042 14.0422 74.701 14.5782 74.9016 15.0788C75.1022 15.5795 75.4022 16.0345 75.7837 16.4164C76.1651 16.7983 76.62 17.0991 77.1211 17.3009C77.6221 17.5027 78.1589 17.6012 78.6991 17.5905L78.7018 17.7255L78.7044 17.5905C79.3176 17.6022 79.9257 17.4774 80.4845 17.225C80.952 17.0032 81.3689 16.689 81.7103 16.3018L81.1726 15.7652C80.8794 16.0991 80.5219 16.3717 80.1209 16.5663C79.675 16.7827 79.1864 16.8974 78.6906 16.902C78.2575 16.913 77.8266 16.8364 77.424 16.6766C77.021 16.5167 76.6547 16.2769 76.3473 15.9717L76.3428 15.9672C75.7335 15.3027 75.3956 14.4345 75.3956 13.5337C75.3956 12.633 75.7336 11.7649 76.3429 11.1003L76.3472 11.0957C76.6546 10.7904 77.021 10.5507 77.424 10.3908C77.8254 10.2315 78.2549 10.1549 78.6867 10.1654C79.1378 10.1439 79.5875 10.2301 79.9986 10.4168C80.366 10.5837 80.693 10.8265 80.9583 11.1285L81.4918 10.6157C81.1574 10.2409 80.7478 9.9395 80.2891 9.73141ZM78.7018 17.8605C78.126 17.8716 77.5539 17.7664 77.0198 17.5513C76.4849 17.3359 75.9993 17.0147 75.5921 16.607C75.1848 16.1993 74.8645 15.7136 74.6504 15.1791C74.4366 14.6455 74.3331 14.0744 74.3459 13.5C74.3331 12.9255 74.4366 12.3544 74.6504 11.8209C74.8645 11.2864 75.1848 10.8007 75.5921 10.393C75.9993 9.98528 76.4849 9.66406 77.0198 9.44864C77.5538 9.23359 78.1258 9.12843 78.7014 9.13945C79.2869 9.12543 79.8679 9.24377 80.401 9.48561C80.9351 9.72788 81.4072 10.0878 81.7818 10.5383L81.8621 10.6347L80.9335 11.5272L80.841 11.41C80.5872 11.0884 80.2599 10.8321 79.8866 10.6626C79.5132 10.493 79.1046 10.4151 78.6949 10.4353L78.6847 10.4358C78.2878 10.4255 77.8929 10.4953 77.5239 10.6417C77.156 10.7877 76.8214 11.0065 76.5404 11.2849C75.978 11.8994 75.6662 12.7015 75.6662 13.5337C75.6662 14.366 75.978 15.1681 76.5404 15.7825C76.8214 16.0609 77.156 16.2797 77.5239 16.4257C77.8929 16.5721 78.2878 16.6423 78.6847 16.632L78.687 16.632C79.1431 16.6279 79.5925 16.5225 80.0026 16.3235C80.4127 16.1244 80.7733 15.8367 81.0581 15.4812L81.1525 15.3633L82.0767 16.2857L81.9986 16.3804C81.6178 16.8413 81.1402 17.2131 80.5995 17.4694L80.5973 17.4705C80.0023 17.7394 79.3548 17.8726 78.7018 17.8605ZM129.067 10.1707C128.643 9.78375 128.086 9.57412 127.511 9.58495L127.508 9.58498H124.708V17.4126L127.682 17.361L127.686 17.361C128.292 17.3694 128.878 17.1454 129.324 16.7352L129.327 16.7325C129.547 16.5414 129.723 16.3041 129.841 16.0376C129.959 15.7711 130.017 15.4819 130.011 15.1905L130.011 15.1855C130.017 14.796 129.888 14.4163 129.647 14.1098L129.646 14.1085C129.412 13.8023 129.09 13.5737 128.724 13.4526L128.389 13.3421L128.712 13.2009C129.011 13.0697 129.268 12.8572 129.452 12.5876C129.637 12.3111 129.733 11.9851 129.727 11.6529V11.6478C129.732 11.369 129.676 11.0923 129.563 10.8375C129.449 10.5826 129.281 10.3557 129.07 10.1729L129.067 10.1707ZM129.249 9.97019C128.773 9.53765 128.15 9.30318 127.507 9.31498H124.437V17.6873L127.682 17.631L127.684 17.631C128.358 17.6398 129.01 17.3908 129.506 16.9351C129.756 16.7181 129.954 16.4491 130.088 16.1469C130.222 15.8449 130.288 15.5172 130.281 15.187L130.281 15.1895L130.146 15.1875L130.281 15.1845L130.281 15.187C130.287 14.7368 130.139 14.2981 129.861 13.9438C129.654 13.6739 129.388 13.4569 129.084 13.3086C129.318 13.1619 129.519 12.9683 129.676 12.739L129.677 12.7379C129.892 12.4163 130.004 12.037 129.997 11.6506L129.997 11.6531L129.862 11.6505L129.997 11.6481L129.997 11.6506C130.003 11.333 129.939 11.0181 129.81 10.7278C129.681 10.4373 129.489 10.1787 129.249 9.97019ZM57.7074 9.31498H63.3889V16.416H64.2952V19.386H63.0237V17.685H57.0987V19.3995H55.8271V16.4295H56.7557C57.1111 16.0417 57.3805 15.5831 57.5459 15.0836C57.7173 14.5659 57.7728 14.0169 57.7084 13.4754L57.7074 13.4675V9.31498ZM57.978 9.58498V13.4516C58.0456 14.0297 57.9858 14.6156 57.8028 15.1683C57.6189 15.7236 57.3152 16.2318 56.913 16.6571L56.873 16.6995H56.0977V19.1295H56.8282V17.415H63.2942V19.116H64.0247V16.686H63.1183V9.58498H57.978ZM82.6923 9.31498H88.5361V10.584H86.277V17.685H84.9649V10.584H82.6923V9.31498ZM82.9629 9.58498V10.314H85.2354V17.415H86.0065V10.314H88.2655V9.58498H82.9629ZM94.2492 9.31498H95.7792L92.6265 16.3285C92.4946 16.7559 92.2338 17.1324 91.8795 17.4065C91.523 17.6824 91.0894 17.841 90.6386 17.8603L90.6311 17.8607C90.3333 17.8569 90.0394 17.7931 89.7668 17.6736L89.6591 17.6263L90.0089 16.3871L90.1598 16.4748C90.3039 16.5586 90.4674 16.6034 90.6341 16.605L90.643 16.6051C90.8103 16.6176 90.9773 16.5793 91.1219 16.4948C91.2635 16.3729 91.3728 16.2178 91.4399 16.0435L91.443 16.0356L91.7152 15.4436L88.9489 9.32848H90.4784L92.3895 13.7615L94.2492 9.31498ZM94.4294 9.58498L92.3933 14.4534L90.3003 9.59848H89.3678L92.0124 15.4444L91.6909 16.1445C91.6059 16.3629 91.4676 16.5566 91.2884 16.708L91.2801 16.715L91.2708 16.7206C91.0773 16.8371 90.8525 16.8909 90.6271 16.8749C90.4725 16.8729 90.3202 16.8419 90.1779 16.7839L89.9842 17.4702C90.1911 17.5465 90.4097 17.5872 90.6308 17.5904C91.0242 17.5728 91.4025 17.434 91.7138 17.1932C92.026 16.9515 92.2554 16.6191 92.3701 16.2418L92.3726 16.2335L95.3613 9.58498H94.4294ZM96.6119 9.31498H102.753V17.685H101.441V10.584H97.924V17.685H96.6119V9.31498ZM96.8824 9.58498V17.415H97.6535V10.314H101.712V17.415H102.483V9.58498H96.8824ZM104.336 9.31498H105.648V12.7845H109.436V9.31498H110.748V17.685H109.436V14.0265H105.648V17.685H104.336V9.31498ZM104.606 9.58498V17.415H105.378V13.7565H109.706V17.415H110.477V9.58498H109.706V13.0545H105.378V9.58498H104.606ZM66.9729 11.0823C67.5838 10.4751 68.411 10.1342 69.2733 10.1342C70.1355 10.1342 70.9627 10.4751 71.5737 11.0823L71.5785 11.0872C72.179 11.7478 72.5115 12.608 72.5115 13.5C72.5115 14.392 72.1789 15.252 71.5784 15.9127L71.5738 15.9178C70.9628 16.525 70.1355 16.8658 69.2733 16.8658C68.411 16.8658 67.5838 16.5248 66.9729 15.9176L67.0683 15.822L66.9681 15.9127C66.3676 15.252 66.035 14.392 66.035 13.5C66.035 12.608 66.3676 11.7479 66.9681 11.0873L66.9729 11.0823ZM67.1662 15.7287C67.7262 16.284 68.4837 16.5958 69.2733 16.5958C70.0628 16.5958 70.8203 16.284 71.3803 15.7287C71.9342 15.1181 72.241 14.3237 72.241 13.5C72.241 12.6762 71.9342 11.8819 71.3803 11.2712C70.8203 10.7159 70.0628 10.4042 69.2733 10.4042C68.4837 10.4042 67.7262 10.7159 67.1662 11.2712C66.6123 11.8819 66.3055 12.6762 66.3055 13.5C66.3055 14.3237 66.6123 15.1181 67.1662 15.7287ZM113.845 11.0823C114.456 10.4751 115.283 10.1342 116.145 10.1342C117.008 10.1342 117.835 10.4751 118.446 11.0823L118.451 11.0872C119.051 11.7478 119.384 12.608 119.384 13.5C119.384 14.392 119.051 15.252 118.45 15.9127L118.446 15.9178C117.835 16.525 117.008 16.8658 116.145 16.8658C115.283 16.8658 114.456 16.5248 113.845 15.9176L113.94 15.822L113.84 15.9127C113.24 15.252 112.907 14.392 112.907 13.5C112.907 12.608 113.24 11.7479 113.84 11.0873L113.845 11.0823ZM114.038 15.7287C114.598 16.284 115.356 16.5958 116.145 16.5958C116.935 16.5958 117.692 16.284 118.252 15.7287C118.806 15.1181 119.113 14.3238 119.113 13.5C119.113 12.6762 118.806 11.8819 118.252 11.2712C117.692 10.7159 116.935 10.4042 116.145 10.4042C115.356 10.4042 114.598 10.7159 114.038 11.2712C113.484 11.8819 113.178 12.6762 113.178 13.5C113.178 14.3238 113.484 15.1181 114.038 15.7287ZM127.601 10.2735C127.791 10.2681 127.979 10.3043 128.153 10.3796C128.327 10.4547 128.483 10.5669 128.608 10.7082C128.733 10.8363 128.83 10.988 128.895 11.1543C128.96 11.3216 128.991 11.5003 128.985 11.6797C128.979 11.859 128.938 12.0355 128.862 12.1984C128.788 12.3595 128.682 12.5041 128.55 12.6239C128.418 12.7662 128.256 12.8784 128.077 12.9527C127.896 13.0275 127.701 13.0622 127.505 13.0545H125.476L125.536 10.2735H127.601ZM128.046 10.6274C127.908 10.5676 127.758 10.5389 127.607 10.5434L127.603 10.5435H125.801L125.753 12.7845H127.514C127.671 12.791 127.828 12.7634 127.973 12.7033C128.118 12.6432 128.249 12.5522 128.355 12.4366L128.36 12.4321L128.364 12.428C128.471 12.3318 128.556 12.2152 128.617 12.0852C128.677 11.9552 128.71 11.8144 128.714 11.6712C128.719 11.5281 128.695 11.3855 128.643 11.252C128.591 11.1185 128.512 10.9968 128.412 10.8941L128.408 10.8895C128.308 10.7767 128.184 10.6872 128.046 10.6274ZM58.7085 10.314H62.2661V16.74H57.8329L57.9569 16.5351C58.5081 15.625 58.7702 14.5695 58.7087 13.5078L58.7082 13.5L58.7085 10.314ZM58.979 10.584V13.4961C59.0383 14.5322 58.8045 15.5624 58.3066 16.47H61.9956V10.584H58.979ZM125.522 13.7295H127.711C128.106 13.7295 128.484 13.8859 128.763 14.1644C129.042 14.4429 129.199 14.8206 129.199 15.2145L129.199 15.2164C129.194 15.5926 129.045 15.9528 128.784 16.2242C128.65 16.375 128.484 16.4946 128.298 16.5744C128.112 16.6543 127.911 16.6924 127.709 16.686H125.477L125.522 13.7295ZM125.788 13.9995L125.752 16.416H127.716C127.879 16.4214 128.041 16.3909 128.191 16.3264C128.342 16.262 128.475 16.1652 128.584 16.043L128.588 16.0387C128.802 15.8167 128.924 15.5218 128.929 15.2135C128.928 14.8916 128.8 14.583 128.572 14.3553C128.344 14.1275 128.034 13.9995 127.711 13.9995H125.788Z" fill="white"/>
<path d="M14.1222 10.179C13.6813 10.707 13.4588 11.3829 13.5 12.069V41.931C13.4588 42.6171 13.6813 43.293 14.1222 43.821L14.2169 43.9155L30.9772 27.2025V26.811L14.2169 10.0845L14.1222 10.179Z" fill="url(#paint0_linear)"/>
<path d="M36.5235 32.7779L30.9773 27.2024V26.8109L36.5235 21.2219L36.6452 21.2894L43.2871 25.0559C45.1809 26.1224 45.1809 27.8774 43.2871 28.9574L36.6723 32.7104L36.5235 32.7779Z" fill="url(#paint1_linear)"/>
<path d="M36.6858 32.6969L30.9773 26.9999L14.1223 43.8209C14.5083 44.1596 15.0008 44.353 15.5145 44.3678C16.0283 44.3826 16.5311 44.2178 16.936 43.9019L36.6993 32.6969" fill="url(#paint2_linear)"/>
<path d="M36.6857 21.303L16.9223 10.098C16.5174 9.78207 16.0146 9.61729 15.5008 9.63208C14.9871 9.64687 14.4947 9.84031 14.1086 10.179L30.9771 27L36.6857 21.303Z" fill="url(#paint3_linear)"/>
<path opacity="0.2" d="M36.5235 32.5754L16.9225 43.7129C16.5319 44.0043 16.0574 44.1618 15.5697 44.1618C15.0821 44.1618 14.6076 44.0043 14.217 43.7129L14.1223 43.8074L14.217 43.9019C14.6067 44.1954 15.0816 44.3542 15.5697 44.3542C16.0579 44.3542 16.5328 44.1954 16.9225 43.9019L36.6858 32.6969L36.5235 32.5754Z" fill="black"/>
<path opacity="0.12" d="M14.1222 43.6319C13.6813 43.1039 13.4588 42.428 13.5 41.7419V41.9444C13.4588 42.6305 13.6813 43.3064 14.1222 43.8344L14.2169 43.7399L14.1222 43.6319ZM43.287 28.7549L36.5234 32.5754L36.6451 32.6969L43.287 28.9439C43.6639 28.7673 43.9874 28.4945 44.2249 28.1532C44.4624 27.8119 44.6055 27.4141 44.6398 26.9999C44.5637 27.3762 44.4022 27.73 44.1677 28.0343C43.9332 28.3385 43.6319 28.585 43.287 28.7549Z" fill="black"/>
<path opacity="0.25" d="M16.9225 10.2864L43.2871 25.2444C43.632 25.4143 43.9333 25.6609 44.1678 25.9651C44.4023 26.2693 44.5638 26.6232 44.6399 26.9994C44.6056 26.5853 44.4625 26.1875 44.225 25.8462C43.9875 25.5049 43.664 25.2321 43.2871 25.0554L16.9225 10.0974C15.0287 9.03093 13.4866 9.92193 13.4866 12.0819V12.2844C13.5272 10.1109 15.0422 9.21993 16.9225 10.2864Z" fill="white"/>
<defs>
<linearGradient id="paint0_linear" x1="29.4892" y1="11.7585" x2="6.83624" y2="34.4572" gradientUnits="userSpaceOnUse">
<stop stop-color="#00A0FF"/>
<stop offset="0.01" stop-color="#00A1FF"/>
<stop offset="0.26" stop-color="#00BEFF"/>
<stop offset="0.51" stop-color="#00D2FF"/>
<stop offset="0.76" stop-color="#00DFFF"/>
<stop offset="1" stop-color="#00E3FF"/>
</linearGradient>
<linearGradient id="paint1_linear" x1="45.7626" y1="26.9999" x2="13.0401" y2="26.9999" gradientUnits="userSpaceOnUse">
<stop stop-color="#FFE000"/>
<stop offset="0.41" stop-color="#FFBD00"/>
<stop offset="0.78" stop-color="#FFA500"/>
<stop offset="1" stop-color="#FF9C00"/>
</linearGradient>
<linearGradient id="paint2_linear" x1="33.5881" y1="30.1049" x2="2.86209" y2="60.8794" gradientUnits="userSpaceOnUse">
<stop stop-color="#FF3A44"/>
<stop offset="1" stop-color="#C31162"/>
</linearGradient>
<linearGradient id="paint3_linear" x1="9.87461" y1="0.242956" x2="23.5906" y2="13.9866" gradientUnits="userSpaceOnUse">
<stop stop-color="#32A071"/>
<stop offset="0.07" stop-color="#2DA771"/>
<stop offset="0.48" stop-color="#15CF74"/>
<stop offset="0.8" stop-color="#06E775"/>
<stop offset="1" stop-color="#00F076"/>
</linearGradient>
</defs>
</svg>
