<svg width="183" height="54" viewBox="0 0 183 54" fill="none" xmlns="http://www.w3.org/2000/svg">
<rect x="0.5" y="0.5" width="182" height="53" rx="6.5" stroke="white"/>
<path d="M92.2392 29.3625C91.1056 29.3678 89.999 29.7088 89.059 30.3425C88.1191 30.9762 87.3879 31.8741 86.9578 32.923C86.5276 33.9718 86.4179 35.1246 86.6423 36.2358C86.8667 37.347 87.4153 38.3668 88.2188 39.1665C89.0222 39.9662 90.0446 40.5099 91.1568 40.7291C92.269 40.9483 93.4213 40.8332 94.4681 40.3981C95.5149 39.9631 96.4094 39.2277 97.0386 38.2847C97.6679 37.3418 98.0037 36.2336 98.0037 35.1C98.0148 34.3412 97.873 33.588 97.5868 32.8851C97.3007 32.1822 96.876 31.5442 96.3382 31.0088C95.8003 30.4735 95.1603 30.0518 94.4561 29.769C93.7519 29.4862 92.998 29.3479 92.2392 29.3625ZM92.2392 38.583C91.5421 38.6317 90.8464 38.4696 90.2425 38.1178C89.6387 37.7659 89.1547 37.2405 88.8535 36.6099C88.5522 35.9793 88.4476 35.2726 88.5533 34.5818C88.659 33.891 88.97 33.2479 89.446 32.7362C89.9221 32.2245 90.541 31.8678 91.2224 31.7125C91.9038 31.5573 92.6161 31.6106 93.2668 31.8655C93.9175 32.1204 94.4765 32.5653 94.8711 33.1421C95.2656 33.7189 95.4775 34.4011 95.4792 35.1C95.501 35.5428 95.4338 35.9855 95.2818 36.402C95.1297 36.8184 94.8958 37.2002 94.5938 37.5248C94.2919 37.8494 93.928 38.1103 93.5236 38.2921C93.1192 38.4738 92.6825 38.5727 92.2392 38.583ZM79.6707 29.3625C78.5365 29.3652 77.4286 29.7039 76.4868 30.336C75.5451 30.9681 74.8118 31.8651 74.3796 32.9137C73.9474 33.9623 73.8357 35.1155 74.0586 36.2276C74.2815 37.3396 74.829 38.3607 75.632 39.1618C76.4349 39.9628 77.4573 40.5079 78.5699 40.7282C79.6825 40.9485 80.8354 40.8341 81.883 40.3994C82.9306 39.9648 83.8259 39.2294 84.4557 38.2862C85.0856 37.3429 85.4217 36.2342 85.4217 35.1C85.4327 34.3412 85.291 33.588 85.0048 32.8851C84.7187 32.1822 84.294 31.5442 83.7562 31.0088C83.2183 30.4735 82.5782 30.0518 81.8741 29.769C81.1699 29.4862 80.416 29.3479 79.6572 29.3625H79.6707ZM79.6707 38.583C78.9732 38.6345 78.2764 38.4748 77.6709 38.1247C77.0654 37.7747 76.5793 37.2504 76.276 36.6202C75.9726 35.99 75.866 35.2831 75.97 34.5915C76.074 33.8999 76.3838 33.2556 76.8591 32.7425C77.3344 32.2294 77.9532 31.8713 78.6348 31.7148C79.3165 31.5583 80.0295 31.6106 80.681 31.865C81.3325 32.1193 81.8924 32.564 82.2876 33.141C82.6829 33.718 82.8953 34.4006 82.8972 35.1C82.919 35.5428 82.8518 35.9855 82.6998 36.402C82.5477 36.8184 82.3138 37.2002 82.0118 37.5248C81.7099 37.8494 81.346 38.1103 80.9416 38.2921C80.5372 38.4738 80.1005 38.5727 79.6572 38.583H79.6707ZM64.6992 31.131V33.561H70.5312C70.4398 34.7055 69.964 35.7855 69.1812 36.6255C68.5978 37.2198 67.8963 37.6854 67.1221 37.9923C66.3479 38.2992 65.5179 38.4406 64.6857 38.4075C62.9671 38.4075 61.3189 37.7248 60.1037 36.5095C58.8884 35.2943 58.2057 33.6461 58.2057 31.9275C58.2057 30.2089 58.8884 28.5607 60.1037 27.3454C61.3189 26.1302 62.9671 25.4475 64.6857 25.4475C66.3298 25.4207 67.9173 26.047 69.1002 27.189L70.8147 25.4745C70.0162 24.6659 69.0634 24.0258 68.013 23.5921C66.9625 23.1585 65.8357 22.9401 64.6992 22.95C63.4991 22.9033 62.3018 23.0993 61.1793 23.5264C60.0567 23.9535 59.0319 24.6027 58.1663 25.4353C57.3006 26.268 56.612 27.2667 56.1416 28.3719C55.6712 29.477 55.4287 30.6657 55.4287 31.8667C55.4287 33.0678 55.6712 34.2565 56.1416 35.3616C56.612 36.4667 57.3006 37.4655 58.1663 38.2981C59.0319 39.1307 60.0567 39.78 61.1793 40.2071C62.3018 40.6341 63.4991 40.8302 64.6992 40.7835C65.8548 40.8357 67.0081 40.6398 68.0816 40.209C69.1551 39.7782 70.1239 39.1225 70.9227 38.286C72.3371 36.732 73.0922 34.6893 73.0287 32.589C73.0331 32.0773 72.9879 31.5664 72.8937 31.0635L64.6992 31.131ZM125.868 33.021C125.516 31.9852 124.857 31.0807 123.98 30.4274C123.102 29.7741 122.047 29.4027 120.954 29.3625C120.215 29.361 119.484 29.5111 118.806 29.8033C118.128 30.0955 117.517 30.5238 117.011 31.0615C116.505 31.5993 116.114 32.2351 115.864 32.9297C115.613 33.6243 115.508 34.363 115.554 35.1C115.537 35.8545 115.673 36.6046 115.953 37.3055C116.233 38.0063 116.652 38.6436 117.183 39.1791C117.715 39.7147 118.349 40.1375 119.048 40.4225C119.747 40.7074 120.496 40.8486 121.251 40.8375C122.195 40.8426 123.126 40.6134 123.96 40.1705C124.794 39.7275 125.505 39.0847 126.03 38.2995L124.072 36.9495C123.78 37.4365 123.366 37.8394 122.872 38.1186C122.377 38.3979 121.819 38.5439 121.251 38.5425C120.666 38.5648 120.088 38.4106 119.592 38.1C119.096 37.7894 118.705 37.3368 118.47 36.801L126.151 33.6285L125.868 33.021ZM118.038 34.938C118.01 34.5204 118.067 34.1016 118.203 33.706C118.34 33.3105 118.554 32.9461 118.833 32.6343C119.112 32.3225 119.45 32.0696 119.829 31.8903C120.207 31.7109 120.617 31.6088 121.035 31.59C121.47 31.5613 121.905 31.6611 122.284 31.8771C122.663 32.0932 122.97 32.4158 123.168 32.805L118.038 34.938ZM111.801 40.5H114.325V23.625H111.801V40.5ZM107.67 30.645H107.575C107.195 30.2196 106.729 29.8794 106.208 29.6468C105.686 29.4141 105.122 29.2942 104.551 29.295C103.076 29.3665 101.685 30.003 100.666 31.0724C99.6471 32.1418 99.0788 33.5622 99.0788 35.0392C99.0788 36.5163 99.6471 37.9367 100.666 39.0061C101.685 40.0755 103.076 40.7119 104.551 40.7835C105.123 40.7931 105.691 40.6772 106.213 40.444C106.735 40.2107 107.2 39.8658 107.575 39.4335H107.656V40.257C107.656 42.4575 106.482 43.632 104.592 43.632C103.962 43.6173 103.351 43.4155 102.837 43.0525C102.322 42.6895 101.928 42.1816 101.703 41.5935L99.5022 42.5115C99.9165 43.5191 100.622 44.3799 101.529 44.9837C102.436 45.5874 103.502 45.9065 104.592 45.9C107.548 45.9 109.992 44.1585 109.992 39.9195V29.7H107.67V30.645ZM104.781 38.583C103.91 38.5062 103.099 38.1061 102.509 37.4614C101.919 36.8167 101.591 35.9742 101.591 35.1C101.591 34.2258 101.919 33.3833 102.509 32.7386C103.099 32.0939 103.91 31.6937 104.781 31.617C105.213 31.6391 105.635 31.7475 106.025 31.9356C106.414 32.1238 106.762 32.3879 107.047 32.7125C107.333 33.0371 107.551 33.4155 107.688 33.8256C107.825 34.2356 107.878 34.6689 107.845 35.1C107.882 35.5329 107.831 35.9688 107.694 36.3813C107.558 36.7939 107.339 37.1744 107.051 37.5C106.764 37.8256 106.413 38.0894 106.02 38.2756C105.628 38.4617 105.201 38.5663 104.767 38.583H104.781ZM137.694 23.625H131.659V40.5H134.184V34.101H137.707C138.427 34.1527 139.149 34.0556 139.829 33.8158C140.51 33.576 141.133 33.1986 141.661 32.7071C142.189 32.2157 142.611 31.6207 142.899 30.9593C143.186 30.2979 143.335 29.5843 143.335 28.863C143.335 28.1416 143.186 27.428 142.899 26.7667C142.611 26.1053 142.189 25.5103 141.661 25.0189C141.133 24.5274 140.51 24.15 139.829 23.9102C139.149 23.6704 138.427 23.5733 137.707 23.625H137.694ZM137.694 31.725H134.17V25.974H137.748C138.516 25.974 139.252 26.2791 139.795 26.8221C140.338 27.3652 140.644 28.1017 140.644 28.8697C140.644 29.6377 140.338 30.3743 139.795 30.9173C139.252 31.4604 138.516 31.7655 137.748 31.7655L137.694 31.725ZM153.259 29.295C152.34 29.2401 151.425 29.4548 150.626 29.9129C149.828 30.371 149.18 31.0524 148.764 31.8735L151.005 32.805C151.226 32.3978 151.56 32.0636 151.968 31.843C152.375 31.6225 152.838 31.5252 153.3 31.563C153.62 31.5256 153.945 31.5523 154.255 31.6417C154.565 31.7311 154.854 31.8814 155.105 32.0837C155.357 32.286 155.565 32.5364 155.719 32.8201C155.872 33.1039 155.968 33.4154 156 33.7365V33.912C155.189 33.4827 154.285 33.2601 153.367 33.264C150.951 33.264 148.507 34.614 148.507 37.0575C148.531 37.5785 148.659 38.0894 148.884 38.5601C149.109 39.0308 149.425 39.4516 149.816 39.7977C150.206 40.1438 150.661 40.4082 151.155 40.5752C151.65 40.7422 152.172 40.8084 152.692 40.77C153.328 40.8156 153.964 40.6893 154.534 40.4043C155.104 40.1192 155.587 39.686 155.932 39.15H156.013V40.5H158.443V34.0065C158.443 31.05 156.202 29.3355 153.327 29.3355L153.259 29.295ZM152.949 38.5425C152.125 38.5425 150.978 38.124 150.978 37.1115C150.978 35.7615 152.409 35.316 153.678 35.316C154.48 35.2962 155.272 35.492 155.973 35.883C155.888 36.6139 155.543 37.2896 154.999 37.7858C154.456 38.2819 153.752 38.5651 153.016 38.583L152.949 38.5425ZM167.299 29.7L164.41 37.017H164.329L161.332 29.7H158.632L163.128 39.933L160.563 45.6165H163.195L170.107 29.7H167.299ZM144.606 40.5H147.13V23.625H144.606V40.5Z" fill="white"/>
<path d="M57.0988 19.2645H56.0998V16.5645H56.9503C57.3381 16.1535 57.631 15.6625 57.8083 15.126C57.9856 14.5895 58.0429 14.0206 57.9763 13.4595V9.44998H63.3763V16.551H64.2808V19.251H63.2818V17.55H57.0988V19.2645ZM58.9753 13.5C59.0383 14.5889 58.7701 15.6714 58.2058 16.605H62.2558V10.449H58.9753V13.5ZM72.3538 16.497C71.5646 17.2818 70.4969 17.7223 69.3838 17.7223C68.2708 17.7223 67.2031 17.2818 66.4138 16.497C65.6467 15.685 65.2194 14.6103 65.2194 13.4932C65.2194 12.3762 65.6467 11.3015 66.4138 10.4895C66.8028 10.0976 67.2655 9.78663 67.7753 9.57441C68.285 9.36218 68.8317 9.25292 69.3838 9.25292C69.936 9.25292 70.4827 9.36218 70.9924 9.57441C71.5021 9.78663 71.9648 10.0976 72.3538 10.4895C73.124 11.2999 73.5534 12.3752 73.5534 13.4932C73.5534 14.6112 73.124 15.6865 72.3538 16.497ZM67.1833 15.822C67.7678 16.404 68.559 16.7308 69.3838 16.7308C70.2087 16.7308 70.9999 16.404 71.5843 15.822C72.1611 15.1862 72.4806 14.3584 72.4806 13.5C72.4806 12.6415 72.1611 11.8138 71.5843 11.178C70.9999 10.596 70.2087 10.2692 69.3838 10.2692C68.559 10.2692 67.7678 10.596 67.1833 11.178C66.6066 11.8138 66.2871 12.6415 66.2871 13.5C66.2871 14.3584 66.6066 15.1862 67.1833 15.822ZM78.7933 17.7255C78.236 17.7366 77.6822 17.6347 77.1653 17.4261C76.6484 17.2175 76.179 16.9065 75.7855 16.5117C75.392 16.1169 75.0824 15.6465 74.8755 15.129C74.6685 14.6114 74.5685 14.0573 74.5813 13.5C74.5685 12.9427 74.6685 12.3886 74.8755 11.871C75.0824 11.3534 75.392 10.8831 75.7855 10.4883C76.179 10.0935 76.6484 9.78243 77.1653 9.57383C77.6822 9.36522 78.236 9.2634 78.7933 9.27448C79.3582 9.26049 79.9189 9.37469 80.4333 9.60851C80.9477 9.84233 81.4025 10.1897 81.7633 10.6245L81.0343 11.3265C80.7677 10.988 80.4239 10.7182 80.0317 10.5397C79.6395 10.3612 79.2102 10.2792 78.7798 10.3005C78.3655 10.2897 77.9532 10.3631 77.568 10.5163C77.1828 10.6694 76.8327 10.8991 76.5388 11.1915C75.9535 11.8311 75.6289 12.6667 75.6289 13.5337C75.6289 14.4007 75.9535 15.2363 76.5388 15.876C76.8327 16.1683 77.1828 16.398 77.568 16.5512C77.9532 16.7043 78.3655 16.7777 78.7798 16.767C79.255 16.7627 79.7233 16.6527 80.1506 16.4449C80.5779 16.237 80.9536 15.9366 81.2503 15.5655L81.9793 16.2945C81.6119 16.7401 81.1511 17.0996 80.6293 17.3475C80.0531 17.6085 79.4258 17.7376 78.7933 17.7255ZM86.2183 17.55H85.1788V10.449H82.9108V9.44998H88.4728V10.449H86.2183V17.55ZM95.6278 9.44998L92.5633 16.281C92.4407 16.6851 92.1956 17.0411 91.8618 17.2998C91.5281 17.5586 91.1222 17.7073 90.7003 17.7255C90.4213 17.7219 90.1458 17.6622 89.8903 17.55L90.1603 16.5915C90.3244 16.687 90.5105 16.7382 90.7003 16.74C90.8988 16.7549 91.0969 16.7077 91.2673 16.605C91.43 16.4673 91.5553 16.2909 91.6318 16.092L91.9288 15.444L89.2288 9.46348H90.4573L92.4553 14.1075L94.3993 9.44998H95.6278ZM96.8023 17.55V9.44998H102.661V17.55H101.622V10.449H97.8418V17.55H96.8023ZM104.511 17.55V9.44998H105.55V12.9195H109.6V9.44998H110.64V17.55H109.6V13.8915H105.55V17.55H104.511ZM119.131 16.497C118.342 17.2818 117.274 17.7223 116.161 17.7223C115.048 17.7223 113.981 17.2818 113.191 16.497C112.424 15.685 111.997 14.6103 111.997 13.4932C111.997 12.3762 112.424 11.3015 113.191 10.4895C113.58 10.0976 114.043 9.78663 114.553 9.57441C115.063 9.36218 115.609 9.25292 116.161 9.25292C116.713 9.25292 117.26 9.36218 117.77 9.57441C118.28 9.78663 118.742 10.0976 119.131 10.4895C119.901 11.2999 120.331 12.3752 120.331 13.4932C120.331 14.6112 119.901 15.6865 119.131 16.497ZM113.961 15.822C114.545 16.404 115.337 16.7308 116.161 16.7308C116.986 16.7308 117.777 16.404 118.362 15.822C118.939 15.1862 119.258 14.3584 119.258 13.5C119.258 12.6415 118.939 11.8138 118.362 11.178C117.777 10.596 116.986 10.2692 116.161 10.2692C115.337 10.2692 114.545 10.596 113.961 11.178C113.384 11.8138 113.065 12.6415 113.065 13.5C113.065 14.3584 113.384 15.1862 113.961 15.822ZM124.572 17.55V9.44998H127.501C128.11 9.43849 128.699 9.66075 129.148 10.071C129.374 10.2667 129.554 10.5097 129.675 10.7826C129.796 11.0556 129.856 11.3518 129.85 11.6505C129.857 12.0103 129.753 12.3636 129.553 12.663C129.355 12.9538 129.079 13.183 128.757 13.3245C129.148 13.4541 129.492 13.6987 129.742 14.0265C130.002 14.3572 130.14 14.7671 130.134 15.1875C130.141 15.4987 130.079 15.8076 129.953 16.0923C129.827 16.3769 129.64 16.6303 129.405 16.8345C128.935 17.2681 128.316 17.5048 127.677 17.496L124.572 17.55ZM125.611 12.9195H127.501C127.678 12.9268 127.854 12.8956 128.017 12.828C128.18 12.7604 128.327 12.658 128.446 12.528C128.566 12.4196 128.662 12.2882 128.73 12.1418C128.798 11.9953 128.835 11.8367 128.84 11.6754C128.845 11.5142 128.818 11.3535 128.759 11.2031C128.701 11.0527 128.613 10.9156 128.5 10.8C128.388 10.6724 128.248 10.5711 128.092 10.5035C127.935 10.4358 127.766 10.4034 127.596 10.4085H125.665L125.611 12.9195ZM125.611 16.551H127.704C127.887 16.5571 128.069 16.5228 128.237 16.4504C128.405 16.3781 128.555 16.2695 128.676 16.1325C128.914 15.8856 129.049 15.5574 129.054 15.2145C129.054 14.8564 128.912 14.5131 128.658 14.2599C128.405 14.0067 128.062 13.8645 127.704 13.8645H125.652L125.611 16.551Z" fill="white"/>
<path fill-rule="evenodd" clip-rule="evenodd" d="M69.3838 9.38792C68.8495 9.38792 68.3205 9.49366 67.8272 9.69904C67.3344 9.9042 66.887 10.2048 66.5108 10.5834C65.7681 11.3702 65.3544 12.4112 65.3544 13.4932C65.3544 14.5751 65.768 15.616 66.5105 16.4027C67.2743 17.1615 68.3072 17.5873 69.3838 17.5873C70.4605 17.5873 71.4935 17.1614 72.2573 16.4026C73.0028 15.6174 73.4184 14.576 73.4184 13.4932C73.4184 12.4103 73.0027 11.3688 72.257 10.5835C71.8808 10.2048 71.4334 9.90423 70.9405 9.69904C70.4472 9.49366 69.9182 9.38792 69.3838 9.38792ZM67.7234 9.44978C68.2496 9.2307 68.8139 9.11792 69.3838 9.11792C69.9538 9.11792 70.5181 9.2307 71.0443 9.44978C71.5705 9.66885 72.0481 9.98988 72.4496 10.3944L72.4517 10.3965C73.2457 11.232 73.6884 12.3406 73.6884 13.4932C73.6884 14.6458 73.2457 15.7544 72.4517 16.59L72.4491 16.5927C71.6346 17.4027 70.5325 17.8573 69.3838 17.8573C68.2352 17.8573 67.1332 17.4027 66.3186 16.5927L66.3157 16.5897C65.5249 15.7527 65.0844 14.6447 65.0844 13.4932C65.0844 12.3417 65.5249 11.2338 66.3157 10.3968L66.318 10.3943C66.7196 9.98985 67.1972 9.66885 67.7234 9.44978ZM116.161 9.38792C115.627 9.38792 115.098 9.49366 114.605 9.69904C114.112 9.90419 113.665 10.2047 113.288 10.5833C112.546 11.3701 112.132 12.4112 112.132 13.4932C112.132 14.5751 112.546 15.616 113.288 16.4027C114.052 17.1615 115.085 17.5873 116.161 17.5873C117.238 17.5873 118.271 17.1614 119.035 16.4025C119.78 15.6173 120.196 14.576 120.196 13.4932C120.196 12.4103 119.78 11.3688 119.035 10.5836C118.658 10.2048 118.211 9.90423 117.718 9.69904C117.225 9.49366 116.696 9.38792 116.161 9.38792ZM114.501 9.44978C115.027 9.2307 115.591 9.11792 116.161 9.11792C116.731 9.11792 117.296 9.2307 117.822 9.44978C118.348 9.66885 118.826 9.98988 119.227 10.3944L119.229 10.3965C120.023 11.232 120.466 12.3406 120.466 13.4932C120.466 14.6458 120.023 15.7544 119.229 16.59L119.227 16.5927C118.412 17.4027 117.31 17.8573 116.161 17.8573C115.013 17.8573 113.911 17.4027 113.096 16.5927L113.093 16.5897C112.302 15.7527 111.862 14.6447 111.862 13.4932C111.862 12.3417 112.302 11.2338 113.093 10.3968L113.096 10.3943C113.497 9.98985 113.975 9.66885 114.501 9.44978ZM80.3775 9.73141C79.8816 9.50604 79.3412 9.39595 78.7967 9.40944L78.7907 9.40959C78.2516 9.39887 77.7159 9.49723 77.2158 9.69902C76.7158 9.9008 76.2618 10.2017 75.8811 10.5836C75.5005 10.9655 75.201 11.4205 75.0008 11.9211C74.8007 12.4218 74.7039 12.9578 74.7163 13.4969L74.7164 13.5031C74.704 14.0422 74.8007 14.5782 75.0008 15.0788C75.201 15.5795 75.5005 16.0345 75.8811 16.4164C76.2618 16.7983 76.7158 17.0991 77.2158 17.3009C77.7159 17.5027 78.2516 17.6012 78.7907 17.5905L78.7933 17.7255L78.7959 17.5905C79.4079 17.6022 80.0148 17.4774 80.5725 17.225C81.039 17.0032 81.4551 16.689 81.7958 16.3018L81.2592 15.7652C80.9665 16.0991 80.6098 16.3717 80.2097 16.5663C79.7646 16.7827 79.277 16.8974 78.7822 16.902C78.3499 16.913 77.9199 16.8364 77.5181 16.6766C77.116 16.5167 76.7504 16.2769 76.4436 15.9717L76.4391 15.9672C75.831 15.3027 75.4939 14.4345 75.4939 13.5337C75.4939 12.633 75.8312 11.7649 76.4393 11.1003L76.4435 11.0957C76.7503 10.7904 77.116 10.5507 77.5181 10.3908C77.9187 10.2315 78.3473 10.1549 78.7783 10.1654C79.2285 10.1439 79.6773 10.2301 80.0876 10.4168C80.4542 10.5837 80.7805 10.8265 81.0453 11.1285L81.5778 10.6157C81.244 10.2409 80.8352 9.9395 80.3775 9.73141ZM78.7934 17.8605C78.2188 17.8716 77.6478 17.7664 77.1148 17.5513C76.581 17.3359 76.0963 17.0147 75.6899 16.607C75.2835 16.1993 74.9638 15.7136 74.7501 15.1791C74.5368 14.6455 74.4335 14.0744 74.4463 13.5C74.4335 12.9255 74.5368 12.3544 74.7501 11.8209C74.9638 11.2864 75.2835 10.8007 75.6899 10.393C76.0963 9.98528 76.581 9.66406 77.1148 9.44864C77.6477 9.23359 78.2185 9.12843 78.793 9.13945C79.3773 9.12543 79.9571 9.24377 80.4892 9.48561C81.0222 9.72788 81.4933 10.0878 81.8672 10.5383L81.9473 10.6347L81.0206 11.5272L80.9283 11.41C80.675 11.0884 80.3484 10.8321 79.9758 10.6626C79.6032 10.493 79.1954 10.4151 78.7865 10.4353L78.7763 10.4358C78.3802 10.4255 77.9861 10.4953 77.6179 10.6417C77.2506 10.7877 76.9168 11.0065 76.6363 11.2849C76.0751 11.8994 75.7639 12.7015 75.7639 13.5337C75.7639 14.366 76.0751 15.1681 76.6363 15.7825C76.9168 16.0609 77.2506 16.2797 77.6179 16.4257C77.9861 16.5721 78.3802 16.6423 78.7763 16.632L78.7786 16.632C79.2338 16.6279 79.6823 16.5225 80.0916 16.3235C80.5009 16.1244 80.8607 15.8367 81.1449 15.4812L81.2391 15.3633L82.1615 16.2857L82.0835 16.3804C81.7035 16.8413 81.2269 17.2131 80.6873 17.4694L80.6851 17.4705C80.0913 17.7394 79.4451 17.8726 78.7934 17.8605ZM129.057 10.1707C128.634 9.78375 128.078 9.57412 127.504 9.58495L127.501 9.58498H124.707V17.4126L127.674 17.361L127.679 17.361C128.284 17.3694 128.869 17.1454 129.313 16.7352L129.316 16.7325C129.536 16.5414 129.712 16.3041 129.83 16.0376C129.948 15.7711 130.005 15.4819 129.999 15.1905L129.999 15.1855C130.005 14.796 129.877 14.4163 129.636 14.1098L129.635 14.1085C129.401 13.8023 129.08 13.5737 128.714 13.4526L128.381 13.3421L128.703 13.2009C129.001 13.0697 129.257 12.8572 129.441 12.5876C129.626 12.3111 129.721 11.9851 129.715 11.6529V11.6478C129.721 11.369 129.665 11.0923 129.552 10.8375C129.438 10.5826 129.271 10.3557 129.06 10.1729L129.057 10.1707ZM129.238 9.97019C128.764 9.53765 128.142 9.30318 127.5 9.31498H124.437V17.6873L127.675 17.631L127.677 17.631C128.35 17.6398 129 17.3908 129.495 16.9351C129.744 16.7181 129.943 16.4491 130.076 16.1469C130.21 15.8449 130.276 15.5172 130.269 15.187L130.269 15.1895L130.134 15.1875L130.269 15.1845L130.269 15.187C130.275 14.7368 130.127 14.2981 129.849 13.9438C129.643 13.6739 129.377 13.4569 129.074 13.3086C129.307 13.1619 129.509 12.9683 129.665 12.739L129.666 12.7379C129.88 12.4163 129.992 12.037 129.985 11.6506L129.985 11.6531L129.85 11.6505L129.985 11.6481L129.985 11.6506C129.991 11.333 129.927 11.0181 129.798 10.7278C129.669 10.4373 129.478 10.1787 129.238 9.97019ZM57.8413 9.31498H63.5113V16.416H64.4158V19.386H63.1468V17.685H57.2338V19.3995H55.9648V16.4295H56.8915C57.2462 16.0417 57.5151 15.5831 57.6801 15.0836C57.8512 14.5659 57.9066 14.0169 57.8423 13.4754L57.8413 13.4675V9.31498ZM58.1113 9.58498V13.4516C58.1788 14.0297 58.1191 14.6156 57.9365 15.1683C57.753 15.7236 57.4499 16.2318 57.0485 16.6571L57.0086 16.6995H56.2348V19.1295H56.9638V17.415H63.4168V19.116H64.1458V16.686H63.2413V9.58498H58.1113ZM82.7758 9.31498H88.6078V10.584H86.3533V17.685H85.0438V10.584H82.7758V9.31498ZM83.0458 9.58498V10.314H85.3138V17.415H86.0833V10.314H88.3378V9.58498H83.0458ZM94.3094 9.31498H95.8364L92.69 16.3285C92.5584 16.7559 92.2981 17.1324 91.9445 17.4065C91.5887 17.6824 91.156 17.841 90.7061 17.8603L90.6986 17.8607C90.4015 17.8569 90.1081 17.7931 89.836 17.6736L89.7286 17.6263L90.0777 16.3871L90.2283 16.4748C90.3721 16.5586 90.5352 16.6034 90.7016 16.605L90.7105 16.6051C90.8774 16.6176 91.0441 16.5793 91.1884 16.4948C91.3297 16.3729 91.4388 16.2178 91.5058 16.0435L91.5089 16.0356L91.7805 15.4436L89.0198 9.32848H90.5462L92.4535 13.7615L94.3094 9.31498ZM94.4893 9.58498L92.4572 14.4534L90.3685 9.59848H89.4379L92.0772 15.4444L91.7563 16.1445C91.6715 16.3629 91.5334 16.5566 91.3546 16.708L91.3463 16.715L91.3371 16.7206C91.1439 16.8371 90.9195 16.8909 90.6947 16.8749C90.5404 16.8729 90.3883 16.8419 90.2464 16.7839L90.0531 17.4702C90.2595 17.5465 90.4777 17.5872 90.6983 17.5904C91.0909 17.5728 91.4685 17.434 91.7791 17.1932C92.0907 16.9515 92.3196 16.6191 92.4342 16.2418L92.4367 16.2335L95.4193 9.58498H94.4893ZM96.6673 9.31498H102.796V17.685H101.487V10.584H97.9768V17.685H96.6673V9.31498ZM96.9373 9.58498V17.415H97.7068V10.314H101.757V17.415H102.526V9.58498H96.9373ZM104.376 9.31498H105.685V12.7845H109.465V9.31498H110.775V17.685H109.465V14.0265H105.685V17.685H104.376V9.31498ZM104.646 9.58498V17.415H105.415V13.7565H109.735V17.415H110.505V9.58498H109.735V13.0545H105.415V9.58498H104.646ZM67.0881 11.0823C67.6978 10.4751 68.5233 10.1342 69.3838 10.1342C70.2444 10.1342 71.0698 10.4751 71.6796 11.0823L71.6845 11.0872C72.2838 11.7478 72.6156 12.608 72.6156 13.5C72.6156 14.392 72.2836 15.252 71.6843 15.9127L71.6797 15.9178C71.07 16.525 70.2444 16.8658 69.3838 16.8658C68.5233 16.8658 67.6978 16.5248 67.0881 15.9176L67.1833 15.822L67.0834 15.9127C66.4841 15.252 66.1521 14.392 66.1521 13.5C66.1521 12.608 66.4841 11.7479 67.0834 11.0873L67.0881 11.0823ZM67.281 15.7287C67.8399 16.284 68.5959 16.5958 69.3838 16.5958C70.1718 16.5958 70.9277 16.284 71.4867 15.7287C72.0394 15.1181 72.3456 14.3237 72.3456 13.5C72.3456 12.6762 72.0394 11.8819 71.4867 11.2712C70.9277 10.7159 70.1718 10.4042 69.3838 10.4042C68.5959 10.4042 67.8399 10.7159 67.281 11.2712C66.7282 11.8819 66.4221 12.6762 66.4221 13.5C66.4221 14.3237 66.7282 15.1181 67.281 15.7287ZM113.866 11.0823C114.475 10.4751 115.301 10.1342 116.161 10.1342C117.022 10.1342 117.847 10.4751 118.457 11.0823L118.462 11.0872C119.061 11.7478 119.393 12.608 119.393 13.5C119.393 14.392 119.061 15.252 118.462 15.9127L118.457 15.9178C117.847 16.525 117.022 16.8658 116.161 16.8658C115.301 16.8658 114.475 16.5248 113.866 15.9176L113.961 15.822L113.861 15.9127C113.262 15.252 112.93 14.392 112.93 13.5C112.93 12.608 113.262 11.7479 113.861 11.0873L113.866 11.0823ZM114.059 15.7287C114.617 16.284 115.373 16.5958 116.161 16.5958C116.949 16.5958 117.705 16.284 118.264 15.7287C118.817 15.1181 119.123 14.3238 119.123 13.5C119.123 12.6762 118.817 11.8819 118.264 11.2712C117.705 10.7159 116.949 10.4042 116.161 10.4042C115.373 10.4042 114.617 10.7159 114.059 11.2712C113.506 11.8819 113.2 12.6762 113.2 13.5C113.2 14.3238 113.506 15.1181 114.059 15.7287ZM127.594 10.2735C127.783 10.2681 127.971 10.3043 128.145 10.3796C128.319 10.4547 128.474 10.5669 128.599 10.7082C128.723 10.8363 128.821 10.988 128.885 11.1543C128.95 11.3216 128.981 11.5003 128.975 11.6797C128.97 11.859 128.928 12.0355 128.853 12.1984C128.778 12.3595 128.672 12.5041 128.542 12.6239C128.409 12.7662 128.248 12.8784 128.069 12.9527C127.888 13.0275 127.694 13.0622 127.499 13.0545H125.473L125.533 10.2735H127.594ZM128.038 10.6274C127.9 10.5676 127.75 10.5389 127.6 10.5434L127.596 10.5435H125.797L125.749 12.7845H127.507C127.664 12.791 127.82 12.7634 127.965 12.7033C128.11 12.6432 128.241 12.5522 128.347 12.4366L128.351 12.4321L128.356 12.428C128.462 12.3318 128.547 12.2152 128.607 12.0852C128.668 11.9552 128.701 11.8144 128.705 11.6712C128.71 11.5281 128.685 11.3855 128.633 11.252C128.582 11.1185 128.503 10.9968 128.404 10.8941L128.399 10.8895C128.299 10.7767 128.176 10.6872 128.038 10.6274ZM58.8403 10.314H62.3908V16.74H57.9665L58.0903 16.5351C58.6404 15.625 58.902 14.5695 58.8406 13.5078L58.8401 13.5L58.8403 10.314ZM59.1103 10.584V13.4961C59.1695 14.5322 58.9362 15.5624 58.4393 16.47H62.1208V10.584H59.1103ZM125.519 13.7295H127.704C128.098 13.7295 128.475 13.8859 128.754 14.1644C129.032 14.4429 129.189 14.8206 129.189 15.2145L129.189 15.2164C129.184 15.5926 129.036 15.9528 128.775 16.2242C128.641 16.375 128.475 16.4946 128.29 16.5744C128.104 16.6543 127.904 16.6924 127.702 16.686H125.474L125.519 13.7295ZM125.785 13.9995L125.748 16.416H127.708C127.871 16.4214 128.034 16.3909 128.183 16.3264C128.333 16.262 128.467 16.1652 128.575 16.043L128.579 16.0387C128.793 15.8167 128.914 15.5218 128.919 15.2135C128.919 14.8916 128.791 14.583 128.563 14.3553C128.335 14.1275 128.026 13.9995 127.704 13.9995H125.785Z" fill="white"/>
<path d="M14.4863 44.1428L31.0246 26.9894L14.5001 9.8667C14.0588 10.1333 13.7856 10.7505 13.7856 11.5585V42.4675C13.7916 43.2754 14.0548 43.8475 14.4863 44.1428Z" fill="white"/>
<path d="M31.617 26.5157L36.5432 21.4056L16.4819 9.9959C16.1441 9.79233 15.7604 9.68479 15.3696 9.6842L31.615 26.5136L31.617 26.5157Z" fill="white"/>
<path d="M31.6171 27.4652L15.3203 44.3685C15.7293 44.3756 16.1322 44.2648 16.4841 44.0486L36.585 32.6082L31.6171 27.4652Z" fill="white"/>
<path d="M43.8109 25.5458L37.1351 21.7419L32.0742 26.9915L37.1727 32.2739L43.8089 28.4803C45.2201 27.6744 45.2201 26.3476 43.8109 25.5458Z" fill="white"/>
</svg>
