<svg width="40" height="40" viewBox="0 0 40 40" fill="none" xmlns="http://www.w3.org/2000/svg">
<path d="M0 20C0 8.95431 8.95431 0 20 0C31.0457 0 40 8.95431 40 20C40 31.0457 31.0457 40 20 40C8.95431 40 0 31.0457 0 20Z" fill="white"/>
<path d="M29.2034 13.9777H26.8174V11.3645C26.8174 10.6113 26.2064 10.0009 25.4544 10.0009H14.5456C13.7924 10.0009 13.182 10.6113 13.182 11.3645V13.9777H10.796C9.6654 13.9777 8.75 14.8937 8.75 16.0231V27.9538C8.75 29.0832 9.6654 29.9992 10.796 29.9992H29.2046C30.334 29.9992 31.2506 29.0838 31.2506 27.9538V16.0231C31.2488 14.8931 30.3329 13.9777 29.2034 13.9777ZM15.908 12.7275H24.0891V13.9772H15.908V12.7275ZM22.9631 23.9234H21.4516V25.4366C21.4516 26.2386 20.8009 26.8888 19.9983 26.8888C19.1962 26.8888 18.5472 26.2375 18.5472 25.4366V23.9234H17.0346C16.2314 23.9234 15.5824 23.2738 15.5824 22.4718C15.5824 21.6697 16.2331 21.0201 17.0346 21.0201H18.5472V19.5075C18.5472 18.7055 19.1974 18.0553 19.9983 18.0553C20.8009 18.0553 21.4516 18.7049 21.4516 19.5075V21.019H22.9631C23.7663 21.019 24.4159 21.6697 24.4159 22.4712C24.4165 23.2738 23.7669 23.9234 22.9631 23.9234Z" fill="#000078"/>
</svg>
