<svg width="160" height="128" viewBox="0 0 160 128" fill="none" xmlns="http://www.w3.org/2000/svg">
<path d="M43.3929 115.748C40.1574 115.206 1.28934 110.321 4.15285 74.2877C7.01635 38.2542 10.6062 27.4189 25.7146 23.4551C40.823 19.4913 77.5576 0.732242 106.38 18.5686C135.202 36.4049 166.306 52.4046 153.957 80.8852C141.609 109.366 139.601 118.866 107.399 117.408C75.1965 115.949 58.7746 118.328 43.3929 115.748Z" fill="#F6F6FC"/>
<path d="M132.807 41.7617H78.2663C76.2809 41.7617 74.6714 43.3608 74.6714 45.3333V46.7652C74.6714 48.7377 76.2809 50.3367 78.2663 50.3367H132.807C134.792 50.3367 136.402 48.7377 136.402 46.7652V45.3333C136.402 43.3608 134.792 41.7617 132.807 41.7617Z" fill="white"/>
<path d="M137.273 38.8037H115.406C114.494 38.8011 113.62 38.4399 112.975 37.7992C112.331 37.1586 111.967 36.2903 111.964 35.3843C111.967 34.4782 112.331 33.61 112.975 32.9693C113.62 32.3286 114.494 31.9675 115.406 31.9648H137.273C138.185 31.9675 139.059 32.3286 139.704 32.9693C140.348 33.61 140.712 34.4782 140.715 35.3843C140.712 36.2903 140.348 37.1586 139.704 37.7992C139.059 38.4399 138.185 38.8011 137.273 38.8037Z" fill="white"/>
<path d="M141.364 59.8304H119.497C118.585 59.8275 117.712 59.4662 117.067 58.8255C116.423 58.1849 116.059 57.3169 116.057 56.411C116.059 55.5049 116.423 54.6367 117.068 53.996C117.713 53.3553 118.586 52.9942 119.498 52.9916H141.364C142.276 52.9942 143.15 53.3553 143.795 53.996C144.439 54.6367 144.803 55.5049 144.806 56.411C144.803 57.3171 144.439 58.1853 143.795 58.826C143.15 59.4667 142.276 59.8278 141.364 59.8304Z" fill="white"/>
<path d="M129.878 53.2626C128.812 53.2626 127.948 52.6076 127.948 51.7992C127.948 50.9909 128.812 50.3359 129.878 50.3359H121.456C122.522 50.3359 123.387 50.9909 123.387 51.7992C123.387 52.6076 122.522 53.2626 121.456 53.2626H129.878Z" fill="white"/>
<path d="M132.606 41.8517C131.494 41.8517 130.592 41.1679 130.592 40.3243C130.592 39.4808 131.494 38.7969 132.606 38.7969H123.814C124.928 38.7969 125.83 39.4808 125.83 40.3243C125.83 41.1679 124.928 41.8517 123.814 41.8517H132.606Z" fill="white"/>
<path d="M16.0011 85.7891H70.5418C72.5272 85.7891 74.1367 84.19 74.1367 82.2175V80.7856C74.1367 78.8131 72.5272 77.2141 70.5418 77.2141H16.0011C14.0157 77.2141 12.4062 78.8131 12.4062 80.7856V82.2175C12.4062 84.19 14.0157 85.7891 16.0011 85.7891Z" fill="white"/>
<path d="M11.5375 88.7422H33.4016C34.3136 88.7448 35.1875 89.106 35.8324 89.7466C36.4773 90.3873 36.8407 91.2555 36.8434 92.1616C36.8407 93.0677 36.4773 93.9359 35.8324 94.5766C35.1875 95.2173 34.3136 95.5784 33.4016 95.5811H11.5375C10.6255 95.5784 9.75161 95.2173 9.10673 94.5766C8.46185 93.9359 8.09837 93.0677 8.0957 92.1616C8.09837 91.2555 8.46185 90.3873 9.10673 89.7466C9.75161 89.106 10.6255 88.7448 11.5375 88.7422Z" fill="white"/>
<path d="M7.44175 74.5586H29.3097C31.2105 74.5586 32.7515 73.0277 32.7515 71.1392V71.1379C32.7515 69.2494 31.2105 67.7185 29.3097 67.7185H7.44175C5.54091 67.7185 3.99997 69.2494 3.99997 71.1379V71.1392C3.99997 73.0277 5.54091 74.5586 7.44175 74.5586Z" fill="white"/>
<path d="M18.9302 74.2891C19.9956 74.2891 20.8599 74.944 20.8599 75.7524C20.8599 76.5607 19.9956 77.2157 18.9302 77.2157H27.3549C26.2882 77.2157 25.424 76.5607 25.424 75.7524C25.424 74.944 26.2857 74.2891 27.3549 74.2891H18.9302Z" fill="white"/>
<path d="M16.2007 85.6939C17.3142 85.6939 18.2164 86.3778 18.2164 87.2213C18.2164 88.0649 17.3142 88.7462 16.2007 88.7462H24.9924C23.8801 88.7462 22.9779 88.0623 22.9779 87.2188C22.9779 86.3753 23.8801 85.6914 24.9924 85.6914L16.2007 85.6939Z" fill="white"/>
<path d="M112.991 69.335L79.3374 43.282L45.5081 69.335L45.5207 69.3438V111.833H113.142V69.335H112.991Z" fill="white"/>
<path d="M113.146 112.085H45.5206C45.4535 112.085 45.3891 112.058 45.3417 112.011C45.2942 111.964 45.2675 111.9 45.2675 111.833V69.4123C45.2596 69.3875 45.2553 69.3616 45.2549 69.3356C45.255 69.2972 45.2639 69.2593 45.281 69.2249C45.2981 69.1905 45.323 69.1604 45.3536 69.137L79.1817 43.0839C79.2262 43.0495 79.2809 43.0308 79.3373 43.0308C79.3937 43.0308 79.4485 43.0495 79.493 43.0839L113.078 69.0842H113.141C113.208 69.0842 113.273 69.1107 113.32 69.1578C113.368 69.205 113.394 69.2689 113.394 69.3356V111.827C113.395 111.86 113.39 111.893 113.378 111.924C113.365 111.955 113.347 111.983 113.324 112.007C113.301 112.031 113.274 112.05 113.243 112.064C113.213 112.077 113.18 112.084 113.146 112.085ZM45.7787 111.582H112.893V69.5657C112.875 69.5572 112.857 69.5466 112.84 69.5342L79.3361 43.6006L45.7737 69.45L45.7787 111.582Z" fill="#000078" stroke="#000078" stroke-width="0.4"/>
<path d="M113.147 112.085H45.5206C45.4535 112.085 45.3892 112.058 45.3417 112.011C45.2942 111.964 45.2676 111.9 45.2676 111.833V69.342C45.2676 69.2753 45.2942 69.2114 45.3417 69.1642C45.3892 69.1171 45.4535 69.0906 45.5206 69.0906H113.147C113.214 69.0906 113.278 69.1171 113.325 69.1642C113.373 69.2114 113.4 69.2753 113.4 69.342V111.833C113.4 111.9 113.373 111.964 113.325 112.011C113.278 112.058 113.214 112.085 113.147 112.085ZM45.7788 111.582H112.893V69.5934H45.7737L45.7788 111.582Z" fill="#000078" stroke="#000078" stroke-width="0.4"/>
<path d="M49.3281 46.7689V107.01C49.3295 107.715 49.6127 108.391 50.1155 108.889C50.6183 109.387 51.2995 109.666 52.0094 109.665H106.641C106.993 109.665 107.341 109.597 107.666 109.464C107.991 109.331 108.287 109.135 108.536 108.889C108.785 108.642 108.982 108.349 109.117 108.026C109.252 107.704 109.322 107.358 109.323 107.009V97.619L109.277 92.4446V35.2371C109.276 34.5318 108.993 33.8559 108.49 33.358C107.987 32.8602 107.306 32.581 106.596 32.582H63.6052L49.3281 46.7563V46.7689Z" fill="white"/>
<path d="M52.0105 109.917C51.6258 109.917 51.2446 109.843 50.8889 109.697C50.5331 109.551 50.2098 109.337 49.9373 109.067C49.6648 108.797 49.4485 108.477 49.3007 108.124C49.153 107.771 49.0767 107.392 49.0762 107.01V46.7565C49.0774 46.6918 49.1037 46.6302 49.1496 46.5843L63.4253 32.4062C63.4489 32.3827 63.4769 32.364 63.5077 32.3513C63.5386 32.3385 63.5716 32.332 63.605 32.332H106.594C107.371 32.3317 108.116 32.6375 108.667 33.1824C109.217 33.7273 109.527 34.4668 109.529 35.2385V92.4448L109.574 97.618V107.008C109.574 107.39 109.498 107.769 109.35 108.122C109.202 108.475 108.986 108.796 108.714 109.066C108.441 109.336 108.118 109.55 107.762 109.695C107.406 109.841 107.025 109.916 106.64 109.915L52.0105 109.917ZM49.581 46.8608V107.01C49.5815 107.326 49.6448 107.639 49.7671 107.931C49.8894 108.223 50.0684 108.489 50.2939 108.712C50.5194 108.935 50.787 109.112 51.0813 109.232C51.3756 109.353 51.691 109.414 52.0093 109.414H106.641C107.284 109.414 107.901 109.161 108.356 108.711C108.812 108.26 109.068 107.648 109.069 107.009V97.6192L109.024 92.4473V35.2373C109.022 34.5989 108.765 33.9873 108.31 33.5367C107.855 33.0861 107.238 32.8333 106.596 32.8336H63.7101L49.581 46.8608Z" fill="#000078" stroke="#000078" stroke-width="0.4"/>
<path d="M49.328 47.0534C49.278 47.0534 49.2291 47.0387 49.1875 47.0112C49.1458 46.9836 49.1134 46.9445 49.0942 46.8986C49.0749 46.8527 49.0698 46.8022 49.0795 46.7535C49.0891 46.7047 49.113 46.6599 49.1483 46.6247L63.4557 32.4102C63.491 32.3749 63.5361 32.3508 63.5852 32.3409C63.6343 32.3311 63.6852 32.3359 63.7315 32.3549C63.7777 32.374 63.8172 32.4063 63.8449 32.4477C63.8726 32.4891 63.8873 32.5377 63.8872 32.5874V44.0061C63.8872 44.8142 63.564 45.5893 62.9888 46.1608C62.4136 46.7323 61.6334 47.0534 60.82 47.0534H49.328ZM63.381 33.1946L49.9379 46.5505H60.82C61.4991 46.5502 62.1503 46.282 62.6305 45.8049C63.1108 45.3278 63.3807 44.6808 63.381 44.0061V33.1946Z" fill="#000078" stroke="#000078" stroke-width="0.4"/>
<path d="M88.3002 56.3519H69.8386C69.7379 56.3519 69.6414 56.3122 69.5702 56.2415C69.499 56.1708 69.459 56.0748 69.459 55.9748C69.459 55.8748 69.499 55.7788 69.5702 55.7081C69.6414 55.6374 69.7379 55.5977 69.8386 55.5977H88.3002C88.4009 55.5977 88.4974 55.6374 88.5686 55.7081C88.6398 55.7788 88.6798 55.8748 88.6798 55.9748C88.6798 56.0748 88.6398 56.1708 88.5686 56.2415C88.4974 56.3122 88.4009 56.3519 88.3002 56.3519Z" fill="#9999C9"/>
<path d="M96.4438 62.5107H61.6945C61.6274 62.5107 61.563 62.4842 61.5155 62.437C61.4681 62.3899 61.4414 62.3259 61.4414 62.2592C61.4414 62.1926 61.4681 62.1286 61.5155 62.0815C61.563 62.0343 61.6274 62.0078 61.6945 62.0078H96.4438C96.5109 62.0078 96.5753 62.0343 96.6227 62.0815C96.6702 62.1286 96.6968 62.1926 96.6968 62.2592C96.6968 62.3259 96.6702 62.3899 96.6227 62.437C96.5753 62.4842 96.5109 62.5107 96.4438 62.5107Z" fill="#CCCCE4"/>
<path d="M96.4438 59.9957H61.6945C61.6274 59.9957 61.563 59.9692 61.5155 59.922C61.4681 59.8749 61.4414 59.8109 61.4414 59.7442C61.4414 59.6775 61.4681 59.6136 61.5155 59.5664C61.563 59.5193 61.6274 59.4928 61.6945 59.4928H96.4438C96.5109 59.4928 96.5753 59.5193 96.6227 59.5664C96.6702 59.6136 96.6968 59.6775 96.6968 59.7442C96.6968 59.8109 96.6702 59.8749 96.6227 59.922C96.5753 59.9692 96.5109 59.9957 96.4438 59.9957Z" fill="#CCCCE4"/>
<path d="M79.1995 65.0224H61.6945C61.6274 65.0224 61.563 64.9959 61.5155 64.9488C61.4681 64.9016 61.4414 64.8376 61.4414 64.771C61.4414 64.7043 61.4681 64.6403 61.5155 64.5932C61.563 64.546 61.6274 64.5195 61.6945 64.5195H79.1995C79.2666 64.5195 79.3309 64.546 79.3784 64.5932C79.4259 64.6403 79.4525 64.7043 79.4525 64.771C79.4525 64.8376 79.4259 64.9016 79.3784 64.9488C79.3309 64.9959 79.2666 65.0224 79.1995 65.0224Z" fill="#CCCCE4"/>
<path d="M88.3002 70.1761H69.8386C69.7379 70.1761 69.6414 70.1364 69.5702 70.0657C69.499 69.995 69.459 69.899 69.459 69.799C69.459 69.699 69.499 69.6031 69.5702 69.5323C69.6414 69.4616 69.7379 69.4219 69.8386 69.4219H88.3002C88.4009 69.4219 88.4974 69.4616 88.5686 69.5323C88.6398 69.6031 88.6798 69.699 88.6798 69.799C88.6798 69.899 88.6398 69.995 88.5686 70.0657C88.4974 70.1364 88.4009 70.1761 88.3002 70.1761Z" fill="#9999C9"/>
<path d="M96.4438 76.3389H61.6945C61.6274 76.3389 61.563 76.3124 61.5155 76.2653C61.4681 76.2181 61.4414 76.1542 61.4414 76.0875C61.4414 76.0208 61.4681 75.9569 61.5155 75.9097C61.563 75.8626 61.6274 75.8361 61.6945 75.8361H96.4438C96.5109 75.8361 96.5753 75.8626 96.6227 75.9097C96.6702 75.9569 96.6968 76.0208 96.6968 76.0875C96.6968 76.1542 96.6702 76.2181 96.6227 76.2653C96.5753 76.3124 96.5109 76.3389 96.4438 76.3389Z" fill="#CCCCE4"/>
<path d="M96.4438 73.8232H61.6945C61.6274 73.8232 61.563 73.7967 61.5155 73.7495C61.4681 73.7024 61.4414 73.6384 61.4414 73.5717C61.4414 73.5051 61.4681 73.4411 61.5155 73.394C61.563 73.3468 61.6274 73.3203 61.6945 73.3203H96.4438C96.5109 73.3203 96.5753 73.3468 96.6227 73.394C96.6702 73.4411 96.6968 73.5051 96.6968 73.5717C96.6968 73.6384 96.6702 73.7024 96.6227 73.7495C96.5753 73.7967 96.5109 73.8232 96.4438 73.8232Z" fill="#CCCCE4"/>
<path d="M79.1995 78.8544H61.6945C61.6274 78.8544 61.563 78.8279 61.5155 78.7808C61.4681 78.7336 61.4414 78.6697 61.4414 78.603C61.4414 78.5363 61.4681 78.4724 61.5155 78.4252C61.563 78.3781 61.6274 78.3516 61.6945 78.3516H79.1995C79.2666 78.3516 79.3309 78.3781 79.3784 78.4252C79.4259 78.4724 79.4525 78.5363 79.4525 78.603C79.4525 78.6697 79.4259 78.7336 79.3784 78.7808C79.3309 78.8279 79.2666 78.8544 79.1995 78.8544Z" fill="#CCCCE4"/>
<path d="M88.2999 84.0075H69.8383C69.7377 84.0075 69.6411 83.9677 69.5699 83.897C69.4987 83.8263 69.4587 83.7303 69.4587 83.6303C69.4587 83.5303 69.4987 83.4344 69.5699 83.3636C69.6411 83.2929 69.7377 83.2532 69.8383 83.2532H88.2999C88.4006 83.2532 88.4972 83.2929 88.5684 83.3636C88.6395 83.4344 88.6796 83.5303 88.6796 83.6303C88.6796 83.7303 88.6395 83.8263 88.5684 83.897C88.4972 83.9677 88.4006 84.0075 88.2999 84.0075Z" fill="#9999C9"/>
<path d="M96.4438 90.1664H61.6945C61.6274 90.1664 61.563 90.1399 61.5155 90.0928C61.4681 90.0456 61.4414 89.9817 61.4414 89.915C61.4414 89.8483 61.4681 89.7844 61.5155 89.7372C61.563 89.6901 61.6274 89.6636 61.6945 89.6636H96.4438C96.5109 89.6636 96.5753 89.6901 96.6227 89.7372C96.6702 89.7844 96.6968 89.8483 96.6968 89.915C96.6968 89.9817 96.6702 90.0456 96.6227 90.0928C96.5753 90.1399 96.5109 90.1664 96.4438 90.1664Z" fill="#6A79A8"/>
<path d="M96.4438 87.6513H61.6945C61.6274 87.6513 61.563 87.6248 61.5155 87.5777C61.4681 87.5305 61.4414 87.4665 61.4414 87.3999C61.4414 87.3332 61.4681 87.2692 61.5155 87.2221C61.563 87.1749 61.6274 87.1484 61.6945 87.1484H96.4438C96.5109 87.1484 96.5753 87.1749 96.6227 87.2221C96.6702 87.2692 96.6968 87.3332 96.6968 87.3999C96.6968 87.4665 96.6702 87.5305 96.6227 87.5777C96.5753 87.6248 96.5109 87.6513 96.4438 87.6513Z" fill="#6A79A8"/>
<path d="M79.1995 92.6822H61.6945C61.6274 92.6822 61.563 92.6557 61.5155 92.6085C61.4681 92.5614 61.4414 92.4974 61.4414 92.4307C61.4414 92.3641 61.4681 92.3001 61.5155 92.253C61.563 92.2058 61.6274 92.1793 61.6945 92.1793H79.1995C79.2666 92.1793 79.3309 92.2058 79.3784 92.253C79.4259 92.3001 79.4525 92.3641 79.4525 92.4307C79.4525 92.4974 79.4259 92.5614 79.3784 92.6085C79.3309 92.6557 79.2666 92.6822 79.1995 92.6822Z" fill="#6A79A8"/>
<path d="M68.2451 86.8729L45.5205 69.3433V111.832H113.141V69.4514L90.7457 86.9319L68.2451 86.8729Z" fill="white"/>
<path d="M69.5105 88.1307L46.7859 70.6011V113.09H114.407V70.7092L92.0111 88.1898L69.5105 88.1307Z" fill="#EFEFF4"/>
<path d="M113.146 112.084H45.5206C45.4535 112.084 45.3892 112.057 45.3417 112.01C45.2942 111.963 45.2676 111.899 45.2676 111.832V69.341C45.2677 69.294 45.2811 69.2481 45.3061 69.2083C45.3312 69.1686 45.3669 69.1366 45.4093 69.1159C45.4518 69.095 45.4994 69.0864 45.5466 69.0911C45.5938 69.0957 45.6388 69.1135 45.6763 69.1423L68.3325 86.6166L90.6585 86.6745L112.986 69.2605C113.023 69.2316 113.068 69.2136 113.115 69.2087C113.162 69.2038 113.21 69.2121 113.252 69.2326C113.295 69.2532 113.331 69.2852 113.356 69.325C113.381 69.3648 113.394 69.4109 113.395 69.4579V111.832C113.395 111.898 113.369 111.961 113.322 112.008C113.276 112.055 113.213 112.083 113.146 112.084ZM45.7788 111.581H112.893V69.9695L90.9028 87.1295C90.8592 87.1664 90.803 87.1853 90.7458 87.1823L68.2452 87.1245C68.1889 87.1246 68.1341 87.106 68.0896 87.0717L45.7737 69.8576L45.7788 111.581Z" fill="#000078" stroke="#000078" stroke-width="0.4"/>
<path d="M113.147 105.47C113.089 105.471 113.032 105.451 112.987 105.415L90.2943 87.1224H68.3795L45.6803 105.415C45.6281 105.457 45.5612 105.477 45.4944 105.47C45.4276 105.463 45.3664 105.43 45.3241 105.378C45.2818 105.326 45.262 105.26 45.269 105.193C45.276 105.127 45.3092 105.066 45.3614 105.024L68.1379 86.6699C68.1826 86.6336 68.2384 86.6137 68.296 86.6133H90.3829C90.4414 86.6131 90.4982 86.6331 90.5436 86.6699L113.301 105.024C113.342 105.057 113.371 105.101 113.385 105.151C113.399 105.201 113.397 105.254 113.38 105.303C113.362 105.352 113.33 105.394 113.287 105.424C113.245 105.454 113.194 105.47 113.142 105.47H113.147Z" fill="#000078" stroke="#000078" stroke-width="0.4"/>
<path d="M80.0814 49.0837C75.1465 49.0837 72.2172 46.1985 72.0957 46.0753C72.0523 46.0273 72.0292 45.9645 72.0311 45.8999C72.0331 45.8354 72.0599 45.7741 72.1061 45.7287C72.1523 45.6833 72.2143 45.6573 72.2792 45.6561C72.3442 45.6548 72.4071 45.6785 72.455 45.7221C72.4842 45.751 75.3654 48.5808 80.0814 48.5808C84.7974 48.5808 87.6381 45.9936 87.666 45.9672C87.6898 45.9431 87.7184 45.924 87.7498 45.911C87.7813 45.8981 87.8151 45.8916 87.8492 45.892C87.8832 45.8923 87.9169 45.8995 87.9481 45.9131C87.9793 45.9267 88.0074 45.9464 88.0307 45.971C88.0541 45.9957 88.0722 46.0248 88.084 46.0565C88.0957 46.0883 88.1009 46.1221 88.0993 46.1559C88.0976 46.1897 88.089 46.2228 88.0742 46.2532C88.0593 46.2837 88.0384 46.3108 88.0127 46.333C87.8925 46.4462 85.015 49.0837 80.0814 49.0837Z" fill="#9999C9" stroke="#9999C9" stroke-width="0.4"/>
<path d="M72.4573 42.124C72.9814 42.124 73.4063 41.7019 73.4063 41.1811C73.4063 40.6604 72.9814 40.2383 72.4573 40.2383C71.9332 40.2383 71.5083 40.6604 71.5083 41.1811C71.5083 41.7019 71.9332 42.124 72.4573 42.124Z" fill="#9999C9"/>
<path d="M87.3484 42.124C87.8726 42.124 88.2975 41.7019 88.2975 41.1811C88.2975 40.6604 87.8726 40.2383 87.3484 40.2383C86.8243 40.2383 86.3994 40.6604 86.3994 41.1811C86.3994 41.7019 86.8243 42.124 87.3484 42.124Z" fill="#9999C9"/>
<path d="M98.8581 29.0538C98.8111 29.0538 98.765 29.0408 98.725 29.0163C98.685 28.9917 98.6527 28.9566 98.6317 28.9148C98.6107 28.8731 98.6018 28.8263 98.606 28.7798C98.6102 28.7333 98.6274 28.6889 98.6556 28.6515C100.489 26.2143 102.659 24.0451 105.1 22.2074C105.154 22.1671 105.221 22.1495 105.288 22.1586C105.354 22.1677 105.414 22.2026 105.455 22.2558C105.496 22.309 105.513 22.376 105.504 22.4422C105.495 22.5083 105.46 22.5681 105.406 22.6084C103.003 24.4177 100.867 26.553 99.0605 28.952C99.0371 28.9835 99.0066 29.009 98.9714 29.0267C98.9363 29.0444 98.8975 29.0537 98.8581 29.0538Z" fill="#9999C9"/>
<path d="M88.9199 24.5971H88.887C88.854 24.5929 88.8222 24.5823 88.7933 24.5659C88.7645 24.5495 88.7391 24.5275 88.7188 24.5014C88.6985 24.4752 88.6835 24.4453 88.6748 24.4135C88.6661 24.3816 88.6638 24.3483 88.6681 24.3155C89.0622 21.2977 89.8809 18.3499 91.1001 15.5582C91.1274 15.498 91.1774 15.4508 91.2395 15.4269C91.3015 15.403 91.3705 15.4044 91.4315 15.4306C91.4926 15.4569 91.5407 15.506 91.5656 15.5673C91.5905 15.6286 91.5901 15.6971 91.5645 15.7581C90.3642 18.5073 89.5583 21.4103 89.1704 24.3821C89.1616 24.4419 89.1315 24.4965 89.0855 24.536C89.0395 24.5754 88.9807 24.5971 88.9199 24.5971Z" fill="#9999C9"/>
<path d="M73.68 24.4176C73.6183 24.4181 73.5584 24.3961 73.5118 24.3558C73.4652 24.3155 73.435 24.2597 73.427 24.1988C73.0388 21.2294 72.2338 18.3286 71.0354 15.5811C71.0217 15.5507 71.0142 15.5179 71.0133 15.4846C71.0124 15.4513 71.0182 15.4182 71.0303 15.3871C71.0424 15.3561 71.0606 15.3277 71.0838 15.3037C71.1071 15.2797 71.1349 15.2605 71.1657 15.2473C71.1964 15.234 71.2295 15.227 71.263 15.2266C71.2966 15.2262 71.3298 15.2324 71.3609 15.2448C71.392 15.2573 71.4203 15.2757 71.4442 15.2992C71.468 15.3226 71.4869 15.3505 71.4998 15.3812C72.7177 18.1701 73.5359 21.115 73.9306 24.1297C73.9392 24.1957 73.9211 24.2624 73.8803 24.3152C73.8395 24.3679 73.7793 24.4025 73.7129 24.4113L73.68 24.4176Z" fill="#9999C9"/>
<path d="M59.8243 29.5133C59.7772 29.5133 59.731 29.5002 59.691 29.4756C59.651 29.4509 59.6187 29.4156 59.5978 29.3738C58.2448 26.6964 56.5211 24.2205 54.4769 22.0182C54.4336 21.9689 54.4113 21.9047 54.4149 21.8393C54.4185 21.7739 54.4476 21.7125 54.4961 21.6681C54.5446 21.6237 54.6085 21.5999 54.6744 21.6017C54.7403 21.6034 54.8029 21.6306 54.8489 21.6775C56.9259 23.9138 58.6765 26.4287 60.0495 29.1487C60.0794 29.2083 60.0844 29.2772 60.0633 29.3403C60.0421 29.4035 59.9967 29.4557 59.9369 29.4856C59.9022 29.5039 59.8635 29.5134 59.8243 29.5133Z" fill="#9999C9"/>
<path d="M141.107 63.8867H140.348V65.7548H141.107V63.8867Z" fill="#000078"/>
<path d="M141.107 67.6718H140.348V69.5399H141.107V67.6718Z" fill="#000078"/>
<path d="M139.75 66.325H137.87V67.0792H139.75V66.325Z" fill="#000078"/>
<path d="M143.559 66.325H141.679V67.0792H143.559V66.325Z" fill="#000078"/>
<path d="M40.079 19.9492H39.3198V21.8173H40.079V19.9492Z" fill="#000078"/>
<path d="M40.079 23.7344H39.3198V25.6025H40.079V23.7344Z" fill="#000078"/>
<path d="M38.7238 22.387H36.8435V23.1413H38.7238V22.387Z" fill="#000078"/>
<path d="M42.5327 22.387H40.6523V23.1413H42.5327V22.387Z" fill="#000078"/>
<path d="M119.292 22.7734H118.533V24.6416H119.292V22.7734Z" fill="#9999C9"/>
<path d="M119.292 26.5625H118.533V28.4306H119.292V26.5625Z" fill="#9999C9"/>
<path d="M117.935 25.2148H116.055V25.9691H117.935V25.2148Z" fill="#9999C9"/>
<path d="M121.745 25.2148H119.865V25.9691H121.745V25.2148Z" fill="#9999C9"/>
<path d="M8.48334 42.2188H7.72412V44.0869H8.48334V42.2188Z" fill="#9999C9"/>
<path d="M8.48334 46H7.72412V47.8681H8.48334V46Z" fill="#9999C9"/>
<path d="M7.12788 44.6553H5.24756V45.4096H7.12788V44.6553Z" fill="#9999C9"/>
<path d="M10.9365 44.6553H9.05615V45.4096H10.9365V44.6553Z" fill="#9999C9"/>
<path d="M128.602 88.7188H127.843V90.5869H128.602V88.7188Z" fill="#9999C9"/>
<path d="M128.602 92.5033H127.843V94.3714H128.602V92.5033Z" fill="#9999C9"/>
<path d="M127.246 91.1565H125.366V91.9108H127.246V91.1565Z" fill="#9999C9"/>
<path d="M131.055 91.1565H129.175V91.9108H131.055V91.1565Z" fill="#9999C9"/>
<path d="M32.1796 52.5625H31.4204V54.4306H32.1796V52.5625Z" fill="#000078"/>
<path d="M32.1796 56.3478H31.4204V58.2159H32.1796V56.3478Z" fill="#000078"/>
<path d="M30.8242 55.0009H28.9438V55.7551H30.8242V55.0009Z" fill="#000078"/>
<path d="M34.6328 55.0009H32.7524V55.7551H34.6328V55.0009Z" fill="#000078"/>
<path d="M35.392 102.101H34.6328V103.969H35.392V102.101Z" fill="#000078"/>
<path d="M35.392 105.883H34.6328V107.751H35.392V105.883Z" fill="#000078"/>
<path d="M34.0371 104.535H32.1567V105.289H34.0371V104.535Z" fill="#000078"/>
<path d="M37.8457 104.535H35.9653V105.289H37.8457V104.535Z" fill="#000078"/>
</svg>
