<svg width="36" height="36" viewBox="0 0 36 36" fill="none" xmlns="http://www.w3.org/2000/svg">
<path d="M0 18C0 8.05888 8.05888 0 18 0C27.9411 0 36 8.05888 36 18C36 27.9411 27.9411 36 18 36C8.05888 36 0 27.9411 0 18Z" fill="#000078"/>
<g clip-path="url(#clip0)">
<path d="M18.0028 13.8923C15.7341 13.8923 13.8975 15.731 13.8975 17.9977C13.8975 20.2663 15.7361 22.103 18.0028 22.103C20.2715 22.103 22.1081 20.2643 22.1081 17.9977C22.1081 15.729 20.2695 13.8923 18.0028 13.8923ZM18.0028 20.6623C16.5301 20.6623 15.3381 19.4697 15.3381 17.9977C15.3381 16.5257 16.5308 15.333 18.0028 15.333C19.4748 15.333 20.6675 16.5257 20.6675 17.9977C20.6681 19.4697 19.4755 20.6623 18.0028 20.6623Z" fill="white"/>
<path d="M21.2983 10.0515C19.8263 9.98281 16.1803 9.98615 14.707 10.0515C13.4123 10.1121 12.2703 10.4248 11.3497 11.3455C9.811 12.8841 10.0077 14.9575 10.0077 17.9981C10.0077 21.1101 9.83433 23.1355 11.3497 24.6508C12.8943 26.1948 14.9977 25.9928 18.0023 25.9928C21.085 25.9928 22.149 25.9948 23.239 25.5728C24.721 24.9975 25.8397 23.6728 25.949 21.2935C26.0183 19.8208 26.0143 16.1755 25.949 14.7021C25.817 11.8935 24.3097 10.1901 21.2983 10.0515ZM23.6283 23.6328C22.6197 24.6415 21.2203 24.5515 17.983 24.5515C14.6497 24.5515 13.313 24.6008 12.3377 23.6228C11.2143 22.5048 11.4177 20.7095 11.4177 17.9875C11.4177 14.3041 11.0397 11.6515 14.7363 11.4621C15.5857 11.4321 15.8357 11.4221 17.9737 11.4221L18.0037 11.4421C21.5563 11.4421 24.3437 11.0701 24.511 14.7661C24.549 15.6095 24.5577 15.8628 24.5577 17.9975C24.557 21.2921 24.6197 22.6368 23.6283 23.6328Z" fill="white"/>
<path d="M22.2704 14.6892C22.8002 14.6892 23.2297 14.2597 23.2297 13.7298C23.2297 13.2 22.8002 12.7705 22.2704 12.7705C21.7405 12.7705 21.311 13.2 21.311 13.7298C21.311 14.2597 21.7405 14.6892 22.2704 14.6892Z" fill="white"/>
</g>
<defs>
<clipPath id="clip0">
<rect width="16" height="16" fill="white" transform="translate(10 10)"/>
</clipPath>
</defs>
</svg>
