<svg width="40" height="40" viewBox="0 0 40 40" fill="none" xmlns="http://www.w3.org/2000/svg">
<path d="M0 20C0 8.95431 8.95431 0 20 0C31.0457 0 40 8.95431 40 20C40 31.0457 31.0457 40 20 40C8.95431 40 0 31.0457 0 20Z" fill="#000078"/>
<path d="M28.5376 11.4627C26.5873 9.51242 23.4151 9.51242 21.4648 11.4627L18.6016 14.3259C18.4799 14.4476 18.4457 14.6316 18.5149 14.7887C18.5841 14.9462 18.7306 15.0471 18.9154 15.037L19.0424 15.0276C19.2585 15.0077 19.4795 15.0239 19.698 15.0443C20.0647 15.0776 20.4489 15.1554 20.873 15.2815C21.0204 15.3267 21.1787 15.2852 21.2865 15.1769L23.2328 13.2307C24.177 12.2864 25.8254 12.2864 26.7696 13.2307C27.7447 14.2058 27.7447 15.7923 26.7696 16.7674L23.9815 19.5555C23.7621 18.6954 23.3304 17.9245 22.7029 17.2973C21.8815 16.4756 20.8164 15.9835 19.6227 15.8741C18.5865 15.7837 17.5653 16.0031 16.6712 16.5196C16.2442 16.767 15.9134 17.0141 15.6301 17.2973L11.4624 21.465C9.51252 23.4148 9.51252 26.5878 11.4624 28.5377C12.4376 29.5128 13.718 30 14.9988 30C16.2797 30 17.5601 29.5128 18.5353 28.5377L21.3977 25.6753C21.519 25.554 21.5536 25.3709 21.4848 25.2138C21.416 25.0567 21.2516 24.9509 21.0871 24.9643L20.9549 24.9737C20.742 24.9944 20.5214 24.9757 20.302 24.9558C19.9362 24.9224 19.5515 24.8447 19.1267 24.7185C18.9785 24.6741 18.8214 24.7148 18.7136 24.8235L16.7673 26.7698C15.8231 27.714 14.1747 27.714 13.2305 26.7698C12.2554 25.7946 12.2554 24.2082 13.2305 23.233L16.0186 20.445C16.238 21.3051 16.6697 22.0759 17.2972 22.7031C18.119 23.5248 19.1841 24.0169 20.3778 24.1259C20.5333 24.1402 20.6883 24.1471 20.843 24.1471C21.7176 24.1471 22.569 23.92 23.3289 23.4809C23.7559 23.2334 24.0867 22.9864 24.37 22.7031L28.5377 18.5355C30.4875 16.5855 30.4875 13.4126 28.5376 11.4627ZM21.55 21.5511C20.6512 21.8242 19.7069 21.5764 19.0652 20.935C18.4146 20.2844 18.1867 19.3275 18.4499 18.4496C19.3504 18.1779 20.2939 18.4247 20.9349 19.0653C21.5856 19.7161 21.8133 20.6731 21.55 21.5511Z" fill="white"/>
</svg>
