<svg width="40" height="40" viewBox="0 0 40 40" fill="none" xmlns="http://www.w3.org/2000/svg">
<path d="M0 20C0 8.95431 8.95431 0 20 0C31.0457 0 40 8.95431 40 20C40 31.0457 31.0457 40 20 40C8.95431 40 0 31.0457 0 20Z" fill="white"/>
<path d="M20.07 5C22.5705 8.75 25.6955 11.875 31.3205 11.25C31.3205 18.948 32.99 29.2717 20.0699 33.75C7.15077 29.2716 8.82043 18.9479 8.82043 11.25C14.4458 11.875 17.5704 8.75 20.07 5Z" fill="#2D80FC"/>
<path d="M19.7256 16.2684C21.1516 16.1036 22.1467 17.0552 22.015 18.6818C21.9791 19.1349 21.7914 19.6772 21.5669 20.0779C21.3534 20.4584 20.8734 20.8256 21.0004 21.3085C21.0807 21.6132 21.7501 21.7936 21.9916 21.8999C22.6088 22.1718 23.4745 22.5773 23.6911 23.2249C23.7472 23.3921 23.7893 23.7984 23.6911 24.0531C23.3451 24.9516 21.2015 25 20.0093 25C19.35 25 18.549 24.9898 17.8376 24.8578C17.01 24.7047 16.0064 24.3719 16.3033 23.2726C16.4373 22.7765 17.0342 22.414 17.5781 22.1132C17.7363 22.0257 18.0706 21.8358 18.3807 21.7108C18.6425 21.6053 19.0087 21.5093 19.0415 21.1663C19.0695 20.8764 18.8856 20.7209 18.7111 20.4803C18.3113 19.9295 17.935 19.1779 18.0028 18.1615C18.0698 17.163 18.6885 16.388 19.7256 16.2684Z" fill="white"/>
</svg>
