<svg width="32" height="32" viewBox="0 0 32 32" fill="none" xmlns="http://www.w3.org/2000/svg">
<path d="M0 16C0 7.16344 7.16344 0 16 0C24.8366 0 32 7.16344 32 16C32 24.8366 24.8366 32 16 32C7.16344 32 0 24.8366 0 16Z" fill="#2D80FC"/>
<path d="M16.056 4C18.0564 7 20.5564 9.5 25.0564 9C25.0564 15.1584 26.392 23.4174 16.0559 27C5.72062 23.4173 7.05635 15.1583 7.05635 9C11.5566 9.5 14.0564 7 16.056 4Z" fill="white"/>
<path d="M15.7805 13.0147C16.9213 12.8829 17.7173 13.6441 17.612 14.9454C17.5833 15.308 17.4331 15.7417 17.2535 16.0624C17.0827 16.3667 16.6987 16.6605 16.8004 17.0468C16.8646 17.2905 17.4 17.4349 17.5933 17.5199C18.087 17.7374 18.7796 18.0618 18.9529 18.5799C18.9978 18.7137 19.0314 19.0387 18.9529 19.2425C18.6761 19.9612 16.9612 20 16.0074 20C15.48 20 14.8392 19.9919 14.2701 19.8862C13.608 19.7637 12.8051 19.4975 13.0426 18.6181C13.1498 18.2212 13.6273 17.9312 14.0625 17.6905C14.189 17.6205 14.4564 17.4687 14.7045 17.3687C14.914 17.2843 15.207 17.2074 15.2332 16.933C15.2556 16.7011 15.1085 16.5768 14.9689 16.3842C14.6491 15.9436 14.348 15.3423 14.4022 14.5292C14.4558 13.7304 14.9508 13.1104 15.7805 13.0147Z" fill="#2D80FC"/>
</svg>
