<svg width="32" height="42" viewBox="0 0 32 42" fill="none" xmlns="http://www.w3.org/2000/svg">
<path d="M15.9999 0C7.61259 0 0.789062 6.82352 0.789062 15.2107C0.789062 25.6195 14.4012 40.9002 14.9808 41.5456C15.5252 42.1519 16.4756 42.1509 17.0189 41.5456C17.5985 40.9002 31.2107 25.6195 31.2107 15.2107C31.2105 6.82352 24.3871 0 15.9999 0ZM15.9999 22.8637C11.78 22.8637 8.34701 19.4306 8.34701 15.2107C8.34701 10.9909 11.7801 7.55787 15.9999 7.55787C20.2196 7.55787 23.6526 10.991 23.6526 15.2108C23.6526 19.4307 20.2196 22.8637 15.9999 22.8637Z" fill="#000078"/>
</svg>
