<svg width="40" height="40" viewBox="0 0 40 40" fill="none" xmlns="http://www.w3.org/2000/svg">
<path d="M0 20C0 8.95431 8.95431 0 20 0C31.0457 0 40 8.95431 40 20C40 31.0457 31.0457 40 20 40C8.95431 40 0 31.0457 0 20Z" fill="white"/>
<path d="M19.9997 8.75C15.5065 8.75 11.8511 12.4055 11.8511 16.8986C11.8511 22.4747 19.1433 30.6608 19.4538 31.0066C19.7454 31.3314 20.2546 31.3308 20.5457 31.0066C20.8561 30.6608 28.1484 22.4747 28.1484 16.8986C28.1483 12.4055 24.4929 8.75 19.9997 8.75ZM19.9997 20.9984C17.7391 20.9984 15.9 19.1592 15.9 16.8986C15.9 14.638 17.7391 12.7989 19.9997 12.7989C22.2603 12.7989 24.0994 14.638 24.0994 16.8986C24.0994 19.1593 22.2603 20.9984 19.9997 20.9984Z" fill="#2D80FC"/>
</svg>
