<svg width="32" height="32" viewBox="0 0 32 32" fill="none" xmlns="http://www.w3.org/2000/svg">
<path d="M0 16C0 7.16344 7.16344 0 16 0C24.8366 0 32 7.16344 32 16C32 24.8366 24.8366 32 16 32C7.16344 32 0 24.8366 0 16Z" fill="#000078"/>
<path d="M15.9999 7C12.4053 7 9.48096 9.92437 9.48096 13.5189C9.48096 17.9798 15.3147 24.5287 15.5631 24.8053C15.7964 25.0651 16.2037 25.0647 16.4366 24.8053C16.685 24.5287 22.5188 17.9798 22.5188 13.5189C22.5187 9.92437 19.5944 7 15.9999 7ZM15.9999 16.7987C14.1914 16.7987 12.7201 15.3274 12.7201 13.5189C12.7201 11.7104 14.1914 10.2391 15.9999 10.2391C17.8083 10.2391 19.2796 11.7104 19.2796 13.5189C19.2796 15.3274 17.8083 16.7987 15.9999 16.7987Z" fill="white"/>
</svg>
