<svg width="24" height="24" viewBox="0 0 24 24" fill="none" xmlns="http://www.w3.org/2000/svg">
<path d="M0 12C0 5.37258 5.37258 0 12 0V0C18.6274 0 24 5.37258 24 12V12C24 18.6274 18.6274 24 12 24V24C5.37258 24 0 18.6274 0 12V12Z" fill="#212529"/>
<path d="M20.6761 16.1393H19.5431L16.028 6.58838L11.9998 12.414L7.69435 6.65761L4.45694 16.1393H3.32391L3 17.4108H7.3012L8.98962 12.7627L12.0509 16.8508L12.0692 16.8765L12.088 16.8508L15.0104 12.7627L16.6988 17.4108H21L20.6761 16.1393Z" fill="white"/>
</svg>
