<svg width="48" height="48" viewBox="0 -1 48 51" fill="none" xmlns="http://www.w3.org/2000/svg">
<path d="M0.5 24C0.5 10.7452 11.2452 0 24.5 0C37.7548 0 48.5 10.7452 48.5 24C48.5 37.2548 37.7548 48 24.5 48C11.2452 48 0.5 37.2548 0.5 24Z" fill="transparent"/>
<path d="M18.8335 24.3333H30.8335" stroke="#ace061" stroke-width="2"/>
<path d="M24.5 47C11.7975 47 1.5 36.7025 1.5 24H-0.5C-0.5 37.8071 10.6929 49 24.5 49V47ZM47.5 24C47.5 36.7025 37.2025 47 24.5 47V49C38.3071 49 49.5 37.8071 49.5 24H47.5ZM24.5 1C37.2025 1 47.5 11.2975 47.5 24H49.5C49.5 10.1929 38.3071 -1 24.5 -1V1ZM24.5 -1C10.6929 -1 -0.5 10.1929 -0.5 24H1.5C1.5 11.2975 11.7975 1 24.5 1V-1Z" fill="#ace061"/>
</svg>
