<svg width="48" height="48" viewBox="-1 0 50 48" fill="none" xmlns="http://www.w3.org/2000/svg">
<path d="M23.333 28.333L27.333 24.333L23.333 20.333" stroke="#2D80FC" stroke-width="2" stroke-linecap="square"/>
<path d="M24 47C11.2975 47 1 36.7025 1 24H-1C-1 37.8071 10.1929 49 24 49V47ZM47 24C47 36.7025 36.7025 47 24 47V49C37.8071 49 49 37.8071 49 24H47ZM24 1C36.7025 1 47 11.2975 47 24H49C49 10.1929 37.8071 -1 24 -1V1ZM24 -1C10.1929 -1 -1 10.1929 -1 24H1C1 11.2975 11.2975 1 24 1V-1Z" fill="#2D80FC"/>
</svg>
