<svg width="36" height="36" viewBox="0 0 36 36" fill="none" xmlns="http://www.w3.org/2000/svg">
<path d="M0 18C0 8.05888 8.05888 0 18 0C27.9411 0 36 8.05888 36 18C36 27.9411 27.9411 36 18 36C8.05888 36 0 27.9411 0 18Z" fill="#000078"/>
<path d="M17.9999 10C15.794 10 14 11.794 14 13.9999C14 16.2059 15.794 17.9999 17.9999 17.9999C20.2059 17.9999 21.9999 16.2059 21.9999 13.9999C21.9999 11.794 20.2059 10 17.9999 10ZM17.9999 15.9999C16.897 15.9999 16 15.1029 16 13.9999C16 12.897 16.897 12 17.9999 12C19.1029 12 19.9999 12.897 19.9999 13.9999C19.9999 15.1029 19.1029 15.9999 17.9999 15.9999Z" fill="white"/>
<path d="M23.3039 17.8886C22.9129 17.4976 22.2809 17.4976 21.8899 17.8886C19.7459 20.0326 16.256 20.0326 14.111 17.8886C13.72 17.4976 13.088 17.4976 12.6971 17.8886C12.3061 18.2796 12.3061 18.9116 12.6971 19.3036C13.941 20.5475 15.518 21.2565 17.144 21.4415L14.293 24.2925C13.902 24.6835 13.902 25.3155 14.293 25.7065C14.684 26.0975 15.316 26.0975 15.707 25.7065L18 23.4135L20.2929 25.7065C20.4879 25.9015 20.7439 25.9995 20.9999 25.9995C21.2559 25.9995 21.5119 25.9015 21.7069 25.7065C22.0979 25.3155 22.0979 24.6835 21.7069 24.2925L18.856 21.4415C20.4819 21.2565 22.0589 20.5475 23.3029 19.3036C23.6939 18.9126 23.6939 18.2796 23.3039 17.8886Z" fill="white"/>
</svg>
