<svg width="318" height="328" viewBox="0 0 318 328" fill="none" xmlns="http://www.w3.org/2000/svg">
<g opacity="0.7" clip-path="url(#clip0)">
<path d="M147.525 121.146L147.851 121.069L147.904 120.738C149.342 111.682 141.37 103.864 132.347 103.845L132.345 103.845C123.324 103.864 115.331 111.682 116.789 120.739L116.842 121.069L117.168 121.146C125.03 123.008 130.561 129.696 131.85 140.654H132.843C134.132 129.696 139.681 123.008 147.525 121.146ZM132.346 92.1895C146.667 92.1895 158.296 103.8 158.296 118.14C158.296 132.461 146.685 144.09 132.346 144.09C118.026 144.09 106.396 132.461 106.396 118.14C106.396 103.819 118.007 92.1895 132.346 92.1895Z" stroke="#CCCCE4"/>
<path d="M200.427 121.146L200.752 121.069L200.805 120.739C202.262 111.682 194.289 103.864 185.249 103.845L185.247 103.845C176.225 103.864 168.233 111.682 169.69 120.739L169.744 121.069L170.069 121.146C177.931 123.008 183.462 129.696 184.751 140.654H185.744C187.033 129.696 192.582 123.008 200.427 121.146ZM185.266 92.1895C199.587 92.1895 211.216 103.8 211.216 118.14C211.216 132.461 199.587 144.09 185.266 144.09C170.946 144.09 159.316 132.461 159.316 118.14C159.316 103.819 170.946 92.1895 185.266 92.1895Z" stroke="#CCCCE4"/>
<path d="M121.076 166.991L121.402 166.914L121.454 166.583C122.892 157.528 114.922 149.69 105.897 149.69L105.896 149.69C96.8745 149.709 88.8822 157.526 90.3399 166.584L90.393 166.914L90.7184 166.991C98.5805 168.853 104.111 175.541 105.401 186.499H106.394C107.683 175.541 113.232 168.853 121.076 166.991ZM105.897 138.016C120.218 138.016 131.847 149.626 131.847 163.966C131.847 178.305 120.218 189.916 105.897 189.916C91.5764 189.916 79.9473 178.287 79.9473 163.966C79.9473 149.645 91.5764 138.016 105.897 138.016Z" stroke="#CCCCE4"/>
<path d="M147.525 212.835L147.851 212.758L147.904 212.427C149.342 203.372 141.371 195.534 132.346 195.534L132.345 195.534C123.324 195.554 115.331 203.371 116.789 212.428L116.842 212.758L117.168 212.835C125.03 214.697 130.561 221.385 131.85 232.343H132.843C134.132 221.385 139.681 214.697 147.525 212.835ZM132.346 183.86C146.667 183.86 158.296 195.471 158.296 209.81C158.296 224.15 146.686 235.76 132.346 235.76C118.026 235.76 106.396 224.131 106.396 209.81C106.396 195.489 118.007 183.86 132.346 183.86Z" stroke="#CCCCE4"/>
<path d="M173.975 166.991L174.3 166.914L174.354 166.584C175.811 157.527 167.82 149.69 158.796 149.69L158.795 149.69C149.774 149.709 141.782 157.526 143.239 166.584L143.292 166.914L143.618 166.991C151.48 168.853 157.011 175.541 158.3 186.499H159.293C160.582 175.541 166.131 168.853 173.975 166.991ZM158.815 138.016C173.136 138.016 184.765 149.626 184.765 163.966C184.765 178.305 173.136 189.916 158.815 189.916C144.494 189.916 132.865 178.287 132.865 163.966C132.865 149.645 144.494 138.016 158.815 138.016Z" stroke="#CCCCE4"/>
<path d="M200.427 212.835L200.752 212.758L200.805 212.428C202.262 203.372 194.29 195.534 185.248 195.534L185.247 195.534C176.225 195.554 168.233 203.371 169.69 212.428L169.744 212.758L170.069 212.835C177.931 214.697 183.462 221.385 184.751 232.343H185.744C187.033 221.385 192.582 214.697 200.427 212.835ZM185.266 183.86C199.587 183.86 211.216 195.471 211.216 209.81C211.216 224.149 199.587 235.76 185.266 235.76C170.946 235.76 159.316 224.131 159.316 209.81C159.316 195.489 170.946 183.86 185.266 183.86Z" stroke="#CCCCE4"/>
<path d="M226.894 166.991L227.22 166.914L227.273 166.583C228.711 157.528 220.74 149.69 211.715 149.69L211.714 149.69C202.693 149.709 194.701 157.526 196.158 166.584L196.211 166.914L196.537 166.991C204.399 168.853 209.93 175.541 211.219 186.499H212.212C213.501 175.541 219.05 168.853 226.894 166.991ZM211.716 189.916H211.715C197.395 189.916 185.766 178.287 185.766 163.966C185.766 149.645 197.376 138.016 211.715 138.016C226.036 138.016 237.665 149.626 237.665 163.966C237.665 178.306 226.054 189.934 211.716 189.916Z" stroke="#CCCCE4"/>
<path d="M147.525 212.816L147.851 212.739L147.904 212.408C149.342 203.352 141.37 195.534 132.347 195.515L132.345 195.515C123.324 195.534 115.331 203.352 116.789 212.409L116.842 212.739L117.168 212.816C125.03 214.678 130.561 221.366 131.85 232.324H132.843C134.132 221.366 139.681 214.678 147.525 212.816ZM132.347 235.741H132.346C118.025 235.741 106.396 224.13 106.396 209.791C106.396 195.47 118.007 183.841 132.346 183.841C146.667 183.841 158.296 195.452 158.296 209.791C158.296 224.131 146.685 235.76 132.347 235.741Z" stroke="#CCCCE4"/>
<path d="M200.427 212.816L200.752 212.739L200.805 212.409C202.262 203.352 194.289 195.534 185.249 195.515L185.247 195.515C176.225 195.534 168.233 203.352 169.69 212.409L169.744 212.739L170.069 212.816C177.931 214.678 183.462 221.366 184.751 232.324H185.744C187.033 221.366 192.582 214.678 200.427 212.816ZM185.266 183.841C199.587 183.841 211.216 195.452 211.216 209.791C211.216 224.13 199.587 235.741 185.266 235.741C170.945 235.741 159.316 224.13 159.316 209.791C159.316 195.47 170.946 183.841 185.266 183.841Z" stroke="#CCCCE4"/>
<path d="M121.076 258.661L121.402 258.584L121.454 258.253C122.892 249.198 114.922 241.36 105.897 241.36L105.896 241.36C96.8745 241.379 88.8822 249.196 90.3399 258.254L90.393 258.584L90.7184 258.661C98.5805 260.523 104.111 267.211 105.401 278.169H106.394C107.683 267.211 113.232 260.523 121.076 258.661ZM105.897 229.686C120.218 229.686 131.847 241.296 131.847 255.636C131.847 269.975 120.218 281.586 105.897 281.586C91.5764 281.586 79.9473 269.957 79.9473 255.636C79.9473 241.315 91.5764 229.686 105.897 229.686Z" stroke="#CCCCE4"/>
<path d="M147.525 304.486L147.851 304.409L147.904 304.078C149.342 295.023 141.37 287.205 132.347 287.186L132.345 287.186C123.324 287.205 115.331 295.022 116.789 304.079L116.842 304.41L117.168 304.487C125.03 306.348 130.561 313.036 131.85 323.994H132.843C134.132 313.037 139.681 306.348 147.525 304.486ZM132.346 275.53C146.667 275.53 158.296 287.141 158.296 301.48C158.296 315.82 146.686 327.43 132.346 327.43C118.026 327.43 106.396 315.801 106.396 301.48C106.396 287.159 118.007 275.53 132.346 275.53Z" stroke="#CCCCE4"/>
<path d="M173.975 258.661L174.3 258.584L174.354 258.254C175.811 249.197 167.82 241.36 158.796 241.36L158.795 241.36C149.774 241.379 141.782 249.196 143.239 258.254L143.292 258.584L143.618 258.661C151.48 260.523 157.011 267.211 158.3 278.169H159.293C160.582 267.211 166.131 260.523 173.975 258.661ZM158.815 229.686C173.136 229.686 184.765 241.296 184.765 255.636C184.765 269.975 173.136 281.586 158.815 281.586C144.494 281.586 132.865 269.957 132.865 255.636C132.865 241.315 144.494 229.686 158.815 229.686Z" stroke="#CCCCE4"/>
<path d="M200.427 304.486L200.752 304.409L200.805 304.079C202.262 295.022 194.289 287.205 185.249 287.186L185.247 287.186C176.225 287.205 168.233 295.022 169.69 304.079L169.744 304.41L170.069 304.487C177.931 306.348 183.462 313.036 184.751 323.994H185.744C187.033 313.037 192.582 306.348 200.427 304.486ZM185.266 275.53C199.587 275.53 211.216 287.141 211.216 301.48C211.216 315.819 199.587 327.43 185.266 327.43C170.946 327.43 159.316 315.801 159.316 301.48C159.316 287.159 170.946 275.53 185.266 275.53Z" stroke="#CCCCE4"/>
<path d="M226.894 258.661L227.22 258.584L227.273 258.253C228.711 249.198 220.74 241.36 211.715 241.36L211.714 241.36C202.693 241.379 194.701 249.196 196.158 258.254L196.211 258.584L196.537 258.661C204.399 260.523 209.93 267.211 211.219 278.169H212.212C213.501 267.211 219.05 260.523 226.894 258.661ZM211.715 229.686C226.036 229.686 237.665 241.296 237.665 255.636C237.665 269.975 226.055 281.586 211.715 281.586C197.395 281.586 185.766 269.957 185.766 255.636C185.766 241.315 197.376 229.686 211.715 229.686Z" stroke="#CCCCE4"/>
<path d="M147.525 29.4754L147.851 29.398L147.904 29.0673C149.342 20.0125 141.371 12.1745 132.346 12.1745L132.345 12.1745C123.324 12.1937 115.331 20.0109 116.789 29.0683L116.842 29.3984L117.168 29.4754C125.03 31.3371 130.561 38.0251 131.85 48.983H132.843C134.132 38.0256 139.681 31.337 147.525 29.4754ZM132.347 52.4005H132.346C118.025 52.4005 106.396 40.7896 106.396 26.4502C106.396 12.129 118.007 0.5 132.346 0.5C146.685 0.5 158.296 12.129 158.296 26.4502C158.296 40.7905 146.685 52.4188 132.347 52.4005Z" stroke="#CCCCE4"/>
<path d="M200.426 29.4754L200.751 29.3982L200.804 29.0683C202.261 20.0122 194.289 12.1745 185.247 12.1745L185.246 12.1745C176.224 12.1937 168.232 20.0109 169.69 29.0683L169.743 29.3984L170.068 29.4754C177.93 31.337 183.461 38.0251 184.75 48.983H185.743C187.032 38.0256 192.582 31.337 200.426 29.4754ZM185.265 0.5C199.586 0.5 211.215 12.1108 211.215 26.4502C211.215 40.7892 199.568 52.4005 185.247 52.4005C170.926 52.4005 159.297 40.7896 159.297 26.4502C159.297 12.1297 170.944 0.5 185.265 0.5Z" stroke="#CCCCE4"/>
<path d="M121.075 75.3201L121.401 75.2427L121.454 74.912C122.891 65.8572 114.921 58.0192 105.896 58.0192L105.895 58.0192C96.8736 58.0384 88.8813 65.8556 90.3391 74.913L90.3922 75.2431L90.7175 75.3201C98.5796 77.1818 104.111 83.8698 105.4 94.8277H106.393C107.682 83.8704 113.231 77.1817 121.075 75.3201ZM105.896 46.3447C120.217 46.3447 131.846 57.9556 131.846 72.295C131.846 86.6339 120.199 98.2452 105.878 98.2452C91.5566 98.2452 79.9277 86.6344 79.9277 72.295C79.9277 57.956 91.5748 46.3447 105.896 46.3447Z" stroke="#CCCCE4"/>
<path d="M147.525 121.146L147.851 121.068L147.904 120.738C149.342 111.682 141.37 103.864 132.347 103.845L132.345 103.845C123.324 103.864 115.331 111.681 116.789 120.739L116.842 121.069L117.168 121.146C125.03 123.007 130.561 129.695 131.85 140.653H132.843C134.132 129.696 139.681 123.007 147.525 121.146ZM132.346 92.189C146.667 92.189 158.296 103.8 158.296 118.139C158.296 132.46 146.685 144.089 132.346 144.089C118.026 144.089 106.396 132.46 106.396 118.139C106.396 103.818 118.007 92.189 132.346 92.189Z" stroke="#CCCCE4"/>
<path d="M173.975 75.3201L174.3 75.2429L174.353 74.913C175.81 65.8565 167.819 58.0192 158.796 58.0192L158.794 58.0192C149.773 58.0384 141.781 65.8556 143.238 74.913L143.291 75.2431L143.617 75.3201C151.479 77.1818 157.01 83.8698 158.299 94.8277H159.292C160.581 83.8704 166.13 77.1817 173.975 75.3201ZM158.814 46.3447C173.135 46.3447 184.764 57.9556 184.764 72.295C184.764 86.6339 173.117 98.2452 158.796 98.2452C144.475 98.2452 132.846 86.6344 132.846 72.295C132.846 57.956 144.493 46.3447 158.814 46.3447Z" stroke="#CCCCE4"/>
<path d="M200.425 121.146L200.75 121.068L200.803 120.739C202.26 111.682 194.287 103.864 185.247 103.845L185.245 103.845C176.223 103.864 168.231 111.681 169.688 120.739L169.742 121.069L170.067 121.146C177.929 123.007 183.46 129.695 184.749 140.653H185.742C187.031 129.696 192.58 123.007 200.425 121.146ZM185.264 92.189C199.585 92.189 211.214 103.8 211.214 118.139C211.214 132.46 199.585 144.089 185.264 144.089C170.944 144.089 159.314 132.46 159.314 118.139C159.314 103.818 170.944 92.189 185.264 92.189Z" stroke="#CCCCE4"/>
<path d="M226.893 75.3201L227.218 75.2427L227.271 74.912C228.709 65.8572 220.738 58.0192 211.714 58.0192L211.712 58.0192C202.691 58.0384 194.699 65.8556 196.156 74.913L196.209 75.2431L196.535 75.3201C204.397 77.1818 209.928 83.8698 211.217 94.8277H212.21C213.499 83.8704 219.048 77.1817 226.893 75.3201ZM211.714 46.3447C226.034 46.3447 237.663 57.9556 237.663 72.295C237.663 86.6346 226.053 98.2452 211.714 98.2452C197.393 98.2452 185.764 86.6344 185.764 72.295C185.764 57.9738 197.374 46.3447 211.714 46.3447Z" stroke="#CCCCE4"/>
<path d="M253.345 121.146L253.67 121.069L253.723 120.739C255.18 111.682 247.188 103.864 238.167 103.845L238.164 103.845C229.143 103.864 221.151 111.682 222.608 120.739L222.661 121.069L222.987 121.146C230.849 123.008 236.38 129.696 237.669 140.654H238.662C239.951 129.696 245.5 123.008 253.345 121.146ZM238.184 92.1895C252.505 92.1895 264.134 103.8 264.134 118.14C264.134 132.461 252.505 144.09 238.184 144.09C223.863 144.09 212.234 132.461 212.234 118.14C212.234 103.819 223.863 92.1895 238.184 92.1895Z" stroke="#CCCCE4"/>
<path d="M306.264 121.146L306.589 121.069L306.642 120.738C308.08 111.682 300.108 103.864 291.086 103.845L291.084 103.845C282.062 103.864 274.07 111.682 275.527 120.739L275.581 121.069L275.906 121.146C283.768 123.008 289.299 129.696 290.588 140.654H291.581C292.87 129.696 298.419 123.008 306.264 121.146ZM291.085 92.1895C305.406 92.1895 317.034 103.8 317.034 118.14C317.034 132.461 305.405 144.09 291.085 144.09C276.764 144.09 265.135 132.461 265.135 118.14C265.135 103.819 276.764 92.1895 291.085 92.1895Z" stroke="#CCCCE4"/>
<path d="M226.894 166.991L227.22 166.914L227.273 166.583C228.711 157.528 220.74 149.69 211.715 149.69L211.714 149.69C202.693 149.709 194.701 157.526 196.158 166.584L196.211 166.914L196.537 166.991C204.399 168.853 209.93 175.541 211.219 186.499H212.212C213.501 175.541 219.05 168.853 226.894 166.991ZM211.716 189.916H211.715C197.395 189.916 185.766 178.287 185.766 163.966C185.766 149.645 197.376 138.016 211.715 138.016C226.036 138.016 237.665 149.626 237.665 163.966C237.665 178.306 226.054 189.934 211.716 189.916Z" stroke="#CCCCE4"/>
<path d="M253.345 212.835L253.67 212.758L253.723 212.428C255.18 203.372 247.189 195.534 238.166 195.534L238.164 195.534C229.143 195.554 221.151 203.371 222.608 212.428L222.661 212.758L222.987 212.835C230.849 214.697 236.38 221.385 237.669 232.343H238.662C239.951 221.385 245.5 214.697 253.345 212.835ZM238.184 183.86C252.505 183.86 264.134 195.471 264.134 209.81C264.134 224.149 252.505 235.76 238.184 235.76C223.863 235.76 212.234 224.131 212.234 209.81C212.234 195.489 223.863 183.86 238.184 183.86Z" stroke="#CCCCE4"/>
<path d="M279.794 166.991L280.119 166.914L280.172 166.584C281.629 157.528 273.657 149.69 264.615 149.69L264.614 149.69C255.592 149.709 247.6 157.526 249.058 166.584L249.111 166.914L249.436 166.991C257.298 168.853 262.829 175.541 264.118 186.499H265.111C266.4 175.541 271.95 168.853 279.794 166.991ZM264.634 189.916H264.633C250.313 189.916 238.684 178.287 238.684 163.966C238.684 149.645 250.294 138.016 264.633 138.016C278.954 138.016 290.583 149.626 290.583 163.966C290.583 178.306 278.954 189.934 264.634 189.916Z" stroke="#CCCCE4"/>
<path d="M306.264 212.835L306.589 212.758L306.642 212.427C308.08 203.372 300.109 195.534 291.085 195.534L291.084 195.534C282.062 195.554 274.07 203.371 275.527 212.428L275.581 212.758L275.906 212.835C283.768 214.697 289.299 221.385 290.588 232.343H291.581C292.87 221.385 298.419 214.697 306.264 212.835ZM291.085 183.86C305.406 183.86 317.034 195.471 317.034 209.81C317.034 224.149 305.406 235.76 291.085 235.76C276.764 235.76 265.135 224.131 265.135 209.81C265.135 195.489 276.764 183.86 291.085 183.86Z" stroke="#CCCCE4"/>
<path d="M332.712 166.991L333.037 166.914L333.09 166.584C334.547 157.527 326.556 149.69 317.533 149.69L317.532 149.69C308.51 149.709 300.518 157.526 301.976 166.584L302.029 166.914L302.354 166.991C310.216 168.853 315.747 175.541 317.036 186.499H318.029C319.318 175.541 324.868 168.853 332.712 166.991ZM317.552 189.916H317.551C303.231 189.916 291.602 178.287 291.602 163.966C291.602 149.645 303.212 138.016 317.551 138.016C331.872 138.016 343.501 149.626 343.501 163.966C343.501 178.306 331.872 189.934 317.552 189.916Z" stroke="#CCCCE4"/>
<path d="M41.707 121.146L42.0328 121.069L42.0853 120.738C43.5233 111.682 35.5518 103.864 26.529 103.845L26.5269 103.845C17.5053 103.864 9.51307 111.682 10.9708 120.739L11.0239 121.069L11.3492 121.146C19.2114 123.008 24.7423 129.696 26.0314 140.654H27.0245C28.3136 129.696 33.8629 123.008 41.707 121.146ZM26.528 92.1895C40.8489 92.1895 52.4778 103.8 52.4778 118.14C52.4778 132.461 40.8487 144.09 26.528 144.09C12.2072 144.09 0.578125 132.461 0.578125 118.14C0.578125 103.819 12.1888 92.1895 26.528 92.1895Z" stroke="#CCCCE4"/>
<path d="M94.6063 121.146L94.9314 121.069L94.9844 120.739C96.4422 111.682 88.4499 103.864 79.4283 103.845L79.4262 103.845C70.4046 103.864 62.4124 111.682 63.8701 120.739L63.9232 121.069L64.2485 121.146C72.1107 123.008 77.6416 129.696 78.9307 140.654H79.9239C81.2129 129.696 86.7622 123.008 94.6063 121.146ZM79.4459 92.1895C93.7669 92.1895 105.396 103.8 105.396 118.14C105.396 132.461 93.7667 144.09 79.4459 144.09C65.1252 144.09 53.4961 132.461 53.4961 118.14C53.4961 103.819 65.1252 92.1895 79.4459 92.1895Z" stroke="#CCCCE4"/>
<path d="M15.2382 166.991L15.5633 166.914L15.6164 166.584C17.0739 157.528 9.10182 149.69 0.0592155 149.69L0.0581512 149.69C-8.96343 149.709 -16.9557 157.526 -15.498 166.584L-15.4448 166.914L-15.1195 166.991C-7.25738 168.853 -1.7265 175.541 -0.437359 186.499H0.555792C1.84487 175.541 7.3941 168.853 15.2382 166.991ZM0.0598545 189.916H0.0592155C-14.2617 189.916 -25.8906 178.305 -25.8906 163.966C-25.8906 149.627 -14.262 138.016 0.0778828 138.016C14.3988 138.016 26.0277 149.626 26.0277 163.966C26.0277 178.306 14.3986 189.934 0.0598545 189.916Z" stroke="#CCCCE4"/>
<path d="M41.707 212.835L42.0328 212.758L42.0853 212.427C43.5232 203.372 35.5527 195.534 26.528 195.534L26.5269 195.534C17.5053 195.554 9.51307 203.371 10.9708 212.428L11.0239 212.758L11.3492 212.835C19.2114 214.697 24.7423 221.385 26.0314 232.343H27.0245C28.3136 221.385 33.8629 214.697 41.707 212.835ZM26.528 183.86C40.8489 183.86 52.4778 195.471 52.4778 209.81C52.4778 224.149 40.8489 235.76 26.528 235.76C12.2072 235.76 0.578125 224.131 0.578125 209.81C0.578125 195.489 12.1888 183.86 26.528 183.86Z" stroke="#CCCCE4"/>
<path d="M68.1562 166.991L68.4813 166.914L68.5344 166.584C69.9919 157.527 62.0007 149.69 52.9772 149.69L52.9761 149.69C43.9545 149.709 35.9623 157.526 37.42 166.584L37.4731 166.914L37.7984 166.991C45.6606 168.853 51.1915 175.541 52.4806 186.499H53.4738C54.7628 175.541 60.3121 168.853 68.1562 166.991ZM52.9778 189.916H52.9772C38.6565 189.916 27.0273 178.287 27.0273 163.966C27.0273 149.645 38.638 138.016 52.9772 138.016C67.2981 138.016 78.927 149.626 78.927 163.966C78.927 178.306 67.3161 189.934 52.9778 189.916Z" stroke="#CCCCE4"/>
<path d="M94.6063 212.835L94.9314 212.758L94.9844 212.428C96.442 203.372 88.4508 195.534 79.4273 195.534L79.4262 195.534C70.4046 195.554 62.4124 203.371 63.8701 212.428L63.9232 212.758L64.2485 212.835C72.1107 214.697 77.6416 221.385 78.9307 232.343H79.9239C81.2129 221.385 86.7622 214.697 94.6063 212.835ZM79.4459 183.86C93.7669 183.86 105.396 195.471 105.396 209.81C105.396 224.149 93.7669 235.76 79.4459 235.76C65.1252 235.76 53.4961 224.131 53.4961 209.81C53.4961 195.489 65.1252 183.86 79.4459 183.86Z" stroke="#CCCCE4"/>
<path d="M121.074 166.991L121.4 166.914L121.452 166.583C122.89 157.528 114.92 149.69 105.895 149.69L105.894 149.69C96.8725 149.709 88.8803 157.526 90.338 166.584L90.3911 166.914L90.7164 166.991C98.5786 168.853 104.109 175.541 105.399 186.499H106.392C107.681 175.541 113.23 168.853 121.074 166.991ZM105.895 138.016C120.216 138.016 131.845 149.626 131.845 163.966C131.845 178.305 120.216 189.916 105.895 189.916C91.5744 189.916 79.9453 178.287 79.9453 163.966C79.9453 149.645 91.5744 138.016 105.895 138.016Z" stroke="#CCCCE4"/>
<path d="M253.345 29.4754L253.67 29.3982L253.723 29.0683C255.18 20.0118 247.189 12.1745 238.166 12.1745L238.164 12.1745C229.143 12.1937 221.151 20.0109 222.608 29.0683L222.661 29.3984L222.987 29.4754C230.849 31.337 236.38 38.0251 237.669 48.983H238.662C239.951 38.0256 245.5 31.337 253.345 29.4754ZM238.184 0.5C252.505 0.5 264.134 12.1108 264.134 26.4502C264.134 40.7896 252.505 52.4005 238.184 52.4005C223.863 52.4005 212.234 40.7896 212.234 26.4502C212.234 12.1293 223.863 0.5 238.184 0.5Z" stroke="#CCCCE4"/>
<path d="M306.264 29.4754L306.589 29.398L306.642 29.0673C308.08 20.0125 300.109 12.1745 291.085 12.1745L291.084 12.1745C282.062 12.1937 274.07 20.0109 275.527 29.0683L275.581 29.3984L275.906 29.4754C283.768 31.337 289.299 38.0251 290.588 48.983H291.581C292.87 38.0256 298.419 31.337 306.264 29.4754ZM291.085 0.5C305.406 0.5 317.034 12.1108 317.034 26.4502C317.034 40.7896 305.406 52.4005 291.085 52.4005C276.764 52.4005 265.135 40.7896 265.135 26.4502C265.135 12.1293 276.764 0.5 291.085 0.5Z" stroke="#CCCCE4"/>
<path d="M226.894 75.3201L227.22 75.2427L227.273 74.912C228.711 65.8572 220.74 58.0192 211.715 58.0192L211.714 58.0192C202.693 58.0384 194.701 65.8556 196.158 74.913L196.211 75.2431L196.537 75.3201C204.399 77.1818 209.93 83.8698 211.219 94.8277H212.212C213.501 83.8704 219.05 77.1817 226.894 75.3201ZM211.715 46.3447C226.036 46.3447 237.665 57.9556 237.665 72.295C237.665 86.6346 226.055 98.2452 211.715 98.2452C197.394 98.2452 185.766 86.6344 185.766 72.295C185.766 57.9738 197.376 46.3447 211.715 46.3447Z" stroke="#CCCCE4"/>
<path d="M253.345 121.146L253.67 121.068L253.723 120.739C255.18 111.681 247.188 103.864 238.167 103.845L238.164 103.845C229.143 103.864 221.151 111.681 222.608 120.739L222.661 121.069L222.987 121.146C230.849 123.007 236.38 129.695 237.669 140.653H238.662C239.951 129.696 245.5 123.007 253.345 121.146ZM238.184 92.189C252.505 92.189 264.134 103.8 264.134 118.139C264.134 132.46 252.505 144.089 238.184 144.089C223.863 144.089 212.234 132.46 212.234 118.139C212.234 103.818 223.863 92.189 238.184 92.189Z" stroke="#CCCCE4"/>
<path d="M279.794 75.3201L280.119 75.2429L280.172 74.913C281.629 65.8569 273.657 58.0192 264.615 58.0192L264.614 58.0192C255.592 58.0384 247.6 65.8556 249.058 74.913L249.111 75.2431L249.436 75.3201C257.298 77.1818 262.829 83.8698 264.118 94.8277H265.111C266.4 83.8704 271.95 77.1817 279.794 75.3201ZM264.633 46.3447C278.954 46.3447 290.583 57.9556 290.583 72.295C290.583 86.6344 278.954 98.2452 264.633 98.2452C250.312 98.2452 238.684 86.6344 238.684 72.295C238.684 57.9738 250.294 46.3447 264.633 46.3447Z" stroke="#CCCCE4"/>
<path d="M306.264 121.146L306.589 121.068L306.642 120.738C308.08 111.682 300.108 103.864 291.086 103.845L291.084 103.845C282.062 103.864 274.07 111.681 275.527 120.739L275.581 121.069L275.906 121.146C283.768 123.007 289.299 129.695 290.588 140.653H291.581C292.87 129.696 298.419 123.007 306.264 121.146ZM291.085 92.189C305.406 92.189 317.034 103.8 317.034 118.139C317.034 132.46 305.405 144.089 291.085 144.089C276.764 144.089 265.135 132.46 265.135 118.139C265.135 103.818 276.764 92.189 291.085 92.189Z" stroke="#CCCCE4"/>
<path d="M332.712 75.3201L333.037 75.2429L333.09 74.913C334.547 65.8565 326.556 58.0192 317.533 58.0192L317.532 58.0192C308.51 58.0384 300.518 65.8556 301.976 74.913L302.029 75.2431L302.354 75.3201C310.216 77.1818 315.747 83.8698 317.036 94.8277H318.029C319.318 83.8704 324.868 77.1817 332.712 75.3201ZM317.551 46.3447C331.872 46.3447 343.501 57.9556 343.501 72.295C343.501 86.6344 331.872 98.2452 317.551 98.2452C303.23 98.2452 291.602 86.6344 291.602 72.295C291.602 57.9738 303.212 46.3447 317.551 46.3447Z" stroke="#CCCCE4"/>
<path d="M41.707 29.4754L42.0328 29.398L42.0853 29.0673C43.5232 20.0125 35.5527 12.1745 26.528 12.1745L26.5269 12.1745C17.5053 12.1937 9.51307 20.0109 10.9708 29.0683L11.0239 29.3984L11.3492 29.4754C19.2114 31.3371 24.7423 38.0251 26.0314 48.983H27.0245C28.3136 38.0256 33.8629 31.337 41.707 29.4754ZM26.5286 52.4005H26.528C12.207 52.4005 0.578125 40.7896 0.578125 26.4502C0.578125 12.129 12.1888 0.5 26.528 0.5C40.8487 0.5 52.4778 12.1293 52.4778 26.4502C52.4778 40.7902 40.8485 52.4188 26.5286 52.4005Z" stroke="#CCCCE4"/>
<path d="M94.6073 29.4754L94.9324 29.3982L94.9855 29.0683C96.4431 20.0118 88.4519 12.1745 79.4284 12.1745L79.4273 12.1745C70.4057 12.1937 62.4135 20.0109 63.8712 29.0683L63.9243 29.3984L64.2496 29.4754C72.1118 31.337 77.6426 38.0251 78.9318 48.983H79.9249C81.214 38.0256 86.7632 31.337 94.6073 29.4754ZM79.4284 0.5C93.768 0.5 105.397 12.1295 105.397 26.4502C105.397 40.7892 93.7498 52.4005 79.4284 52.4005C65.1074 52.4005 53.4785 40.7896 53.4785 26.4502C53.4785 12.129 65.0892 0.5 79.4284 0.5Z" stroke="#CCCCE4"/>
<path d="M15.2382 75.3201L15.5633 75.2429L15.6164 74.913C17.0739 65.8569 9.10182 58.0192 0.0592155 58.0192L0.0581512 58.0192C-8.96343 58.0384 -16.9557 65.8556 -15.498 74.913L-15.4448 75.2431L-15.1195 75.3201C-7.25738 77.1818 -1.7265 83.8698 -0.437359 94.8277H0.555792C1.84487 83.8704 7.3941 77.1817 15.2382 75.3201ZM0.0778828 46.3447C14.3988 46.3447 26.0277 57.9556 26.0277 72.295C26.0277 86.6341 14.3991 98.2452 0.0592155 98.2452C-14.2617 98.2452 -25.8906 86.6344 -25.8906 72.295C-25.8906 57.9558 -14.262 46.3447 0.0778828 46.3447Z" stroke="#CCCCE4"/>
<path d="M41.707 121.146L42.0328 121.068L42.0853 120.738C43.5233 111.682 35.5518 103.864 26.529 103.845L26.5269 103.845C17.5053 103.864 9.51307 111.681 10.9708 120.739L11.0239 121.069L11.3492 121.146C19.2114 123.007 24.7423 129.695 26.0314 140.653H27.0245C28.3136 129.696 33.8629 123.007 41.707 121.146ZM26.528 92.189C40.8489 92.189 52.4778 103.8 52.4778 118.139C52.4778 132.46 40.8487 144.089 26.528 144.089C12.2072 144.089 0.578125 132.46 0.578125 118.139C0.578125 103.818 12.1888 92.189 26.528 92.189Z" stroke="#CCCCE4"/>
<path d="M68.1562 75.3201L68.4813 75.2429L68.5344 74.913C69.9919 65.8565 62.0007 58.0192 52.9772 58.0192L52.9761 58.0192C43.9545 58.0384 35.9623 65.8556 37.42 74.913L37.4731 75.2431L37.7984 75.3201C45.6606 77.1818 51.1915 83.8698 52.4806 94.8277H53.4738C54.7628 83.8704 60.3121 77.1817 68.1562 75.3201ZM52.9772 46.3447C67.2981 46.3447 78.927 57.9556 78.927 72.295C78.927 86.6346 67.3166 98.2452 52.9772 98.2452C38.6562 98.2452 27.0273 86.6344 27.0273 72.295C27.0273 57.9738 38.638 46.3447 52.9772 46.3447Z" stroke="#CCCCE4"/>
<path d="M94.6063 121.146L94.9314 121.068L94.9844 120.739C96.4422 111.681 88.4499 103.864 79.4283 103.845L79.4262 103.845C70.4046 103.864 62.4124 111.681 63.8701 120.739L63.9232 121.069L64.2485 121.146C72.1107 123.007 77.6416 129.695 78.9307 140.653H79.9239C81.2129 129.696 86.7622 123.007 94.6063 121.146ZM79.4459 92.189C93.7669 92.189 105.396 103.8 105.396 118.139C105.396 132.46 93.7667 144.089 79.4459 144.089C65.1252 144.089 53.4961 132.46 53.4961 118.139C53.4961 103.818 65.1252 92.189 79.4459 92.189Z" stroke="#CCCCE4"/>
<path d="M121.075 75.3201L121.401 75.2427L121.454 74.912C122.891 65.8572 114.921 58.0192 105.896 58.0192L105.895 58.0192C96.8736 58.0384 88.8813 65.8556 90.3391 74.913L90.3922 75.2431L90.7175 75.3201C98.5796 77.1818 104.111 83.8698 105.4 94.8277H106.393C107.682 83.8704 113.231 77.1817 121.075 75.3201ZM105.896 46.3447C120.217 46.3447 131.846 57.9556 131.846 72.295C131.846 86.6339 120.199 98.2452 105.878 98.2452C91.5566 98.2452 79.9277 86.6344 79.9277 72.295C79.9277 57.956 91.5748 46.3447 105.896 46.3447Z" stroke="#CCCCE4"/>
<path d="M253.345 212.816L253.67 212.739L253.723 212.409C255.18 203.352 247.188 195.534 238.167 195.515L238.164 195.515C229.143 195.534 221.151 203.352 222.608 212.409L222.661 212.739L222.987 212.816C230.849 214.678 236.38 221.366 237.669 232.324H238.662C239.951 221.366 245.5 214.678 253.345 212.816ZM238.184 183.841C252.505 183.841 264.134 195.452 264.134 209.791C264.134 224.13 252.505 235.741 238.184 235.741C223.863 235.741 212.234 224.13 212.234 209.791C212.234 195.47 223.863 183.841 238.184 183.841Z" stroke="#CCCCE4"/>
<path d="M306.264 212.816L306.589 212.739L306.642 212.408C308.08 203.352 300.108 195.534 291.086 195.515L291.084 195.515C282.062 195.534 274.07 203.352 275.527 212.409L275.581 212.739L275.906 212.816C283.768 214.678 289.299 221.366 290.588 232.324H291.581C292.87 221.366 298.419 214.678 306.264 212.816ZM291.085 183.841C305.406 183.841 317.034 195.452 317.034 209.791C317.034 224.13 305.406 235.741 291.085 235.741C276.764 235.741 265.135 224.13 265.135 209.791C265.135 195.47 276.764 183.841 291.085 183.841Z" stroke="#CCCCE4"/>
<path d="M226.894 258.661L227.22 258.584L227.273 258.253C228.711 249.198 220.74 241.36 211.715 241.36L211.714 241.36C202.693 241.379 194.701 249.196 196.158 258.254L196.211 258.584L196.537 258.661C204.399 260.523 209.93 267.211 211.219 278.169H212.212C213.501 267.211 219.05 260.523 226.894 258.661ZM211.715 229.686C226.036 229.686 237.665 241.296 237.665 255.636C237.665 269.975 226.055 281.586 211.715 281.586C197.395 281.586 185.766 269.957 185.766 255.636C185.766 241.315 197.376 229.686 211.715 229.686Z" stroke="#CCCCE4"/>
<path d="M253.345 304.486L253.67 304.409L253.723 304.079C255.18 295.022 247.188 287.205 238.167 287.186L238.164 287.186C229.143 287.205 221.151 295.022 222.608 304.079L222.661 304.41L222.987 304.487C230.849 306.348 236.38 313.036 237.669 323.994H238.662C239.951 313.037 245.5 306.348 253.345 304.486ZM238.184 275.53C252.505 275.53 264.134 287.141 264.134 301.48C264.134 315.819 252.505 327.43 238.184 327.43C223.863 327.43 212.234 315.801 212.234 301.48C212.234 287.159 223.863 275.53 238.184 275.53Z" stroke="#CCCCE4"/>
<path d="M279.794 258.661L280.119 258.584L280.172 258.254C281.629 249.198 273.657 241.36 264.615 241.36L264.614 241.36C255.592 241.379 247.6 249.196 249.058 258.254L249.111 258.584L249.436 258.661C257.298 260.523 262.829 267.211 264.118 278.169H265.111C266.4 267.211 271.95 260.523 279.794 258.661ZM264.633 229.686C278.954 229.686 290.583 241.296 290.583 255.636C290.583 269.975 278.954 281.586 264.633 281.586C250.313 281.586 238.684 269.957 238.684 255.636C238.684 241.315 250.294 229.686 264.633 229.686Z" stroke="#CCCCE4"/>
<path d="M306.264 304.486L306.589 304.409L306.642 304.078C308.08 295.023 300.108 287.205 291.086 287.186L291.084 287.186C282.062 287.205 274.07 295.022 275.527 304.079L275.581 304.41L275.906 304.487C283.768 306.348 289.299 313.036 290.588 323.994H291.581C292.87 313.037 298.419 306.348 306.264 304.486ZM291.085 275.53C305.406 275.53 317.034 287.141 317.034 301.48C317.034 315.819 305.406 327.43 291.085 327.43C276.764 327.43 265.135 315.801 265.135 301.48C265.135 287.159 276.764 275.53 291.085 275.53Z" stroke="#CCCCE4"/>
<path d="M332.712 258.661L333.037 258.584L333.09 258.254C334.547 249.197 326.556 241.36 317.533 241.36L317.532 241.36C308.51 241.379 300.518 249.196 301.976 258.254L302.029 258.584L302.354 258.661C310.216 260.523 315.747 267.211 317.036 278.169H318.029C319.318 267.211 324.868 260.523 332.712 258.661ZM317.551 229.686C331.872 229.686 343.501 241.296 343.501 255.636C343.501 269.975 331.872 281.586 317.551 281.586C303.231 281.586 291.602 269.957 291.602 255.636C291.602 241.315 303.212 229.686 317.551 229.686Z" stroke="#CCCCE4"/>
<path d="M41.707 212.816L42.0328 212.739L42.0853 212.408C43.5233 203.352 35.5518 195.534 26.529 195.515L26.5269 195.515C17.5053 195.534 9.51307 203.352 10.9708 212.409L11.0239 212.739L11.3492 212.816C19.2114 214.678 24.7423 221.366 26.0314 232.324H27.0245C28.3136 221.366 33.8629 214.678 41.707 212.816ZM26.5286 235.741H26.528C12.207 235.741 0.578125 224.13 0.578125 209.791C0.578125 195.47 12.1888 183.841 26.528 183.841C40.8489 183.841 52.4778 195.452 52.4778 209.791C52.4778 224.131 40.8485 235.76 26.5286 235.741Z" stroke="#CCCCE4"/>
<path d="M94.6063 212.816L94.9314 212.739L94.9844 212.409C96.4422 203.352 88.4499 195.534 79.4283 195.515L79.4262 195.515C70.4046 195.534 62.4124 203.352 63.8701 212.409L63.9232 212.739L64.2485 212.816C72.1107 214.678 77.6416 221.366 78.9307 232.324H79.9239C81.2129 221.366 86.7622 214.678 94.6063 212.816ZM79.4459 183.841C93.7669 183.841 105.396 195.452 105.396 209.791C105.396 224.13 93.7669 235.741 79.4459 235.741C65.125 235.741 53.4961 224.13 53.4961 209.791C53.4961 195.47 65.1252 183.841 79.4459 183.841Z" stroke="#CCCCE4"/>
<path d="M15.2382 258.661L15.5633 258.584L15.6164 258.254C17.0739 249.198 9.10182 241.36 0.0592155 241.36L0.0581512 241.36C-8.96343 241.379 -16.9557 249.196 -15.498 258.254L-15.4448 258.584L-15.1195 258.661C-7.25738 260.523 -1.7265 267.211 -0.437359 278.169H0.555792C1.84487 267.211 7.3941 260.523 15.2382 258.661ZM0.0778828 229.686C14.3988 229.686 26.0277 241.296 26.0277 255.636C26.0277 269.975 14.3991 281.586 0.0592155 281.586C-14.2617 281.586 -25.8906 269.975 -25.8906 255.636C-25.8906 241.297 -14.262 229.686 0.0778828 229.686Z" stroke="#CCCCE4"/>
<path d="M41.707 304.486L42.0328 304.409L42.0853 304.078C43.5233 295.023 35.5518 287.205 26.529 287.186L26.5269 287.186C17.5053 287.205 9.51307 295.022 10.9708 304.079L11.0239 304.41L11.3492 304.487C19.2114 306.348 24.7423 313.036 26.0314 323.994H27.0245C28.3136 313.037 33.8629 306.348 41.707 304.486ZM26.528 275.53C40.8489 275.53 52.4778 287.141 52.4778 301.48C52.4778 315.819 40.8489 327.43 26.528 327.43C12.2072 327.43 0.578125 315.801 0.578125 301.48C0.578125 287.159 12.1888 275.53 26.528 275.53Z" stroke="#CCCCE4"/>
<path d="M68.1562 258.661L68.4813 258.584L68.5344 258.254C69.9919 249.197 62.0007 241.36 52.9772 241.36L52.9761 241.36C43.9545 241.379 35.9623 249.196 37.42 258.254L37.4731 258.584L37.7984 258.661C45.6606 260.523 51.1915 267.211 52.4806 278.169H53.4738C54.7628 267.211 60.3121 260.523 68.1562 258.661ZM52.9772 229.686C67.2981 229.686 78.927 241.296 78.927 255.636C78.927 269.975 67.3166 281.586 52.9772 281.586C38.6565 281.586 27.0273 269.957 27.0273 255.636C27.0273 241.315 38.638 229.686 52.9772 229.686Z" stroke="#CCCCE4"/>
<path d="M94.6063 304.486L94.9314 304.409L94.9844 304.079C96.4422 295.022 88.4499 287.205 79.4283 287.186L79.4262 287.186C70.4046 287.205 62.4124 295.022 63.8701 304.079L63.9232 304.41L64.2485 304.487C72.1107 306.348 77.6416 313.036 78.9307 323.994H79.9239C81.2129 313.037 86.7622 306.348 94.6063 304.486ZM79.4459 275.53C93.7669 275.53 105.396 287.141 105.396 301.48C105.396 315.819 93.7669 327.43 79.4459 327.43C65.1252 327.43 53.4961 315.801 53.4961 301.48C53.4961 287.159 65.1252 275.53 79.4459 275.53Z" stroke="#CCCCE4"/>
<path d="M121.074 258.661L121.4 258.584L121.452 258.253C122.89 249.198 114.92 241.36 105.895 241.36L105.894 241.36C96.8725 241.379 88.8803 249.196 90.338 258.254L90.3911 258.584L90.7164 258.661C98.5786 260.523 104.109 267.211 105.399 278.169H106.392C107.681 267.211 113.23 260.523 121.074 258.661ZM105.895 229.686C120.216 229.686 131.845 241.296 131.845 255.636C131.845 269.975 120.216 281.586 105.895 281.586C91.5744 281.586 79.9453 269.957 79.9453 255.636C79.9453 241.315 91.5744 229.686 105.895 229.686Z" stroke="#CCCCE4"/>
</g>
<defs>
<clipPath id="clip0">
<rect width="317.61" height="327.796" fill="white"/>
</clipPath>
</defs>
</svg>
