<svg viewBox="0 0 22 24" fill="none" xmlns="http://www.w3.org/2000/svg">
<path d="M4.59998 12.8H3.79998V11.2H4.59998C5.0418 11.2 5.39998 11.5582 5.39998 12C5.39998 12.4418 5.0418 12.8 4.59998 12.8Z" fill="#000078"/>
<path d="M10.2 16V11.2H11C11.4418 11.2 11.8 11.5582 11.8 12V15.2C11.8 15.6418 11.4418 16 11 16H10.2Z" fill="#000078"/>
<path fill-rule="evenodd" clip-rule="evenodd" d="M0.599976 2.4C0.599976 1.07452 1.67449 0 2.99998 0H16.1313L21.4 5.26863V21.6C21.4 22.9255 20.3255 24 19 24H2.99998C1.67449 24 0.599976 22.9255 0.599976 21.6V2.4ZM4.59998 9.6H2.19998V17.6H3.79998V14.4H4.59998C5.92546 14.4 6.99998 13.3255 6.99998 12C6.99998 10.6745 5.92546 9.6 4.59998 9.6ZM11 9.6H8.59998V17.6H11C12.3255 17.6 13.4 16.5255 13.4 15.2V12C13.4 10.6745 12.3255 9.6 11 9.6ZM15 17.6V9.6H19.8V11.2H16.6V12.8H18.2V14.4H16.6V17.6H15Z" fill="#000078"/>
</svg>
