<svg width="56" height="56" viewBox="0 0 56 56" fill="none" xmlns="http://www.w3.org/2000/svg">
<path d="M27.9989 7C19.6116 7 12.7881 13.8235 12.7881 22.2107C12.7881 32.6195 26.4003 47.9002 26.9798 48.5456C27.5242 49.1519 28.4746 49.1509 29.018 48.5456C29.5975 47.9002 43.2097 32.6195 43.2097 22.2107C43.2095 13.8235 36.3861 7 27.9989 7ZM27.9989 29.8637C23.779 29.8637 20.346 26.4306 20.346 22.2107C20.346 17.9909 23.7791 14.5579 27.9989 14.5579C32.2187 14.5579 35.6517 17.991 35.6517 22.2108C35.6517 26.4307 32.2187 29.8637 27.9989 29.8637Z" fill="white"/>
</svg>
