<svg width="16" height="15" viewBox="0 0 16 15" fill="none" xmlns="http://www.w3.org/2000/svg">
<path d="M14.7556 11.3155H13.0586V14.4022C13.0586 14.6967 12.8198 14.9355 12.5252 14.9355H3.47478C3.18025 14.9355 2.94144 14.6968 2.94144 14.4022V11.3155H1.24444C0.55825 11.3155 0 10.7572 0 10.071V4.70533C0 4.01914 0.55825 3.46089 1.24444 3.46089H2.9415V0.597955C2.9415 0.303423 3.18028 0.0646114 3.47484 0.0646114H12.5252C12.8197 0.0646114 13.0585 0.303392 13.0585 0.597955V3.46089H14.7556C15.4418 3.46089 16 4.01914 16 4.70533V10.071C16 10.7572 15.4418 11.3155 14.7556 11.3155ZM4.00809 13.8689H11.9919V11.3155H4.00809V13.8689ZM11.9918 1.1313H4.00819C4.00819 1.23552 4.00819 5.36577 4.00819 5.49467H11.9918C11.9918 5.36252 11.9918 1.23152 11.9918 1.1313ZM12.5252 8.18377H11.1676C10.8731 8.18377 10.6343 8.42255 10.6343 8.71711C10.6343 9.01167 10.8731 9.25045 11.1676 9.25045H12.5252C12.8197 9.25045 13.0586 9.01167 13.0586 8.71711C13.0586 8.42255 12.8198 8.18377 12.5252 8.18377Z" fill="white"/>
</svg>
