<svg width="36" height="36" viewBox="0 0 36 36" fill="none" xmlns="http://www.w3.org/2000/svg">
<path d="M0 18C0 8.05888 8.05888 0 18 0C27.9411 0 36 8.05888 36 18C36 27.9411 27.9411 36 18 36C8.05888 36 0 27.9411 0 18Z" fill="#000078"/>
<path d="M14 23.9986C15.1046 23.9986 16 23.1032 16 21.9986C16 20.8941 15.1046 19.9987 14 19.9987C12.8954 19.9987 12 20.8941 12 21.9986C12 23.1032 12.8954 23.9986 14 23.9986Z" fill="white"/>
<path d="M12 14.6666V17.3336C15.676 17.3336 18.667 20.3235 18.667 23.9995H21.333C21.333 18.8536 17.146 14.6666 12 14.6666Z" fill="white"/>
<path d="M12 10V12.667C18.25 12.667 23.334 17.7499 23.334 23.9998H26C26 16.2799 19.72 10 12 10Z" fill="white"/>
</svg>
