<svg width="24" height="24" viewBox="0 0 24 24" fill="none" xmlns="http://www.w3.org/2000/svg">
<path fill-rule="evenodd" clip-rule="evenodd" d="M5.00001 10.9999C5.00001 7.6909 7.69103 4.99989 11 4.99989C14.3091 4.99989 17.0001 7.6909 17.0001 10.9999C17.0001 14.3089 14.3091 16.9999 11 16.9999C7.69103 16.9999 5.00001 14.3089 5.00001 10.9999ZM20.7071 19.2931L17.3121 15.8971C18.3651 14.5431 19.0001 12.846 19.0001 11C19.0001 6.58902 15.4111 3 11 3C6.58902 3 3 6.58902 3 11C3 15.4111 6.58902 19.0001 11 19.0001C12.846 19.0001 14.5431 18.3651 15.8971 17.3121L19.2931 20.7071C19.4881 20.9021 19.7441 21.0001 20.0001 21.0001C20.2561 21.0001 20.5121 20.9021 20.7071 20.7071C21.0981 20.3161 21.0981 19.6841 20.7071 19.2931Z" fill="#000078"/>
</svg>
