<svg width="86" height="36" viewBox="0 0 86 36" fill="none" xmlns="http://www.w3.org/2000/svg">
<g clip-path="url(#clip0)">
<path d="M31.5771 11.173C31.3254 11.2939 30.9863 11.3159 31.1613 11.8108C31.9053 13.9992 32.0038 16.2426 31.7412 18.519C31.3911 21.5982 30.1766 24.3145 28.1634 26.6129C24.498 30.7808 19.8588 32.5733 14.3333 31.9355C11.215 31.5726 8.4687 30.3299 6.16005 28.2404C1.99135 24.4904 0.273537 19.7397 1.01756 14.1862C1.53181 10.3482 3.31527 7.10404 6.31323 4.64069C11.0509 0.72573 16.3247 -0.110049 22.069 1.9794C22.7364 2.22133 23.3819 2.52925 23.9837 2.89216C24.4323 3.16708 24.487 2.68321 24.684 2.51826C24.9137 2.32031 24.6402 2.25433 24.5198 2.18834C21.0076 0.197869 17.2547 -0.450959 13.3048 0.30784C9.14707 1.09963 5.7771 3.24406 3.22774 6.64216C1.4771 8.98454 0.415776 11.6238 0.0984733 14.5491C-0.021883 14.714 0.131298 14.934 0 15.0989C0 16.0117 0 16.9354 0 17.8482C0.109415 18.0242 0.0328244 18.2221 0.0547074 18.409C0.0656489 19.0909 0.131298 19.7507 0.29542 20.4105C1.14886 23.8086 2.88855 26.6789 5.50356 28.9882C6.71807 30.066 8.07481 30.9567 9.57379 31.6165C11.0947 32.2874 12.6702 32.7712 14.3333 32.9032C15.6463 32.9032 16.9593 32.9032 18.2723 32.9032C18.327 32.8152 18.4145 32.8042 18.502 32.7932C20.3183 32.5623 22.069 32.0454 23.6883 31.2097C27.2115 29.3841 29.8265 26.6789 31.3911 22.9948C32.9776 19.2558 33.1636 15.4288 31.971 11.5359C31.9272 11.3709 31.9819 10.975 31.5771 11.173Z" fill="#000078"/>
<path d="M42.4858 14.307C43.0766 14.5819 43.7003 14.6919 44.2692 14.6589C45.1227 14.6699 45.8667 14.5489 46.5451 14.142C47.3219 13.6692 47.7486 12.9983 47.7268 12.0636C47.6939 11.1508 47.2344 10.524 46.4357 10.1281C46.1184 9.97415 45.8011 9.87517 45.4619 9.79819C44.6522 9.61124 43.8097 9.51227 43.0438 9.13837C42.5843 8.91842 42.2122 8.59951 42.2232 8.01666C42.2341 7.41182 42.5733 7.03792 43.1094 6.81798C43.8535 6.52106 44.5975 6.52106 45.3415 6.83998C45.812 7.04892 46.2278 7.38983 46.2715 7.90669C46.3262 8.53353 46.6873 8.48954 47.125 8.48954C47.4204 8.48954 47.4423 8.36857 47.4095 8.12663C47.3 7.18089 46.8405 6.44408 45.9761 6.07018C44.6631 5.49833 43.3283 5.56431 42.1138 6.33411C40.7242 7.21388 40.8664 9.21535 42.3435 9.96315C42.8687 10.2271 43.4268 10.37 43.9957 10.491C44.6522 10.645 45.3196 10.7329 45.9214 11.0519C46.8843 11.5687 46.9499 12.6794 46.0636 13.3283C45.1774 13.9661 43.5909 13.9441 42.7156 13.2843C42.3873 13.0313 42.0809 12.7124 42.0591 12.3055C42.0153 11.6237 41.6105 11.6677 41.14 11.6787C40.8993 11.6897 40.8883 11.7777 40.9102 11.9756C41.0306 13.0313 41.4901 13.8561 42.4858 14.307Z" fill="#000078"/>
<path d="M71.9511 5.96037C71.6448 5.98236 71.3603 5.89439 71.3822 6.41125C71.4259 7.70891 71.4041 9.00656 71.3931 10.3152C71.3822 11.129 71.2728 11.9208 70.857 12.6356C70.2771 13.6143 69.2924 13.9992 68.1216 13.7133C67.1916 13.4934 66.7321 12.8665 66.6555 11.6679C66.6445 11.4699 66.6445 11.261 66.6445 11.063C66.6445 9.49043 66.6445 7.91785 66.6445 6.33427C66.6445 6.12532 66.6774 5.88339 66.3601 5.97137C66.1084 6.03735 65.627 5.71843 65.627 6.2133C65.616 8.28075 65.4957 10.3592 65.6817 12.4157C65.7911 13.6253 66.5351 14.3731 67.7277 14.5931C69.2267 14.857 70.5069 14.4941 71.4697 12.9875C71.4697 13.4494 71.5025 13.7353 71.4588 14.0212C71.3931 14.5051 71.6995 14.4281 71.9949 14.4501C72.345 14.4831 72.4544 14.3731 72.4435 14.0102C72.4216 11.4809 72.4216 8.95158 72.4435 6.42225C72.4435 6.00436 72.3013 5.93837 71.9511 5.96037Z" fill="#000078"/>
<path d="M33.1746 1.42949C31.9601 2.84811 30.7456 4.25574 29.553 5.67436C29.3451 5.92729 29.2138 5.94929 28.9621 5.72935C28.4588 5.28946 27.9227 4.87157 27.3866 4.45368C26.4784 3.73887 26.4784 3.73887 25.8329 4.69562C25.7235 4.84958 25.7016 4.95955 25.8329 5.11351C26.9817 6.53213 28.1087 7.95076 29.2794 9.40237C29.3998 9.24841 29.4983 9.11645 29.5858 8.98448C30.9425 6.99401 32.2993 5.01454 33.656 3.02406C34.3453 2.01233 34.3453 2.01233 33.5247 1.0116C33.4044 1.16556 33.284 1.29752 33.1746 1.42949Z" fill="#000078"/>
<path d="M61.4582 14.6372C62.9135 14.4393 63.931 13.4385 64.2811 11.833C64.314 11.69 64.4234 11.503 64.2483 11.3931C63.942 11.1951 63.3292 11.4591 63.2417 11.8C62.9791 12.7347 62.443 13.4495 61.4692 13.7025C60.5173 13.9444 59.6748 13.7025 58.9745 12.9876C57.6178 11.602 57.6068 8.80875 58.9526 7.41212C60.0468 6.27942 62.4211 6.19145 63.0448 8.08295C63.2198 8.6328 63.5262 8.65479 63.9638 8.6328C64.2593 8.6218 64.2921 8.53383 64.2374 8.2699C64.0733 7.42312 63.6903 6.70831 62.9353 6.26843C61.6771 5.53162 60.3532 5.47664 59.073 6.12546C57.4318 6.95025 56.9285 8.45685 56.8847 10.1834C56.8628 11.0852 57.0598 11.9319 57.4865 12.7237C58.2414 14.1423 59.7733 14.8682 61.4582 14.6372Z" fill="#000078"/>
<path d="M42.803 22.5439C43.2953 22.6539 43.7986 22.7089 44.3238 22.6319C45.604 22.4449 45.604 22.4559 45.604 21.1583C45.604 19.8716 45.604 19.8716 44.3348 19.8716C44.2472 19.8716 44.1488 19.8826 44.0612 19.8716C43.7439 19.8386 43.6455 19.9816 43.6673 20.2895C43.6783 20.5644 43.6564 20.8284 44.0503 20.7734C44.4551 20.7184 44.5208 20.9163 44.5317 21.2792C44.5427 21.6751 44.3457 21.7411 44.0393 21.7301C43.8533 21.7191 43.6783 21.7301 43.4923 21.7081C42.7482 21.5982 42.2559 21.0263 42.234 20.2895C42.2231 19.5197 42.6717 18.9918 43.4376 18.8379C43.9299 18.7389 44.4223 18.7829 44.8928 18.9259C45.3523 19.0578 45.221 18.6729 45.3195 18.486C45.4399 18.255 45.4289 18.0681 45.1225 18.0021C44.1925 17.7932 43.2844 17.7712 42.3981 18.1781C41.4462 18.6069 40.932 19.5307 41.0414 20.5754C41.1399 21.5542 41.8073 22.324 42.803 22.5439Z" fill="#000078"/>
<path d="M78.352 6.14726C78.4395 5.86134 78.2425 5.85034 78.0018 5.85034C76.6889 5.90533 75.8135 6.58715 75.168 7.87381C75.168 7.26897 75.1352 6.81809 75.1789 6.3782C75.2336 5.87234 74.9163 5.9933 74.6428 5.97131C74.3145 5.93832 74.1723 6.0043 74.1723 6.4002C74.1942 8.92953 74.2051 11.4589 74.1723 13.9772C74.1614 14.4501 74.3583 14.4501 74.7084 14.4501C75.0804 14.4501 75.2993 14.4391 75.2774 13.9442C75.2336 12.6795 75.2665 11.4149 75.2665 10.1502C75.2665 8.19272 76.1308 7.19199 78.0675 6.90606C78.6474 6.82908 78.2644 6.4002 78.352 6.14726Z" fill="#000078"/>
<path d="M65.0579 19.9487C64.7297 19.8058 64.3795 19.6958 64.0404 19.5528C63.8544 19.4759 63.6574 19.3549 63.6902 19.113C63.7231 18.86 63.9528 18.783 64.1717 18.7391C64.5218 18.6731 64.8719 18.7391 65.1892 18.86C65.419 18.948 65.4956 18.915 65.5722 18.6841C65.791 18.0682 65.7582 17.9803 65.1126 17.8703C64.8938 17.8373 64.675 17.8373 64.4561 17.8263V17.8373C64.3467 17.8373 64.2373 17.8373 64.1279 17.8373C63.2635 17.8703 62.6398 18.3542 62.5304 19.058C62.421 19.7618 62.804 20.2786 63.7012 20.5976C63.9528 20.6855 64.2154 20.7735 64.4671 20.8835C64.6421 20.9605 64.7734 21.0924 64.7516 21.3124C64.7297 21.5543 64.5765 21.6643 64.3577 21.7083C63.92 21.7962 63.4823 21.7523 63.0666 21.5873C62.8587 21.5103 62.6289 21.3784 62.607 21.7523C62.5961 22.0052 62.2131 22.3241 62.7602 22.5001C63.4714 22.731 64.1826 22.786 64.9047 22.544C65.5394 22.3351 65.9114 21.8622 65.9332 21.2684C65.9661 20.6196 65.6269 20.1907 65.0579 19.9487Z" fill="#000078"/>
<path d="M76.2401 20.696C76.2073 20.0911 76.1088 19.5083 75.4742 19.2334C74.8615 18.9694 74.3035 19.1124 73.7892 19.6073C73.6032 19.1674 73.5266 19.1454 73.1218 19.1784C72.7279 19.2114 72.903 19.4973 72.892 19.6733C72.8702 20.498 72.903 21.3228 72.8702 22.1476C72.8592 22.5215 72.9905 22.6095 73.3406 22.6095C73.7017 22.6095 73.8658 22.5325 73.844 22.1256C73.8111 21.6527 73.8221 21.1689 73.844 20.696C73.8549 20.2011 74.1831 19.8492 74.588 19.8492C74.9928 19.8382 75.2663 20.1461 75.2882 20.663C75.3101 21.1799 75.3211 21.6857 75.2882 22.2026C75.2663 22.5985 75.4742 22.6095 75.7587 22.5985C76.0104 22.5875 76.2839 22.6535 76.2511 22.2356C76.2292 21.7187 76.262 21.2128 76.2401 20.696Z" fill="#000078"/>
<path d="M48.3174 25.9198C47.7375 25.9308 47.1576 25.9198 46.5667 25.9198C46.4136 25.9198 46.2494 25.9528 46.2385 26.1397C46.2385 26.3597 46.4245 26.3817 46.5996 26.3817C46.9169 26.3817 47.2342 26.3817 47.6062 26.3817C47.0591 27.1515 45.8555 27.2065 45.3413 26.5576C45.0678 26.2057 45.1115 25.7878 45.5054 25.5019C45.9978 25.139 46.5667 25.073 47.1029 25.3479C47.4858 25.5349 47.8469 25.5459 48.2517 25.5019C48.2408 25.4469 48.2517 25.3919 48.2298 25.3809C48.1423 25.3149 48.0657 25.238 47.9673 25.194C46.9606 24.6661 45.9321 24.6441 44.9365 25.194C44.083 25.6669 44.083 26.5796 44.9365 27.0415C45.9321 27.5804 46.9606 27.5584 47.9673 27.0305C48.2627 26.8765 48.4924 26.6346 48.569 26.2827C48.6019 26.0957 48.6019 25.9088 48.3174 25.9198Z" fill="#000078"/>
<path d="M51.9502 25.128C51.9173 25.007 51.8845 24.875 51.7313 24.842C51.5563 24.8091 51.4687 24.93 51.3921 25.051C51.1405 25.4469 50.8779 25.8318 50.5825 26.2937C50.298 25.8428 50.0463 25.4469 49.7837 25.062C49.6087 24.8091 49.3899 24.6661 49.2476 25.073C49.0069 25.7438 48.81 26.4256 48.6021 27.1074C48.5364 27.3164 48.613 27.3934 48.8318 27.4154C49.182 27.4483 49.3789 27.3494 49.4446 26.9865C49.4993 26.7115 49.554 26.4256 49.729 26.1507C49.8932 26.4146 50.0354 26.6456 50.1886 26.8765C50.484 27.3494 50.6919 27.3384 51.0092 26.8545C51.1624 26.6236 51.2499 26.3486 51.5125 26.1617C51.611 26.5246 51.6985 26.8325 51.797 27.1514C51.9173 27.5473 52.2456 27.4154 52.4863 27.3824C52.8145 27.3274 52.5738 27.0854 52.5301 26.9535C52.3441 26.3376 52.1471 25.7328 51.9502 25.128Z" fill="#000078"/>
<path d="M61.699 20.1136C61.699 19.3988 61.6771 18.6839 61.7099 17.9691C61.7209 17.5952 61.513 17.6062 61.2613 17.6062C60.9987 17.6062 60.758 17.5732 60.769 17.9801C60.7909 19.3878 60.7909 20.8064 60.769 22.214C60.758 22.6099 60.9659 22.5989 61.2504 22.5989C61.5458 22.6099 61.7318 22.5769 61.7099 22.192C61.6771 21.4992 61.699 20.8064 61.699 20.1136Z" fill="#000078"/>
<path d="M46.9498 17.6063C46.6872 17.6173 46.4575 17.5733 46.4684 17.9912C46.5012 18.684 46.4793 19.3768 46.4793 20.0696C46.4793 20.7954 46.4903 21.5322 46.4684 22.258C46.4575 22.6429 46.6982 22.588 46.9279 22.599C47.1796 22.61 47.3766 22.621 47.3766 22.2471C47.3547 20.8174 47.3547 19.3988 47.3766 17.9692C47.3875 17.6173 47.2124 17.5953 46.9498 17.6063Z" fill="#000078"/>
<path d="M36.709 37.4999C36.7273 37.4999 36.7421 28.3076 36.7421 16.9683C36.7421 5.62906 36.7273 -3.56323 36.709 -3.56323C36.6906 -3.56323 36.6758 5.62906 36.6758 16.9683C36.6758 28.3076 36.6906 37.4999 36.709 37.4999Z" fill="#000078"/>
<path d="M67.1588 19.1788C66.8415 19.1788 66.7102 19.2448 66.7102 19.5967C66.7321 20.4325 66.7321 21.2793 66.7102 22.1151C66.6993 22.5 66.8087 22.6099 67.1916 22.6099C67.5636 22.6099 67.6512 22.478 67.6293 22.1371C67.6074 21.7192 67.6184 21.3013 67.6184 20.8834C67.6184 20.4655 67.5965 20.0476 67.6293 19.6297C67.6731 19.2228 67.4871 19.1788 67.1588 19.1788Z" fill="#000078"/>
<path d="M67.1698 17.6943C66.8743 17.6943 66.6555 17.8593 66.6555 18.2002C66.6555 18.5301 66.8634 18.6731 67.1698 18.717C67.4761 18.695 67.7059 18.5521 67.7168 18.2332C67.7278 17.8703 67.498 17.6833 67.1698 17.6943Z" fill="#000078"/>
<path d="M43.7552 26.1401C43.3613 25.9971 43.5363 26.525 43.2956 26.7339C43.2628 26.6239 43.2409 26.5579 43.219 26.492C43.1424 26.338 43.1753 26.0081 42.8908 26.1071C42.6391 26.206 42.9127 26.404 42.9236 26.5689C42.9455 26.8439 43.2518 27.0968 43.0549 27.3827C42.9783 27.4927 42.847 27.5587 42.9892 27.6686C43.1534 27.8006 43.3284 27.7126 43.405 27.5697C43.5254 27.3277 43.6129 27.0638 43.6676 26.7999C43.7114 26.5799 43.963 26.217 43.7552 26.1401Z" fill="#000078"/>
<path d="M86 9.38015C85.814 9.14921 85.8468 8.84129 85.7702 8.57736C85.3544 6.9388 84.129 5.8171 82.63 5.74012C80.7481 5.64114 79.4132 6.45493 78.8114 8.10449C78.2972 9.51212 78.3081 10.9417 78.8005 12.3494C79.1397 13.3061 79.7414 14.0649 80.7152 14.3948C82.5425 15.0217 85.0699 14.7907 85.8249 12.0524C85.8468 11.9645 85.8796 11.8765 85.9124 11.7885C85.989 11.5246 85.803 11.4806 85.617 11.4366C85.0918 11.3266 84.7855 11.4916 84.5666 12.0414C84.1837 12.9982 83.5053 13.548 82.4659 13.603C81.131 13.669 80.1135 12.8552 79.7852 11.4476C79.6211 10.7438 79.6977 10.6338 80.4089 10.6228C81.9954 10.6228 83.571 10.6228 85.1575 10.6228C85.4091 10.6228 85.6717 10.6668 85.9015 10.5019C85.9124 10.4909 85.9124 10.4799 85.9124 10.4689C85.9015 10.4689 85.9015 10.4689 85.8905 10.4689C85.9343 10.2159 85.7811 9.93001 86 9.71006C86 9.60009 86 9.49012 86 9.38015ZM84.5776 9.60009C83.8007 9.60009 83.0129 9.60009 82.2361 9.60009C81.4374 9.60009 80.6386 9.60009 79.8399 9.60009C79.6758 9.60009 79.5007 9.63308 79.5445 9.35816C79.8509 7.41167 81.2842 6.20199 83.0348 6.74085C84.0305 7.04877 84.8839 8.26945 84.9168 9.33616C84.9168 9.64408 84.7526 9.60009 84.5776 9.60009Z" fill="#000078"/>
<path d="M52.7708 14.6588C54.3682 14.6149 55.6703 13.5371 55.9985 11.9756C56.0204 11.8656 56.1079 11.7336 55.9329 11.6456C55.5937 11.4807 55.0357 11.7006 54.8934 12.0635C54.5871 12.8223 54.1275 13.4492 53.296 13.6691C51.0311 14.2849 49.7619 12.5584 49.6525 10.7879C49.6306 10.458 49.8275 10.491 50.0354 10.491C50.9873 10.491 51.9283 10.491 52.8802 10.491C53.8321 10.491 54.7731 10.469 55.725 10.5019C56.086 10.5129 56.1517 10.381 56.1298 10.0621C56.0751 9.32526 55.9876 8.59945 55.6922 7.92863C55.1341 6.65297 54.2151 5.86118 52.8036 5.74021C51.2609 5.60824 50.0135 6.12511 49.2257 7.54373C48.6677 8.55546 48.5036 9.65517 48.6021 10.7769C48.8319 13.4382 50.2214 14.7248 52.7708 14.6588ZM49.6743 9.36925C49.9369 7.75268 51.0311 6.45502 52.6942 6.63097C53.9306 6.76294 55.1232 8.17057 55.0466 9.39124C55.0247 9.68816 54.8497 9.60019 54.7184 9.60019C53.9196 9.61119 53.1209 9.60019 52.3222 9.60019C51.5453 9.60019 50.7575 9.60019 49.9807 9.60019C49.8166 9.60019 49.6306 9.64418 49.6743 9.36925Z" fill="#000078"/>
<path d="M71.8416 19.2118C71.6228 19.1678 71.3383 19.0688 71.1851 19.2998C71.0757 19.4647 71.0648 19.4757 70.8897 19.3878C70.0582 18.9259 69.2376 19.0908 68.7124 19.7947C68.2309 20.4435 68.2638 21.5102 68.789 22.082C69.3579 22.6979 70.1566 22.7419 70.9991 22.181C71.0648 22.6209 70.9772 22.9618 70.6381 23.1818C70.2004 23.4677 69.7299 23.3907 69.2704 23.2367C69.0844 23.1818 68.8874 22.9838 68.778 23.3687C68.6905 23.6766 68.7014 23.8526 69.0406 23.9406C69.4126 24.0395 69.7956 24.0945 70.1785 24.0725C71.2946 24.0065 71.8197 23.5557 71.9073 22.434C71.9839 21.5102 71.951 20.5644 71.951 19.6407C71.951 19.4867 72.0714 19.2558 71.8416 19.2118ZM70.2004 21.8951C69.6971 21.9061 69.2813 21.4332 69.2704 20.8724C69.2704 20.2675 69.6752 19.8056 70.2114 19.8056C70.7584 19.8166 71.0101 20.1576 70.9991 20.8724C71.0101 21.5322 70.7256 21.8951 70.2004 21.8951Z" fill="#000078"/>
<path d="M52.7818 22.5879C53.0663 22.6099 53.4273 22.7199 53.4164 22.203C54.2479 22.8408 55.1342 22.8408 55.7688 22.214C56.3815 21.6092 56.4581 20.3665 55.922 19.6847C55.3968 19.0028 54.5324 18.9479 53.5039 19.5417C53.5039 19.0358 53.482 18.541 53.5149 18.0571C53.5367 17.6832 53.4054 17.6062 53.0553 17.5952C52.6833 17.5952 52.6067 17.7272 52.6067 18.0681C52.6177 19.3987 52.6067 20.7404 52.6177 22.071C52.6177 22.258 52.3988 22.5549 52.7818 22.5879ZM54.4339 19.8276C54.981 19.8386 55.353 20.2785 55.353 20.9053C55.3421 21.5322 54.9701 21.9501 54.4011 21.9501C53.8322 21.9501 53.493 21.5432 53.5039 20.8833C53.5149 20.2235 53.8759 19.8166 54.4339 19.8276Z" fill="#000078"/>
<path d="M49.9478 22.687C51.0857 22.687 51.8516 21.9722 51.8625 20.8945C51.8734 19.8167 51.1513 19.1129 50.0353 19.1019C48.9083 19.0909 48.1424 19.8057 48.1315 20.8945C48.1205 21.9722 48.8427 22.687 49.9478 22.687ZM49.9696 19.7838C50.5386 19.7728 50.8997 20.2016 50.8997 20.8945C50.8997 21.5763 50.5277 22.0272 49.9696 22.0162C49.4444 22.0162 49.0287 21.4993 49.0396 20.8725C49.0506 20.2566 49.4335 19.7947 49.9696 19.7838Z" fill="#000078"/>
<path d="M59.8389 21.4221C59.8389 21.4221 59.828 21.4221 59.8389 21.4221C59.8389 21.0922 59.8499 20.7623 59.828 20.4324C59.7842 19.7285 59.4231 19.2997 58.8214 19.1677C58.3071 19.0577 57.8147 19.1127 57.3224 19.2777C57.1254 19.3436 56.9613 19.4096 57.0598 19.6955C57.1473 19.9595 57.2677 19.9815 57.5084 19.8935C57.8476 19.7615 58.2086 19.6736 58.5697 19.8275C58.7448 19.9045 58.9089 20.0255 58.8761 20.2344C58.8432 20.4324 58.6463 20.3664 58.515 20.3664C58.132 20.3774 57.76 20.4544 57.4099 20.6303C56.8956 20.8942 56.6768 21.3671 56.7972 21.906C56.8956 22.3678 57.3552 22.6758 57.9132 22.6758C58.2086 22.6758 58.4931 22.5988 58.7338 22.4338C58.8542 22.3569 58.9198 22.2359 59.0621 22.4558C59.2262 22.7088 59.5435 22.6098 59.7623 22.5438C59.9702 22.4888 59.8389 22.2249 59.8499 22.0599C59.8389 21.851 59.8389 21.631 59.8389 21.4221ZM58.1649 22.0269C57.9132 22.0159 57.6397 21.895 57.6834 21.5651C57.7491 21.0042 58.2415 21.0482 58.6354 20.9602C58.8651 20.9052 58.9636 20.9932 58.9636 21.2461C58.9417 21.664 58.6244 22.0159 58.1649 22.0269Z" fill="#000078"/>
<path d="M56.4361 25.3372C55.5936 24.6224 53.7992 24.6334 52.9676 25.3592C52.4315 25.821 52.4424 26.4589 52.9895 26.8988C53.4819 27.2837 54.0618 27.4046 54.587 27.4266C55.2872 27.4266 55.8671 27.3056 56.3704 26.9427C57.005 26.4919 57.016 25.821 56.4361 25.3372ZM54.6964 27.0197C54.018 27.0087 53.449 26.6128 53.4381 26.129C53.4272 25.6341 54.0071 25.2052 54.7073 25.1942C55.3966 25.1942 55.9984 25.6231 55.9984 26.107C55.9984 26.6018 55.3747 27.0307 54.6964 27.0197Z" fill="#000078"/>
<path d="M42.1246 26.0629C41.9604 26.0849 41.8839 26.0629 41.8839 25.8869C41.8839 25.755 41.8839 25.601 41.6979 25.612C41.479 25.634 41.5556 25.8319 41.5447 25.9639C41.5337 26.1069 41.5447 26.2608 41.5447 26.4478C41.5994 26.7007 41.3915 27.0966 41.665 27.2726C41.862 27.3935 42.234 27.4375 42.4856 27.2286C42.7045 27.0526 42.7592 26.8107 42.6935 26.5358C42.6279 26.2168 42.4528 26.0299 42.1246 26.0629ZM42.1574 26.9976C41.9495 27.0086 41.8839 26.8657 41.8839 26.6787C41.8839 26.5248 41.9276 26.3708 42.1027 26.3488C42.3106 26.3378 42.3762 26.4918 42.3872 26.6567C42.3762 26.8327 42.3543 26.9866 42.1574 26.9976Z" fill="#000078"/>
<path d="M20.5481 12.0636C20.4496 10.0621 18.874 8.36859 17.0468 8.26962C15.0007 8.15965 13.3595 9.52329 13.0094 11.6347C12.8453 12.6355 12.9875 13.6472 12.9219 14.6479C12.9 15.0548 13.0641 15.1318 13.4252 15.1208C14.5302 15.0988 15.6463 15.1098 16.7514 15.1098C17.8783 15.1098 19.0053 15.0988 20.1323 15.1208C20.4605 15.1208 20.5809 15.0438 20.5699 14.6919C20.5481 13.8232 20.5918 12.9434 20.5481 12.0636Z" fill="#000078"/>
<path d="M23.5897 3.508C21.3467 2.29832 18.9615 1.66049 16.0292 1.66049C15.3727 1.64949 14.3442 1.74847 13.3266 1.97941C5.39407 3.76093 0.448524 11.085 1.73962 19.1569C3.04165 27.2947 11.0618 32.9142 19.1256 31.3416C27.9335 29.6261 33.1963 20.8394 30.636 12.1957C30.4938 11.7118 30.2859 11.6458 29.8373 11.7118C27.6928 12.0197 25.9093 11.3049 24.5745 9.60039C23.3053 7.98382 23.0645 6.1473 23.8195 4.22281C23.9727 3.85991 23.9508 3.70595 23.5897 3.508ZM23.4256 15.7038C23.4256 18.3761 23.4256 21.0594 23.4256 23.7316C23.4256 24.5894 23.3053 24.7104 22.4299 24.7104C20.5152 24.7104 18.6004 24.7104 16.6857 24.7104C14.7381 24.7104 12.7796 24.7104 10.832 24.7104C10.088 24.7104 9.93478 24.5564 9.93478 23.8086C9.93478 21.0594 9.93478 18.3101 9.93478 15.5608C9.93478 14.835 10.1098 14.6481 10.8429 14.67C11.2478 14.681 11.3572 14.5711 11.3681 14.1532C11.3791 13.1305 11.2478 12.0967 11.4885 11.085C12.0902 8.54467 14.563 6.74115 17.1014 6.98308C19.8368 7.23601 21.9157 9.41344 22.0032 12.1297C22.0251 12.8225 22.036 13.5264 22.0251 14.2192C22.0142 14.5381 22.0908 14.67 22.4409 14.67C23.3162 14.67 23.4256 14.802 23.4256 15.7038Z" fill="#000078"/>
<path d="M15.7996 17.309C15.165 17.8038 14.9352 18.7386 15.4714 19.2884C16.0075 19.8273 15.8762 20.3772 15.8324 20.971C15.8106 21.2459 15.7668 21.5099 15.7449 21.7848C15.6683 22.7855 15.6683 22.7855 16.6749 22.7855C16.8391 22.7855 17.0032 22.7635 17.1673 22.7855C17.6159 22.8515 17.78 22.6975 17.6816 22.2137C17.5721 21.6088 17.5721 20.982 17.4737 20.3662C17.419 19.9923 17.4737 19.7393 17.7582 19.4644C18.3162 18.9255 18.2833 18.0458 17.7691 17.4849C17.2439 16.9241 16.4014 16.8471 15.7996 17.309Z" fill="#000078"/>
</g>
<defs>
<clipPath id="clip0">
<rect width="86" height="36" fill="white"/>
</clipPath>
</defs>
</svg>
