<svg width="32" height="32" viewBox="0 0 32 32" fill="none" xmlns="http://www.w3.org/2000/svg">
<path d="M0 16C0 7.16344 7.16344 0 16 0C24.8366 0 32 7.16344 32 16C32 24.8366 24.8366 32 16 32C7.16344 32 0 24.8366 0 16Z" fill="#000078"/>
<path d="M23.7083 9.33464H19.3333V9.1263C19.3333 8.32214 18.6792 7.66797 17.875 7.66797H17.6667H14.3333H14.125C13.3208 7.66797 12.6667 8.32214 12.6667 9.1263V9.33464H8.29167C7.0275 9.33464 6 10.3621 6 11.6263V22.043C6 23.3071 7.0275 24.3346 8.29167 24.3346H23.7083C24.9725 24.3346 26 23.3071 26 22.043V11.6263C26 10.3621 24.9725 9.33464 23.7083 9.33464ZM17.6675 11.0013H14.3333V9.33464H17.6667L17.6675 11.0013ZM12.25 13.5013C13.3983 13.5013 14.3333 14.4363 14.3333 15.5846C14.3333 16.733 13.3983 17.668 12.25 17.668C11.1017 17.668 10.1667 16.733 10.1667 15.5846C10.1667 14.4363 11.1017 13.5013 12.25 13.5013ZM16 21.2096C16 21.5546 15.72 21.8346 15.375 21.8346H9.125C8.78 21.8346 8.5 21.5546 8.5 21.2096V20.793C8.5 19.5288 9.5275 18.5013 10.7917 18.5013H13.7083C14.9725 18.5013 16 19.5288 16 20.793V21.2096ZM22.875 21.8346H18.2917C17.9467 21.8346 17.6667 21.5546 17.6667 21.2096C17.6667 20.8646 17.9467 20.5846 18.2917 20.5846H22.875C23.22 20.5846 23.5 20.8646 23.5 21.2096C23.5 21.5546 23.22 21.8346 22.875 21.8346ZM22.875 18.5013H18.2917C17.9467 18.5013 17.6667 18.2213 17.6667 17.8763C17.6667 17.5313 17.9467 17.2513 18.2917 17.2513H22.875C23.22 17.2513 23.5 17.5313 23.5 17.8763C23.5 18.2213 23.22 18.5013 22.875 18.5013ZM22.875 15.168H18.2917C17.9467 15.168 17.6667 14.888 17.6667 14.543C17.6667 14.198 17.9467 13.918 18.2917 13.918H22.875C23.22 13.918 23.5 14.198 23.5 14.543C23.5 14.888 23.22 15.168 22.875 15.168Z" fill="white"/>
</svg>
