<svg width="32" height="32" viewBox="0 0 32 32" fill="none" xmlns="http://www.w3.org/2000/svg">
<path d="M0 16C0 7.16344 7.16344 0 16 0C24.8366 0 32 7.16344 32 16C32 24.8366 24.8366 32 16 32C7.16344 32 0 24.8366 0 16Z" fill="#000078"/>
<path d="M9.75101 16C9.75101 12.9883 11.9097 10.5198 14.751 9.93581V11L18.501 8.50003L14.751 6V7.35652C10.5184 7.9662 7.25098 11.6017 7.25098 16C7.25098 18.6484 8.43851 21.021 10.3037 22.627L12.4926 21.1676C10.8397 20.0417 9.75101 18.1462 9.75101 16Z" fill="white"/>
<path d="M21.6964 9.37305L19.5075 10.8324C21.1604 11.9583 22.2491 13.8538 22.2491 16C22.2491 19.0154 20.0948 21.5173 17.249 22.1006V20.9999L13.499 23.4999L17.249 25.9999V24.6484C21.4822 24.0386 24.7491 20.3986 24.7491 15.9999C24.7492 13.3516 23.5616 10.979 21.6964 9.37305Z" fill="white"/>
</svg>
