<svg width="32" height="32" viewBox="0 0 32 32" fill="none" xmlns="http://www.w3.org/2000/svg">
<path d="M0 16C0 7.16344 7.16344 0 16 0C24.8366 0 32 7.16344 32 16C32 24.8366 24.8366 32 16 32C7.16344 32 0 24.8366 0 16Z" fill="#000078"/>
<path d="M17.8063 8.05471H16.7235L16.5871 7.70349C16.4238 7.28273 15.9866 7 15.4986 7C15.0107 7 14.5735 7.28273 14.4101 7.70349L14.2738 8.05471H13.191C12.5537 8.05471 12.0371 8.52691 12.0371 9.10942V9.63678C12.0371 9.92802 12.2954 10.1641 12.614 10.1641H18.3833C18.7019 10.1641 18.9602 9.92802 18.9602 9.63678V9.10942C18.9602 8.52691 18.4436 8.05471 17.8063 8.05471Z" fill="white"/>
<path fill-rule="evenodd" clip-rule="evenodd" d="M20.1154 9.10938H21.2692C22.2236 9.10938 23 9.81906 23 10.6914V23.348C23 24.2204 22.2236 25.0004 21.2692 25.0004H9.73077C8.77638 25.0004 8 24.2204 8 23.348V10.6914C8 9.81906 8.77638 9.10938 9.73077 9.10938H10.8846V9.63673C10.8846 10.5091 11.661 11.2188 12.6154 11.2188H18.3846C19.339 11.2188 20.1154 10.5091 20.1154 9.63673V9.10938ZM11.321 15.0586C10.9786 15.0586 10.701 15.3362 10.701 15.6786C10.701 16.021 10.9786 16.2986 11.321 16.2986H19.6811C20.0235 16.2986 20.301 16.021 20.301 15.6786C20.301 15.3362 20.0235 15.0586 19.6811 15.0586H11.321ZM10.701 18.161C10.701 17.8186 10.9786 17.541 11.321 17.541H19.6811C20.0235 17.541 20.301 17.8186 20.301 18.161C20.301 18.5034 20.0235 18.781 19.6811 18.781H11.321C10.9786 18.781 10.701 18.5034 10.701 18.161ZM11.321 20.0195C10.9786 20.0195 10.701 20.2971 10.701 20.6395C10.701 20.9819 10.9786 21.2595 11.321 21.2595H19.6811C20.0235 21.2595 20.301 20.9819 20.301 20.6395C20.301 20.2971 20.0235 20.0195 19.6811 20.0195H11.321Z" fill="white"/>
</svg>
