<svg width="32" height="32" viewBox="0 0 32 32" fill="none" xmlns="http://www.w3.org/2000/svg">
<path d="M0 16C0 7.16344 7.16344 0 16 0C24.8366 0 32 7.16344 32 16C32 24.8366 24.8366 32 16 32C7.16344 32 0 24.8366 0 16Z" fill="#000078"/>
<path d="M24.1578 8.49466H20.6134V7H19.3322V8.49466H12.6703V7H11.3892V8.49466H7.84467C7.48168 8.49466 7.2041 8.77224 7.2041 9.13523V24.3594C7.2041 24.7224 7.48168 25 7.84467 25H24.1578C24.5208 25 24.7984 24.7224 24.7984 24.3594V9.13523C24.7984 8.79359 24.5208 8.49466 24.1578 8.49466ZM11.5813 21.7117C10.8767 21.7117 10.3215 21.1566 10.3215 20.452C10.3215 19.7473 10.8767 19.1922 11.5813 19.1922C12.286 19.1922 12.8411 19.7473 12.8411 20.452C12.8411 21.1566 12.286 21.7117 11.5813 21.7117ZM11.5813 17.9537C10.8767 17.9537 10.3215 17.3986 10.3215 16.694C10.3215 15.9893 10.8767 15.4342 11.5813 15.4342C12.286 15.4342 12.8411 15.9893 12.8411 16.694C12.8411 17.3986 12.286 17.9537 11.5813 17.9537ZM16.0013 21.7117C15.2966 21.7117 14.7415 21.1566 14.7415 20.452C14.7415 19.7473 15.2966 19.1922 16.0013 19.1922C16.7059 19.1922 17.261 19.7473 17.261 20.452C17.261 21.1352 16.7059 21.7117 16.0013 21.7117ZM16.0013 17.9537C15.2966 17.9537 14.7415 17.3986 14.7415 16.694C14.7415 15.9893 15.2966 15.4342 16.0013 15.4342C16.7059 15.4342 17.261 15.9893 17.261 16.694C17.261 17.3772 16.7059 17.9537 16.0013 17.9537ZM20.4212 21.7117C19.7166 21.7117 19.1614 21.1566 19.1614 20.452C19.1614 19.7473 19.7166 19.1922 20.4212 19.1922C21.1258 19.1922 21.681 19.7473 21.681 20.452C21.681 21.1566 21.1258 21.7117 20.4212 21.7117ZM20.4212 17.9537C19.7166 17.9537 19.1614 17.3986 19.1614 16.694C19.1614 15.9893 19.7166 15.4342 20.4212 15.4342C21.1258 15.4342 21.681 15.9893 21.681 16.694C21.681 17.3986 21.1258 17.9537 20.4212 17.9537ZM23.5173 12.0391V12.2954H8.48524V9.7758H11.3892V11.3132H12.6703V9.7758H19.3322V11.3132H20.6134V9.7758H23.5173V12.0391Z" fill="white"/>
</svg>
