<svg width="32" height="32" viewBox="0 0 32 32" fill="none" xmlns="http://www.w3.org/2000/svg">
<path d="M0 16C0 7.16344 7.16344 0 16 0C24.8366 0 32 7.16344 32 16C32 24.8366 24.8366 32 16 32C7.16344 32 0 24.8366 0 16Z" fill="#000078"/>
<path d="M24.3259 25.2156L22.8912 18.9987C22.7312 18.3589 22.1587 17.9122 21.4992 17.9122H18.7116C18.3172 17.2647 17.8031 16.6969 17.1952 16.2402V12.1734C17.1952 11.0921 16.0371 10.4309 15.1188 10.89L12.2494 12.3247C11.7602 12.5692 11.4612 13.0609 11.4612 13.6081V15.443C11.4523 15.4461 11.4433 15.4471 11.4345 15.4505C9.12394 16.353 7.63086 18.5394 7.63086 21.0206C7.63086 24.3169 10.3125 26.9985 13.6088 26.9985C16.9272 26.9985 19.7143 24.2507 19.576 20.7815H20.3792L21.542 25.912C21.7336 26.6769 22.5037 27.1515 23.2822 26.9558C24.0492 26.7641 24.5174 25.9834 24.3259 25.2156ZM13.6087 25.5638C11.1036 25.5638 9.0655 23.5258 9.0655 21.0207C9.0655 19.3205 9.9929 17.8098 11.4612 17.0247V18.8686C11.4612 19.6598 12.1 20.3033 12.8911 20.3033C13.6822 20.3033 14.3258 19.6598 14.3258 18.8686V16.5205C14.3613 16.5331 14.397 16.5452 14.4353 16.5522C16.5887 16.9478 18.1519 18.8271 18.1519 21.0207C18.1518 23.5258 16.1138 25.5638 13.6087 25.5638Z" fill="white"/>
<path d="M15.9997 5.80078C14.813 5.80078 13.8477 6.76612 13.8477 7.95283C13.8477 9.13954 14.813 10.1049 15.9997 10.1049C17.1864 10.1049 18.1518 9.13954 18.1518 7.95283C18.1518 6.76612 17.1864 5.80078 15.9997 5.80078Z" fill="white"/>
</svg>
