<svg width="32" height="32" viewBox="0 0 32 32" fill="none" xmlns="http://www.w3.org/2000/svg">
<path d="M0 16C0 7.16344 7.16344 0 16 0C24.8366 0 32 7.16344 32 16C32 24.8366 24.8366 32 16 32C7.16344 32 0 24.8366 0 16Z" fill="#000078"/>
<path d="M15.9994 7C12.4048 7 9.48047 9.92437 9.48047 13.5189C9.48047 17.9798 15.3143 24.5287 15.5626 24.8053C15.7959 25.0651 16.2033 25.0647 16.4361 24.8053C16.6845 24.5287 22.5183 17.9798 22.5183 13.5189C22.5182 9.92437 19.5939 7 15.9994 7ZM15.9994 16.7987C14.1909 16.7987 12.7196 15.3274 12.7196 13.5189C12.7196 11.7104 14.1909 10.2391 15.9994 10.2391C17.8079 10.2391 19.2791 11.7104 19.2791 13.5189C19.2791 15.3274 17.8079 16.7987 15.9994 16.7987Z" fill="white"/>
</svg>
