<svg width="32" height="32" viewBox="0 0 32 32" fill="none" xmlns="http://www.w3.org/2000/svg">
<path d="M0 16C0 7.16344 7.16344 0 16 0C24.8366 0 32 7.16344 32 16C32 24.8366 24.8366 32 16 32C7.16344 32 0 24.8366 0 16Z" fill="#000078"/>
<path d="M16.0001 14.1505C18.1127 14.1505 19.8253 12.4379 19.8253 10.3252C19.8253 8.21262 18.1127 6.5 16.0001 6.5C13.8874 6.5 12.1748 8.21262 12.1748 10.3252C12.1748 12.4379 13.8874 14.1505 16.0001 14.1505Z" fill="white"/>
<path d="M17.6221 14.9102H14.3765C11.6766 14.9102 9.47949 17.1071 9.47949 19.8074V23.7775L9.48949 23.8395L9.76321 23.925C12.34 24.73 14.5792 24.9991 16.4221 24.9991C20.0212 24.9991 22.1077 23.9724 22.237 23.9073L22.4925 23.7775H22.5194V19.8074C22.5196 17.1071 20.3229 14.9102 17.6221 14.9102ZM16.7554 22.6146L16.0551 23.6395C16.0455 23.6535 16.0304 23.6618 16.0138 23.6618C16.0133 23.6618 16.0129 23.6618 16.0124 23.6618C15.996 23.6618 15.9802 23.6531 15.9711 23.6387L15.3206 22.6131C15.315 22.6044 15.3123 22.594 15.3128 22.5829L15.6383 17.6054C15.6401 17.579 15.6616 17.559 15.6883 17.559H16.3635C16.3899 17.559 16.4117 17.579 16.4139 17.6054L16.7636 22.5824C16.7649 22.5942 16.7616 22.6051 16.7554 22.6146ZM16.4386 17.4083H15.6358L14.938 15.9659C14.938 15.8275 15.05 15.716 15.1884 15.716H16.8643C17.0022 15.716 17.1142 15.8275 17.1142 15.9659L16.4386 17.4083Z" fill="white"/>
</svg>
