<svg xmlns="http://www.w3.org/2000/svg" xmlns:xlink="http://www.w3.org/1999/xlink"><defs>
<clipPath id="clip0">
<rect width="16" height="16" fill="white"/>
</clipPath>

<clipPath id="clip0">
<rect width="16" height="16" fill="white"/>
</clipPath>

<linearGradient id="paint0_linear" x1="29.4892" y1="11.7585" x2="6.83624" y2="34.4572" gradientUnits="userSpaceOnUse">
<stop stop-color="#00A0FF"/>
<stop offset="0.01" stop-color="#00A1FF"/>
<stop offset="0.26" stop-color="#00BEFF"/>
<stop offset="0.51" stop-color="#00D2FF"/>
<stop offset="0.76" stop-color="#00DFFF"/>
<stop offset="1" stop-color="#00E3FF"/>
</linearGradient>
<linearGradient id="paint1_linear" x1="45.7626" y1="26.9999" x2="13.0401" y2="26.9999" gradientUnits="userSpaceOnUse">
<stop stop-color="#FFE000"/>
<stop offset="0.41" stop-color="#FFBD00"/>
<stop offset="0.78" stop-color="#FFA500"/>
<stop offset="1" stop-color="#FF9C00"/>
</linearGradient>
<linearGradient id="paint2_linear" x1="33.5881" y1="30.1049" x2="2.86209" y2="60.8794" gradientUnits="userSpaceOnUse">
<stop stop-color="#FF3A44"/>
<stop offset="1" stop-color="#C31162"/>
</linearGradient>
<linearGradient id="paint3_linear" x1="9.87461" y1="0.242956" x2="23.5906" y2="13.9866" gradientUnits="userSpaceOnUse">
<stop stop-color="#32A071"/>
<stop offset="0.07" stop-color="#2DA771"/>
<stop offset="0.48" stop-color="#15CF74"/>
<stop offset="0.8" stop-color="#06E775"/>
<stop offset="1" stop-color="#00F076"/>
</linearGradient>

<clipPath id="clip0">
<rect width="16" height="16" fill="white" transform="translate(10 10)"/>
</clipPath>

<clipPath id="clip0">
<rect width="32" height="32" fill="white"/>
</clipPath>

<clipPath id="clip0">
<rect width="32" height="32" fill="white"/>
</clipPath>

<clipPath id="clip0">
<rect width="86" height="36" fill="white"/>
</clipPath>

<clipPath id="clip0">
<rect width="16" height="16" fill="white" transform="translate(10 10)"/>
</clipPath>
</defs><symbol id="a++-icon" viewBox="0 0 149 35">
<path d="M1.08008 28V17.9785H4.86035C5.52572 17.9785 6.03385 18.0104 6.38477 18.0742C6.87695 18.1562 7.28939 18.3135 7.62207 18.5459C7.95475 18.7738 8.22135 19.0951 8.42188 19.5098C8.62695 19.9245 8.72949 20.3802 8.72949 20.877C8.72949 21.7292 8.45833 22.4515 7.91602 23.0439C7.3737 23.6318 6.39388 23.9258 4.97656 23.9258H2.40625V28H1.08008ZM2.40625 22.7432H4.99707C5.85384 22.7432 6.46224 22.5837 6.82227 22.2646C7.18229 21.9456 7.3623 21.4967 7.3623 20.918C7.3623 20.4987 7.25521 20.141 7.04102 19.8447C6.83138 19.5439 6.55339 19.3457 6.20703 19.25C5.98372 19.1908 5.57129 19.1611 4.96973 19.1611H2.40625V22.7432ZM14.6152 25.6621L15.8867 25.8193C15.6862 26.5622 15.3148 27.1387 14.7725 27.5488C14.2301 27.959 13.5374 28.1641 12.6943 28.1641C11.6325 28.1641 10.7894 27.8382 10.165 27.1865C9.54525 26.5303 9.23535 25.612 9.23535 24.4316C9.23535 23.2103 9.5498 22.2624 10.1787 21.5879C10.8076 20.9134 11.6234 20.5762 12.626 20.5762C13.5967 20.5762 14.3896 20.9066 15.0049 21.5674C15.6201 22.2282 15.9277 23.1579 15.9277 24.3564C15.9277 24.4294 15.9255 24.5387 15.9209 24.6846H10.5068C10.5524 25.4821 10.778 26.0928 11.1836 26.5166C11.5892 26.9404 12.0951 27.1523 12.7012 27.1523C13.1523 27.1523 13.5374 27.0339 13.8564 26.7969C14.1755 26.5599 14.4284 26.1816 14.6152 25.6621ZM10.5752 23.6729H14.6289C14.5742 23.0622 14.4193 22.6042 14.1641 22.2988C13.7721 21.8249 13.264 21.5879 12.6396 21.5879C12.0745 21.5879 11.5983 21.777 11.2109 22.1553C10.8281 22.5335 10.6162 23.0394 10.5752 23.6729ZM17.4385 20.7402H18.6689V26.2773L22.0801 20.7402H23.4062V28H22.1758V22.4971L18.7646 28H17.4385V20.7402ZM21.7109 17.9922H22.5518C22.4834 18.5618 22.2738 18.9993 21.9229 19.3047C21.5765 19.61 21.1139 19.7627 20.5352 19.7627C19.9518 19.7627 19.4847 19.6123 19.1338 19.3115C18.7874 19.0062 18.5801 18.5664 18.5117 17.9922H19.3525C19.4163 18.3021 19.5417 18.5345 19.7285 18.6895C19.9199 18.8398 20.1751 18.915 20.4941 18.915C20.8633 18.915 21.1413 18.8421 21.3281 18.6963C21.5195 18.5459 21.6471 18.3112 21.7109 17.9922ZM24.5957 20.7402H30.4951V21.7588H28.1572V28H26.9336V21.7588H24.5957V20.7402ZM31.6709 20.7402H32.9014V26.2773L36.3125 20.7402H37.6387V28H36.4082V22.4971L32.9971 28H31.6709V20.7402ZM39.498 20.7402H40.7285V23.7617H44.1396V20.7402H45.3701V28H44.1396V24.7803H40.7285V28H39.498V20.7402ZM47.2363 20.7402H51.4131V21.7588H48.4668V28H47.2363V20.7402ZM57.6406 24.3906L59.4111 27.5078H58.4131L56.2324 24.3906L58.4131 21.2734H59.4248L57.6406 24.3906ZM60.2861 24.3906L62.0908 27.5078H61.0518L58.9121 24.3906L61.0518 21.2734H62.0908L60.2861 24.3906ZM67.3135 22.2373V23.4199H71.0391C70.9889 24.5456 70.6768 25.4342 70.1025 26.0859C69.5283 26.7331 68.7923 27.0566 67.8945 27.0566C66.2995 27.0566 65.2992 26.209 64.8936 24.5137L63.6152 24.8486C64.194 27.0635 65.5885 28.1709 67.7988 28.1709C69.3802 28.1709 70.556 27.6628 71.3262 26.6465C72.1009 25.6257 72.4632 24.3701 72.4131 22.8799C72.4131 21.9684 72.2399 21.1367 71.8936 20.3848C71.5518 19.6328 71.0254 19.0153 70.3145 18.5322C69.6035 18.0492 68.7559 17.8076 67.7715 17.8076C66.7324 17.8076 65.862 18.0651 65.1602 18.5801C64.4629 19.0951 63.9912 19.8105 63.7451 20.7266L65.0439 21.0684C65.4222 19.6693 66.3337 18.9697 67.7783 18.9697C68.7536 18.9697 69.5169 19.2637 70.0684 19.8516C70.6243 20.4395 70.9297 21.2347 70.9844 22.2373H67.3135ZM74.0879 20.7402H75.3184V23.8779C75.7103 23.8779 75.9837 23.8027 76.1387 23.6523C76.2982 23.502 76.5306 23.0645 76.8359 22.3398C77.0775 21.7656 77.2734 21.3874 77.4238 21.2051C77.5742 21.0228 77.7474 20.8997 77.9434 20.8359C78.1393 20.7721 78.4538 20.7402 78.8867 20.7402H79.1328V21.7588L78.791 21.752C78.4674 21.752 78.2601 21.7998 78.1689 21.8955C78.0732 21.9958 77.9274 22.2943 77.7314 22.791C77.5446 23.265 77.3737 23.5931 77.2188 23.7754C77.0638 23.9577 76.8245 24.124 76.501 24.2744C77.0296 24.4157 77.5492 24.9079 78.0596 25.751L79.4062 28H78.0527L76.7402 25.751C76.4714 25.2998 76.2367 25.0036 76.0361 24.8623C75.8356 24.7165 75.5964 24.6436 75.3184 24.6436V28H74.0879V20.7402ZM85.1211 25.3408L86.3311 25.498C86.1989 26.332 85.8594 26.986 85.3125 27.46C84.7702 27.9294 84.1025 28.1641 83.3096 28.1641C82.3161 28.1641 81.5163 27.8405 80.9102 27.1934C80.3086 26.5417 80.0078 25.6097 80.0078 24.3975C80.0078 23.6136 80.1377 22.9277 80.3975 22.3398C80.6572 21.752 81.0514 21.3122 81.5801 21.0205C82.1133 20.7243 82.6921 20.5762 83.3164 20.5762C84.1048 20.5762 84.7497 20.7767 85.251 21.1777C85.7523 21.5742 86.0736 22.1393 86.2148 22.873L85.0186 23.0576C84.9046 22.57 84.7018 22.2031 84.4102 21.957C84.123 21.7109 83.7744 21.5879 83.3643 21.5879C82.7445 21.5879 82.2409 21.8112 81.8535 22.2578C81.4661 22.6999 81.2725 23.4017 81.2725 24.3633C81.2725 25.3385 81.4593 26.0472 81.833 26.4893C82.2067 26.9313 82.6943 27.1523 83.2959 27.1523C83.779 27.1523 84.1823 27.0042 84.5059 26.708C84.8294 26.4118 85.0345 25.9561 85.1211 25.3408ZM87.3906 20.7402H93.1191V28H91.8887V21.7588H88.6211V28H87.3906V20.7402ZM99.9414 25.6621L101.213 25.8193C101.012 26.5622 100.641 27.1387 100.099 27.5488C99.5563 27.959 98.8636 28.1641 98.0205 28.1641C96.9587 28.1641 96.1156 27.8382 95.4912 27.1865C94.8714 26.5303 94.5615 25.612 94.5615 24.4316C94.5615 23.2103 94.876 22.2624 95.5049 21.5879C96.1338 20.9134 96.9495 20.5762 97.9521 20.5762C98.9229 20.5762 99.7158 20.9066 100.331 21.5674C100.946 22.2282 101.254 23.1579 101.254 24.3564C101.254 24.4294 101.252 24.5387 101.247 24.6846H95.833C95.8786 25.4821 96.1042 26.0928 96.5098 26.5166C96.9154 26.9404 97.4212 27.1523 98.0273 27.1523C98.4785 27.1523 98.8636 27.0339 99.1826 26.7969C99.5016 26.5599 99.7546 26.1816 99.9414 25.6621ZM95.9014 23.6729H99.9551C99.9004 23.0622 99.7454 22.6042 99.4902 22.2988C99.0983 21.8249 98.5902 21.5879 97.9658 21.5879C97.4007 21.5879 96.9245 21.777 96.5371 22.1553C96.1543 22.5335 95.9424 23.0394 95.9014 23.6729ZM102.765 30.7822V20.7402H103.886V21.6836C104.15 21.3145 104.449 21.0387 104.781 20.8564C105.114 20.6696 105.517 20.5762 105.991 20.5762C106.611 20.5762 107.158 20.7357 107.632 21.0547C108.106 21.3737 108.464 21.8249 108.705 22.4082C108.947 22.987 109.067 23.6227 109.067 24.3154C109.067 25.0583 108.933 25.7282 108.664 26.3252C108.4 26.9176 108.012 27.3734 107.502 27.6924C106.996 28.0068 106.463 28.1641 105.902 28.1641C105.492 28.1641 105.123 28.0775 104.795 27.9043C104.471 27.7311 104.205 27.5124 103.995 27.248V30.7822H102.765ZM103.879 24.4111C103.879 25.3454 104.068 26.0358 104.446 26.4824C104.825 26.929 105.283 27.1523 105.82 27.1523C106.367 27.1523 106.834 26.9222 107.222 26.4619C107.614 25.9971 107.81 25.2793 107.81 24.3086C107.81 23.3835 107.618 22.6908 107.235 22.2305C106.857 21.7702 106.404 21.54 105.875 21.54C105.351 21.54 104.886 21.7861 104.48 22.2783C104.079 22.766 103.879 23.4769 103.879 24.4111ZM109.58 20.7402H115.479V21.7588H113.142V28H111.918V21.7588H109.58V20.7402ZM120.709 28V17.9785H124.489C125.155 17.9785 125.663 18.0104 126.014 18.0742C126.506 18.1562 126.918 18.3135 127.251 18.5459C127.584 18.7738 127.85 19.0951 128.051 19.5098C128.256 19.9245 128.358 20.3802 128.358 20.877C128.358 21.7292 128.087 22.4515 127.545 23.0439C127.003 23.6318 126.023 23.9258 124.605 23.9258H122.035V28H120.709ZM122.035 22.7432H124.626C125.483 22.7432 126.091 22.5837 126.451 22.2646C126.811 21.9456 126.991 21.4967 126.991 20.918C126.991 20.4987 126.884 20.141 126.67 19.8447C126.46 19.5439 126.182 19.3457 125.836 19.25C125.613 19.1908 125.2 19.1611 124.599 19.1611H122.035V22.7432ZM128.003 28L131.852 17.9785H133.28L137.382 28H135.871L134.702 24.9648H130.512L129.411 28H128.003ZM130.895 23.8848H134.292L133.246 21.1094C132.927 20.2663 132.69 19.5736 132.535 19.0312C132.408 19.6738 132.228 20.3118 131.995 20.9453L130.895 23.8848ZM142.769 24.3906L140.984 21.2734H141.996L144.177 24.3906L141.996 27.5078H140.991L142.769 24.3906ZM140.123 24.3906L138.318 21.2734H139.351L141.497 24.3906L139.351 27.5078H138.318L140.123 24.3906Z" fill="#000078"/>
<path d="M10.0557 13H7.85449L6.97949 10.7236H2.97363L2.14648 13H0L3.90332 2.97852H6.04297L10.0557 13ZM6.33008 9.03516L4.94922 5.31641L3.5957 9.03516H6.33008ZM13.3232 11.5576V8.95312H10.6982V7.15527H13.3232V4.55078H15.0732V7.15527H17.7051V8.95312H15.0732V11.5576H13.3232ZM21.499 11.5576V8.95312H18.874V7.15527H21.499V4.55078H23.249V7.15527H25.8809V8.95312H23.249V11.5576H21.499Z" fill="#000078"/>
</symbol><symbol id="appstore-icon" viewBox="0 0 183 54">
<path d="M175.855 0H6.76364C3.02818 0 0 3.02208 0 6.75V47.25C0 50.9779 3.02818 54 6.76364 54H175.855C179.59 54 182.618 50.9779 182.618 47.25V6.75C182.618 3.02208 179.59 0 175.855 0Z" fill="black"/>
<path opacity="0.3" d="M175.855 1.08C177.361 1.08 178.806 1.67737 179.872 2.7407C180.937 3.80404 181.536 5.24622 181.536 6.75V47.25C181.536 48.7538 180.937 50.196 179.872 51.2593C178.806 52.3226 177.361 52.92 175.855 52.92H6.76364C5.25682 52.92 3.81172 52.3226 2.74624 51.2593C1.68076 50.196 1.08218 48.7538 1.08218 47.25V6.75C1.08218 5.24622 1.68076 3.80404 2.74624 2.7407C3.81172 1.67737 5.25682 1.08 6.76364 1.08H175.855ZM175.855 0H6.76364C4.96981 0 3.24945 0.711159 1.98102 1.97703C0.712595 3.2429 0 4.95979 0 6.75V47.25C0 49.0402 0.712595 50.7571 1.98102 52.023C3.24945 53.2888 4.96981 54 6.76364 54H175.855C177.648 54 179.369 53.2888 180.637 52.023C181.906 50.7571 182.618 49.0402 182.618 47.25V6.75C182.618 4.95979 181.906 3.2429 180.637 1.97703C179.369 0.711159 177.648 0 175.855 0Z" fill="#A6A6A6"/>
<path d="M43.44 26.0725C43.4026 21.9268 46.8413 19.9099 46.9986 19.816C45.0511 16.9823 42.0325 16.5951 40.9718 16.5643C38.4365 16.298 35.9773 18.0782 34.6859 18.0782C33.3686 18.0782 31.3799 16.59 29.2364 16.6337C26.4782 16.6762 23.8979 18.2699 22.4827 20.7447C19.5621 25.7908 21.7403 33.2063 24.5384 37.2851C25.9382 39.2827 27.5738 41.5131 29.7146 41.4346C31.8091 41.3485 32.5914 40.1021 35.1189 40.1021C37.6232 40.1021 38.3579 41.4346 40.5413 41.3845C42.7891 41.3485 44.2043 39.3779 45.555 37.3623C47.1726 35.0727 47.8222 32.8178 47.848 32.702C47.7951 32.684 43.4825 31.0414 43.44 26.0725Z" fill="white"/>
<path d="M39.3155 13.8811C40.442 12.4752 41.2127 10.5625 40.9988 8.62146C39.3683 8.69349 37.3293 9.74696 36.1551 11.122C35.1163 12.3337 34.1883 14.3197 34.428 16.1874C36.2595 16.3238 38.14 15.2651 39.3155 13.8811Z" fill="white"/>
<path d="M73.7504 41.1477H70.8234L69.22 36.1195H63.6468L62.1195 41.1477H59.2698L64.7914 24.0297H68.2018L73.7504 41.1477ZM68.7367 34.01L67.2867 29.5402C67.1333 29.0836 66.8459 28.0082 66.4218 26.3155H66.3703C66.2014 27.0435 65.9295 28.1188 65.5557 29.5402L64.1315 34.01H68.7367Z" fill="white"/>
<path d="M87.9497 34.8243C87.9497 36.9235 87.3813 38.5829 86.2445 39.801C85.2262 40.8853 83.9618 41.4268 82.4526 41.4268C80.8234 41.4268 79.6531 40.8429 78.9403 39.6749H78.8888V46.1771H76.1409V32.8679C76.1409 31.5481 76.1061 30.1937 76.0391 28.8045H78.4557L78.6091 30.7609H78.6607C79.5771 29.2868 80.9678 28.5511 82.8341 28.5511C84.2931 28.5511 85.5111 29.1261 86.4855 30.2773C87.4625 31.4298 87.9497 32.945 87.9497 34.8243ZM85.1502 34.9246C85.1502 33.7233 84.8795 32.7328 84.3356 31.9533C83.7415 31.1404 82.9436 30.7339 81.9435 30.7339C81.2655 30.7339 80.6494 30.9603 80.0991 31.4066C79.5474 31.8568 79.1865 32.4447 79.0177 33.1727C78.9326 33.5123 78.8901 33.7901 78.8901 34.0088V36.0669C78.8901 36.9647 79.1659 37.7223 79.7175 38.341C80.2692 38.9597 80.9858 39.2684 81.8674 39.2684C82.9024 39.2684 83.7079 38.8697 84.2841 38.0748C84.8615 37.2786 85.1502 36.2289 85.1502 34.9246Z" fill="white"/>
<path d="M102.175 34.8243C102.175 36.9235 101.607 38.5829 100.469 39.801C99.452 40.8853 98.1876 41.4268 96.6783 41.4268C95.0492 41.4268 93.8789 40.8429 93.1674 39.6749H93.1158V46.1771H90.3679V32.8679C90.3679 31.5481 90.3331 30.1937 90.2661 28.8045H92.6828L92.8362 30.7609H92.8877C93.8028 29.2868 95.1935 28.5511 97.0611 28.5511C98.5189 28.5511 99.7369 29.1261 100.714 30.2773C101.687 31.4298 102.175 32.945 102.175 34.8243ZM99.376 34.9246C99.376 33.7233 99.104 32.7328 98.5601 31.9533C97.9659 31.1404 97.1707 30.7339 96.1692 30.7339C95.49 30.7339 94.8752 30.9603 94.3235 31.4066C93.7719 31.8568 93.4123 32.4447 93.2434 33.1727C93.1597 33.5123 93.1158 33.7901 93.1158 34.0088V36.0669C93.1158 36.9647 93.3917 37.7223 93.9407 38.341C94.4924 38.9584 95.209 39.2684 96.0932 39.2684C97.1281 39.2684 97.9337 38.8697 98.5098 38.0748C99.0873 37.2786 99.376 36.2289 99.376 34.9246Z" fill="white"/>
<path d="M118.08 36.3473C118.08 37.8034 117.574 38.9881 116.557 39.9026C115.44 40.9021 113.884 41.4011 111.885 41.4011C110.039 41.4011 108.559 41.0461 107.439 40.3348L108.076 38.0491C109.283 38.7771 110.606 39.1424 112.049 39.1424C113.083 39.1424 113.889 38.9083 114.468 38.4427C115.044 37.977 115.331 37.3519 115.331 36.5724C115.331 35.8778 115.094 35.2926 114.619 34.8179C114.146 34.3433 113.355 33.9021 112.252 33.4943C109.249 32.3765 107.749 30.7391 107.749 28.5859C107.749 27.1787 108.275 26.0249 109.328 25.127C110.377 24.2279 111.777 23.779 113.527 23.779C115.088 23.779 116.384 24.0504 117.419 24.5919L116.732 26.8275C115.766 26.3027 114.673 26.0403 113.45 26.0403C112.483 26.0403 111.728 26.2783 111.186 26.7516C110.729 27.1748 110.499 27.6906 110.499 28.3016C110.499 28.9782 110.761 29.5377 111.287 29.9776C111.744 30.3841 112.576 30.824 113.782 31.2986C115.258 31.8916 116.342 32.5849 117.039 33.3798C117.734 34.1722 118.08 35.1639 118.08 36.3473Z" fill="white"/>
<path d="M127.166 30.8626H124.137V36.8554C124.137 38.3796 124.67 39.1411 125.74 39.1411C126.231 39.1411 126.638 39.0987 126.961 39.0138L127.037 41.0963C126.495 41.2982 125.783 41.3999 124.9 41.3999C123.814 41.3999 122.966 41.0693 122.354 40.4094C121.745 39.7483 121.438 38.6395 121.438 37.0818V30.86H119.633V28.8019H121.438V26.5419L124.137 25.729V28.8019H127.166V30.8626Z" fill="white"/>
<path d="M140.832 34.8746C140.832 36.7719 140.288 38.3296 139.203 39.5477C138.065 40.8018 136.554 41.427 134.671 41.427C132.856 41.427 131.411 40.8263 130.334 39.6249C129.256 38.4235 128.718 36.9069 128.718 35.0791C128.718 33.1664 129.272 31.5997 130.384 30.3816C131.494 29.1622 132.991 28.5525 134.875 28.5525C136.689 28.5525 138.15 29.1532 139.252 30.3559C140.306 31.5225 140.832 33.0288 140.832 34.8746ZM137.981 34.9634C137.981 33.825 137.737 32.8487 137.244 32.0345C136.667 31.0492 135.844 30.5578 134.777 30.5578C133.672 30.5578 132.833 31.0505 132.257 32.0345C131.763 32.85 131.52 33.8417 131.52 35.0148C131.52 36.1532 131.763 37.1295 132.257 37.9424C132.851 38.9277 133.681 39.4191 134.752 39.4191C135.801 39.4191 136.625 38.9174 137.219 37.9167C137.726 37.087 137.981 36.1004 137.981 34.9634Z" fill="white"/>
<path d="M149.764 31.2163C149.492 31.1661 149.202 31.1404 148.897 31.1404C147.931 31.1404 147.183 31.5044 146.657 32.2337C146.2 32.8769 145.97 33.6898 145.97 34.6712V41.1477H143.224L143.25 32.6916C143.25 31.269 143.215 29.9737 143.146 28.8058H145.54L145.64 31.1674H145.717C146.007 30.3558 146.464 29.7023 147.09 29.2122C147.703 28.771 148.364 28.5511 149.077 28.5511C149.331 28.5511 149.56 28.5691 149.764 28.6013V31.2163Z" fill="white"/>
<path d="M162.053 34.3922C162.053 34.8836 162.021 35.2978 161.953 35.636H153.709C153.741 36.8554 154.139 37.788 154.905 38.4311C155.6 39.0061 156.498 39.2942 157.601 39.2942C158.822 39.2942 159.936 39.1 160.937 38.7103L161.367 40.614C160.197 41.1234 158.815 41.3767 157.221 41.3767C155.303 41.3767 153.798 40.8134 152.702 39.6879C151.609 38.5624 151.062 37.051 151.062 35.155C151.062 33.2937 151.571 31.7437 152.59 30.5076C153.657 29.1879 155.1 28.528 156.914 28.528C158.697 28.528 160.046 29.1879 160.963 30.5076C161.688 31.5559 162.053 32.8525 162.053 34.3922ZM159.433 33.6809C159.451 32.868 159.272 32.1656 158.899 31.5727C158.424 30.8099 157.693 30.4291 156.709 30.4291C155.811 30.4291 155.08 30.8009 154.522 31.5469C154.065 32.1399 153.793 32.8512 153.709 33.6796H159.433V33.6809Z" fill="white"/>
<path d="M69.1211 19.8466H67.6918V17.7188H61.9803V19.8466H60.5271L60.4795 16.5181H61.1763C61.5217 16.1853 61.7977 15.7019 62.0041 15.0679C62.2106 14.4299 62.3436 13.7088 62.4032 12.9044L62.6295 9.06482H68.0968V16.5181H69.1986L69.1211 19.8466ZM62.8796 16.5181H66.5959V10.2773H64.0648L63.9219 12.7142C63.8147 14.3428 63.4672 15.6107 62.8796 16.5181Z" fill="white"/>
<path d="M70.5291 14.4438C70.5291 13.8138 70.6541 13.2472 70.9043 12.7439C71.1544 12.2367 71.5058 11.8484 71.9584 11.579C72.411 11.3056 72.9312 11.1689 73.5188 11.1689C74.3883 11.1689 75.0931 11.4482 75.633 12.0069C76.177 12.5656 76.4708 13.3066 76.5145 14.2298L76.5204 14.5686C76.5204 15.2026 76.3974 15.7692 76.1512 16.2685C75.909 16.7678 75.5596 17.1541 75.103 17.4275C74.6504 17.7009 74.1263 17.8376 73.5307 17.8376C72.6215 17.8376 71.8929 17.5365 71.345 16.9342C70.801 16.3279 70.5291 15.5216 70.5291 14.5151V14.4438ZM71.9763 14.5686C71.9763 15.2304 72.1133 15.7494 72.3872 16.1259C72.6612 16.4983 73.0423 16.6846 73.5307 16.6846C74.0191 16.6846 74.3982 16.4944 74.6682 16.114C74.9422 15.7336 75.0792 15.1769 75.0792 14.4438C75.0792 13.794 74.9382 13.2789 74.6563 12.8985C74.3784 12.5181 73.9992 12.3279 73.5188 12.3279C73.0463 12.3279 72.6711 12.5161 72.3932 12.8925C72.1152 13.265 71.9763 13.8237 71.9763 14.5686Z" fill="white"/>
<path d="M81.0015 16.6846C81.3628 16.6846 81.6625 16.5796 81.9008 16.3696C82.139 16.1595 82.2661 15.9 82.2819 15.5909H83.6458C83.6299 15.9911 83.5048 16.3656 83.2706 16.7143C83.0363 17.059 82.7187 17.3324 82.3177 17.5345C81.9167 17.7366 81.4839 17.8376 81.0193 17.8376C80.118 17.8376 79.4034 17.5464 78.8753 16.9639C78.3472 16.3814 78.0832 15.5771 78.0832 14.5508V14.4022C78.0832 13.4235 78.3452 12.6409 78.8693 12.0545C79.3934 11.4641 80.1081 11.1689 81.0134 11.1689C81.7797 11.1689 82.403 11.3927 82.8835 11.8405C83.3678 12.2843 83.622 12.8687 83.6458 13.5939H82.2819C82.2661 13.2254 82.139 12.9222 81.9008 12.6845C81.6665 12.4468 81.3667 12.3279 81.0015 12.3279C80.533 12.3279 80.1716 12.4983 79.9175 12.839C79.6634 13.1758 79.5344 13.689 79.5304 14.3784V14.6102C79.5304 15.3076 79.6555 15.8287 79.9056 16.1734C80.1597 16.5142 80.525 16.6846 81.0015 16.6846Z" fill="white"/>
<path d="M90.4197 12.4349H88.3293V17.7188H86.8821V12.4349H84.8155V11.2877H90.4197V12.4349Z" fill="white"/>
<path d="M94.3231 15.6504L95.6333 11.2877H97.1758L94.6149 18.6935C94.2218 19.7753 93.5548 20.3161 92.6138 20.3161C92.4034 20.3161 92.1711 20.2805 91.917 20.2091V19.0917L92.1909 19.1096C92.5562 19.1096 92.8302 19.0422 93.0128 18.9075C93.1994 18.7767 93.3463 18.5548 93.4535 18.2418L93.662 17.689L91.3988 11.2877H92.9592L94.3231 15.6504Z" fill="white"/>
<path d="M104.087 17.7188H102.64V12.4527H100.126V17.7188H98.679V11.2877H104.087V17.7188Z" fill="white"/>
<path d="M111.694 17.7188H110.247V15.1214H107.74V17.7188H106.293V11.2877H107.74V13.9683H110.247V11.2877H111.694V17.7188Z" fill="white"/>
<path d="M113.579 14.4438C113.579 13.8138 113.704 13.2472 113.954 12.7439C114.204 12.2367 114.556 11.8484 115.008 11.579C115.461 11.3056 115.981 11.1689 116.569 11.1689C117.438 11.1689 118.143 11.4482 118.683 12.0069C119.227 12.5656 119.521 13.3066 119.564 14.2298L119.57 14.5686C119.57 15.2026 119.447 15.7692 119.201 16.2685C118.959 16.7678 118.609 17.1541 118.153 17.4275C117.7 17.7009 117.176 17.8376 116.581 17.8376C115.671 17.8376 114.943 17.5365 114.395 16.9342C113.851 16.3279 113.579 15.5216 113.579 14.5151V14.4438ZM115.026 14.5686C115.026 15.2304 115.163 15.7494 115.437 16.1259C115.711 16.4983 116.092 16.6846 116.581 16.6846C117.069 16.6846 117.448 16.4944 117.718 16.114C117.992 15.7336 118.129 15.1769 118.129 14.4438C118.129 13.794 117.988 13.2789 117.706 12.8985C117.428 12.5181 117.049 12.3279 116.569 12.3279C116.096 12.3279 115.721 12.5161 115.443 12.8925C115.165 13.265 115.026 13.8237 115.026 14.5686Z" fill="white"/>
<path d="M125.161 17.7188V11.2877H127.776C128.657 11.2877 129.328 11.4423 129.789 11.7513C130.25 12.0565 130.48 12.4963 130.48 13.0708C130.48 13.368 130.387 13.6355 130.2 13.8732C130.017 14.107 129.745 14.2873 129.384 14.4141C129.805 14.5013 130.138 14.6776 130.385 14.9431C130.631 15.2086 130.754 15.5216 130.754 15.8822C130.754 16.4805 130.531 16.9362 130.087 17.2492C129.646 17.5622 129.011 17.7188 128.181 17.7188H125.161ZM126.609 14.9787V16.5776H128.193C128.935 16.5776 129.307 16.3121 129.307 15.7811C129.307 15.2462 128.929 14.9787 128.175 14.9787H126.609ZM126.609 13.9445H127.8C128.622 13.9445 129.033 13.7028 129.033 13.2194C129.033 12.7122 128.643 12.4507 127.865 12.4349H126.609V13.9445Z" fill="white"/>
</symbol><symbol id="arrow_down-icon" viewBox="0 0 24 24">
<path d="M16 10L12 14L8 10" stroke="#000078" stroke-width="2" stroke-linecap="square"/>
</symbol><symbol id="arrow_left-hover-icon" viewBox="0 -1 48 50">
<path d="M0 24C0 10.7452 10.7452 0 24 0C37.2548 0 48 10.7452 48 24C48 37.2548 37.2548 48 24 48C10.7452 48 0 37.2548 0 24Z" fill="white"/>
<path d="M24.3333 20.3334L20.3333 24.3334L24.3333 28.3334" stroke="#2d80fc" stroke-width="2" stroke-linecap="square"/>
<path d="M24 47C11.2975 47 1 36.7025 1 24H-1C-1 37.8071 10.1929 49 24 49V47ZM47 24C47 36.7025 36.7025 47 24 47V49C37.8071 49 49 37.8071 49 24H47ZM24 1C36.7025 1 47 11.2975 47 24H49C49 10.1929 37.8071 -1 24 -1V1ZM24 -1C10.1929 -1 -1 10.1929 -1 24H1C1 11.2975 11.2975 1 24 1V-1Z" fill="#2d80fc"/>
</symbol><symbol id="arrow_left-icon" viewBox="0 -1 48 50">
<path d="M0 24C0 10.7452 10.7452 0 24 0C37.2548 0 48 10.7452 48 24C48 37.2548 37.2548 48 24 48C10.7452 48 0 37.2548 0 24Z" fill="white"/>
<path d="M24.3333 20.3334L20.3333 24.3334L24.3333 28.3334" stroke="#000078" stroke-width="2" stroke-linecap="square"/>
<path d="M24 47C11.2975 47 1 36.7025 1 24H-1C-1 37.8071 10.1929 49 24 49V47ZM47 24C47 36.7025 36.7025 47 24 47V49C37.8071 49 49 37.8071 49 24H47ZM24 1C36.7025 1 47 11.2975 47 24H49C49 10.1929 37.8071 -1 24 -1V1ZM24 -1C10.1929 -1 -1 10.1929 -1 24H1C1 11.2975 11.2975 1 24 1V-1Z" fill="#CCCCE4"/>
</symbol><symbol id="arrow_right-hover-icon" viewBox="0 -1 48 50">
<path d="M0 24C0 10.7452 10.7452 0 24 0C37.2548 0 48 10.7452 48 24C48 37.2548 37.2548 48 24 48C10.7452 48 0 37.2548 0 24Z" fill="white"/>
<path d="M23.3333 28.3334L27.3333 24.3334L23.3333 20.3334" stroke="#2d80fc" stroke-width="2" stroke-linecap="square"/>
<path d="M24 47C11.2975 47 1 36.7025 1 24H-1C-1 37.8071 10.1929 49 24 49V47ZM47 24C47 36.7025 36.7025 47 24 47V49C37.8071 49 49 37.8071 49 24H47ZM24 1C36.7025 1 47 11.2975 47 24H49C49 10.1929 37.8071 -1 24 -1V1ZM24 -1C10.1929 -1 -1 10.1929 -1 24H1C1 11.2975 11.2975 1 24 1V-1Z" fill="#2d80fc"/>
</symbol><symbol id="arrow_right-icon" viewBox="0 -1 48 50">
<path d="M0 24C0 10.7452 10.7452 0 24 0C37.2548 0 48 10.7452 48 24C48 37.2548 37.2548 48 24 48C10.7452 48 0 37.2548 0 24Z" fill="white"/>
<path d="M23.3333 28.3334L27.3333 24.3334L23.3333 20.3334" stroke="#000078" stroke-width="2" stroke-linecap="square"/>
<path d="M24 47C11.2975 47 1 36.7025 1 24H-1C-1 37.8071 10.1929 49 24 49V47ZM47 24C47 36.7025 36.7025 47 24 47V49C37.8071 49 49 37.8071 49 24H47ZM24 1C36.7025 1 47 11.2975 47 24H49C49 10.1929 37.8071 -1 24 -1V1ZM24 -1C10.1929 -1 -1 10.1929 -1 24H1C1 11.2975 11.2975 1 24 1V-1Z" fill="#CCCCE4"/>
</symbol><symbol id="arrow_up-hover-icon" viewBox="0 -1 48 50">
<path d="M0 24C0 10.7452 10.7452 0 24 0C37.2548 0 48 10.7452 48 24C48 37.2548 37.2548 48 24 48C10.7452 48 0 37.2548 0 24Z" fill="white"/>
<path d="M20.3334 25.3333L24.3334 21.3333L28.3334 25.3333" stroke="#2d80fc" stroke-width="2" stroke-linecap="square"/>
<path d="M24 47C11.2975 47 1 36.7025 1 24H-1C-1 37.8071 10.1929 49 24 49V47ZM47 24C47 36.7025 36.7025 47 24 47V49C37.8071 49 49 37.8071 49 24H47ZM24 1C36.7025 1 47 11.2975 47 24H49C49 10.1929 37.8071 -1 24 -1V1ZM24 -1C10.1929 -1 -1 10.1929 -1 24H1C1 11.2975 11.2975 1 24 1V-1Z" fill="#2d80fc"/>
</symbol><symbol id="arrow_up-icon" viewBox="0 -1 48 50">
<path d="M0 24C0 10.7452 10.7452 0 24 0C37.2548 0 48 10.7452 48 24C48 37.2548 37.2548 48 24 48C10.7452 48 0 37.2548 0 24Z" fill="white"/>
<path d="M20.3334 25.3333L24.3334 21.3333L28.3334 25.3333" stroke="#000078" stroke-width="2" stroke-linecap="square"/>
<path d="M24 47C11.2975 47 1 36.7025 1 24H-1C-1 37.8071 10.1929 49 24 49V47ZM47 24C47 36.7025 36.7025 47 24 47V49C37.8071 49 49 37.8071 49 24H47ZM24 1C36.7025 1 47 11.2975 47 24H49C49 10.1929 37.8071 -1 24 -1V1ZM24 -1C10.1929 -1 -1 10.1929 -1 24H1C1 11.2975 11.2975 1 24 1V-1Z" fill="#CCCCE4"/>
</symbol><symbol id="docs-hover-icon" viewBox="0 0 16 16">
<g clip-path="url(#clip0)">
<path d="M3.69693 1.93933V14.9675H12.7788V16.0004H2.26079V1.93933H3.69693Z" fill="#2d80fc"/>
<path d="M1.32324 1.93933H-0.026958V16.0004H1.32324V1.93933Z" fill="#2d80fc"/>
<path d="M12.5805 2.76312L12.5803 0.274963L15.0686 2.7633L12.5805 2.76312Z" fill="#2d80fc"/>
<path d="M4.6034 0H11.6418L11.6421 3.7011L15.3433 3.70141V14.061H4.6034V0Z" fill="#2d80fc"/>
</g>

</symbol><symbol id="docs-icon" viewBox="0 0 16 16">
<g clip-path="url(#clip0)">
<path d="M3.69693 1.93933V14.9675H12.7788V16.0004H2.26079V1.93933H3.69693Z" fill="#000078"/>
<path d="M1.32324 1.93933H-0.026958V16.0004H1.32324V1.93933Z" fill="#000078"/>
<path d="M12.5805 2.76312L12.5803 0.274963L15.0686 2.7633L12.5805 2.76312Z" fill="#000078"/>
<path d="M4.6034 0H11.6418L11.6421 3.7011L15.3433 3.70141V14.061H4.6034V0Z" fill="#000078"/>
</g>

</symbol><symbol id="eye-icon" viewBox="0 0 32 32">
<path d="M0 16C0 7.16344 7.16344 0 16 0C24.8366 0 32 7.16344 32 16C32 24.8366 24.8366 32 16 32C7.16344 32 0 24.8366 0 16Z" fill="white"/>
<path d="M15.7656 17.7688C14.7764 17.7688 13.9695 16.9244 13.9695 15.8842C13.9695 14.8468 14.7737 13.9997 15.7656 13.9997C16.7548 13.9997 17.5617 14.8441 17.5617 15.8842C17.5617 16.9217 16.7548 17.7688 15.7656 17.7688Z"/>
<path d="M15.7658 11.3747C13.3545 11.3747 11.3898 13.3962 11.3898 15.8846C11.3898 18.373 13.3545 20.3946 15.7658 20.3946C18.1771 20.3946 20.1418 18.373 20.1418 15.8846C20.1418 13.3962 18.1771 11.3747 15.7658 11.3747ZM25.764 16.323C23.1741 20.4798 19.6831 22.7693 15.9444 22.7693C12.2057 22.7693 8.7147 20.4798 6.12483 16.323C5.95839 16.0551 5.95839 15.7141 6.12483 15.4462C8.7147 11.2894 12.2057 8.99994 15.9444 8.99994C19.6831 8.99994 23.1701 11.2894 25.764 15.4462C25.9304 15.7141 25.9304 16.0551 25.764 16.323Z"/>
</symbol><symbol id="fb-icon" viewBox="0 0 36 36">
<path d="M0 18C0 8.05888 8.05888 0 18 0C27.9411 0 36 8.05888 36 18C36 27.9411 27.9411 36 18 36C8.05888 36 0 27.9411 0 18Z" fill="#000078"/>
<path d="M19 15.5V13.5C19 12.948 19.448 12.5 20 12.5H21V10H19C17.343 10 16 11.343 16 13V15.5H14V18H16V26H19V18H21L22 15.5H19Z" fill="white"/>
</symbol><symbol id="google_play-icon" viewBox="0 0 183 54">
<path d="M175.855 0H6.76364C3.02818 0 0 3.02208 0 6.75V47.25C0 50.9779 3.02818 54 6.76364 54H175.855C179.59 54 182.618 50.9779 182.618 47.25V6.75C182.618 3.02208 179.59 0 175.855 0Z" fill="black"/>
<path opacity="0.3" d="M175.855 1.08C177.361 1.08 178.806 1.67737 179.872 2.7407C180.937 3.80404 181.536 5.24622 181.536 6.75V47.25C181.536 48.7538 180.937 50.196 179.872 51.2593C178.806 52.3226 177.361 52.92 175.855 52.92H6.76364C5.25682 52.92 3.81172 52.3226 2.74624 51.2593C1.68076 50.196 1.08218 48.7538 1.08218 47.25V6.75C1.08218 5.24622 1.68076 3.80404 2.74624 2.7407C3.81172 1.67737 5.25682 1.08 6.76364 1.08H175.855ZM175.855 0H6.76364C4.96981 0 3.24945 0.711159 1.98102 1.97703C0.712595 3.2429 0 4.95979 0 6.75V47.25C0 49.0402 0.712595 50.7571 1.98102 52.023C3.24945 53.2888 4.96981 54 6.76364 54H175.855C177.648 54 179.369 53.2888 180.637 52.023C181.906 50.7571 182.618 49.0402 182.618 47.25V6.75C182.618 4.95979 181.906 3.2429 180.637 1.97703C179.369 0.711159 177.648 0 175.855 0Z" fill="#A6A6A6"/>
<path d="M92.1749 29.3624C91.039 29.3678 89.9302 29.7088 88.9883 30.3425C88.0464 30.9761 87.3138 31.8741 86.8828 32.9229C86.4518 33.9718 86.3418 35.1245 86.5667 36.2357C86.7916 37.3469 87.3412 38.3667 88.1463 39.1664C88.9514 39.9661 89.9758 40.5099 91.0903 40.7291C92.2048 40.9483 93.3593 40.8331 94.4083 40.3981C95.4572 39.963 96.3535 39.2276 96.984 38.2847C97.6146 37.3418 97.9511 36.2335 97.9511 35.0999C97.9621 34.3411 97.82 33.5879 97.5333 32.885C97.2466 32.1822 96.8211 31.5441 96.2822 31.0088C95.7432 30.4734 95.1018 30.0518 94.3962 29.7689C93.6906 29.4861 92.9352 29.3479 92.1749 29.3624ZM92.1749 38.5829C91.4764 38.6317 90.7792 38.4696 90.1742 38.1177C89.5692 37.7658 89.0842 37.2404 88.7823 36.6098C88.4804 35.9792 88.3756 35.2726 88.4815 34.5817C88.5874 33.8909 88.8991 33.2478 89.3761 32.7361C89.8531 32.2244 90.4732 31.8678 91.156 31.7125C91.8388 31.5572 92.5526 31.6105 93.2046 31.8654C93.8566 32.1204 94.4167 32.5652 94.8121 33.142C95.2074 33.7189 95.4198 34.4011 95.4215 35.0999C95.4433 35.5427 95.376 35.9854 95.2236 36.4019C95.0712 36.8184 94.8369 37.2001 94.5343 37.5248C94.2317 37.8494 93.8671 38.1103 93.4618 38.292C93.0566 38.4737 92.6191 38.5727 92.1749 38.5829ZM79.581 29.3624C78.4446 29.3651 77.3344 29.7039 76.3907 30.3359C75.4471 30.968 74.7123 31.865 74.2792 32.9136C73.8462 33.9622 73.7342 35.1154 73.9576 36.2275C74.1809 37.3396 74.7296 38.3606 75.5341 39.1617C76.3387 39.9628 77.3631 40.5079 78.4779 40.7282C79.5928 40.9484 80.748 40.834 81.7978 40.3994C82.8475 39.9647 83.7446 39.2293 84.3757 38.2861C85.0068 37.3429 85.3436 36.2341 85.3436 35.0999C85.3547 34.3411 85.2126 33.5879 84.9259 32.885C84.6392 32.1822 84.2137 31.5441 83.6747 31.0088C83.1358 30.4734 82.4944 30.0518 81.7888 29.7689C81.0832 29.4861 80.3278 29.3479 79.5675 29.3624H79.581ZM79.581 38.5829C78.8821 38.6344 78.1839 38.4748 77.5772 38.1247C76.9704 37.7746 76.4834 37.2503 76.1794 36.6202C75.8754 35.99 75.7686 35.2831 75.8728 34.5914C75.977 33.8998 76.2875 33.2555 76.7637 32.7424C77.24 32.2293 77.86 31.8712 78.543 31.7147C79.2261 31.5582 79.9405 31.6105 80.5934 31.8649C81.2462 32.1193 81.8071 32.5639 82.2032 33.1409C82.5993 33.7179 82.8122 34.4005 82.8141 35.0999C82.8358 35.5427 82.7686 35.9854 82.6162 36.4019C82.4638 36.8184 82.2294 37.2001 81.9269 37.5248C81.6243 37.8494 81.2596 38.1103 80.8544 38.292C80.4492 38.4737 80.0116 38.5727 79.5675 38.5829H79.581ZM64.5793 31.1309V33.5609H70.4231C70.3314 34.7055 69.8547 35.7855 69.0703 36.6254C68.4857 37.2197 67.7829 37.6853 67.007 37.9922C66.2312 38.2992 65.3996 38.4406 64.5658 38.4074C62.8437 38.4074 61.1921 37.7247 59.9745 36.5095C58.7568 35.2942 58.0727 33.646 58.0727 31.9274C58.0727 30.2088 58.7568 28.5606 59.9745 27.3454C61.1921 26.1301 62.8437 25.4474 64.5658 25.4474C66.2131 25.4206 67.8039 26.0469 68.9892 27.1889L70.7071 25.4744C69.907 24.6658 68.9523 24.0257 67.8997 23.5921C66.8471 23.1584 65.718 22.9401 64.5793 22.9499C63.3767 22.9032 62.1771 23.0993 61.0522 23.5263C59.9274 23.9534 58.9005 24.6027 58.0331 25.4353C57.1657 26.2679 56.4757 27.2667 56.0043 28.3718C55.533 29.4769 55.29 30.6656 55.29 31.8667C55.29 33.0677 55.533 34.2564 56.0043 35.3616C56.4757 36.4667 57.1657 37.4655 58.0331 38.2981C58.9005 39.1307 59.9274 39.78 61.0522 40.207C62.1771 40.6341 63.3767 40.8301 64.5793 40.7834C65.7372 40.8356 66.8928 40.6398 67.9685 40.209C69.0441 39.7782 70.0149 39.1225 70.8154 38.2859C72.2326 36.732 72.9893 34.6892 72.9256 32.5889C72.93 32.0773 72.8847 31.5664 72.7903 31.0634L64.5793 31.1309ZM125.871 33.0209C125.519 31.9851 124.859 31.0807 123.98 30.4274C123.1 29.7741 122.043 29.4027 120.947 29.3624C120.207 29.361 119.475 29.511 118.796 29.8032C118.116 30.0955 117.504 30.5237 116.997 31.0614C116.49 31.5992 116.098 32.235 115.847 32.9296C115.596 33.6243 115.49 34.3629 115.537 35.0999C115.52 35.8545 115.656 36.6046 115.937 37.3054C116.217 38.0063 116.636 38.6435 117.169 39.1791C117.702 39.7146 118.338 40.1375 119.038 40.4224C119.738 40.7073 120.489 40.8485 121.245 40.8374C122.191 40.8425 123.124 40.6133 123.96 40.1704C124.795 39.7275 125.508 39.0846 126.034 38.2994L124.072 36.9494C123.779 37.4365 123.365 37.8393 122.869 38.1186C122.374 38.3978 121.814 38.5439 121.245 38.5424C120.659 38.5647 120.08 38.4105 119.583 38.1C119.086 37.7894 118.694 37.3367 118.458 36.8009L126.155 33.6284L125.871 33.0209ZM118.026 34.9379C117.998 34.5204 118.054 34.1015 118.191 33.706C118.328 33.3104 118.543 32.9461 118.822 32.6343C119.102 32.3225 119.441 32.0695 119.82 31.8902C120.199 31.7109 120.61 31.6088 121.029 31.5899C121.465 31.5612 121.9 31.6611 122.28 31.8771C122.66 32.0931 122.968 32.4157 123.166 32.8049L118.026 34.9379ZM111.776 40.4999H114.306V23.6249H111.776V40.4999ZM107.637 30.6449H107.542C107.161 30.2195 106.694 29.8794 106.171 29.6467C105.649 29.4141 105.084 29.2942 104.512 29.2949C103.034 29.3665 101.639 30.0029 100.619 31.0723C99.5977 32.1417 99.0283 33.5621 99.0283 35.0392C99.0283 36.5162 99.5977 37.9366 100.619 39.006C101.639 40.0755 103.034 40.7119 104.512 40.7834C105.085 40.793 105.653 40.6772 106.177 40.4439C106.7 40.2107 107.166 39.8658 107.542 39.4334H107.623V40.2569C107.623 42.4574 106.446 43.6319 104.552 43.6319C103.922 43.6172 103.31 43.4155 102.794 43.0525C102.279 42.6894 101.883 42.1816 101.658 41.5934L99.4526 42.5114C99.8677 43.519 100.575 44.3799 101.484 44.9836C102.392 45.5874 103.461 45.9064 104.552 45.8999C107.515 45.8999 109.963 44.1584 109.963 39.9194V29.6999H107.637V30.6449ZM104.742 38.5829C103.869 38.5062 103.057 38.106 102.465 37.4613C101.874 36.8166 101.546 35.9741 101.546 35.0999C101.546 34.2257 101.874 33.3833 102.465 32.7385C103.057 32.0938 103.869 31.6937 104.742 31.6169C105.174 31.6391 105.598 31.7474 105.988 31.9356C106.378 32.1237 106.727 32.3879 107.013 32.7124C107.299 33.037 107.517 33.4155 107.654 33.8255C107.792 34.2355 107.846 34.6689 107.812 35.0999C107.849 35.5329 107.798 35.9688 107.661 36.3813C107.524 36.7938 107.305 37.1744 107.017 37.4999C106.729 37.8255 106.377 38.0894 105.984 38.2755C105.59 38.4617 105.163 38.5662 104.728 38.5829H104.742ZM137.721 23.6249H131.675V40.4999H134.204V34.1009H137.735C138.456 34.1526 139.18 34.0555 139.861 33.8157C140.543 33.5759 141.168 33.1985 141.697 32.707C142.226 32.2156 142.648 31.6206 142.937 30.9593C143.225 30.2979 143.374 29.5843 143.374 28.8629C143.374 28.1416 143.225 27.428 142.937 26.7666C142.648 26.1052 142.226 25.5103 141.697 25.0188C141.168 24.5274 140.543 24.15 139.861 23.9101C139.18 23.6703 138.456 23.5732 137.735 23.6249H137.721ZM137.721 31.7249H134.191V25.9739H137.775C138.545 25.9739 139.283 26.279 139.827 26.8221C140.371 27.3651 140.677 28.1017 140.677 28.8697C140.677 29.6377 140.371 30.3742 139.827 30.9173C139.283 31.4603 138.545 31.7654 137.775 31.7654L137.721 31.7249ZM153.318 29.2949C152.397 29.24 151.48 29.4548 150.68 29.9129C149.88 30.3709 149.231 31.0524 148.814 31.8734L151.059 32.8049C151.281 32.3977 151.616 32.0635 152.024 31.843C152.432 31.6225 152.896 31.5252 153.359 31.5629C153.68 31.5255 154.005 31.5523 154.316 31.6417C154.627 31.7311 154.916 31.8813 155.168 32.0836C155.42 32.286 155.629 32.5363 155.783 32.8201C155.937 33.1038 156.032 33.4154 156.064 33.7364V33.9119C155.252 33.4826 154.346 33.26 153.426 33.2639C151.005 33.2639 148.557 34.6139 148.557 37.0574C148.58 37.5784 148.709 38.0894 148.934 38.5601C149.159 39.0307 149.477 39.4515 149.868 39.7977C150.259 40.1438 150.715 40.4081 151.21 40.5751C151.705 40.7421 152.229 40.8084 152.75 40.7699C153.387 40.8156 154.025 40.6893 154.596 40.4042C155.167 40.1192 155.651 39.6859 155.997 39.1499H156.078V40.4999H158.513V34.0064C158.513 31.0499 156.267 29.3354 153.386 29.3354L153.318 29.2949ZM153.007 38.5424C152.182 38.5424 151.032 38.1239 151.032 37.1114C151.032 35.7614 152.466 35.3159 153.738 35.3159C154.541 35.2961 155.335 35.492 156.037 35.8829C155.953 36.6138 155.606 37.2896 155.062 37.7857C154.517 38.2819 153.812 38.565 153.075 38.5829L153.007 38.5424ZM167.387 29.6999L164.492 37.0169H164.411L161.408 29.6999H158.702L163.207 39.9329L160.636 45.6164H163.274L170.2 29.6999H167.387ZM144.647 40.4999H147.177V23.6249H144.647V40.4999Z" fill="white"/>
<path d="M56.9634 19.2645H55.9624V16.5645H56.8146C57.2032 16.1535 57.4967 15.6625 57.6743 15.126C57.852 14.5895 57.9094 14.0206 57.8427 13.4595V9.44998H63.2536V16.551H64.1599V19.251H63.1589V17.55H56.9634V19.2645ZM58.8437 13.5C58.9068 14.5889 58.638 15.6714 58.0727 16.605H62.1309V10.449H58.8437V13.5ZM72.2493 16.497C71.4584 17.2818 70.3885 17.7223 69.2733 17.7223C68.158 17.7223 67.0881 17.2818 66.2973 16.497C65.5286 15.685 65.1004 14.6103 65.1004 13.4932C65.1004 12.3762 65.5286 11.3015 66.2973 10.4895C66.687 10.0976 67.1507 9.78663 67.6614 9.57441C68.1722 9.36218 68.72 9.25292 69.2733 9.25292C69.8265 9.25292 70.3743 9.36218 70.8851 9.57441C71.3958 9.78663 71.8595 10.0976 72.2493 10.4895C73.021 11.2999 73.4513 12.3752 73.4513 13.4932C73.4513 14.6112 73.021 15.6865 72.2493 16.497ZM67.0683 15.822C67.6539 16.404 68.4468 16.7308 69.2733 16.7308C70.0997 16.7308 70.8926 16.404 71.4782 15.822C72.0561 15.1862 72.3763 14.3584 72.3763 13.5C72.3763 12.6415 72.0561 11.8138 71.4782 11.178C70.8926 10.596 70.0997 10.2692 69.2733 10.2692C68.4468 10.2692 67.6539 10.596 67.0683 11.178C66.4904 11.8138 66.1702 12.6415 66.1702 13.5C66.1702 14.3584 66.4904 15.1862 67.0683 15.822ZM78.7018 17.7255C78.1433 17.7366 77.5884 17.6347 77.0704 17.4261C76.5525 17.2175 76.0822 16.9065 75.6879 16.5117C75.2935 16.1169 74.9834 15.6465 74.776 15.129C74.5686 14.6114 74.4684 14.0573 74.4813 13.5C74.4684 12.9427 74.5686 12.3886 74.776 11.871C74.9834 11.3534 75.2935 10.8831 75.6879 10.4883C76.0822 10.0935 76.5525 9.78243 77.0704 9.57383C77.5884 9.36522 78.1433 9.2634 78.7018 9.27448C79.2678 9.26049 79.8296 9.37469 80.3451 9.60851C80.8605 9.84233 81.3161 10.1897 81.6778 10.6245L80.9473 11.3265C80.6801 10.988 80.3356 10.7182 79.9426 10.5397C79.5496 10.3612 79.1195 10.2792 78.6882 10.3005C78.273 10.2897 77.8599 10.3631 77.474 10.5163C77.088 10.6694 76.7372 10.8991 76.4427 11.1915C75.8562 11.8311 75.5309 12.6667 75.5309 13.5337C75.5309 14.4007 75.8562 15.2363 76.4427 15.876C76.7372 16.1683 77.088 16.398 77.474 16.5512C77.8599 16.7043 78.273 16.7777 78.6882 16.767C79.1644 16.7627 79.6336 16.6527 80.0618 16.4449C80.49 16.237 80.8664 15.9366 81.1637 15.5655L81.8942 16.2945C81.526 16.7401 81.0642 17.0996 80.5415 17.3475C79.964 17.6085 79.3355 17.7376 78.7018 17.7255ZM86.1418 17.55H85.1002V10.449H82.8276V9.44998H88.4008V10.449H86.1418V17.55ZM95.5703 9.44998L92.4996 16.281C92.3767 16.6851 92.1311 17.0411 91.7966 17.2998C91.4622 17.5586 91.0556 17.7073 90.6328 17.7255C90.3532 17.7219 90.0772 17.6622 89.8212 17.55L90.0917 16.5915C90.2561 16.687 90.4426 16.7382 90.6328 16.74C90.8316 16.7549 91.0302 16.7077 91.201 16.605C91.3639 16.4673 91.4895 16.2909 91.5662 16.092L91.8638 15.444L89.1583 9.46348H90.3893L92.3914 14.1075L94.3393 9.44998H95.5703ZM96.7471 17.55V9.44998H102.618V17.55H101.576V10.449H97.7887V17.55H96.7471ZM104.471 17.55V9.44998H105.513V12.9195H109.571V9.44998H110.613V17.55H109.571V13.8915H105.513V17.55H104.471ZM119.121 16.497C118.33 17.2818 117.261 17.7223 116.145 17.7223C115.03 17.7223 113.96 17.2818 113.169 16.497C112.401 15.685 111.972 14.6103 111.972 13.4932C111.972 12.3762 112.401 11.3015 113.169 10.4895C113.559 10.0976 114.023 9.78663 114.533 9.57441C115.044 9.36218 115.592 9.25292 116.145 9.25292C116.699 9.25292 117.246 9.36218 117.757 9.57441C118.268 9.78663 118.731 10.0976 119.121 10.4895C119.893 11.2999 120.323 12.3752 120.323 13.4932C120.323 14.6112 119.893 15.6865 119.121 16.497ZM113.94 15.822C114.526 16.404 115.319 16.7308 116.145 16.7308C116.972 16.7308 117.765 16.404 118.35 15.822C118.928 15.1862 119.248 14.3584 119.248 13.5C119.248 12.6415 118.928 11.8138 118.35 11.178C117.765 10.596 116.972 10.2692 116.145 10.2692C115.319 10.2692 114.526 10.596 113.94 11.178C113.362 11.8138 113.042 12.6415 113.042 13.5C113.042 14.3584 113.362 15.1862 113.94 15.822ZM124.573 17.55V9.44998H127.508C128.118 9.43849 128.708 9.66075 129.158 10.071C129.385 10.2667 129.565 10.5097 129.686 10.7826C129.808 11.0556 129.868 11.3518 129.862 11.6505C129.868 12.0103 129.764 12.3636 129.564 12.663C129.366 12.9538 129.089 13.183 128.766 13.3245C129.159 13.4541 129.503 13.6987 129.754 14.0265C130.014 14.3572 130.152 14.7671 130.146 15.1875C130.153 15.4987 130.091 15.8076 129.965 16.0923C129.839 16.3769 129.651 16.6303 129.415 16.8345C128.944 17.2681 128.325 17.5048 127.684 17.496L124.573 17.55ZM125.614 12.9195H127.508C127.685 12.9268 127.861 12.8956 128.025 12.828C128.188 12.7604 128.335 12.658 128.455 12.528C128.575 12.4196 128.672 12.2882 128.739 12.1418C128.807 11.9953 128.845 11.8367 128.85 11.6754C128.855 11.5142 128.827 11.3535 128.769 11.2031C128.71 11.0527 128.622 10.9156 128.509 10.8C128.396 10.6724 128.256 10.5711 128.1 10.5035C127.943 10.4358 127.773 10.4034 127.603 10.4085H125.668L125.614 12.9195ZM125.614 16.551H127.711C127.894 16.5571 128.077 16.5228 128.245 16.4504C128.413 16.3781 128.564 16.2695 128.685 16.1325C128.924 15.8856 129.059 15.5574 129.064 15.2145C129.064 14.8564 128.921 14.5131 128.668 14.2599C128.414 14.0067 128.07 13.8645 127.711 13.8645H125.655L125.614 16.551Z" fill="white"/>
<path fill-rule="evenodd" clip-rule="evenodd" d="M69.2733 9.38792C68.7378 9.38792 68.2077 9.49366 67.7134 9.69904C67.2197 9.9042 66.7714 10.2048 66.3944 10.5834C65.6502 11.3702 65.2356 12.4112 65.2356 13.4932C65.2356 14.5751 65.6501 15.616 66.3941 16.4027C67.1595 17.1615 68.1944 17.5873 69.2733 17.5873C70.3521 17.5873 71.3872 17.1614 72.1525 16.4026C72.8995 15.6174 73.316 14.576 73.316 13.4932C73.316 12.4103 72.8994 11.3688 72.1522 10.5835C71.7752 10.2048 71.3269 9.90423 70.8331 9.69904C70.3388 9.49366 69.8087 9.38792 69.2733 9.38792ZM67.6094 9.44978C68.1367 9.2307 68.7021 9.11792 69.2733 9.11792C69.8444 9.11792 70.4098 9.2307 70.9371 9.44978C71.4643 9.66885 71.9429 9.98988 72.3453 10.3944L72.3473 10.3965C73.1429 11.232 73.5865 12.3406 73.5865 13.4932C73.5865 14.6458 73.1429 15.7544 72.3473 16.59L72.3447 16.5927C71.5285 17.4027 70.4243 17.8573 69.2733 17.8573C68.1222 17.8573 67.018 17.4027 66.2019 16.5927L66.1989 16.5897C65.4065 15.7527 64.9651 14.6447 64.9651 13.4932C64.9651 12.3417 65.4065 11.2338 66.1989 10.3968L66.2012 10.3943C66.6036 9.98985 67.0822 9.66885 67.6094 9.44978ZM116.145 9.38792C115.61 9.38792 115.08 9.49366 114.585 9.69904C114.092 9.90419 113.643 10.2047 113.267 10.5833C112.522 11.3701 112.108 12.4112 112.108 13.4932C112.108 14.5751 112.522 15.616 113.266 16.4027C114.031 17.1615 115.066 17.5873 116.145 17.5873C117.224 17.5873 118.259 17.1614 119.025 16.4025C119.772 15.6173 120.188 14.576 120.188 13.4932C120.188 12.4103 119.771 11.3688 119.024 10.5836C118.647 10.2048 118.199 9.90423 117.705 9.69904C117.211 9.49366 116.681 9.38792 116.145 9.38792ZM114.481 9.44978C115.009 9.2307 115.574 9.11792 116.145 9.11792C116.716 9.11792 117.282 9.2307 117.809 9.44978C118.336 9.66885 118.815 9.98988 119.217 10.3944L119.219 10.3965C120.015 11.232 120.459 12.3406 120.459 13.4932C120.459 14.6458 120.015 15.7544 119.219 16.59L119.217 16.5927C118.401 17.4027 117.296 17.8573 116.145 17.8573C114.994 17.8573 113.89 17.4027 113.074 16.5927L113.071 16.5897C112.278 15.7527 111.837 14.6447 111.837 13.4932C111.837 12.3417 112.279 11.2338 113.071 10.3968L113.073 10.3943C113.476 9.98985 113.954 9.66885 114.481 9.44978ZM80.2891 9.73141C79.7922 9.50604 79.2507 9.39595 78.7051 9.40944L78.6991 9.40959C78.1589 9.39887 77.6221 9.49723 77.1211 9.69902C76.62 9.9008 76.1651 10.2017 75.7837 10.5836C75.4022 10.9655 75.1022 11.4205 74.9016 11.9211C74.701 12.4218 74.604 12.9578 74.6165 13.4969L74.6166 13.5031C74.6042 14.0422 74.701 14.5782 74.9016 15.0788C75.1022 15.5795 75.4022 16.0345 75.7837 16.4164C76.1651 16.7983 76.62 17.0991 77.1211 17.3009C77.6221 17.5027 78.1589 17.6012 78.6991 17.5905L78.7018 17.7255L78.7044 17.5905C79.3176 17.6022 79.9257 17.4774 80.4845 17.225C80.952 17.0032 81.3689 16.689 81.7103 16.3018L81.1726 15.7652C80.8794 16.0991 80.5219 16.3717 80.1209 16.5663C79.675 16.7827 79.1864 16.8974 78.6906 16.902C78.2575 16.913 77.8266 16.8364 77.424 16.6766C77.021 16.5167 76.6547 16.2769 76.3473 15.9717L76.3428 15.9672C75.7335 15.3027 75.3956 14.4345 75.3956 13.5337C75.3956 12.633 75.7336 11.7649 76.3429 11.1003L76.3472 11.0957C76.6546 10.7904 77.021 10.5507 77.424 10.3908C77.8254 10.2315 78.2549 10.1549 78.6867 10.1654C79.1378 10.1439 79.5875 10.2301 79.9986 10.4168C80.366 10.5837 80.693 10.8265 80.9583 11.1285L81.4918 10.6157C81.1574 10.2409 80.7478 9.9395 80.2891 9.73141ZM78.7018 17.8605C78.126 17.8716 77.5539 17.7664 77.0198 17.5513C76.4849 17.3359 75.9993 17.0147 75.5921 16.607C75.1848 16.1993 74.8645 15.7136 74.6504 15.1791C74.4366 14.6455 74.3331 14.0744 74.3459 13.5C74.3331 12.9255 74.4366 12.3544 74.6504 11.8209C74.8645 11.2864 75.1848 10.8007 75.5921 10.393C75.9993 9.98528 76.4849 9.66406 77.0198 9.44864C77.5538 9.23359 78.1258 9.12843 78.7014 9.13945C79.2869 9.12543 79.8679 9.24377 80.401 9.48561C80.9351 9.72788 81.4072 10.0878 81.7818 10.5383L81.8621 10.6347L80.9335 11.5272L80.841 11.41C80.5872 11.0884 80.2599 10.8321 79.8866 10.6626C79.5132 10.493 79.1046 10.4151 78.6949 10.4353L78.6847 10.4358C78.2878 10.4255 77.8929 10.4953 77.5239 10.6417C77.156 10.7877 76.8214 11.0065 76.5404 11.2849C75.978 11.8994 75.6662 12.7015 75.6662 13.5337C75.6662 14.366 75.978 15.1681 76.5404 15.7825C76.8214 16.0609 77.156 16.2797 77.5239 16.4257C77.8929 16.5721 78.2878 16.6423 78.6847 16.632L78.687 16.632C79.1431 16.6279 79.5925 16.5225 80.0026 16.3235C80.4127 16.1244 80.7733 15.8367 81.0581 15.4812L81.1525 15.3633L82.0767 16.2857L81.9986 16.3804C81.6178 16.8413 81.1402 17.2131 80.5995 17.4694L80.5973 17.4705C80.0023 17.7394 79.3548 17.8726 78.7018 17.8605ZM129.067 10.1707C128.643 9.78375 128.086 9.57412 127.511 9.58495L127.508 9.58498H124.708V17.4126L127.682 17.361L127.686 17.361C128.292 17.3694 128.878 17.1454 129.324 16.7352L129.327 16.7325C129.547 16.5414 129.723 16.3041 129.841 16.0376C129.959 15.7711 130.017 15.4819 130.011 15.1905L130.011 15.1855C130.017 14.796 129.888 14.4163 129.647 14.1098L129.646 14.1085C129.412 13.8023 129.09 13.5737 128.724 13.4526L128.389 13.3421L128.712 13.2009C129.011 13.0697 129.268 12.8572 129.452 12.5876C129.637 12.3111 129.733 11.9851 129.727 11.6529V11.6478C129.732 11.369 129.676 11.0923 129.563 10.8375C129.449 10.5826 129.281 10.3557 129.07 10.1729L129.067 10.1707ZM129.249 9.97019C128.773 9.53765 128.15 9.30318 127.507 9.31498H124.437V17.6873L127.682 17.631L127.684 17.631C128.358 17.6398 129.01 17.3908 129.506 16.9351C129.756 16.7181 129.954 16.4491 130.088 16.1469C130.222 15.8449 130.288 15.5172 130.281 15.187L130.281 15.1895L130.146 15.1875L130.281 15.1845L130.281 15.187C130.287 14.7368 130.139 14.2981 129.861 13.9438C129.654 13.6739 129.388 13.4569 129.084 13.3086C129.318 13.1619 129.519 12.9683 129.676 12.739L129.677 12.7379C129.892 12.4163 130.004 12.037 129.997 11.6506L129.997 11.6531L129.862 11.6505L129.997 11.6481L129.997 11.6506C130.003 11.333 129.939 11.0181 129.81 10.7278C129.681 10.4373 129.489 10.1787 129.249 9.97019ZM57.7074 9.31498H63.3889V16.416H64.2952V19.386H63.0237V17.685H57.0987V19.3995H55.8271V16.4295H56.7557C57.1111 16.0417 57.3805 15.5831 57.5459 15.0836C57.7173 14.5659 57.7728 14.0169 57.7084 13.4754L57.7074 13.4675V9.31498ZM57.978 9.58498V13.4516C58.0456 14.0297 57.9858 14.6156 57.8028 15.1683C57.6189 15.7236 57.3152 16.2318 56.913 16.6571L56.873 16.6995H56.0977V19.1295H56.8282V17.415H63.2942V19.116H64.0247V16.686H63.1183V9.58498H57.978ZM82.6923 9.31498H88.5361V10.584H86.277V17.685H84.9649V10.584H82.6923V9.31498ZM82.9629 9.58498V10.314H85.2354V17.415H86.0065V10.314H88.2655V9.58498H82.9629ZM94.2492 9.31498H95.7792L92.6265 16.3285C92.4946 16.7559 92.2338 17.1324 91.8795 17.4065C91.523 17.6824 91.0894 17.841 90.6386 17.8603L90.6311 17.8607C90.3333 17.8569 90.0394 17.7931 89.7668 17.6736L89.6591 17.6263L90.0089 16.3871L90.1598 16.4748C90.3039 16.5586 90.4674 16.6034 90.6341 16.605L90.643 16.6051C90.8103 16.6176 90.9773 16.5793 91.1219 16.4948C91.2635 16.3729 91.3728 16.2178 91.4399 16.0435L91.443 16.0356L91.7152 15.4436L88.9489 9.32848H90.4784L92.3895 13.7615L94.2492 9.31498ZM94.4294 9.58498L92.3933 14.4534L90.3003 9.59848H89.3678L92.0124 15.4444L91.6909 16.1445C91.6059 16.3629 91.4676 16.5566 91.2884 16.708L91.2801 16.715L91.2708 16.7206C91.0773 16.8371 90.8525 16.8909 90.6271 16.8749C90.4725 16.8729 90.3202 16.8419 90.1779 16.7839L89.9842 17.4702C90.1911 17.5465 90.4097 17.5872 90.6308 17.5904C91.0242 17.5728 91.4025 17.434 91.7138 17.1932C92.026 16.9515 92.2554 16.6191 92.3701 16.2418L92.3726 16.2335L95.3613 9.58498H94.4294ZM96.6119 9.31498H102.753V17.685H101.441V10.584H97.924V17.685H96.6119V9.31498ZM96.8824 9.58498V17.415H97.6535V10.314H101.712V17.415H102.483V9.58498H96.8824ZM104.336 9.31498H105.648V12.7845H109.436V9.31498H110.748V17.685H109.436V14.0265H105.648V17.685H104.336V9.31498ZM104.606 9.58498V17.415H105.378V13.7565H109.706V17.415H110.477V9.58498H109.706V13.0545H105.378V9.58498H104.606ZM66.9729 11.0823C67.5838 10.4751 68.411 10.1342 69.2733 10.1342C70.1355 10.1342 70.9627 10.4751 71.5737 11.0823L71.5785 11.0872C72.179 11.7478 72.5115 12.608 72.5115 13.5C72.5115 14.392 72.1789 15.252 71.5784 15.9127L71.5738 15.9178C70.9628 16.525 70.1355 16.8658 69.2733 16.8658C68.411 16.8658 67.5838 16.5248 66.9729 15.9176L67.0683 15.822L66.9681 15.9127C66.3676 15.252 66.035 14.392 66.035 13.5C66.035 12.608 66.3676 11.7479 66.9681 11.0873L66.9729 11.0823ZM67.1662 15.7287C67.7262 16.284 68.4837 16.5958 69.2733 16.5958C70.0628 16.5958 70.8203 16.284 71.3803 15.7287C71.9342 15.1181 72.241 14.3237 72.241 13.5C72.241 12.6762 71.9342 11.8819 71.3803 11.2712C70.8203 10.7159 70.0628 10.4042 69.2733 10.4042C68.4837 10.4042 67.7262 10.7159 67.1662 11.2712C66.6123 11.8819 66.3055 12.6762 66.3055 13.5C66.3055 14.3237 66.6123 15.1181 67.1662 15.7287ZM113.845 11.0823C114.456 10.4751 115.283 10.1342 116.145 10.1342C117.008 10.1342 117.835 10.4751 118.446 11.0823L118.451 11.0872C119.051 11.7478 119.384 12.608 119.384 13.5C119.384 14.392 119.051 15.252 118.45 15.9127L118.446 15.9178C117.835 16.525 117.008 16.8658 116.145 16.8658C115.283 16.8658 114.456 16.5248 113.845 15.9176L113.94 15.822L113.84 15.9127C113.24 15.252 112.907 14.392 112.907 13.5C112.907 12.608 113.24 11.7479 113.84 11.0873L113.845 11.0823ZM114.038 15.7287C114.598 16.284 115.356 16.5958 116.145 16.5958C116.935 16.5958 117.692 16.284 118.252 15.7287C118.806 15.1181 119.113 14.3238 119.113 13.5C119.113 12.6762 118.806 11.8819 118.252 11.2712C117.692 10.7159 116.935 10.4042 116.145 10.4042C115.356 10.4042 114.598 10.7159 114.038 11.2712C113.484 11.8819 113.178 12.6762 113.178 13.5C113.178 14.3238 113.484 15.1181 114.038 15.7287ZM127.601 10.2735C127.791 10.2681 127.979 10.3043 128.153 10.3796C128.327 10.4547 128.483 10.5669 128.608 10.7082C128.733 10.8363 128.83 10.988 128.895 11.1543C128.96 11.3216 128.991 11.5003 128.985 11.6797C128.979 11.859 128.938 12.0355 128.862 12.1984C128.788 12.3595 128.682 12.5041 128.55 12.6239C128.418 12.7662 128.256 12.8784 128.077 12.9527C127.896 13.0275 127.701 13.0622 127.505 13.0545H125.476L125.536 10.2735H127.601ZM128.046 10.6274C127.908 10.5676 127.758 10.5389 127.607 10.5434L127.603 10.5435H125.801L125.753 12.7845H127.514C127.671 12.791 127.828 12.7634 127.973 12.7033C128.118 12.6432 128.249 12.5522 128.355 12.4366L128.36 12.4321L128.364 12.428C128.471 12.3318 128.556 12.2152 128.617 12.0852C128.677 11.9552 128.71 11.8144 128.714 11.6712C128.719 11.5281 128.695 11.3855 128.643 11.252C128.591 11.1185 128.512 10.9968 128.412 10.8941L128.408 10.8895C128.308 10.7767 128.184 10.6872 128.046 10.6274ZM58.7085 10.314H62.2661V16.74H57.8329L57.9569 16.5351C58.5081 15.625 58.7702 14.5695 58.7087 13.5078L58.7082 13.5L58.7085 10.314ZM58.979 10.584V13.4961C59.0383 14.5322 58.8045 15.5624 58.3066 16.47H61.9956V10.584H58.979ZM125.522 13.7295H127.711C128.106 13.7295 128.484 13.8859 128.763 14.1644C129.042 14.4429 129.199 14.8206 129.199 15.2145L129.199 15.2164C129.194 15.5926 129.045 15.9528 128.784 16.2242C128.65 16.375 128.484 16.4946 128.298 16.5744C128.112 16.6543 127.911 16.6924 127.709 16.686H125.477L125.522 13.7295ZM125.788 13.9995L125.752 16.416H127.716C127.879 16.4214 128.041 16.3909 128.191 16.3264C128.342 16.262 128.475 16.1652 128.584 16.043L128.588 16.0387C128.802 15.8167 128.924 15.5218 128.929 15.2135C128.928 14.8916 128.8 14.583 128.572 14.3553C128.344 14.1275 128.034 13.9995 127.711 13.9995H125.788Z" fill="white"/>
<path d="M14.1222 10.179C13.6813 10.707 13.4588 11.3829 13.5 12.069V41.931C13.4588 42.6171 13.6813 43.293 14.1222 43.821L14.2169 43.9155L30.9772 27.2025V26.811L14.2169 10.0845L14.1222 10.179Z" fill="url(#paint0_linear)"/>
<path d="M36.5235 32.7779L30.9773 27.2024V26.8109L36.5235 21.2219L36.6452 21.2894L43.2871 25.0559C45.1809 26.1224 45.1809 27.8774 43.2871 28.9574L36.6723 32.7104L36.5235 32.7779Z" fill="url(#paint1_linear)"/>
<path d="M36.6858 32.6969L30.9773 26.9999L14.1223 43.8209C14.5083 44.1596 15.0008 44.353 15.5145 44.3678C16.0283 44.3826 16.5311 44.2178 16.936 43.9019L36.6993 32.6969" fill="url(#paint2_linear)"/>
<path d="M36.6857 21.303L16.9223 10.098C16.5174 9.78207 16.0146 9.61729 15.5008 9.63208C14.9871 9.64687 14.4947 9.84031 14.1086 10.179L30.9771 27L36.6857 21.303Z" fill="url(#paint3_linear)"/>
<path opacity="0.2" d="M36.5235 32.5754L16.9225 43.7129C16.5319 44.0043 16.0574 44.1618 15.5697 44.1618C15.0821 44.1618 14.6076 44.0043 14.217 43.7129L14.1223 43.8074L14.217 43.9019C14.6067 44.1954 15.0816 44.3542 15.5697 44.3542C16.0579 44.3542 16.5328 44.1954 16.9225 43.9019L36.6858 32.6969L36.5235 32.5754Z" fill="black"/>
<path opacity="0.12" d="M14.1222 43.6319C13.6813 43.1039 13.4588 42.428 13.5 41.7419V41.9444C13.4588 42.6305 13.6813 43.3064 14.1222 43.8344L14.2169 43.7399L14.1222 43.6319ZM43.287 28.7549L36.5234 32.5754L36.6451 32.6969L43.287 28.9439C43.6639 28.7673 43.9874 28.4945 44.2249 28.1532C44.4624 27.8119 44.6055 27.4141 44.6398 26.9999C44.5637 27.3762 44.4022 27.73 44.1677 28.0343C43.9332 28.3385 43.6319 28.585 43.287 28.7549Z" fill="black"/>
<path opacity="0.25" d="M16.9225 10.2864L43.2871 25.2444C43.632 25.4143 43.9333 25.6609 44.1678 25.9651C44.4023 26.2693 44.5638 26.6232 44.6399 26.9994C44.6056 26.5853 44.4625 26.1875 44.225 25.8462C43.9875 25.5049 43.664 25.2321 43.2871 25.0554L16.9225 10.0974C15.0287 9.03093 13.4866 9.92193 13.4866 12.0819V12.2844C13.5272 10.1109 15.0422 9.21993 16.9225 10.2864Z" fill="white"/>

</symbol><symbol id="health-icon" viewBox="0 0 40 40">
<path d="M0 20C0 8.95431 8.95431 0 20 0C31.0457 0 40 8.95431 40 20C40 31.0457 31.0457 40 20 40C8.95431 40 0 31.0457 0 20Z" fill="white"/>
<path d="M29.2034 13.9777H26.8174V11.3645C26.8174 10.6113 26.2064 10.0009 25.4544 10.0009H14.5456C13.7924 10.0009 13.182 10.6113 13.182 11.3645V13.9777H10.796C9.6654 13.9777 8.75 14.8937 8.75 16.0231V27.9538C8.75 29.0832 9.6654 29.9992 10.796 29.9992H29.2046C30.334 29.9992 31.2506 29.0838 31.2506 27.9538V16.0231C31.2488 14.8931 30.3329 13.9777 29.2034 13.9777ZM15.908 12.7275H24.0891V13.9772H15.908V12.7275ZM22.9631 23.9234H21.4516V25.4366C21.4516 26.2386 20.8009 26.8888 19.9983 26.8888C19.1962 26.8888 18.5472 26.2375 18.5472 25.4366V23.9234H17.0346C16.2314 23.9234 15.5824 23.2738 15.5824 22.4718C15.5824 21.6697 16.2331 21.0201 17.0346 21.0201H18.5472V19.5075C18.5472 18.7055 19.1974 18.0553 19.9983 18.0553C20.8009 18.0553 21.4516 18.7049 21.4516 19.5075V21.019H22.9631C23.7663 21.019 24.4159 21.6697 24.4159 22.4712C24.4165 23.2738 23.7669 23.9234 22.9631 23.9234Z" fill="#000078"/>
</symbol><symbol id="inst-icon" viewBox="0 0 36 36">
<path d="M0 18C0 8.05888 8.05888 0 18 0C27.9411 0 36 8.05888 36 18C36 27.9411 27.9411 36 18 36C8.05888 36 0 27.9411 0 18Z" fill="#000078"/>
<g clip-path="url(#clip0)">
<path d="M18.0028 13.8923C15.7341 13.8923 13.8975 15.731 13.8975 17.9977C13.8975 20.2663 15.7361 22.103 18.0028 22.103C20.2715 22.103 22.1081 20.2643 22.1081 17.9977C22.1081 15.729 20.2695 13.8923 18.0028 13.8923ZM18.0028 20.6623C16.5301 20.6623 15.3381 19.4697 15.3381 17.9977C15.3381 16.5257 16.5308 15.333 18.0028 15.333C19.4748 15.333 20.6675 16.5257 20.6675 17.9977C20.6681 19.4697 19.4755 20.6623 18.0028 20.6623Z" fill="white"/>
<path d="M21.2983 10.0515C19.8263 9.98281 16.1803 9.98615 14.707 10.0515C13.4123 10.1121 12.2703 10.4248 11.3497 11.3455C9.811 12.8841 10.0077 14.9575 10.0077 17.9981C10.0077 21.1101 9.83433 23.1355 11.3497 24.6508C12.8943 26.1948 14.9977 25.9928 18.0023 25.9928C21.085 25.9928 22.149 25.9948 23.239 25.5728C24.721 24.9975 25.8397 23.6728 25.949 21.2935C26.0183 19.8208 26.0143 16.1755 25.949 14.7021C25.817 11.8935 24.3097 10.1901 21.2983 10.0515ZM23.6283 23.6328C22.6197 24.6415 21.2203 24.5515 17.983 24.5515C14.6497 24.5515 13.313 24.6008 12.3377 23.6228C11.2143 22.5048 11.4177 20.7095 11.4177 17.9875C11.4177 14.3041 11.0397 11.6515 14.7363 11.4621C15.5857 11.4321 15.8357 11.4221 17.9737 11.4221L18.0037 11.4421C21.5563 11.4421 24.3437 11.0701 24.511 14.7661C24.549 15.6095 24.5577 15.8628 24.5577 17.9975C24.557 21.2921 24.6197 22.6368 23.6283 23.6328Z" fill="white"/>
<path d="M22.2704 14.6892C22.8002 14.6892 23.2297 14.2597 23.2297 13.7298C23.2297 13.2 22.8002 12.7705 22.2704 12.7705C21.7405 12.7705 21.311 13.2 21.311 13.7298C21.311 14.2597 21.7405 14.6892 22.2704 14.6892Z" fill="white"/>
</g>

</symbol><symbol id="lk_blue-icon" viewBox="0 0 40 40">
<path d="M0 20C0 8.95431 8.95431 0 20 0C31.0457 0 40 8.95431 40 20C40 31.0457 31.0457 40 20 40C8.95431 40 0 31.0457 0 20Z" fill="white"/>
<path d="M20.07 5C22.5705 8.75 25.6955 11.875 31.3205 11.25C31.3205 18.948 32.99 29.2717 20.0699 33.75C7.15077 29.2716 8.82043 18.9479 8.82043 11.25C14.4458 11.875 17.5704 8.75 20.07 5Z" fill="#000078"/>
<path d="M19.7256 16.2684C21.1516 16.1036 22.1467 17.0552 22.015 18.6818C21.9791 19.1349 21.7914 19.6772 21.5669 20.0779C21.3534 20.4584 20.8734 20.8256 21.0004 21.3085C21.0807 21.6132 21.7501 21.7936 21.9916 21.8999C22.6088 22.1718 23.4745 22.5773 23.6911 23.2249C23.7472 23.3921 23.7893 23.7984 23.6911 24.0531C23.3451 24.9516 21.2015 25 20.0093 25C19.35 25 18.549 24.9898 17.8376 24.8578C17.01 24.7047 16.0064 24.3719 16.3033 23.2726C16.4373 22.7765 17.0342 22.414 17.5781 22.1132C17.7363 22.0257 18.0706 21.8358 18.3807 21.7108C18.6425 21.6053 19.0087 21.5093 19.0415 21.1663C19.0695 20.8764 18.8856 20.7209 18.7111 20.4803C18.3113 19.9295 17.935 19.1779 18.0028 18.1615C18.0698 17.163 18.6885 16.388 19.7256 16.2684Z" fill="white"/>
</symbol><symbol id="lk_white-icon" viewBox="0 0 32 32">
<path d="M0 16C0 7.16344 7.16344 0 16 0C24.8366 0 32 7.16344 32 16C32 24.8366 24.8366 32 16 32C7.16344 32 0 24.8366 0 16Z" fill="#000078"/>
<path d="M16.056 4C18.0564 7 20.5564 9.5 25.0564 9C25.0564 15.1584 26.392 23.4174 16.0559 27C5.72062 23.4173 7.05635 15.1583 7.05635 9C11.5566 9.5 14.0564 7 16.056 4Z" fill="white"/>
<path d="M15.7805 13.0147C16.9213 12.8829 17.7173 13.6441 17.612 14.9454C17.5833 15.308 17.4331 15.7417 17.2535 16.0624C17.0827 16.3667 16.6987 16.6605 16.8004 17.0468C16.8646 17.2905 17.4 17.4349 17.5933 17.5199C18.087 17.7374 18.7796 18.0618 18.9529 18.5799C18.9978 18.7137 19.0314 19.0387 18.9529 19.2425C18.6761 19.9612 16.9612 20 16.0074 20C15.48 20 14.8392 19.9919 14.2701 19.8862C13.608 19.7637 12.8051 19.4975 13.0426 18.6181C13.1498 18.2212 13.6273 17.9312 14.0625 17.6905C14.189 17.6205 14.4564 17.4687 14.7045 17.3687C14.914 17.2843 15.207 17.2074 15.2332 16.933C15.2556 16.7011 15.1085 16.5768 14.9689 16.3842C14.6491 15.9436 14.348 15.3423 14.4022 14.5292C14.4558 13.7304 14.9508 13.1104 15.7805 13.0147Z" fill="#000078"/>
</symbol><symbol id="logo-icon" viewBox="0 0 234 28">
<path d="M7.01215 13.9414C7.01215 9.82997 9.91717 6.43562 14.1245 6.43562C17.33 6.43562 20.0347 8.10888 20.6858 10.6427H27.9985C27.6479 4.85798 22.0882 0.172852 14.2747 0.172852C6.16065 0.172852 0 5.86194 0 13.9414C0 22.0687 6.16065 27.71 14.2747 27.71C22.1884 27.71 27.7981 23.0726 27.9985 16.7142H20.6858C20.1349 19.6305 17.5804 21.3994 14.1245 21.3994C10.3179 21.4472 7.01215 18.1963 7.01215 13.9414ZM54.2939 15.28C49.8863 16.284 46.7812 19.8695 46.0799 25.6542C45.3786 19.8695 42.2731 16.284 37.8655 15.28C37.1143 10.7383 41.2715 6.77028 46.0799 6.77028C50.8882 6.77028 55.0454 10.7383 54.2939 15.28ZM60.5049 13.9414C60.5049 6.34003 54.0435 0.172852 46.0799 0.172852C38.1158 0.172852 31.6548 6.34003 31.6548 13.9414C31.6548 21.5428 38.1158 27.71 46.0799 27.71C54.0435 27.71 60.5049 21.5428 60.5049 13.9414ZM71.9747 7.34396H83.1439V1.22462H64.3113V26.6582H71.9747V7.34396ZM105.783 13.9414C105.783 17.9572 102.628 20.9213 98.8212 20.9213C95.1146 20.9213 91.8591 17.9572 91.8591 13.9414C91.8591 9.92556 95.0647 6.9615 98.8212 6.9615C102.628 6.9615 105.783 9.92556 105.783 13.9414ZM105.282 26.6582H112.946V1.22462H105.282V3.99744C103.329 1.65488 100.724 0.698733 97.8695 0.698733C90.657 0.698733 84.897 6.00536 84.897 13.9414C84.897 21.8774 90.657 27.1841 97.8695 27.1841C100.724 27.1841 103.329 26.2279 105.282 23.8853V26.6582ZM141.345 8.15671C141.345 3.90185 137.588 0.507503 129.925 0.507503C121.811 0.507503 117.604 4.85798 117.604 10.2124H125.067C125.067 7.43958 126.669 5.95757 129.825 5.95757C132.78 5.95757 134.032 6.9615 134.032 8.58696C134.032 10.1646 133.08 11.2642 130.827 11.2642H126.619V15.8537H130.726C133.331 15.8537 134.433 16.9533 134.433 18.6743C134.433 20.3476 133.281 21.8774 129.975 21.8774C126.369 21.8774 124.716 20.1086 124.716 17.2401H117.203C117.203 23.7897 122.011 27.3275 129.875 27.3275C137.638 27.3275 141.946 24.22 141.946 19.2958C141.946 16.7142 140.543 14.8497 137.789 13.7502C140.193 12.6028 141.345 10.4515 141.345 8.15671Z" fill="#000078"/>
<path d="M179.778 25.1577C184.175 25.1577 186.82 22.6587 186.82 17.5416V9.86593C186.82 4.77856 184.175 2.24976 179.778 2.24976C175.38 2.24976 172.735 4.77856 172.735 9.86593V17.5416C172.735 22.6587 175.38 25.1577 179.778 25.1577ZM179.778 22.4207C177.356 22.4207 175.922 21.1414 175.922 17.5416V9.86593C175.922 6.29583 177.387 4.9868 179.778 4.9868C182.199 4.9868 183.633 6.29583 183.633 9.86593V17.5416C183.633 21.1414 182.167 22.4207 179.778 22.4207Z" fill="#000078"/>
<path fill-rule="evenodd" clip-rule="evenodd" d="M185.384 23.6325C184.036 25.0408 182.098 25.7037 179.778 25.7037C177.458 25.7037 175.52 25.0408 174.172 23.6325C172.832 22.2338 172.151 20.1801 172.151 17.5414V9.86578C172.151 7.24127 172.832 5.18831 174.171 3.78652C175.519 2.37496 177.456 1.70349 179.778 1.70349C182.1 1.70349 184.037 2.37496 185.385 3.78652C186.724 5.18831 187.405 7.24127 187.405 9.86578V17.5414C187.405 20.1801 186.724 22.2338 185.384 23.6325ZM177.398 20.9893C177.913 21.5893 178.68 21.8744 179.778 21.8744C180.858 21.8744 181.626 21.5903 182.147 20.988C182.689 20.36 183.049 19.2896 183.049 17.5414V9.86578C183.049 8.13124 182.697 7.05998 182.157 6.42813C181.64 5.82323 180.872 5.53281 179.778 5.53281C178.702 5.53281 177.932 5.82222 177.41 6.42936C176.866 7.062 176.507 8.13372 176.507 9.86578V17.5414C176.507 19.292 176.859 20.362 177.398 20.9893ZM186.821 17.5414C186.821 22.6586 184.175 25.1576 179.778 25.1576C175.38 25.1576 172.735 22.6586 172.735 17.5414V9.86578C172.735 4.77844 175.38 2.24962 179.778 2.24962C184.175 2.24962 186.821 4.77844 186.821 9.86578V17.5414ZM175.922 17.5414C175.922 21.1413 177.356 22.4206 179.778 22.4206C182.168 22.4206 183.634 21.1413 183.634 17.5414V9.86578C183.634 6.29571 182.2 4.98668 179.778 4.98668C177.388 4.98668 175.922 6.29571 175.922 9.86578V17.5414Z" fill="#000078"/>
<path d="M204.724 25.3352L209.568 5.25352V25.3352H212.755V3.02222H207.21L202.94 21.4081L198.574 3.02222H193.125V25.3352H196.057V5.16428L200.869 25.3352H204.724Z" fill="#000078"/>
<path fill-rule="evenodd" clip-rule="evenodd" d="M205.192 25.8812H200.399L196.641 10.1286V25.8812H192.54V2.47595H199.043L202.933 18.8579L206.738 2.47595H213.339V25.8812H208.983V10.1646L205.192 25.8812ZM204.724 25.3351H200.868L196.056 5.16412V25.3351H193.125V3.02208H198.574L202.939 21.408L207.209 3.02208H212.754V25.3351H209.567V5.2534L204.724 25.3351Z" fill="#000078"/>
<path d="M229.957 16.8265V18.0166C229.957 21.5866 228.491 22.8957 226.101 22.8957C223.679 22.8957 222.245 21.5866 222.245 18.0166V10.3409C222.245 6.77081 223.711 5.46178 226.101 5.46178C228.523 5.46178 229.957 6.77081 229.957 10.3409V11.2334H233.144V10.3409C233.144 5.25354 230.499 2.72473 226.101 2.72473C221.704 2.72473 219.059 5.25354 219.059 10.3409V18.0166C219.059 23.1039 221.704 25.6327 226.101 25.6327C230.499 25.6327 233.144 23.1039 233.144 18.0166V16.8265H229.957Z" fill="#000078"/>
<path fill-rule="evenodd" clip-rule="evenodd" d="M229.373 16.2802H233.729V18.0163C233.729 20.6408 233.048 22.6937 231.709 24.0956C230.361 25.5071 228.424 26.1786 226.102 26.1786C223.78 26.1786 221.843 25.5071 220.495 24.0956C219.157 22.6937 218.475 20.6408 218.475 18.0163V10.3406C218.475 7.71612 219.157 5.66317 220.495 4.26138C221.843 2.84981 223.78 2.17834 226.102 2.17834C228.424 2.17834 230.361 2.84981 231.709 4.26138C233.048 5.66317 233.729 7.71612 233.729 10.3406V11.7793H229.373V10.3406C229.373 8.6061 229.021 7.53484 228.481 6.90298C227.964 6.29808 227.196 6.00766 226.102 6.00766C225.026 6.00766 224.256 6.29707 223.734 6.90422C223.19 7.53686 222.831 8.60857 222.831 10.3406V18.0163C222.831 19.7508 223.183 20.8221 223.723 21.454C224.24 22.0589 225.008 22.3493 226.102 22.3493C227.178 22.3493 227.948 22.0599 228.47 21.4527C229.014 20.8201 229.373 19.7483 229.373 18.0163V16.2802ZM229.958 18.0163C229.958 21.5864 228.492 22.8954 226.102 22.8954C223.68 22.8954 222.246 21.5864 222.246 18.0163V10.3406C222.246 6.77057 223.712 5.46153 226.102 5.46153C228.524 5.46153 229.958 6.77057 229.958 10.3406V11.2331H233.145V10.3406C233.145 5.25329 230.5 2.72448 226.102 2.72448C221.705 2.72448 219.06 5.25329 219.06 10.3406V18.0163C219.06 23.1037 221.705 25.6324 226.102 25.6324C230.5 25.6324 233.145 23.1037 233.145 18.0163V16.8263H229.958V18.0163Z" fill="#000078"/>
<path d="M158.914 0.172607H155.144V27.7097H158.914V0.172607Z" fill="#000078"/>
</symbol><symbol id="mark_blue-icon" viewBox="0 0 40 40">
<path d="M0 20C0 8.95431 8.95431 0 20 0C31.0457 0 40 8.95431 40 20C40 31.0457 31.0457 40 20 40C8.95431 40 0 31.0457 0 20Z" fill="white"/>
<path d="M19.9997 8.75C15.5065 8.75 11.8511 12.4055 11.8511 16.8986C11.8511 22.4747 19.1433 30.6608 19.4538 31.0066C19.7454 31.3314 20.2546 31.3308 20.5457 31.0066C20.8561 30.6608 28.1484 22.4747 28.1484 16.8986C28.1483 12.4055 24.4929 8.75 19.9997 8.75ZM19.9997 20.9984C17.7391 20.9984 15.9 19.1592 15.9 16.8986C15.9 14.638 17.7391 12.7989 19.9997 12.7989C22.2603 12.7989 24.0994 14.638 24.0994 16.8986C24.0994 19.1593 22.2603 20.9984 19.9997 20.9984Z" fill="#000078"/>
</symbol><symbol id="mark_white-icon" viewBox="0 0 32 32">
<path d="M0 16C0 7.16344 7.16344 0 16 0C24.8366 0 32 7.16344 32 16C32 24.8366 24.8366 32 16 32C7.16344 32 0 24.8366 0 16Z" fill="#000078"/>
<path d="M15.9999 7C12.4053 7 9.48096 9.92437 9.48096 13.5189C9.48096 17.9798 15.3147 24.5287 15.5631 24.8053C15.7964 25.0651 16.2037 25.0647 16.4366 24.8053C16.685 24.5287 22.5188 17.9798 22.5188 13.5189C22.5187 9.92437 19.5944 7 15.9999 7ZM15.9999 16.7987C14.1914 16.7987 12.7201 15.3274 12.7201 13.5189C12.7201 11.7104 14.1914 10.2391 15.9999 10.2391C17.8083 10.2391 19.2796 11.7104 19.2796 13.5189C19.2796 15.3274 17.8083 16.7987 15.9999 16.7987Z" fill="white"/>
</symbol><symbol id="menu-close-icon" viewBox="0 0 32 32">
<path d="M5 4.99988L27 26.9999M27 4.99988L5 26.9999" stroke="#000078" stroke-width="2.5"/>
</symbol><symbol id="menu-hover-close-icon" viewBox="0 0 32 32">
<path d="M5 4.99988L27 26.9999M27 4.99988L5 26.9999" stroke="#2d80fc" stroke-width="2.5"/>
</symbol><symbol id="menu-hover-icon" viewBox="0 0 32 32">
<g clip-path="url(#clip0)">
<rect x="-5.33325" y="4" width="42.6667" height="2.66667" fill="#2d80fc"/>
<rect x="-5.33325" y="14.6666" width="42.6667" height="2.66667" fill="#2d80fc"/>
<rect x="-5.33325" y="25.3334" width="42.6667" height="2.66667" fill="#2d80fc"/>
</g>

</symbol><symbol id="menu-icon" viewBox="0 0 32 32">
<g clip-path="url(#clip0)">
<rect x="-5.33325" y="4" width="42.6667" height="2.66667" fill="#000078"/>
<rect x="-5.33325" y="14.6666" width="42.6667" height="2.66667" fill="#000078"/>
<rect x="-5.33325" y="25.3334" width="42.6667" height="2.66667" fill="#000078"/>
</g>

</symbol><symbol id="minus-hover-icon" viewBox="0 -1 48 50">
<path d="M0 24C0 10.7452 10.7452 0 24 0C37.2548 0 48 10.7452 48 24C48 37.2548 37.2548 48 24 48C10.7452 48 0 37.2548 0 24Z" fill="#2d80fc"/>
<path d="M18.3333 24.3333H30.3333" stroke="white" stroke-width="2"/>
<path d="M24 47C11.2975 47 1 36.7025 1 24H-1C-1 37.8071 10.1929 49 24 49V47ZM47 24C47 36.7025 36.7025 47 24 47V49C37.8071 49 49 37.8071 49 24H47ZM24 1C36.7025 1 47 11.2975 47 24H49C49 10.1929 37.8071 -1 24 -1V1ZM24 -1C10.1929 -1 -1 10.1929 -1 24H1C1 11.2975 11.2975 1 24 1V-1Z" fill="#2d80fc"/>
</symbol><symbol id="minus-icon" viewBox="0 -1 48 50">
<path d="M0 24C0 10.7452 10.7452 0 24 0C37.2548 0 48 10.7452 48 24C48 37.2548 37.2548 48 24 48C10.7452 48 0 37.2548 0 24Z" fill="white"/>
<path d="M18.3333 24.3333H30.3333" stroke="#000078" stroke-width="2"/>
<path d="M24 47C11.2975 47 1 36.7025 1 24H-1C-1 37.8071 10.1929 49 24 49V47ZM47 24C47 36.7025 36.7025 47 24 47V49C37.8071 49 49 37.8071 49 24H47ZM24 1C36.7025 1 47 11.2975 47 24H49C49 10.1929 37.8071 -1 24 -1V1ZM24 -1C10.1929 -1 -1 10.1929 -1 24H1C1 11.2975 11.2975 1 24 1V-1Z" fill="#CCCCE4"/>
</symbol><symbol id="ok-icon" viewBox="0 0 36 36">
<path d="M0 18C0 8.05888 8.05888 0 18 0C27.9411 0 36 8.05888 36 18C36 27.9411 27.9411 36 18 36C8.05888 36 0 27.9411 0 18Z" fill="#000078"/>
<path d="M17.9999 10C15.794 10 14 11.794 14 13.9999C14 16.2059 15.794 17.9999 17.9999 17.9999C20.2059 17.9999 21.9999 16.2059 21.9999 13.9999C21.9999 11.794 20.2059 10 17.9999 10ZM17.9999 15.9999C16.897 15.9999 16 15.1029 16 13.9999C16 12.897 16.897 12 17.9999 12C19.1029 12 19.9999 12.897 19.9999 13.9999C19.9999 15.1029 19.1029 15.9999 17.9999 15.9999Z" fill="white"/>
<path d="M23.3039 17.8886C22.9129 17.4976 22.2809 17.4976 21.8899 17.8886C19.7459 20.0326 16.256 20.0326 14.111 17.8886C13.72 17.4976 13.088 17.4976 12.6971 17.8886C12.3061 18.2796 12.3061 18.9116 12.6971 19.3036C13.941 20.5475 15.518 21.2565 17.144 21.4415L14.293 24.2925C13.902 24.6835 13.902 25.3155 14.293 25.7065C14.684 26.0975 15.316 26.0975 15.707 25.7065L18 23.4135L20.2929 25.7065C20.4879 25.9015 20.7439 25.9995 20.9999 25.9995C21.2559 25.9995 21.5119 25.9015 21.7069 25.7065C22.0979 25.3155 22.0979 24.6835 21.7069 24.2925L18.856 21.4415C20.4819 21.2565 22.0589 20.5475 23.3029 19.3036C23.6939 18.9126 23.6939 18.2796 23.3039 17.8886Z" fill="white"/>
</symbol><symbol id="pdf-hover-icon" viewBox="0 0 22 24">
<path d="M4.59998 12.8H3.79998V11.2H4.59998C5.0418 11.2 5.39998 11.5582 5.39998 12C5.39998 12.4418 5.0418 12.8 4.59998 12.8Z" fill="#2d80fc"/>
<path d="M10.2 16V11.2H11C11.4418 11.2 11.8 11.5582 11.8 12V15.2C11.8 15.6418 11.4418 16 11 16H10.2Z" fill="#2d80fc"/>
<path fill-rule="evenodd" clip-rule="evenodd" d="M0.599976 2.4C0.599976 1.07452 1.67449 0 2.99998 0H16.1313L21.4 5.26863V21.6C21.4 22.9255 20.3255 24 19 24H2.99998C1.67449 24 0.599976 22.9255 0.599976 21.6V2.4ZM4.59998 9.6H2.19998V17.6H3.79998V14.4H4.59998C5.92546 14.4 6.99998 13.3255 6.99998 12C6.99998 10.6745 5.92546 9.6 4.59998 9.6ZM11 9.6H8.59998V17.6H11C12.3255 17.6 13.4 16.5255 13.4 15.2V12C13.4 10.6745 12.3255 9.6 11 9.6ZM15 17.6V9.6H19.8V11.2H16.6V12.8H18.2V14.4H16.6V17.6H15Z" fill="#2d80fc"/>
</symbol><symbol id="pdf-icon" viewBox="0 0 22 24">
<path d="M4.59998 12.8H3.79998V11.2H4.59998C5.0418 11.2 5.39998 11.5582 5.39998 12C5.39998 12.4418 5.0418 12.8 4.59998 12.8Z" fill="#000078"/>
<path d="M10.2 16V11.2H11C11.4418 11.2 11.8 11.5582 11.8 12V15.2C11.8 15.6418 11.4418 16 11 16H10.2Z" fill="#000078"/>
<path fill-rule="evenodd" clip-rule="evenodd" d="M0.599976 2.4C0.599976 1.07452 1.67449 0 2.99998 0H16.1313L21.4 5.26863V21.6C21.4 22.9255 20.3255 24 19 24H2.99998C1.67449 24 0.599976 22.9255 0.599976 21.6V2.4ZM4.59998 9.6H2.19998V17.6H3.79998V14.4H4.59998C5.92546 14.4 6.99998 13.3255 6.99998 12C6.99998 10.6745 5.92546 9.6 4.59998 9.6ZM11 9.6H8.59998V17.6H11C12.3255 17.6 13.4 16.5255 13.4 15.2V12C13.4 10.6745 12.3255 9.6 11 9.6ZM15 17.6V9.6H19.8V11.2H16.6V12.8H18.2V14.4H16.6V17.6H15Z" fill="#000078"/>
</symbol><symbol id="pen-hover-icon" viewBox="0 0 24 24">
<path d="M9.92661 17.2488L6.75117 14.0734L14.4315 6.39305L17.607 9.56848L9.92661 17.2488ZM6.45435 14.6327L9.36726 17.5456L5 19L6.45435 14.6327ZM18.5836 8.596L18.0329 9.14678L14.8532 5.96714L15.404 5.41636C15.9588 4.86121 16.8585 4.86121 17.4133 5.41636L18.5836 6.58667C19.1344 7.14333 19.1344 8.03951 18.5836 8.596Z" fill="#2d80fc"/>
</symbol><symbol id="pen-icon" viewBox="0 0 24 24">
<path d="M9.92661 17.2488L6.75117 14.0734L14.4315 6.39305L17.607 9.56848L9.92661 17.2488ZM6.45435 14.6327L9.36726 17.5456L5 19L6.45435 14.6327ZM18.5836 8.596L18.0329 9.14678L14.8532 5.96714L15.404 5.41636C15.9588 4.86121 16.8585 4.86121 17.4133 5.41636L18.5836 6.58667C19.1344 7.14333 19.1344 8.03951 18.5836 8.596Z" fill="#000078"/>
</symbol><symbol id="plus-hover-icon" viewBox="0 -1 48 50">
  <path d="M0 24C0 10.7452 10.7452 0 24 0C37.2548 0 48 10.7452 48 24C48 37.2548 37.2548 48 24 48C10.7452 48 0 37.2548 0 24Z" fill="#2d80fc"/>
  <path d="M18.3333 24.3333L30.3333 24.3333M24.3333 30.3333L24.3333 18.3333" stroke="white" stroke-width="2"/>
  <path d="M24 47C11.2975 47 1 36.7025 1 24H-1C-1 37.8071 10.1929 49 24 49V47ZM47 24C47 36.7025 36.7025 47 24 47V49C37.8071 49 49 37.8071 49 24H47ZM24 1C36.7025 1 47 11.2975 47 24H49C49 10.1929 37.8071 -1 24 -1V1ZM24 -1C10.1929 -1 -1 10.1929 -1 24H1C1 11.2975 11.2975 1 24 1V-1Z" fill="#2d80fc"/>
</symbol><symbol id="plus-icon" viewBox="0 -1 48 50">
  <path d="M0 24C0 10.7452 10.7452 0 24 0C37.2548 0 48 10.7452 48 24C48 37.2548 37.2548 48 24 48C10.7452 48 0 37.2548 0 24Z" fill="white"/>
  <path d="M18.3333 24.3333L30.3333 24.3333M24.3333 30.3333L24.3333 18.3333" stroke="#000078" stroke-width="2"/>
  <path d="M24 47C11.2975 47 1 36.7025 1 24H-1C-1 37.8071 10.1929 49 24 49V47ZM47 24C47 36.7025 36.7025 47 24 47V49C37.8071 49 49 37.8071 49 24H47ZM24 1C36.7025 1 47 11.2975 47 24H49C49 10.1929 37.8071 -1 24 -1V1ZM24 -1C10.1929 -1 -1 10.1929 -1 24H1C1 11.2975 11.2975 1 24 1V-1Z" fill="#CCCCE4"/>
</symbol><symbol id="rss-icon" viewBox="0 0 36 36">
<path d="M0 18C0 8.05888 8.05888 0 18 0C27.9411 0 36 8.05888 36 18C36 27.9411 27.9411 36 18 36C8.05888 36 0 27.9411 0 18Z" fill="#000078"/>
<path d="M14 23.9986C15.1046 23.9986 16 23.1032 16 21.9986C16 20.8941 15.1046 19.9987 14 19.9987C12.8954 19.9987 12 20.8941 12 21.9986C12 23.1032 12.8954 23.9986 14 23.9986Z" fill="white"/>
<path d="M12 14.6666V17.3336C15.676 17.3336 18.667 20.3235 18.667 23.9995H21.333C21.333 18.8536 17.146 14.6666 12 14.6666Z" fill="white"/>
<path d="M12 10V12.667C18.25 12.667 23.334 17.7499 23.334 23.9998H26C26 16.2799 19.72 10 12 10Z" fill="white"/>
</symbol><symbol id="search-icon" viewBox="0 0 24 24">
<path fill-rule="evenodd" clip-rule="evenodd" d="M5.00001 10.9999C5.00001 7.6909 7.69103 4.99989 11 4.99989C14.3091 4.99989 17.0001 7.6909 17.0001 10.9999C17.0001 14.3089 14.3091 16.9999 11 16.9999C7.69103 16.9999 5.00001 14.3089 5.00001 10.9999ZM20.7071 19.2931L17.3121 15.8971C18.3651 14.5431 19.0001 12.846 19.0001 11C19.0001 6.58902 15.4111 3 11 3C6.58902 3 3 6.58902 3 11C3 15.4111 6.58902 19.0001 11 19.0001C12.846 19.0001 14.5431 18.3651 15.8971 17.3121L19.2931 20.7071C19.4881 20.9021 19.7441 21.0001 20.0001 21.0001C20.2561 21.0001 20.5121 20.9021 20.7071 20.7071C21.0981 20.3161 21.0981 19.6841 20.7071 19.2931Z" fill="#000078"/>
</symbol><symbol id="secure-icon" viewBox="0 0 86 36">
<g clip-path="url(#clip0)">
<path d="M31.5771 11.173C31.3254 11.2939 30.9863 11.3159 31.1613 11.8108C31.9053 13.9992 32.0038 16.2426 31.7412 18.519C31.3911 21.5982 30.1766 24.3145 28.1634 26.6129C24.498 30.7808 19.8588 32.5733 14.3333 31.9355C11.215 31.5726 8.4687 30.3299 6.16005 28.2404C1.99135 24.4904 0.273537 19.7397 1.01756 14.1862C1.53181 10.3482 3.31527 7.10404 6.31323 4.64069C11.0509 0.72573 16.3247 -0.110049 22.069 1.9794C22.7364 2.22133 23.3819 2.52925 23.9837 2.89216C24.4323 3.16708 24.487 2.68321 24.684 2.51826C24.9137 2.32031 24.6402 2.25433 24.5198 2.18834C21.0076 0.197869 17.2547 -0.450959 13.3048 0.30784C9.14707 1.09963 5.7771 3.24406 3.22774 6.64216C1.4771 8.98454 0.415776 11.6238 0.0984733 14.5491C-0.021883 14.714 0.131298 14.934 0 15.0989C0 16.0117 0 16.9354 0 17.8482C0.109415 18.0242 0.0328244 18.2221 0.0547074 18.409C0.0656489 19.0909 0.131298 19.7507 0.29542 20.4105C1.14886 23.8086 2.88855 26.6789 5.50356 28.9882C6.71807 30.066 8.07481 30.9567 9.57379 31.6165C11.0947 32.2874 12.6702 32.7712 14.3333 32.9032C15.6463 32.9032 16.9593 32.9032 18.2723 32.9032C18.327 32.8152 18.4145 32.8042 18.502 32.7932C20.3183 32.5623 22.069 32.0454 23.6883 31.2097C27.2115 29.3841 29.8265 26.6789 31.3911 22.9948C32.9776 19.2558 33.1636 15.4288 31.971 11.5359C31.9272 11.3709 31.9819 10.975 31.5771 11.173Z" fill="#000078"/>
<path d="M42.4858 14.307C43.0766 14.5819 43.7003 14.6919 44.2692 14.6589C45.1227 14.6699 45.8667 14.5489 46.5451 14.142C47.3219 13.6692 47.7486 12.9983 47.7268 12.0636C47.6939 11.1508 47.2344 10.524 46.4357 10.1281C46.1184 9.97415 45.8011 9.87517 45.4619 9.79819C44.6522 9.61124 43.8097 9.51227 43.0438 9.13837C42.5843 8.91842 42.2122 8.59951 42.2232 8.01666C42.2341 7.41182 42.5733 7.03792 43.1094 6.81798C43.8535 6.52106 44.5975 6.52106 45.3415 6.83998C45.812 7.04892 46.2278 7.38983 46.2715 7.90669C46.3262 8.53353 46.6873 8.48954 47.125 8.48954C47.4204 8.48954 47.4423 8.36857 47.4095 8.12663C47.3 7.18089 46.8405 6.44408 45.9761 6.07018C44.6631 5.49833 43.3283 5.56431 42.1138 6.33411C40.7242 7.21388 40.8664 9.21535 42.3435 9.96315C42.8687 10.2271 43.4268 10.37 43.9957 10.491C44.6522 10.645 45.3196 10.7329 45.9214 11.0519C46.8843 11.5687 46.9499 12.6794 46.0636 13.3283C45.1774 13.9661 43.5909 13.9441 42.7156 13.2843C42.3873 13.0313 42.0809 12.7124 42.0591 12.3055C42.0153 11.6237 41.6105 11.6677 41.14 11.6787C40.8993 11.6897 40.8883 11.7777 40.9102 11.9756C41.0306 13.0313 41.4901 13.8561 42.4858 14.307Z" fill="#000078"/>
<path d="M71.9511 5.96037C71.6448 5.98236 71.3603 5.89439 71.3822 6.41125C71.4259 7.70891 71.4041 9.00656 71.3931 10.3152C71.3822 11.129 71.2728 11.9208 70.857 12.6356C70.2771 13.6143 69.2924 13.9992 68.1216 13.7133C67.1916 13.4934 66.7321 12.8665 66.6555 11.6679C66.6445 11.4699 66.6445 11.261 66.6445 11.063C66.6445 9.49043 66.6445 7.91785 66.6445 6.33427C66.6445 6.12532 66.6774 5.88339 66.3601 5.97137C66.1084 6.03735 65.627 5.71843 65.627 6.2133C65.616 8.28075 65.4957 10.3592 65.6817 12.4157C65.7911 13.6253 66.5351 14.3731 67.7277 14.5931C69.2267 14.857 70.5069 14.4941 71.4697 12.9875C71.4697 13.4494 71.5025 13.7353 71.4588 14.0212C71.3931 14.5051 71.6995 14.4281 71.9949 14.4501C72.345 14.4831 72.4544 14.3731 72.4435 14.0102C72.4216 11.4809 72.4216 8.95158 72.4435 6.42225C72.4435 6.00436 72.3013 5.93837 71.9511 5.96037Z" fill="#000078"/>
<path d="M33.1746 1.42949C31.9601 2.84811 30.7456 4.25574 29.553 5.67436C29.3451 5.92729 29.2138 5.94929 28.9621 5.72935C28.4588 5.28946 27.9227 4.87157 27.3866 4.45368C26.4784 3.73887 26.4784 3.73887 25.8329 4.69562C25.7235 4.84958 25.7016 4.95955 25.8329 5.11351C26.9817 6.53213 28.1087 7.95076 29.2794 9.40237C29.3998 9.24841 29.4983 9.11645 29.5858 8.98448C30.9425 6.99401 32.2993 5.01454 33.656 3.02406C34.3453 2.01233 34.3453 2.01233 33.5247 1.0116C33.4044 1.16556 33.284 1.29752 33.1746 1.42949Z" fill="#000078"/>
<path d="M61.4582 14.6372C62.9135 14.4393 63.931 13.4385 64.2811 11.833C64.314 11.69 64.4234 11.503 64.2483 11.3931C63.942 11.1951 63.3292 11.4591 63.2417 11.8C62.9791 12.7347 62.443 13.4495 61.4692 13.7025C60.5173 13.9444 59.6748 13.7025 58.9745 12.9876C57.6178 11.602 57.6068 8.80875 58.9526 7.41212C60.0468 6.27942 62.4211 6.19145 63.0448 8.08295C63.2198 8.6328 63.5262 8.65479 63.9638 8.6328C64.2593 8.6218 64.2921 8.53383 64.2374 8.2699C64.0733 7.42312 63.6903 6.70831 62.9353 6.26843C61.6771 5.53162 60.3532 5.47664 59.073 6.12546C57.4318 6.95025 56.9285 8.45685 56.8847 10.1834C56.8628 11.0852 57.0598 11.9319 57.4865 12.7237C58.2414 14.1423 59.7733 14.8682 61.4582 14.6372Z" fill="#000078"/>
<path d="M42.803 22.5439C43.2953 22.6539 43.7986 22.7089 44.3238 22.6319C45.604 22.4449 45.604 22.4559 45.604 21.1583C45.604 19.8716 45.604 19.8716 44.3348 19.8716C44.2472 19.8716 44.1488 19.8826 44.0612 19.8716C43.7439 19.8386 43.6455 19.9816 43.6673 20.2895C43.6783 20.5644 43.6564 20.8284 44.0503 20.7734C44.4551 20.7184 44.5208 20.9163 44.5317 21.2792C44.5427 21.6751 44.3457 21.7411 44.0393 21.7301C43.8533 21.7191 43.6783 21.7301 43.4923 21.7081C42.7482 21.5982 42.2559 21.0263 42.234 20.2895C42.2231 19.5197 42.6717 18.9918 43.4376 18.8379C43.9299 18.7389 44.4223 18.7829 44.8928 18.9259C45.3523 19.0578 45.221 18.6729 45.3195 18.486C45.4399 18.255 45.4289 18.0681 45.1225 18.0021C44.1925 17.7932 43.2844 17.7712 42.3981 18.1781C41.4462 18.6069 40.932 19.5307 41.0414 20.5754C41.1399 21.5542 41.8073 22.324 42.803 22.5439Z" fill="#000078"/>
<path d="M78.352 6.14726C78.4395 5.86134 78.2425 5.85034 78.0018 5.85034C76.6889 5.90533 75.8135 6.58715 75.168 7.87381C75.168 7.26897 75.1352 6.81809 75.1789 6.3782C75.2336 5.87234 74.9163 5.9933 74.6428 5.97131C74.3145 5.93832 74.1723 6.0043 74.1723 6.4002C74.1942 8.92953 74.2051 11.4589 74.1723 13.9772C74.1614 14.4501 74.3583 14.4501 74.7084 14.4501C75.0804 14.4501 75.2993 14.4391 75.2774 13.9442C75.2336 12.6795 75.2665 11.4149 75.2665 10.1502C75.2665 8.19272 76.1308 7.19199 78.0675 6.90606C78.6474 6.82908 78.2644 6.4002 78.352 6.14726Z" fill="#000078"/>
<path d="M65.0579 19.9487C64.7297 19.8058 64.3795 19.6958 64.0404 19.5528C63.8544 19.4759 63.6574 19.3549 63.6902 19.113C63.7231 18.86 63.9528 18.783 64.1717 18.7391C64.5218 18.6731 64.8719 18.7391 65.1892 18.86C65.419 18.948 65.4956 18.915 65.5722 18.6841C65.791 18.0682 65.7582 17.9803 65.1126 17.8703C64.8938 17.8373 64.675 17.8373 64.4561 17.8263V17.8373C64.3467 17.8373 64.2373 17.8373 64.1279 17.8373C63.2635 17.8703 62.6398 18.3542 62.5304 19.058C62.421 19.7618 62.804 20.2786 63.7012 20.5976C63.9528 20.6855 64.2154 20.7735 64.4671 20.8835C64.6421 20.9605 64.7734 21.0924 64.7516 21.3124C64.7297 21.5543 64.5765 21.6643 64.3577 21.7083C63.92 21.7962 63.4823 21.7523 63.0666 21.5873C62.8587 21.5103 62.6289 21.3784 62.607 21.7523C62.5961 22.0052 62.2131 22.3241 62.7602 22.5001C63.4714 22.731 64.1826 22.786 64.9047 22.544C65.5394 22.3351 65.9114 21.8622 65.9332 21.2684C65.9661 20.6196 65.6269 20.1907 65.0579 19.9487Z" fill="#000078"/>
<path d="M76.2401 20.696C76.2073 20.0911 76.1088 19.5083 75.4742 19.2334C74.8615 18.9694 74.3035 19.1124 73.7892 19.6073C73.6032 19.1674 73.5266 19.1454 73.1218 19.1784C72.7279 19.2114 72.903 19.4973 72.892 19.6733C72.8702 20.498 72.903 21.3228 72.8702 22.1476C72.8592 22.5215 72.9905 22.6095 73.3406 22.6095C73.7017 22.6095 73.8658 22.5325 73.844 22.1256C73.8111 21.6527 73.8221 21.1689 73.844 20.696C73.8549 20.2011 74.1831 19.8492 74.588 19.8492C74.9928 19.8382 75.2663 20.1461 75.2882 20.663C75.3101 21.1799 75.3211 21.6857 75.2882 22.2026C75.2663 22.5985 75.4742 22.6095 75.7587 22.5985C76.0104 22.5875 76.2839 22.6535 76.2511 22.2356C76.2292 21.7187 76.262 21.2128 76.2401 20.696Z" fill="#000078"/>
<path d="M48.3174 25.9198C47.7375 25.9308 47.1576 25.9198 46.5667 25.9198C46.4136 25.9198 46.2494 25.9528 46.2385 26.1397C46.2385 26.3597 46.4245 26.3817 46.5996 26.3817C46.9169 26.3817 47.2342 26.3817 47.6062 26.3817C47.0591 27.1515 45.8555 27.2065 45.3413 26.5576C45.0678 26.2057 45.1115 25.7878 45.5054 25.5019C45.9978 25.139 46.5667 25.073 47.1029 25.3479C47.4858 25.5349 47.8469 25.5459 48.2517 25.5019C48.2408 25.4469 48.2517 25.3919 48.2298 25.3809C48.1423 25.3149 48.0657 25.238 47.9673 25.194C46.9606 24.6661 45.9321 24.6441 44.9365 25.194C44.083 25.6669 44.083 26.5796 44.9365 27.0415C45.9321 27.5804 46.9606 27.5584 47.9673 27.0305C48.2627 26.8765 48.4924 26.6346 48.569 26.2827C48.6019 26.0957 48.6019 25.9088 48.3174 25.9198Z" fill="#000078"/>
<path d="M51.9502 25.128C51.9173 25.007 51.8845 24.875 51.7313 24.842C51.5563 24.8091 51.4687 24.93 51.3921 25.051C51.1405 25.4469 50.8779 25.8318 50.5825 26.2937C50.298 25.8428 50.0463 25.4469 49.7837 25.062C49.6087 24.8091 49.3899 24.6661 49.2476 25.073C49.0069 25.7438 48.81 26.4256 48.6021 27.1074C48.5364 27.3164 48.613 27.3934 48.8318 27.4154C49.182 27.4483 49.3789 27.3494 49.4446 26.9865C49.4993 26.7115 49.554 26.4256 49.729 26.1507C49.8932 26.4146 50.0354 26.6456 50.1886 26.8765C50.484 27.3494 50.6919 27.3384 51.0092 26.8545C51.1624 26.6236 51.2499 26.3486 51.5125 26.1617C51.611 26.5246 51.6985 26.8325 51.797 27.1514C51.9173 27.5473 52.2456 27.4154 52.4863 27.3824C52.8145 27.3274 52.5738 27.0854 52.5301 26.9535C52.3441 26.3376 52.1471 25.7328 51.9502 25.128Z" fill="#000078"/>
<path d="M61.699 20.1136C61.699 19.3988 61.6771 18.6839 61.7099 17.9691C61.7209 17.5952 61.513 17.6062 61.2613 17.6062C60.9987 17.6062 60.758 17.5732 60.769 17.9801C60.7909 19.3878 60.7909 20.8064 60.769 22.214C60.758 22.6099 60.9659 22.5989 61.2504 22.5989C61.5458 22.6099 61.7318 22.5769 61.7099 22.192C61.6771 21.4992 61.699 20.8064 61.699 20.1136Z" fill="#000078"/>
<path d="M46.9498 17.6063C46.6872 17.6173 46.4575 17.5733 46.4684 17.9912C46.5012 18.684 46.4793 19.3768 46.4793 20.0696C46.4793 20.7954 46.4903 21.5322 46.4684 22.258C46.4575 22.6429 46.6982 22.588 46.9279 22.599C47.1796 22.61 47.3766 22.621 47.3766 22.2471C47.3547 20.8174 47.3547 19.3988 47.3766 17.9692C47.3875 17.6173 47.2124 17.5953 46.9498 17.6063Z" fill="#000078"/>
<path d="M36.709 37.4999C36.7273 37.4999 36.7421 28.3076 36.7421 16.9683C36.7421 5.62906 36.7273 -3.56323 36.709 -3.56323C36.6906 -3.56323 36.6758 5.62906 36.6758 16.9683C36.6758 28.3076 36.6906 37.4999 36.709 37.4999Z" fill="#000078"/>
<path d="M67.1588 19.1788C66.8415 19.1788 66.7102 19.2448 66.7102 19.5967C66.7321 20.4325 66.7321 21.2793 66.7102 22.1151C66.6993 22.5 66.8087 22.6099 67.1916 22.6099C67.5636 22.6099 67.6512 22.478 67.6293 22.1371C67.6074 21.7192 67.6184 21.3013 67.6184 20.8834C67.6184 20.4655 67.5965 20.0476 67.6293 19.6297C67.6731 19.2228 67.4871 19.1788 67.1588 19.1788Z" fill="#000078"/>
<path d="M67.1698 17.6943C66.8743 17.6943 66.6555 17.8593 66.6555 18.2002C66.6555 18.5301 66.8634 18.6731 67.1698 18.717C67.4761 18.695 67.7059 18.5521 67.7168 18.2332C67.7278 17.8703 67.498 17.6833 67.1698 17.6943Z" fill="#000078"/>
<path d="M43.7552 26.1401C43.3613 25.9971 43.5363 26.525 43.2956 26.7339C43.2628 26.6239 43.2409 26.5579 43.219 26.492C43.1424 26.338 43.1753 26.0081 42.8908 26.1071C42.6391 26.206 42.9127 26.404 42.9236 26.5689C42.9455 26.8439 43.2518 27.0968 43.0549 27.3827C42.9783 27.4927 42.847 27.5587 42.9892 27.6686C43.1534 27.8006 43.3284 27.7126 43.405 27.5697C43.5254 27.3277 43.6129 27.0638 43.6676 26.7999C43.7114 26.5799 43.963 26.217 43.7552 26.1401Z" fill="#000078"/>
<path d="M86 9.38015C85.814 9.14921 85.8468 8.84129 85.7702 8.57736C85.3544 6.9388 84.129 5.8171 82.63 5.74012C80.7481 5.64114 79.4132 6.45493 78.8114 8.10449C78.2972 9.51212 78.3081 10.9417 78.8005 12.3494C79.1397 13.3061 79.7414 14.0649 80.7152 14.3948C82.5425 15.0217 85.0699 14.7907 85.8249 12.0524C85.8468 11.9645 85.8796 11.8765 85.9124 11.7885C85.989 11.5246 85.803 11.4806 85.617 11.4366C85.0918 11.3266 84.7855 11.4916 84.5666 12.0414C84.1837 12.9982 83.5053 13.548 82.4659 13.603C81.131 13.669 80.1135 12.8552 79.7852 11.4476C79.6211 10.7438 79.6977 10.6338 80.4089 10.6228C81.9954 10.6228 83.571 10.6228 85.1575 10.6228C85.4091 10.6228 85.6717 10.6668 85.9015 10.5019C85.9124 10.4909 85.9124 10.4799 85.9124 10.4689C85.9015 10.4689 85.9015 10.4689 85.8905 10.4689C85.9343 10.2159 85.7811 9.93001 86 9.71006C86 9.60009 86 9.49012 86 9.38015ZM84.5776 9.60009C83.8007 9.60009 83.0129 9.60009 82.2361 9.60009C81.4374 9.60009 80.6386 9.60009 79.8399 9.60009C79.6758 9.60009 79.5007 9.63308 79.5445 9.35816C79.8509 7.41167 81.2842 6.20199 83.0348 6.74085C84.0305 7.04877 84.8839 8.26945 84.9168 9.33616C84.9168 9.64408 84.7526 9.60009 84.5776 9.60009Z" fill="#000078"/>
<path d="M52.7708 14.6588C54.3682 14.6149 55.6703 13.5371 55.9985 11.9756C56.0204 11.8656 56.1079 11.7336 55.9329 11.6456C55.5937 11.4807 55.0357 11.7006 54.8934 12.0635C54.5871 12.8223 54.1275 13.4492 53.296 13.6691C51.0311 14.2849 49.7619 12.5584 49.6525 10.7879C49.6306 10.458 49.8275 10.491 50.0354 10.491C50.9873 10.491 51.9283 10.491 52.8802 10.491C53.8321 10.491 54.7731 10.469 55.725 10.5019C56.086 10.5129 56.1517 10.381 56.1298 10.0621C56.0751 9.32526 55.9876 8.59945 55.6922 7.92863C55.1341 6.65297 54.2151 5.86118 52.8036 5.74021C51.2609 5.60824 50.0135 6.12511 49.2257 7.54373C48.6677 8.55546 48.5036 9.65517 48.6021 10.7769C48.8319 13.4382 50.2214 14.7248 52.7708 14.6588ZM49.6743 9.36925C49.9369 7.75268 51.0311 6.45502 52.6942 6.63097C53.9306 6.76294 55.1232 8.17057 55.0466 9.39124C55.0247 9.68816 54.8497 9.60019 54.7184 9.60019C53.9196 9.61119 53.1209 9.60019 52.3222 9.60019C51.5453 9.60019 50.7575 9.60019 49.9807 9.60019C49.8166 9.60019 49.6306 9.64418 49.6743 9.36925Z" fill="#000078"/>
<path d="M71.8416 19.2118C71.6228 19.1678 71.3383 19.0688 71.1851 19.2998C71.0757 19.4647 71.0648 19.4757 70.8897 19.3878C70.0582 18.9259 69.2376 19.0908 68.7124 19.7947C68.2309 20.4435 68.2638 21.5102 68.789 22.082C69.3579 22.6979 70.1566 22.7419 70.9991 22.181C71.0648 22.6209 70.9772 22.9618 70.6381 23.1818C70.2004 23.4677 69.7299 23.3907 69.2704 23.2367C69.0844 23.1818 68.8874 22.9838 68.778 23.3687C68.6905 23.6766 68.7014 23.8526 69.0406 23.9406C69.4126 24.0395 69.7956 24.0945 70.1785 24.0725C71.2946 24.0065 71.8197 23.5557 71.9073 22.434C71.9839 21.5102 71.951 20.5644 71.951 19.6407C71.951 19.4867 72.0714 19.2558 71.8416 19.2118ZM70.2004 21.8951C69.6971 21.9061 69.2813 21.4332 69.2704 20.8724C69.2704 20.2675 69.6752 19.8056 70.2114 19.8056C70.7584 19.8166 71.0101 20.1576 70.9991 20.8724C71.0101 21.5322 70.7256 21.8951 70.2004 21.8951Z" fill="#000078"/>
<path d="M52.7818 22.5879C53.0663 22.6099 53.4273 22.7199 53.4164 22.203C54.2479 22.8408 55.1342 22.8408 55.7688 22.214C56.3815 21.6092 56.4581 20.3665 55.922 19.6847C55.3968 19.0028 54.5324 18.9479 53.5039 19.5417C53.5039 19.0358 53.482 18.541 53.5149 18.0571C53.5367 17.6832 53.4054 17.6062 53.0553 17.5952C52.6833 17.5952 52.6067 17.7272 52.6067 18.0681C52.6177 19.3987 52.6067 20.7404 52.6177 22.071C52.6177 22.258 52.3988 22.5549 52.7818 22.5879ZM54.4339 19.8276C54.981 19.8386 55.353 20.2785 55.353 20.9053C55.3421 21.5322 54.9701 21.9501 54.4011 21.9501C53.8322 21.9501 53.493 21.5432 53.5039 20.8833C53.5149 20.2235 53.8759 19.8166 54.4339 19.8276Z" fill="#000078"/>
<path d="M49.9478 22.687C51.0857 22.687 51.8516 21.9722 51.8625 20.8945C51.8734 19.8167 51.1513 19.1129 50.0353 19.1019C48.9083 19.0909 48.1424 19.8057 48.1315 20.8945C48.1205 21.9722 48.8427 22.687 49.9478 22.687ZM49.9696 19.7838C50.5386 19.7728 50.8997 20.2016 50.8997 20.8945C50.8997 21.5763 50.5277 22.0272 49.9696 22.0162C49.4444 22.0162 49.0287 21.4993 49.0396 20.8725C49.0506 20.2566 49.4335 19.7947 49.9696 19.7838Z" fill="#000078"/>
<path d="M59.8389 21.4221C59.8389 21.4221 59.828 21.4221 59.8389 21.4221C59.8389 21.0922 59.8499 20.7623 59.828 20.4324C59.7842 19.7285 59.4231 19.2997 58.8214 19.1677C58.3071 19.0577 57.8147 19.1127 57.3224 19.2777C57.1254 19.3436 56.9613 19.4096 57.0598 19.6955C57.1473 19.9595 57.2677 19.9815 57.5084 19.8935C57.8476 19.7615 58.2086 19.6736 58.5697 19.8275C58.7448 19.9045 58.9089 20.0255 58.8761 20.2344C58.8432 20.4324 58.6463 20.3664 58.515 20.3664C58.132 20.3774 57.76 20.4544 57.4099 20.6303C56.8956 20.8942 56.6768 21.3671 56.7972 21.906C56.8956 22.3678 57.3552 22.6758 57.9132 22.6758C58.2086 22.6758 58.4931 22.5988 58.7338 22.4338C58.8542 22.3569 58.9198 22.2359 59.0621 22.4558C59.2262 22.7088 59.5435 22.6098 59.7623 22.5438C59.9702 22.4888 59.8389 22.2249 59.8499 22.0599C59.8389 21.851 59.8389 21.631 59.8389 21.4221ZM58.1649 22.0269C57.9132 22.0159 57.6397 21.895 57.6834 21.5651C57.7491 21.0042 58.2415 21.0482 58.6354 20.9602C58.8651 20.9052 58.9636 20.9932 58.9636 21.2461C58.9417 21.664 58.6244 22.0159 58.1649 22.0269Z" fill="#000078"/>
<path d="M56.4361 25.3372C55.5936 24.6224 53.7992 24.6334 52.9676 25.3592C52.4315 25.821 52.4424 26.4589 52.9895 26.8988C53.4819 27.2837 54.0618 27.4046 54.587 27.4266C55.2872 27.4266 55.8671 27.3056 56.3704 26.9427C57.005 26.4919 57.016 25.821 56.4361 25.3372ZM54.6964 27.0197C54.018 27.0087 53.449 26.6128 53.4381 26.129C53.4272 25.6341 54.0071 25.2052 54.7073 25.1942C55.3966 25.1942 55.9984 25.6231 55.9984 26.107C55.9984 26.6018 55.3747 27.0307 54.6964 27.0197Z" fill="#000078"/>
<path d="M42.1246 26.0629C41.9604 26.0849 41.8839 26.0629 41.8839 25.8869C41.8839 25.755 41.8839 25.601 41.6979 25.612C41.479 25.634 41.5556 25.8319 41.5447 25.9639C41.5337 26.1069 41.5447 26.2608 41.5447 26.4478C41.5994 26.7007 41.3915 27.0966 41.665 27.2726C41.862 27.3935 42.234 27.4375 42.4856 27.2286C42.7045 27.0526 42.7592 26.8107 42.6935 26.5358C42.6279 26.2168 42.4528 26.0299 42.1246 26.0629ZM42.1574 26.9976C41.9495 27.0086 41.8839 26.8657 41.8839 26.6787C41.8839 26.5248 41.9276 26.3708 42.1027 26.3488C42.3106 26.3378 42.3762 26.4918 42.3872 26.6567C42.3762 26.8327 42.3543 26.9866 42.1574 26.9976Z" fill="#000078"/>
<path d="M20.5481 12.0636C20.4496 10.0621 18.874 8.36859 17.0468 8.26962C15.0007 8.15965 13.3595 9.52329 13.0094 11.6347C12.8453 12.6355 12.9875 13.6472 12.9219 14.6479C12.9 15.0548 13.0641 15.1318 13.4252 15.1208C14.5302 15.0988 15.6463 15.1098 16.7514 15.1098C17.8783 15.1098 19.0053 15.0988 20.1323 15.1208C20.4605 15.1208 20.5809 15.0438 20.5699 14.6919C20.5481 13.8232 20.5918 12.9434 20.5481 12.0636Z" fill="#000078"/>
<path d="M23.5897 3.508C21.3467 2.29832 18.9615 1.66049 16.0292 1.66049C15.3727 1.64949 14.3442 1.74847 13.3266 1.97941C5.39407 3.76093 0.448524 11.085 1.73962 19.1569C3.04165 27.2947 11.0618 32.9142 19.1256 31.3416C27.9335 29.6261 33.1963 20.8394 30.636 12.1957C30.4938 11.7118 30.2859 11.6458 29.8373 11.7118C27.6928 12.0197 25.9093 11.3049 24.5745 9.60039C23.3053 7.98382 23.0645 6.1473 23.8195 4.22281C23.9727 3.85991 23.9508 3.70595 23.5897 3.508ZM23.4256 15.7038C23.4256 18.3761 23.4256 21.0594 23.4256 23.7316C23.4256 24.5894 23.3053 24.7104 22.4299 24.7104C20.5152 24.7104 18.6004 24.7104 16.6857 24.7104C14.7381 24.7104 12.7796 24.7104 10.832 24.7104C10.088 24.7104 9.93478 24.5564 9.93478 23.8086C9.93478 21.0594 9.93478 18.3101 9.93478 15.5608C9.93478 14.835 10.1098 14.6481 10.8429 14.67C11.2478 14.681 11.3572 14.5711 11.3681 14.1532C11.3791 13.1305 11.2478 12.0967 11.4885 11.085C12.0902 8.54467 14.563 6.74115 17.1014 6.98308C19.8368 7.23601 21.9157 9.41344 22.0032 12.1297C22.0251 12.8225 22.036 13.5264 22.0251 14.2192C22.0142 14.5381 22.0908 14.67 22.4409 14.67C23.3162 14.67 23.4256 14.802 23.4256 15.7038Z" fill="#000078"/>
<path d="M15.7996 17.309C15.165 17.8038 14.9352 18.7386 15.4714 19.2884C16.0075 19.8273 15.8762 20.3772 15.8324 20.971C15.8106 21.2459 15.7668 21.5099 15.7449 21.7848C15.6683 22.7855 15.6683 22.7855 16.6749 22.7855C16.8391 22.7855 17.0032 22.7635 17.1673 22.7855C17.6159 22.8515 17.78 22.6975 17.6816 22.2137C17.5721 21.6088 17.5721 20.982 17.4737 20.3662C17.419 19.9923 17.4737 19.7393 17.7582 19.4644C18.3162 18.9255 18.2833 18.0458 17.7691 17.4849C17.2439 16.9241 16.4014 16.8471 15.7996 17.309Z" fill="#000078"/>
</g>

</symbol><symbol id="twt-icon" viewBox="0 0 36 36">
<path d="M0 18C0 8.05888 8.05888 0 18 0C27.9411 0 36 8.05888 36 18C36 27.9411 27.9411 36 18 36C8.05888 36 0 27.9411 0 18Z" fill="#000078"/>
<path d="M24.9788 12.431C24.9664 12.2459 24.8431 12.0861 24.6658 12.0254C24.4885 11.9647 24.2917 12.0149 24.1662 12.1529C23.8436 12.5075 23.436 12.7478 23.0222 12.8573C22.4468 12.326 21.6736 12 20.8239 12C19.0003 12 17.5233 13.4641 17.5233 15.2687V15.6747C14.7314 15.4613 13.2385 13.3638 12.8356 12.2997C12.7705 12.1277 12.6085 12.0103 12.423 12.0007C12.2376 11.991 12.064 12.0911 11.9811 12.2554C11.0041 14.1908 10.8536 16.068 11.5636 17.6664C12.1856 19.0667 13.4365 20.1821 15.2094 20.921C14.4037 21.4858 13.0475 22.1538 11.4667 22.1538C11.2611 22.1538 11.0798 22.2869 11.0201 22.4815C10.9605 22.6761 11.0366 22.8863 11.2076 22.9992C12.7234 24.0002 14.3121 24.0001 15.7897 24L15.8349 24C20.3715 24 24.0479 20.3573 24.0479 15.8654V15.4239C24.3871 15.0829 24.6512 14.7339 24.813 14.2827C24.9936 13.7792 25.03 13.1954 24.9788 12.431Z" fill="white"/>
</symbol><symbol id="vk-icon" viewBox="0 0 36 36">
<path d="M0 18C0 8.05888 8.05888 0 18 0C27.9411 0 36 8.05888 36 18C36 27.9411 27.9411 36 18 36C8.05888 36 0 27.9411 0 18Z" fill="#000078"/>
<g clip-path="url(#clip0)">
<path d="M25.8572 21.5785C25.8142 21.5065 25.5482 20.9284 24.2681 19.7403C22.928 18.4963 23.1081 18.6983 24.7222 16.5471C25.7052 15.237 26.0983 14.437 25.9753 14.0949C25.8582 13.7689 25.1352 13.8549 25.1352 13.8549L22.731 13.8689C22.731 13.8689 22.553 13.8449 22.42 13.9239C22.291 14.0019 22.208 14.1819 22.208 14.1819C22.208 14.1819 21.827 15.196 21.3189 16.0581C20.2478 17.8772 19.8188 17.9732 19.6438 17.8602C19.2368 17.5972 19.3388 16.8021 19.3388 16.2381C19.3388 14.475 19.6058 13.7399 18.8177 13.5499C18.5557 13.4869 18.3637 13.4449 17.6947 13.4379C16.8366 13.4289 16.1095 13.4409 15.6985 13.6419C15.4245 13.7759 15.2135 14.0749 15.3425 14.0919C15.5015 14.1129 15.8615 14.1889 16.0525 14.449C16.2996 14.784 16.2906 15.538 16.2906 15.538C16.2906 15.538 16.4326 17.6132 15.9595 17.8712C15.6345 18.0482 15.1895 17.6872 14.2344 16.0361C13.7454 15.191 13.3753 14.2559 13.3753 14.2559C13.3753 14.2559 13.3043 14.0819 13.1773 13.9889C13.0233 13.8759 12.8073 13.8399 12.8073 13.8399L10.5211 13.8539C10.5211 13.8539 10.1781 13.8639 10.0521 14.0129C9.9401 14.1459 10.0431 14.4199 10.0431 14.4199C10.0431 14.4199 11.8332 18.6073 13.8594 20.7184C15.7185 22.6536 17.8287 22.5266 17.8287 22.5266H18.7847C18.7847 22.5266 19.0738 22.4945 19.2208 22.3355C19.3568 22.1895 19.3518 21.9155 19.3518 21.9155C19.3518 21.9155 19.3328 20.6324 19.9288 20.4434C20.5159 20.2574 21.2699 21.6835 22.069 22.2325C22.673 22.6476 23.1321 22.5566 23.1321 22.5566L25.2692 22.5266C25.2692 22.5266 26.3873 22.4575 25.8572 21.5785Z" fill="white"/>
</g>

</symbol></svg>