<svg width="36" height="36" viewBox="0 0 36 36" fill="none" xmlns="http://www.w3.org/2000/svg">
<path d="M0 18C0 8.05888 8.05888 0 18 0C27.9411 0 36 8.05888 36 18C36 27.9411 27.9411 36 18 36C8.05888 36 0 27.9411 0 18Z" fill="#000078"/>
<path d="M24.9788 12.431C24.9664 12.2459 24.8431 12.0861 24.6658 12.0254C24.4885 11.9647 24.2917 12.0149 24.1662 12.1529C23.8436 12.5075 23.436 12.7478 23.0222 12.8573C22.4468 12.326 21.6736 12 20.8239 12C19.0003 12 17.5233 13.4641 17.5233 15.2687V15.6747C14.7314 15.4613 13.2385 13.3638 12.8356 12.2997C12.7705 12.1277 12.6085 12.0103 12.423 12.0007C12.2376 11.991 12.064 12.0911 11.9811 12.2554C11.0041 14.1908 10.8536 16.068 11.5636 17.6664C12.1856 19.0667 13.4365 20.1821 15.2094 20.921C14.4037 21.4858 13.0475 22.1538 11.4667 22.1538C11.2611 22.1538 11.0798 22.2869 11.0201 22.4815C10.9605 22.6761 11.0366 22.8863 11.2076 22.9992C12.7234 24.0002 14.3121 24.0001 15.7897 24L15.8349 24C20.3715 24 24.0479 20.3573 24.0479 15.8654V15.4239C24.3871 15.0829 24.6512 14.7339 24.813 14.2827C24.9936 13.7792 25.03 13.1954 24.9788 12.431Z" fill="white"/>
</svg>
