<svg width="36" height="36" viewBox="0 0 36 36" fill="none" xmlns="http://www.w3.org/2000/svg">
<path d="M0 18C0 8.05888 8.05888 0 18 0C27.9411 0 36 8.05888 36 18C36 27.9411 27.9411 36 18 36C8.05888 36 0 27.9411 0 18Z" fill="#000078"/>
<g clip-path="url(#clip0)">
<path d="M25.8572 21.5785C25.8142 21.5065 25.5482 20.9284 24.2681 19.7403C22.928 18.4963 23.1081 18.6983 24.7222 16.5471C25.7052 15.237 26.0983 14.437 25.9753 14.0949C25.8582 13.7689 25.1352 13.8549 25.1352 13.8549L22.731 13.8689C22.731 13.8689 22.553 13.8449 22.42 13.9239C22.291 14.0019 22.208 14.1819 22.208 14.1819C22.208 14.1819 21.827 15.196 21.3189 16.0581C20.2478 17.8772 19.8188 17.9732 19.6438 17.8602C19.2368 17.5972 19.3388 16.8021 19.3388 16.2381C19.3388 14.475 19.6058 13.7399 18.8177 13.5499C18.5557 13.4869 18.3637 13.4449 17.6947 13.4379C16.8366 13.4289 16.1095 13.4409 15.6985 13.6419C15.4245 13.7759 15.2135 14.0749 15.3425 14.0919C15.5015 14.1129 15.8615 14.1889 16.0525 14.449C16.2996 14.784 16.2906 15.538 16.2906 15.538C16.2906 15.538 16.4326 17.6132 15.9595 17.8712C15.6345 18.0482 15.1895 17.6872 14.2344 16.0361C13.7454 15.191 13.3753 14.2559 13.3753 14.2559C13.3753 14.2559 13.3043 14.0819 13.1773 13.9889C13.0233 13.8759 12.8073 13.8399 12.8073 13.8399L10.5211 13.8539C10.5211 13.8539 10.1781 13.8639 10.0521 14.0129C9.9401 14.1459 10.0431 14.4199 10.0431 14.4199C10.0431 14.4199 11.8332 18.6073 13.8594 20.7184C15.7185 22.6536 17.8287 22.5266 17.8287 22.5266H18.7847C18.7847 22.5266 19.0738 22.4945 19.2208 22.3355C19.3568 22.1895 19.3518 21.9155 19.3518 21.9155C19.3518 21.9155 19.3328 20.6324 19.9288 20.4434C20.5159 20.2574 21.2699 21.6835 22.069 22.2325C22.673 22.6476 23.1321 22.5566 23.1321 22.5566L25.2692 22.5266C25.2692 22.5266 26.3873 22.4575 25.8572 21.5785Z" fill="white"/>
</g>
<defs>
<clipPath id="clip0">
<rect width="16" height="16" fill="white" transform="translate(10 10)"/>
</clipPath>
</defs>
</svg>
